G04 #@! TF.FileFunction,Drawing*
%FSLAX46Y46*%
G04 Gerber Fmt 4.6, Leading zero omitted, Abs format (unit mm)*
G04 Created by KiCad (PCBNEW (after 2015-mar-04 BZR unknown)-product) date 2015年08月08日土曜日 23:09:20*
%MOMM*%
G01*
G04 APERTURE LIST*
%ADD10C,0.100000*%
%ADD11C,0.300000*%
%ADD12C,0.200000*%
%ADD13C,0.150000*%
G04 APERTURE END LIST*
D10*
D11*
X71113143Y-4050571D02*
X71113143Y-2550571D01*
X71470286Y-2550571D01*
X71684571Y-2622000D01*
X71827429Y-2764857D01*
X71898857Y-2907714D01*
X71970286Y-3193429D01*
X71970286Y-3407714D01*
X71898857Y-3693429D01*
X71827429Y-3836286D01*
X71684571Y-3979143D01*
X71470286Y-4050571D01*
X71113143Y-4050571D01*
X72470286Y-3050571D02*
X72756000Y-4050571D01*
X73041714Y-3336286D01*
X73327429Y-4050571D01*
X73613143Y-3050571D01*
X74827429Y-3050571D02*
X74827429Y-4264857D01*
X74756000Y-4407714D01*
X74684572Y-4479143D01*
X74541715Y-4550571D01*
X74327429Y-4550571D01*
X74184572Y-4479143D01*
X74827429Y-3979143D02*
X74684572Y-4050571D01*
X74398858Y-4050571D01*
X74256000Y-3979143D01*
X74184572Y-3907714D01*
X74113143Y-3764857D01*
X74113143Y-3336286D01*
X74184572Y-3193429D01*
X74256000Y-3122000D01*
X74398858Y-3050571D01*
X74684572Y-3050571D01*
X74827429Y-3122000D01*
X75470286Y-3979143D02*
X75613143Y-4050571D01*
X75898858Y-4050571D01*
X76041715Y-3979143D01*
X76113143Y-3836286D01*
X76113143Y-3764857D01*
X76041715Y-3622000D01*
X75898858Y-3550571D01*
X75684572Y-3550571D01*
X75541715Y-3479143D01*
X75470286Y-3336286D01*
X75470286Y-3264857D01*
X75541715Y-3122000D01*
X75684572Y-3050571D01*
X75898858Y-3050571D01*
X76041715Y-3122000D01*
X76756001Y-3907714D02*
X76827429Y-3979143D01*
X76756001Y-4050571D01*
X76684572Y-3979143D01*
X76756001Y-3907714D01*
X76756001Y-4050571D01*
X77470287Y-2550571D02*
X77470287Y-3764857D01*
X77541715Y-3907714D01*
X77613144Y-3979143D01*
X77756001Y-4050571D01*
X78041715Y-4050571D01*
X78184573Y-3979143D01*
X78256001Y-3907714D01*
X78327430Y-3764857D01*
X78327430Y-2550571D01*
X78970287Y-3979143D02*
X79113144Y-4050571D01*
X79398859Y-4050571D01*
X79541716Y-3979143D01*
X79613144Y-3836286D01*
X79613144Y-3764857D01*
X79541716Y-3622000D01*
X79398859Y-3550571D01*
X79184573Y-3550571D01*
X79041716Y-3479143D01*
X78970287Y-3336286D01*
X78970287Y-3264857D01*
X79041716Y-3122000D01*
X79184573Y-3050571D01*
X79398859Y-3050571D01*
X79541716Y-3122000D01*
X80827430Y-3979143D02*
X80684573Y-4050571D01*
X80398859Y-4050571D01*
X80256002Y-3979143D01*
X80184573Y-3836286D01*
X80184573Y-3264857D01*
X80256002Y-3122000D01*
X80398859Y-3050571D01*
X80684573Y-3050571D01*
X80827430Y-3122000D01*
X80898859Y-3264857D01*
X80898859Y-3407714D01*
X80184573Y-3550571D01*
X81541716Y-4050571D02*
X81541716Y-3050571D01*
X81541716Y-3336286D02*
X81613144Y-3193429D01*
X81684573Y-3122000D01*
X81827430Y-3050571D01*
X81970287Y-3050571D01*
X83827430Y-4050571D02*
X83684572Y-3979143D01*
X83613144Y-3836286D01*
X83613144Y-2550571D01*
X85041715Y-4050571D02*
X85041715Y-3264857D01*
X84970286Y-3122000D01*
X84827429Y-3050571D01*
X84541715Y-3050571D01*
X84398858Y-3122000D01*
X85041715Y-3979143D02*
X84898858Y-4050571D01*
X84541715Y-4050571D01*
X84398858Y-3979143D01*
X84327429Y-3836286D01*
X84327429Y-3693429D01*
X84398858Y-3550571D01*
X84541715Y-3479143D01*
X84898858Y-3479143D01*
X85041715Y-3407714D01*
X85613144Y-3050571D02*
X85970287Y-4050571D01*
X86327429Y-3050571D02*
X85970287Y-4050571D01*
X85827429Y-4407714D01*
X85756001Y-4479143D01*
X85613144Y-4550571D01*
X86898858Y-4050571D02*
X86898858Y-3050571D01*
X86898858Y-3336286D02*
X86970286Y-3193429D01*
X87041715Y-3122000D01*
X87184572Y-3050571D01*
X87327429Y-3050571D01*
X88398857Y-3979143D02*
X88256000Y-4050571D01*
X87970286Y-4050571D01*
X87827429Y-3979143D01*
X87756000Y-3836286D01*
X87756000Y-3264857D01*
X87827429Y-3122000D01*
X87970286Y-3050571D01*
X88256000Y-3050571D01*
X88398857Y-3122000D01*
X88470286Y-3264857D01*
X88470286Y-3407714D01*
X87756000Y-3550571D01*
X72470285Y-4950571D02*
X72970285Y-6450571D01*
X73470285Y-4950571D01*
X74613142Y-6379143D02*
X74470285Y-6450571D01*
X74184571Y-6450571D01*
X74041713Y-6379143D01*
X73970285Y-6307714D01*
X73898856Y-6164857D01*
X73898856Y-5736286D01*
X73970285Y-5593429D01*
X74041713Y-5522000D01*
X74184571Y-5450571D01*
X74470285Y-5450571D01*
X74613142Y-5522000D01*
X75898856Y-5450571D02*
X75898856Y-6450571D01*
X75255999Y-5450571D02*
X75255999Y-6236286D01*
X75327427Y-6379143D01*
X75470285Y-6450571D01*
X75684570Y-6450571D01*
X75827427Y-6379143D01*
X75898856Y-6307714D01*
X76398856Y-5450571D02*
X76970285Y-5450571D01*
X76613142Y-4950571D02*
X76613142Y-6236286D01*
X76684570Y-6379143D01*
X76827428Y-6450571D01*
X76970285Y-6450571D01*
X78613142Y-5450571D02*
X78613142Y-6950571D01*
X78613142Y-5522000D02*
X78755999Y-5450571D01*
X79041713Y-5450571D01*
X79184570Y-5522000D01*
X79255999Y-5593429D01*
X79327428Y-5736286D01*
X79327428Y-6164857D01*
X79255999Y-6307714D01*
X79184570Y-6379143D01*
X79041713Y-6450571D01*
X78755999Y-6450571D01*
X78613142Y-6379143D01*
X80184571Y-6450571D02*
X80041713Y-6379143D01*
X79970285Y-6307714D01*
X79898856Y-6164857D01*
X79898856Y-5736286D01*
X79970285Y-5593429D01*
X80041713Y-5522000D01*
X80184571Y-5450571D01*
X80398856Y-5450571D01*
X80541713Y-5522000D01*
X80613142Y-5593429D01*
X80684571Y-5736286D01*
X80684571Y-6164857D01*
X80613142Y-6307714D01*
X80541713Y-6379143D01*
X80398856Y-6450571D01*
X80184571Y-6450571D01*
X81255999Y-6379143D02*
X81398856Y-6450571D01*
X81684571Y-6450571D01*
X81827428Y-6379143D01*
X81898856Y-6236286D01*
X81898856Y-6164857D01*
X81827428Y-6022000D01*
X81684571Y-5950571D01*
X81470285Y-5950571D01*
X81327428Y-5879143D01*
X81255999Y-5736286D01*
X81255999Y-5664857D01*
X81327428Y-5522000D01*
X81470285Y-5450571D01*
X81684571Y-5450571D01*
X81827428Y-5522000D01*
X82541714Y-6450571D02*
X82541714Y-5450571D01*
X82541714Y-4950571D02*
X82470285Y-5022000D01*
X82541714Y-5093429D01*
X82613142Y-5022000D01*
X82541714Y-4950571D01*
X82541714Y-5093429D01*
X83041714Y-5450571D02*
X83613143Y-5450571D01*
X83256000Y-4950571D02*
X83256000Y-6236286D01*
X83327428Y-6379143D01*
X83470286Y-6450571D01*
X83613143Y-6450571D01*
X84113143Y-6450571D02*
X84113143Y-5450571D01*
X84113143Y-4950571D02*
X84041714Y-5022000D01*
X84113143Y-5093429D01*
X84184571Y-5022000D01*
X84113143Y-4950571D01*
X84113143Y-5093429D01*
X85041715Y-6450571D02*
X84898857Y-6379143D01*
X84827429Y-6307714D01*
X84756000Y-6164857D01*
X84756000Y-5736286D01*
X84827429Y-5593429D01*
X84898857Y-5522000D01*
X85041715Y-5450571D01*
X85256000Y-5450571D01*
X85398857Y-5522000D01*
X85470286Y-5593429D01*
X85541715Y-5736286D01*
X85541715Y-6164857D01*
X85470286Y-6307714D01*
X85398857Y-6379143D01*
X85256000Y-6450571D01*
X85041715Y-6450571D01*
X86184572Y-5450571D02*
X86184572Y-6450571D01*
X86184572Y-5593429D02*
X86256000Y-5522000D01*
X86398858Y-5450571D01*
X86613143Y-5450571D01*
X86756000Y-5522000D01*
X86827429Y-5664857D01*
X86827429Y-6450571D01*
X165601143Y50813429D02*
X165601143Y52313429D01*
X165958286Y52313429D01*
X166172571Y52242000D01*
X166315429Y52099143D01*
X166386857Y51956286D01*
X166458286Y51670571D01*
X166458286Y51456286D01*
X166386857Y51170571D01*
X166315429Y51027714D01*
X166172571Y50884857D01*
X165958286Y50813429D01*
X165601143Y50813429D01*
X166958286Y51813429D02*
X167244000Y50813429D01*
X167529714Y51527714D01*
X167815429Y50813429D01*
X168101143Y51813429D01*
X169315429Y51813429D02*
X169315429Y50599143D01*
X169244000Y50456286D01*
X169172572Y50384857D01*
X169029715Y50313429D01*
X168815429Y50313429D01*
X168672572Y50384857D01*
X169315429Y50884857D02*
X169172572Y50813429D01*
X168886858Y50813429D01*
X168744000Y50884857D01*
X168672572Y50956286D01*
X168601143Y51099143D01*
X168601143Y51527714D01*
X168672572Y51670571D01*
X168744000Y51742000D01*
X168886858Y51813429D01*
X169172572Y51813429D01*
X169315429Y51742000D01*
X169958286Y50884857D02*
X170101143Y50813429D01*
X170386858Y50813429D01*
X170529715Y50884857D01*
X170601143Y51027714D01*
X170601143Y51099143D01*
X170529715Y51242000D01*
X170386858Y51313429D01*
X170172572Y51313429D01*
X170029715Y51384857D01*
X169958286Y51527714D01*
X169958286Y51599143D01*
X170029715Y51742000D01*
X170172572Y51813429D01*
X170386858Y51813429D01*
X170529715Y51742000D01*
X171244001Y50956286D02*
X171315429Y50884857D01*
X171244001Y50813429D01*
X171172572Y50884857D01*
X171244001Y50956286D01*
X171244001Y50813429D01*
X171958287Y52313429D02*
X171958287Y51099143D01*
X172029715Y50956286D01*
X172101144Y50884857D01*
X172244001Y50813429D01*
X172529715Y50813429D01*
X172672573Y50884857D01*
X172744001Y50956286D01*
X172815430Y51099143D01*
X172815430Y52313429D01*
X173458287Y50884857D02*
X173601144Y50813429D01*
X173886859Y50813429D01*
X174029716Y50884857D01*
X174101144Y51027714D01*
X174101144Y51099143D01*
X174029716Y51242000D01*
X173886859Y51313429D01*
X173672573Y51313429D01*
X173529716Y51384857D01*
X173458287Y51527714D01*
X173458287Y51599143D01*
X173529716Y51742000D01*
X173672573Y51813429D01*
X173886859Y51813429D01*
X174029716Y51742000D01*
X175315430Y50884857D02*
X175172573Y50813429D01*
X174886859Y50813429D01*
X174744002Y50884857D01*
X174672573Y51027714D01*
X174672573Y51599143D01*
X174744002Y51742000D01*
X174886859Y51813429D01*
X175172573Y51813429D01*
X175315430Y51742000D01*
X175386859Y51599143D01*
X175386859Y51456286D01*
X174672573Y51313429D01*
X176029716Y50813429D02*
X176029716Y51813429D01*
X176029716Y51527714D02*
X176101144Y51670571D01*
X176172573Y51742000D01*
X176315430Y51813429D01*
X176458287Y51813429D01*
X178315430Y50813429D02*
X178172572Y50884857D01*
X178101144Y51027714D01*
X178101144Y52313429D01*
X179529715Y50813429D02*
X179529715Y51599143D01*
X179458286Y51742000D01*
X179315429Y51813429D01*
X179029715Y51813429D01*
X178886858Y51742000D01*
X179529715Y50884857D02*
X179386858Y50813429D01*
X179029715Y50813429D01*
X178886858Y50884857D01*
X178815429Y51027714D01*
X178815429Y51170571D01*
X178886858Y51313429D01*
X179029715Y51384857D01*
X179386858Y51384857D01*
X179529715Y51456286D01*
X180101144Y51813429D02*
X180458287Y50813429D01*
X180815429Y51813429D02*
X180458287Y50813429D01*
X180315429Y50456286D01*
X180244001Y50384857D01*
X180101144Y50313429D01*
X181386858Y50813429D02*
X181386858Y51813429D01*
X181386858Y51527714D02*
X181458286Y51670571D01*
X181529715Y51742000D01*
X181672572Y51813429D01*
X181815429Y51813429D01*
X182886857Y50884857D02*
X182744000Y50813429D01*
X182458286Y50813429D01*
X182315429Y50884857D01*
X182244000Y51027714D01*
X182244000Y51599143D01*
X182315429Y51742000D01*
X182458286Y51813429D01*
X182744000Y51813429D01*
X182886857Y51742000D01*
X182958286Y51599143D01*
X182958286Y51456286D01*
X182244000Y51313429D01*
X166958285Y49913429D02*
X167458285Y48413429D01*
X167958285Y49913429D01*
X169101142Y48484857D02*
X168958285Y48413429D01*
X168672571Y48413429D01*
X168529713Y48484857D01*
X168458285Y48556286D01*
X168386856Y48699143D01*
X168386856Y49127714D01*
X168458285Y49270571D01*
X168529713Y49342000D01*
X168672571Y49413429D01*
X168958285Y49413429D01*
X169101142Y49342000D01*
X170386856Y49413429D02*
X170386856Y48413429D01*
X169743999Y49413429D02*
X169743999Y48627714D01*
X169815427Y48484857D01*
X169958285Y48413429D01*
X170172570Y48413429D01*
X170315427Y48484857D01*
X170386856Y48556286D01*
X170886856Y49413429D02*
X171458285Y49413429D01*
X171101142Y49913429D02*
X171101142Y48627714D01*
X171172570Y48484857D01*
X171315428Y48413429D01*
X171458285Y48413429D01*
X173101142Y49413429D02*
X173101142Y47913429D01*
X173101142Y49342000D02*
X173243999Y49413429D01*
X173529713Y49413429D01*
X173672570Y49342000D01*
X173743999Y49270571D01*
X173815428Y49127714D01*
X173815428Y48699143D01*
X173743999Y48556286D01*
X173672570Y48484857D01*
X173529713Y48413429D01*
X173243999Y48413429D01*
X173101142Y48484857D01*
X174672571Y48413429D02*
X174529713Y48484857D01*
X174458285Y48556286D01*
X174386856Y48699143D01*
X174386856Y49127714D01*
X174458285Y49270571D01*
X174529713Y49342000D01*
X174672571Y49413429D01*
X174886856Y49413429D01*
X175029713Y49342000D01*
X175101142Y49270571D01*
X175172571Y49127714D01*
X175172571Y48699143D01*
X175101142Y48556286D01*
X175029713Y48484857D01*
X174886856Y48413429D01*
X174672571Y48413429D01*
X175743999Y48484857D02*
X175886856Y48413429D01*
X176172571Y48413429D01*
X176315428Y48484857D01*
X176386856Y48627714D01*
X176386856Y48699143D01*
X176315428Y48842000D01*
X176172571Y48913429D01*
X175958285Y48913429D01*
X175815428Y48984857D01*
X175743999Y49127714D01*
X175743999Y49199143D01*
X175815428Y49342000D01*
X175958285Y49413429D01*
X176172571Y49413429D01*
X176315428Y49342000D01*
X177029714Y48413429D02*
X177029714Y49413429D01*
X177029714Y49913429D02*
X176958285Y49842000D01*
X177029714Y49770571D01*
X177101142Y49842000D01*
X177029714Y49913429D01*
X177029714Y49770571D01*
X177529714Y49413429D02*
X178101143Y49413429D01*
X177744000Y49913429D02*
X177744000Y48627714D01*
X177815428Y48484857D01*
X177958286Y48413429D01*
X178101143Y48413429D01*
X178601143Y48413429D02*
X178601143Y49413429D01*
X178601143Y49913429D02*
X178529714Y49842000D01*
X178601143Y49770571D01*
X178672571Y49842000D01*
X178601143Y49913429D01*
X178601143Y49770571D01*
X179529715Y48413429D02*
X179386857Y48484857D01*
X179315429Y48556286D01*
X179244000Y48699143D01*
X179244000Y49127714D01*
X179315429Y49270571D01*
X179386857Y49342000D01*
X179529715Y49413429D01*
X179744000Y49413429D01*
X179886857Y49342000D01*
X179958286Y49270571D01*
X180029715Y49127714D01*
X180029715Y48699143D01*
X179958286Y48556286D01*
X179886857Y48484857D01*
X179744000Y48413429D01*
X179529715Y48413429D01*
X180672572Y49413429D02*
X180672572Y48413429D01*
X180672572Y49270571D02*
X180744000Y49342000D01*
X180886858Y49413429D01*
X181101143Y49413429D01*
X181244000Y49342000D01*
X181315429Y49199143D01*
X181315429Y48413429D01*
X-18802857Y50813429D02*
X-18802857Y52313429D01*
X-18445714Y52313429D01*
X-18231429Y52242000D01*
X-18088571Y52099143D01*
X-18017143Y51956286D01*
X-17945714Y51670571D01*
X-17945714Y51456286D01*
X-18017143Y51170571D01*
X-18088571Y51027714D01*
X-18231429Y50884857D01*
X-18445714Y50813429D01*
X-18802857Y50813429D01*
X-17445714Y51813429D02*
X-17160000Y50813429D01*
X-16874286Y51527714D01*
X-16588571Y50813429D01*
X-16302857Y51813429D01*
X-15088571Y51813429D02*
X-15088571Y50599143D01*
X-15160000Y50456286D01*
X-15231428Y50384857D01*
X-15374285Y50313429D01*
X-15588571Y50313429D01*
X-15731428Y50384857D01*
X-15088571Y50884857D02*
X-15231428Y50813429D01*
X-15517142Y50813429D01*
X-15660000Y50884857D01*
X-15731428Y50956286D01*
X-15802857Y51099143D01*
X-15802857Y51527714D01*
X-15731428Y51670571D01*
X-15660000Y51742000D01*
X-15517142Y51813429D01*
X-15231428Y51813429D01*
X-15088571Y51742000D01*
X-14445714Y50884857D02*
X-14302857Y50813429D01*
X-14017142Y50813429D01*
X-13874285Y50884857D01*
X-13802857Y51027714D01*
X-13802857Y51099143D01*
X-13874285Y51242000D01*
X-14017142Y51313429D01*
X-14231428Y51313429D01*
X-14374285Y51384857D01*
X-14445714Y51527714D01*
X-14445714Y51599143D01*
X-14374285Y51742000D01*
X-14231428Y51813429D01*
X-14017142Y51813429D01*
X-13874285Y51742000D01*
X-13159999Y50956286D02*
X-13088571Y50884857D01*
X-13159999Y50813429D01*
X-13231428Y50884857D01*
X-13159999Y50956286D01*
X-13159999Y50813429D01*
X-12445713Y52313429D02*
X-12445713Y51099143D01*
X-12374285Y50956286D01*
X-12302856Y50884857D01*
X-12159999Y50813429D01*
X-11874285Y50813429D01*
X-11731427Y50884857D01*
X-11659999Y50956286D01*
X-11588570Y51099143D01*
X-11588570Y52313429D01*
X-10945713Y50884857D02*
X-10802856Y50813429D01*
X-10517141Y50813429D01*
X-10374284Y50884857D01*
X-10302856Y51027714D01*
X-10302856Y51099143D01*
X-10374284Y51242000D01*
X-10517141Y51313429D01*
X-10731427Y51313429D01*
X-10874284Y51384857D01*
X-10945713Y51527714D01*
X-10945713Y51599143D01*
X-10874284Y51742000D01*
X-10731427Y51813429D01*
X-10517141Y51813429D01*
X-10374284Y51742000D01*
X-9088570Y50884857D02*
X-9231427Y50813429D01*
X-9517141Y50813429D01*
X-9659998Y50884857D01*
X-9731427Y51027714D01*
X-9731427Y51599143D01*
X-9659998Y51742000D01*
X-9517141Y51813429D01*
X-9231427Y51813429D01*
X-9088570Y51742000D01*
X-9017141Y51599143D01*
X-9017141Y51456286D01*
X-9731427Y51313429D01*
X-8374284Y50813429D02*
X-8374284Y51813429D01*
X-8374284Y51527714D02*
X-8302856Y51670571D01*
X-8231427Y51742000D01*
X-8088570Y51813429D01*
X-7945713Y51813429D01*
X-6088570Y50813429D02*
X-6231428Y50884857D01*
X-6302856Y51027714D01*
X-6302856Y52313429D01*
X-4874285Y50813429D02*
X-4874285Y51599143D01*
X-4945714Y51742000D01*
X-5088571Y51813429D01*
X-5374285Y51813429D01*
X-5517142Y51742000D01*
X-4874285Y50884857D02*
X-5017142Y50813429D01*
X-5374285Y50813429D01*
X-5517142Y50884857D01*
X-5588571Y51027714D01*
X-5588571Y51170571D01*
X-5517142Y51313429D01*
X-5374285Y51384857D01*
X-5017142Y51384857D01*
X-4874285Y51456286D01*
X-4302856Y51813429D02*
X-3945713Y50813429D01*
X-3588571Y51813429D02*
X-3945713Y50813429D01*
X-4088571Y50456286D01*
X-4159999Y50384857D01*
X-4302856Y50313429D01*
X-3017142Y50813429D02*
X-3017142Y51813429D01*
X-3017142Y51527714D02*
X-2945714Y51670571D01*
X-2874285Y51742000D01*
X-2731428Y51813429D01*
X-2588571Y51813429D01*
X-1517143Y50884857D02*
X-1660000Y50813429D01*
X-1945714Y50813429D01*
X-2088571Y50884857D01*
X-2160000Y51027714D01*
X-2160000Y51599143D01*
X-2088571Y51742000D01*
X-1945714Y51813429D01*
X-1660000Y51813429D01*
X-1517143Y51742000D01*
X-1445714Y51599143D01*
X-1445714Y51456286D01*
X-2160000Y51313429D01*
X-17445715Y49913429D02*
X-16945715Y48413429D01*
X-16445715Y49913429D01*
X-15302858Y48484857D02*
X-15445715Y48413429D01*
X-15731429Y48413429D01*
X-15874287Y48484857D01*
X-15945715Y48556286D01*
X-16017144Y48699143D01*
X-16017144Y49127714D01*
X-15945715Y49270571D01*
X-15874287Y49342000D01*
X-15731429Y49413429D01*
X-15445715Y49413429D01*
X-15302858Y49342000D01*
X-14017144Y49413429D02*
X-14017144Y48413429D01*
X-14660001Y49413429D02*
X-14660001Y48627714D01*
X-14588573Y48484857D01*
X-14445715Y48413429D01*
X-14231430Y48413429D01*
X-14088573Y48484857D01*
X-14017144Y48556286D01*
X-13517144Y49413429D02*
X-12945715Y49413429D01*
X-13302858Y49913429D02*
X-13302858Y48627714D01*
X-13231430Y48484857D01*
X-13088572Y48413429D01*
X-12945715Y48413429D01*
X-11302858Y49413429D02*
X-11302858Y47913429D01*
X-11302858Y49342000D02*
X-11160001Y49413429D01*
X-10874287Y49413429D01*
X-10731430Y49342000D01*
X-10660001Y49270571D01*
X-10588572Y49127714D01*
X-10588572Y48699143D01*
X-10660001Y48556286D01*
X-10731430Y48484857D01*
X-10874287Y48413429D01*
X-11160001Y48413429D01*
X-11302858Y48484857D01*
X-9731429Y48413429D02*
X-9874287Y48484857D01*
X-9945715Y48556286D01*
X-10017144Y48699143D01*
X-10017144Y49127714D01*
X-9945715Y49270571D01*
X-9874287Y49342000D01*
X-9731429Y49413429D01*
X-9517144Y49413429D01*
X-9374287Y49342000D01*
X-9302858Y49270571D01*
X-9231429Y49127714D01*
X-9231429Y48699143D01*
X-9302858Y48556286D01*
X-9374287Y48484857D01*
X-9517144Y48413429D01*
X-9731429Y48413429D01*
X-8660001Y48484857D02*
X-8517144Y48413429D01*
X-8231429Y48413429D01*
X-8088572Y48484857D01*
X-8017144Y48627714D01*
X-8017144Y48699143D01*
X-8088572Y48842000D01*
X-8231429Y48913429D01*
X-8445715Y48913429D01*
X-8588572Y48984857D01*
X-8660001Y49127714D01*
X-8660001Y49199143D01*
X-8588572Y49342000D01*
X-8445715Y49413429D01*
X-8231429Y49413429D01*
X-8088572Y49342000D01*
X-7374286Y48413429D02*
X-7374286Y49413429D01*
X-7374286Y49913429D02*
X-7445715Y49842000D01*
X-7374286Y49770571D01*
X-7302858Y49842000D01*
X-7374286Y49913429D01*
X-7374286Y49770571D01*
X-6874286Y49413429D02*
X-6302857Y49413429D01*
X-6660000Y49913429D02*
X-6660000Y48627714D01*
X-6588572Y48484857D01*
X-6445714Y48413429D01*
X-6302857Y48413429D01*
X-5802857Y48413429D02*
X-5802857Y49413429D01*
X-5802857Y49913429D02*
X-5874286Y49842000D01*
X-5802857Y49770571D01*
X-5731429Y49842000D01*
X-5802857Y49913429D01*
X-5802857Y49770571D01*
X-4874285Y48413429D02*
X-5017143Y48484857D01*
X-5088571Y48556286D01*
X-5160000Y48699143D01*
X-5160000Y49127714D01*
X-5088571Y49270571D01*
X-5017143Y49342000D01*
X-4874285Y49413429D01*
X-4660000Y49413429D01*
X-4517143Y49342000D01*
X-4445714Y49270571D01*
X-4374285Y49127714D01*
X-4374285Y48699143D01*
X-4445714Y48556286D01*
X-4517143Y48484857D01*
X-4660000Y48413429D01*
X-4874285Y48413429D01*
X-3731428Y49413429D02*
X-3731428Y48413429D01*
X-3731428Y49270571D02*
X-3660000Y49342000D01*
X-3517142Y49413429D01*
X-3302857Y49413429D01*
X-3160000Y49342000D01*
X-3088571Y49199143D01*
X-3088571Y48413429D01*
X71113143Y105677429D02*
X71113143Y107177429D01*
X71470286Y107177429D01*
X71684571Y107106000D01*
X71827429Y106963143D01*
X71898857Y106820286D01*
X71970286Y106534571D01*
X71970286Y106320286D01*
X71898857Y106034571D01*
X71827429Y105891714D01*
X71684571Y105748857D01*
X71470286Y105677429D01*
X71113143Y105677429D01*
X72470286Y106677429D02*
X72756000Y105677429D01*
X73041714Y106391714D01*
X73327429Y105677429D01*
X73613143Y106677429D01*
X74827429Y106677429D02*
X74827429Y105463143D01*
X74756000Y105320286D01*
X74684572Y105248857D01*
X74541715Y105177429D01*
X74327429Y105177429D01*
X74184572Y105248857D01*
X74827429Y105748857D02*
X74684572Y105677429D01*
X74398858Y105677429D01*
X74256000Y105748857D01*
X74184572Y105820286D01*
X74113143Y105963143D01*
X74113143Y106391714D01*
X74184572Y106534571D01*
X74256000Y106606000D01*
X74398858Y106677429D01*
X74684572Y106677429D01*
X74827429Y106606000D01*
X75470286Y105748857D02*
X75613143Y105677429D01*
X75898858Y105677429D01*
X76041715Y105748857D01*
X76113143Y105891714D01*
X76113143Y105963143D01*
X76041715Y106106000D01*
X75898858Y106177429D01*
X75684572Y106177429D01*
X75541715Y106248857D01*
X75470286Y106391714D01*
X75470286Y106463143D01*
X75541715Y106606000D01*
X75684572Y106677429D01*
X75898858Y106677429D01*
X76041715Y106606000D01*
X76756001Y105820286D02*
X76827429Y105748857D01*
X76756001Y105677429D01*
X76684572Y105748857D01*
X76756001Y105820286D01*
X76756001Y105677429D01*
X77470287Y107177429D02*
X77470287Y105963143D01*
X77541715Y105820286D01*
X77613144Y105748857D01*
X77756001Y105677429D01*
X78041715Y105677429D01*
X78184573Y105748857D01*
X78256001Y105820286D01*
X78327430Y105963143D01*
X78327430Y107177429D01*
X78970287Y105748857D02*
X79113144Y105677429D01*
X79398859Y105677429D01*
X79541716Y105748857D01*
X79613144Y105891714D01*
X79613144Y105963143D01*
X79541716Y106106000D01*
X79398859Y106177429D01*
X79184573Y106177429D01*
X79041716Y106248857D01*
X78970287Y106391714D01*
X78970287Y106463143D01*
X79041716Y106606000D01*
X79184573Y106677429D01*
X79398859Y106677429D01*
X79541716Y106606000D01*
X80827430Y105748857D02*
X80684573Y105677429D01*
X80398859Y105677429D01*
X80256002Y105748857D01*
X80184573Y105891714D01*
X80184573Y106463143D01*
X80256002Y106606000D01*
X80398859Y106677429D01*
X80684573Y106677429D01*
X80827430Y106606000D01*
X80898859Y106463143D01*
X80898859Y106320286D01*
X80184573Y106177429D01*
X81541716Y105677429D02*
X81541716Y106677429D01*
X81541716Y106391714D02*
X81613144Y106534571D01*
X81684573Y106606000D01*
X81827430Y106677429D01*
X81970287Y106677429D01*
X83827430Y105677429D02*
X83684572Y105748857D01*
X83613144Y105891714D01*
X83613144Y107177429D01*
X85041715Y105677429D02*
X85041715Y106463143D01*
X84970286Y106606000D01*
X84827429Y106677429D01*
X84541715Y106677429D01*
X84398858Y106606000D01*
X85041715Y105748857D02*
X84898858Y105677429D01*
X84541715Y105677429D01*
X84398858Y105748857D01*
X84327429Y105891714D01*
X84327429Y106034571D01*
X84398858Y106177429D01*
X84541715Y106248857D01*
X84898858Y106248857D01*
X85041715Y106320286D01*
X85613144Y106677429D02*
X85970287Y105677429D01*
X86327429Y106677429D02*
X85970287Y105677429D01*
X85827429Y105320286D01*
X85756001Y105248857D01*
X85613144Y105177429D01*
X86898858Y105677429D02*
X86898858Y106677429D01*
X86898858Y106391714D02*
X86970286Y106534571D01*
X87041715Y106606000D01*
X87184572Y106677429D01*
X87327429Y106677429D01*
X88398857Y105748857D02*
X88256000Y105677429D01*
X87970286Y105677429D01*
X87827429Y105748857D01*
X87756000Y105891714D01*
X87756000Y106463143D01*
X87827429Y106606000D01*
X87970286Y106677429D01*
X88256000Y106677429D01*
X88398857Y106606000D01*
X88470286Y106463143D01*
X88470286Y106320286D01*
X87756000Y106177429D01*
X72470285Y104777429D02*
X72970285Y103277429D01*
X73470285Y104777429D01*
X74613142Y103348857D02*
X74470285Y103277429D01*
X74184571Y103277429D01*
X74041713Y103348857D01*
X73970285Y103420286D01*
X73898856Y103563143D01*
X73898856Y103991714D01*
X73970285Y104134571D01*
X74041713Y104206000D01*
X74184571Y104277429D01*
X74470285Y104277429D01*
X74613142Y104206000D01*
X75898856Y104277429D02*
X75898856Y103277429D01*
X75255999Y104277429D02*
X75255999Y103491714D01*
X75327427Y103348857D01*
X75470285Y103277429D01*
X75684570Y103277429D01*
X75827427Y103348857D01*
X75898856Y103420286D01*
X76398856Y104277429D02*
X76970285Y104277429D01*
X76613142Y104777429D02*
X76613142Y103491714D01*
X76684570Y103348857D01*
X76827428Y103277429D01*
X76970285Y103277429D01*
X78613142Y104277429D02*
X78613142Y102777429D01*
X78613142Y104206000D02*
X78755999Y104277429D01*
X79041713Y104277429D01*
X79184570Y104206000D01*
X79255999Y104134571D01*
X79327428Y103991714D01*
X79327428Y103563143D01*
X79255999Y103420286D01*
X79184570Y103348857D01*
X79041713Y103277429D01*
X78755999Y103277429D01*
X78613142Y103348857D01*
X80184571Y103277429D02*
X80041713Y103348857D01*
X79970285Y103420286D01*
X79898856Y103563143D01*
X79898856Y103991714D01*
X79970285Y104134571D01*
X80041713Y104206000D01*
X80184571Y104277429D01*
X80398856Y104277429D01*
X80541713Y104206000D01*
X80613142Y104134571D01*
X80684571Y103991714D01*
X80684571Y103563143D01*
X80613142Y103420286D01*
X80541713Y103348857D01*
X80398856Y103277429D01*
X80184571Y103277429D01*
X81255999Y103348857D02*
X81398856Y103277429D01*
X81684571Y103277429D01*
X81827428Y103348857D01*
X81898856Y103491714D01*
X81898856Y103563143D01*
X81827428Y103706000D01*
X81684571Y103777429D01*
X81470285Y103777429D01*
X81327428Y103848857D01*
X81255999Y103991714D01*
X81255999Y104063143D01*
X81327428Y104206000D01*
X81470285Y104277429D01*
X81684571Y104277429D01*
X81827428Y104206000D01*
X82541714Y103277429D02*
X82541714Y104277429D01*
X82541714Y104777429D02*
X82470285Y104706000D01*
X82541714Y104634571D01*
X82613142Y104706000D01*
X82541714Y104777429D01*
X82541714Y104634571D01*
X83041714Y104277429D02*
X83613143Y104277429D01*
X83256000Y104777429D02*
X83256000Y103491714D01*
X83327428Y103348857D01*
X83470286Y103277429D01*
X83613143Y103277429D01*
X84113143Y103277429D02*
X84113143Y104277429D01*
X84113143Y104777429D02*
X84041714Y104706000D01*
X84113143Y104634571D01*
X84184571Y104706000D01*
X84113143Y104777429D01*
X84113143Y104634571D01*
X85041715Y103277429D02*
X84898857Y103348857D01*
X84827429Y103420286D01*
X84756000Y103563143D01*
X84756000Y103991714D01*
X84827429Y104134571D01*
X84898857Y104206000D01*
X85041715Y104277429D01*
X85256000Y104277429D01*
X85398857Y104206000D01*
X85470286Y104134571D01*
X85541715Y103991714D01*
X85541715Y103563143D01*
X85470286Y103420286D01*
X85398857Y103348857D01*
X85256000Y103277429D01*
X85041715Y103277429D01*
X86184572Y104277429D02*
X86184572Y103277429D01*
X86184572Y104134571D02*
X86256000Y104206000D01*
X86398858Y104277429D01*
X86613143Y104277429D01*
X86756000Y104206000D01*
X86827429Y104063143D01*
X86827429Y103277429D01*
D12*
X79502000Y102616000D02*
X79502000Y-2032000D01*
X-2032000Y50038000D02*
X162052000Y50038000D01*
D10*
X38249900Y19784100D02*
X38313400Y29944100D01*
X51330900Y19784100D02*
X51394400Y29880600D01*
X44536400Y19784100D02*
X51267400Y19784100D01*
X44472900Y29944100D02*
X38376900Y29944100D01*
X44536400Y19784100D02*
X38376900Y19784100D01*
X44536400Y29944100D02*
X51394400Y29944100D01*
X118005900Y19784100D02*
X118069400Y29944100D01*
X131086900Y19784100D02*
X131150400Y29880600D01*
X124292400Y19784100D02*
X131023400Y19784100D01*
X124228900Y29944100D02*
X118132900Y29944100D01*
X124292400Y19784100D02*
X118132900Y19784100D01*
X124292400Y29944100D02*
X131150400Y29944100D01*
X118005900Y70076100D02*
X118069400Y80236100D01*
X131086900Y70076100D02*
X131150400Y80172600D01*
X124292400Y70076100D02*
X131023400Y70076100D01*
X124228900Y80236100D02*
X118132900Y80236100D01*
X124292400Y70076100D02*
X118132900Y70076100D01*
X124292400Y80236100D02*
X131150400Y80236100D01*
X38249900Y70076100D02*
X38313400Y80236100D01*
X51330900Y70076100D02*
X51394400Y80172600D01*
X44536400Y70076100D02*
X51267400Y70076100D01*
X44472900Y80236100D02*
X38376900Y80236100D01*
X44536400Y70076100D02*
X38376900Y70076100D01*
X44536400Y80236100D02*
X51394400Y80236100D01*
D13*
X40139567Y25538719D02*
X40139567Y24824433D01*
X40091947Y24681576D01*
X39996709Y24586338D01*
X39853852Y24538719D01*
X39758614Y24538719D01*
X40615757Y24538719D02*
X40615757Y25538719D01*
X40996710Y25538719D01*
X41091948Y25491100D01*
X41139567Y25443481D01*
X41187186Y25348243D01*
X41187186Y25205386D01*
X41139567Y25110148D01*
X41091948Y25062529D01*
X40996710Y25014910D01*
X40615757Y25014910D01*
X42139567Y24538719D02*
X41568138Y24538719D01*
X41853852Y24538719D02*
X41853852Y25538719D01*
X41758614Y25395862D01*
X41663376Y25300624D01*
X41568138Y25253005D01*
X42615757Y24586338D02*
X42615757Y24538719D01*
X42568138Y24443481D01*
X42520519Y24395862D01*
X43330043Y25538719D02*
X43330043Y24824433D01*
X43282423Y24681576D01*
X43187185Y24586338D01*
X43044328Y24538719D01*
X42949090Y24538719D01*
X43806233Y24538719D02*
X43806233Y25538719D01*
X44187186Y25538719D01*
X44282424Y25491100D01*
X44330043Y25443481D01*
X44377662Y25348243D01*
X44377662Y25205386D01*
X44330043Y25110148D01*
X44282424Y25062529D01*
X44187186Y25014910D01*
X43806233Y25014910D01*
X44758614Y25443481D02*
X44806233Y25491100D01*
X44901471Y25538719D01*
X45139567Y25538719D01*
X45234805Y25491100D01*
X45282424Y25443481D01*
X45330043Y25348243D01*
X45330043Y25253005D01*
X45282424Y25110148D01*
X44710995Y24538719D01*
X45330043Y24538719D01*
X45806233Y24586338D02*
X45806233Y24538719D01*
X45758614Y24443481D01*
X45710995Y24395862D01*
X46234804Y24538719D02*
X46234804Y25538719D01*
X46234804Y25062529D02*
X46806233Y25062529D01*
X46806233Y24538719D02*
X46806233Y25538719D01*
X47425280Y24538719D02*
X47330042Y24586338D01*
X47282423Y24633957D01*
X47234804Y24729195D01*
X47234804Y25014910D01*
X47282423Y25110148D01*
X47330042Y25157767D01*
X47425280Y25205386D01*
X47568138Y25205386D01*
X47663376Y25157767D01*
X47710995Y25110148D01*
X47758614Y25014910D01*
X47758614Y24729195D01*
X47710995Y24633957D01*
X47663376Y24586338D01*
X47568138Y24538719D01*
X47425280Y24538719D01*
X48330042Y24538719D02*
X48234804Y24586338D01*
X48187185Y24681576D01*
X48187185Y25538719D01*
X49091948Y24586338D02*
X48996710Y24538719D01*
X48806233Y24538719D01*
X48710995Y24586338D01*
X48663376Y24681576D01*
X48663376Y25062529D01*
X48710995Y25157767D01*
X48806233Y25205386D01*
X48996710Y25205386D01*
X49091948Y25157767D01*
X49139567Y25062529D01*
X49139567Y24967290D01*
X48663376Y24872052D01*
X119895567Y25538719D02*
X119895567Y24824433D01*
X119847947Y24681576D01*
X119752709Y24586338D01*
X119609852Y24538719D01*
X119514614Y24538719D01*
X120371757Y24538719D02*
X120371757Y25538719D01*
X120752710Y25538719D01*
X120847948Y25491100D01*
X120895567Y25443481D01*
X120943186Y25348243D01*
X120943186Y25205386D01*
X120895567Y25110148D01*
X120847948Y25062529D01*
X120752710Y25014910D01*
X120371757Y25014910D01*
X121895567Y24538719D02*
X121324138Y24538719D01*
X121609852Y24538719D02*
X121609852Y25538719D01*
X121514614Y25395862D01*
X121419376Y25300624D01*
X121324138Y25253005D01*
X122371757Y24586338D02*
X122371757Y24538719D01*
X122324138Y24443481D01*
X122276519Y24395862D01*
X123086043Y25538719D02*
X123086043Y24824433D01*
X123038423Y24681576D01*
X122943185Y24586338D01*
X122800328Y24538719D01*
X122705090Y24538719D01*
X123562233Y24538719D02*
X123562233Y25538719D01*
X123943186Y25538719D01*
X124038424Y25491100D01*
X124086043Y25443481D01*
X124133662Y25348243D01*
X124133662Y25205386D01*
X124086043Y25110148D01*
X124038424Y25062529D01*
X123943186Y25014910D01*
X123562233Y25014910D01*
X124514614Y25443481D02*
X124562233Y25491100D01*
X124657471Y25538719D01*
X124895567Y25538719D01*
X124990805Y25491100D01*
X125038424Y25443481D01*
X125086043Y25348243D01*
X125086043Y25253005D01*
X125038424Y25110148D01*
X124466995Y24538719D01*
X125086043Y24538719D01*
X125562233Y24586338D02*
X125562233Y24538719D01*
X125514614Y24443481D01*
X125466995Y24395862D01*
X125990804Y24538719D02*
X125990804Y25538719D01*
X125990804Y25062529D02*
X126562233Y25062529D01*
X126562233Y24538719D02*
X126562233Y25538719D01*
X127181280Y24538719D02*
X127086042Y24586338D01*
X127038423Y24633957D01*
X126990804Y24729195D01*
X126990804Y25014910D01*
X127038423Y25110148D01*
X127086042Y25157767D01*
X127181280Y25205386D01*
X127324138Y25205386D01*
X127419376Y25157767D01*
X127466995Y25110148D01*
X127514614Y25014910D01*
X127514614Y24729195D01*
X127466995Y24633957D01*
X127419376Y24586338D01*
X127324138Y24538719D01*
X127181280Y24538719D01*
X128086042Y24538719D02*
X127990804Y24586338D01*
X127943185Y24681576D01*
X127943185Y25538719D01*
X128847948Y24586338D02*
X128752710Y24538719D01*
X128562233Y24538719D01*
X128466995Y24586338D01*
X128419376Y24681576D01*
X128419376Y25062529D01*
X128466995Y25157767D01*
X128562233Y25205386D01*
X128752710Y25205386D01*
X128847948Y25157767D01*
X128895567Y25062529D01*
X128895567Y24967290D01*
X128419376Y24872052D01*
X119895567Y75830719D02*
X119895567Y75116433D01*
X119847947Y74973576D01*
X119752709Y74878338D01*
X119609852Y74830719D01*
X119514614Y74830719D01*
X120371757Y74830719D02*
X120371757Y75830719D01*
X120752710Y75830719D01*
X120847948Y75783100D01*
X120895567Y75735481D01*
X120943186Y75640243D01*
X120943186Y75497386D01*
X120895567Y75402148D01*
X120847948Y75354529D01*
X120752710Y75306910D01*
X120371757Y75306910D01*
X121895567Y74830719D02*
X121324138Y74830719D01*
X121609852Y74830719D02*
X121609852Y75830719D01*
X121514614Y75687862D01*
X121419376Y75592624D01*
X121324138Y75545005D01*
X122371757Y74878338D02*
X122371757Y74830719D01*
X122324138Y74735481D01*
X122276519Y74687862D01*
X123086043Y75830719D02*
X123086043Y75116433D01*
X123038423Y74973576D01*
X122943185Y74878338D01*
X122800328Y74830719D01*
X122705090Y74830719D01*
X123562233Y74830719D02*
X123562233Y75830719D01*
X123943186Y75830719D01*
X124038424Y75783100D01*
X124086043Y75735481D01*
X124133662Y75640243D01*
X124133662Y75497386D01*
X124086043Y75402148D01*
X124038424Y75354529D01*
X123943186Y75306910D01*
X123562233Y75306910D01*
X124514614Y75735481D02*
X124562233Y75783100D01*
X124657471Y75830719D01*
X124895567Y75830719D01*
X124990805Y75783100D01*
X125038424Y75735481D01*
X125086043Y75640243D01*
X125086043Y75545005D01*
X125038424Y75402148D01*
X124466995Y74830719D01*
X125086043Y74830719D01*
X125562233Y74878338D02*
X125562233Y74830719D01*
X125514614Y74735481D01*
X125466995Y74687862D01*
X125990804Y74830719D02*
X125990804Y75830719D01*
X125990804Y75354529D02*
X126562233Y75354529D01*
X126562233Y74830719D02*
X126562233Y75830719D01*
X127181280Y74830719D02*
X127086042Y74878338D01*
X127038423Y74925957D01*
X126990804Y75021195D01*
X126990804Y75306910D01*
X127038423Y75402148D01*
X127086042Y75449767D01*
X127181280Y75497386D01*
X127324138Y75497386D01*
X127419376Y75449767D01*
X127466995Y75402148D01*
X127514614Y75306910D01*
X127514614Y75021195D01*
X127466995Y74925957D01*
X127419376Y74878338D01*
X127324138Y74830719D01*
X127181280Y74830719D01*
X128086042Y74830719D02*
X127990804Y74878338D01*
X127943185Y74973576D01*
X127943185Y75830719D01*
X128847948Y74878338D02*
X128752710Y74830719D01*
X128562233Y74830719D01*
X128466995Y74878338D01*
X128419376Y74973576D01*
X128419376Y75354529D01*
X128466995Y75449767D01*
X128562233Y75497386D01*
X128752710Y75497386D01*
X128847948Y75449767D01*
X128895567Y75354529D01*
X128895567Y75259290D01*
X128419376Y75164052D01*
X40139567Y75830719D02*
X40139567Y75116433D01*
X40091947Y74973576D01*
X39996709Y74878338D01*
X39853852Y74830719D01*
X39758614Y74830719D01*
X40615757Y74830719D02*
X40615757Y75830719D01*
X40996710Y75830719D01*
X41091948Y75783100D01*
X41139567Y75735481D01*
X41187186Y75640243D01*
X41187186Y75497386D01*
X41139567Y75402148D01*
X41091948Y75354529D01*
X40996710Y75306910D01*
X40615757Y75306910D01*
X42139567Y74830719D02*
X41568138Y74830719D01*
X41853852Y74830719D02*
X41853852Y75830719D01*
X41758614Y75687862D01*
X41663376Y75592624D01*
X41568138Y75545005D01*
X42615757Y74878338D02*
X42615757Y74830719D01*
X42568138Y74735481D01*
X42520519Y74687862D01*
X43330043Y75830719D02*
X43330043Y75116433D01*
X43282423Y74973576D01*
X43187185Y74878338D01*
X43044328Y74830719D01*
X42949090Y74830719D01*
X43806233Y74830719D02*
X43806233Y75830719D01*
X44187186Y75830719D01*
X44282424Y75783100D01*
X44330043Y75735481D01*
X44377662Y75640243D01*
X44377662Y75497386D01*
X44330043Y75402148D01*
X44282424Y75354529D01*
X44187186Y75306910D01*
X43806233Y75306910D01*
X44758614Y75735481D02*
X44806233Y75783100D01*
X44901471Y75830719D01*
X45139567Y75830719D01*
X45234805Y75783100D01*
X45282424Y75735481D01*
X45330043Y75640243D01*
X45330043Y75545005D01*
X45282424Y75402148D01*
X44710995Y74830719D01*
X45330043Y74830719D01*
X45806233Y74878338D02*
X45806233Y74830719D01*
X45758614Y74735481D01*
X45710995Y74687862D01*
X46234804Y74830719D02*
X46234804Y75830719D01*
X46234804Y75354529D02*
X46806233Y75354529D01*
X46806233Y74830719D02*
X46806233Y75830719D01*
X47425280Y74830719D02*
X47330042Y74878338D01*
X47282423Y74925957D01*
X47234804Y75021195D01*
X47234804Y75306910D01*
X47282423Y75402148D01*
X47330042Y75449767D01*
X47425280Y75497386D01*
X47568138Y75497386D01*
X47663376Y75449767D01*
X47710995Y75402148D01*
X47758614Y75306910D01*
X47758614Y75021195D01*
X47710995Y74925957D01*
X47663376Y74878338D01*
X47568138Y74830719D01*
X47425280Y74830719D01*
X48330042Y74830719D02*
X48234804Y74878338D01*
X48187185Y74973576D01*
X48187185Y75830719D01*
X49091948Y74878338D02*
X48996710Y74830719D01*
X48806233Y74830719D01*
X48710995Y74878338D01*
X48663376Y74973576D01*
X48663376Y75354529D01*
X48710995Y75449767D01*
X48806233Y75497386D01*
X48996710Y75497386D01*
X49091948Y75449767D01*
X49139567Y75354529D01*
X49139567Y75259290D01*
X48663376Y75164052D01*
M02*
