M48
;DRILL file {pcbnew (after 2015-mar-04 BZR unknown)-product} date 2015年08月08日土曜日 23:09:25
;FORMAT={3:3/ absolute / metric / suppress leading zeros}
FMAT,2
METRIC,TZ
T1C0.300
T2C1.016
%
G90
G05
M71
T1
X18161Y92964
X18161Y42672
X27525Y90810
X27525Y40518
X32766Y85115
X32766Y34823
X33985Y84836
X33985Y34544
X37196Y87387
X37196Y37095
X38100Y85750
X38100Y35458
X38227Y88498
X38227Y38206
X40640Y89281
X40640Y38989
X40640Y91567
X40640Y41275
X47244Y88946
X47244Y38654
X48260Y88494
X48260Y84963
X48260Y38202
X48260Y34671
X49911Y84963
X49911Y34671
X53721Y88773
X53721Y38481
X56388Y91389
X56388Y89764
X56388Y41097
X56388Y39472
X61163Y89052
X61163Y38760
X64059Y88646
X64059Y38354
X67310Y88646
X67310Y38354
X68580Y88646
X68580Y38354
X69723Y88646
X69723Y38354
X71069Y88646
X71069Y38354
X72390Y88646
X72390Y38354
X73533Y88646
X73533Y38354
X74778Y88646
X74778Y38354
X76200Y88646
X76200Y38354
X97917Y92964
X97917Y42672
X107281Y90810
X107281Y40518
X112522Y85115
X112522Y34823
X113741Y84836
X113741Y34544
X116952Y87387
X116952Y37095
X117856Y85750
X117856Y35458
X117983Y88498
X117983Y38206
X120396Y89281
X120396Y38989
X120396Y91567
X120396Y41275
X127000Y88946
X127000Y38654
X128016Y88494
X128016Y84963
X128016Y38202
X128016Y34671
X129667Y84963
X129667Y34671
X133477Y88773
X133477Y38481
X136144Y91389
X136144Y89764
X136144Y41097
X136144Y39472
X140919Y89052
X140919Y38760
X143815Y88646
X143815Y38354
X147066Y88646
X147066Y38354
X148336Y88646
X148336Y38354
X149479Y88646
X149479Y38354
X150825Y88646
X150825Y38354
X152146Y88646
X152146Y38354
X153289Y88646
X153289Y38354
X154534Y88646
X154534Y38354
X155956Y88646
X155956Y38354
T2
X4064Y98044
X4064Y95504
X4064Y47752
X4064Y45212
X6604Y98044
X6604Y95504
X6604Y47752
X6604Y45212
X9144Y98044
X9144Y95504
X9144Y47752
X9144Y45212
X11684Y98044
X11684Y95504
X11684Y47752
X11684Y45212
X14224Y98044
X14224Y95504
X14224Y47752
X14224Y45212
X16764Y54864
X16764Y52324
X16764Y4572
X16764Y2032
X19304Y98044
X19304Y95504
X19304Y54864
X19304Y52324
X19304Y47752
X19304Y45212
X19304Y4572
X19304Y2032
X21844Y98044
X21844Y95504
X21844Y54864
X21844Y52324
X21844Y47752
X21844Y45212
X21844Y4572
X21844Y2032
X24384Y98044
X24384Y95504
X24384Y54864
X24384Y52324
X24384Y47752
X24384Y45212
X24384Y4572
X24384Y2032
X26924Y98044
X26924Y95504
X26924Y54864
X26924Y52324
X26924Y47752
X26924Y45212
X26924Y4572
X26924Y2032
X29464Y98044
X29464Y95504
X29464Y47752
X29464Y45212
X32004Y98044
X32004Y95504
X32004Y54864
X32004Y52324
X32004Y47752
X32004Y45212
X32004Y4572
X32004Y2032
X34544Y98044
X34544Y95504
X34544Y54864
X34544Y52324
X34544Y47752
X34544Y45212
X34544Y4572
X34544Y2032
X37084Y98044
X37084Y95504
X37084Y54864
X37084Y52324
X37084Y47752
X37084Y45212
X37084Y4572
X37084Y2032
X39624Y98044
X39624Y95504
X39624Y54864
X39624Y52324
X39624Y47752
X39624Y45212
X39624Y4572
X39624Y2032
X42164Y98044
X42164Y95504
X42164Y54864
X42164Y52324
X42164Y47752
X42164Y45212
X42164Y4572
X42164Y2032
X44704Y54864
X44704Y52324
X44704Y4572
X44704Y2032
X47244Y98044
X47244Y95504
X47244Y54864
X47244Y52324
X47244Y47752
X47244Y45212
X47244Y4572
X47244Y2032
X49784Y98044
X49784Y95504
X49784Y47752
X49784Y45212
X52324Y54864
X52324Y52324
X52324Y4572
X52324Y2032
X52324Y98044
X52324Y95504
X52324Y47752
X52324Y45212
X54864Y54864
X54864Y52324
X54864Y4572
X54864Y2032
X54864Y98044
X54864Y95504
X54864Y47752
X54864Y45212
X57404Y54864
X57404Y52324
X57404Y4572
X57404Y2032
X57404Y98044
X57404Y95504
X57404Y47752
X57404Y45212
X59944Y54864
X59944Y52324
X59944Y4572
X59944Y2032
X59944Y98044
X59944Y95504
X59944Y47752
X59944Y45212
X62484Y54864
X62484Y52324
X62484Y4572
X62484Y2032
X62484Y98044
X62484Y95504
X62484Y47752
X62484Y45212
X65024Y54864
X65024Y52324
X65024Y4572
X65024Y2032
X65024Y98044
X65024Y95504
X65024Y47752
X65024Y45212
X67564Y54864
X67564Y52324
X67564Y4572
X67564Y2032
X67564Y98044
X67564Y95504
X67564Y47752
X67564Y45212
X70104Y54864
X70104Y52324
X70104Y4572
X70104Y2032
X70104Y98044
X70104Y95504
X70104Y47752
X70104Y45212
X72644Y54864
X72644Y52324
X72644Y4572
X72644Y2032
X72644Y98044
X72644Y95504
X72644Y47752
X72644Y45212
X75184Y54864
X75184Y52324
X75184Y4572
X75184Y2032
X75184Y98044
X75184Y95504
X75184Y47752
X75184Y45212
X83820Y98044
X83820Y95504
X83820Y47752
X83820Y45212
X86360Y98044
X86360Y95504
X86360Y47752
X86360Y45212
X88900Y98044
X88900Y95504
X88900Y47752
X88900Y45212
X91440Y98044
X91440Y95504
X91440Y47752
X91440Y45212
X93980Y98044
X93980Y95504
X93980Y47752
X93980Y45212
X96520Y54864
X96520Y52324
X96520Y4572
X96520Y2032
X99060Y98044
X99060Y95504
X99060Y54864
X99060Y52324
X99060Y47752
X99060Y45212
X99060Y4572
X99060Y2032
X101600Y98044
X101600Y95504
X101600Y54864
X101600Y52324
X101600Y47752
X101600Y45212
X101600Y4572
X101600Y2032
X104140Y98044
X104140Y95504
X104140Y54864
X104140Y52324
X104140Y47752
X104140Y45212
X104140Y4572
X104140Y2032
X106680Y98044
X106680Y95504
X106680Y54864
X106680Y52324
X106680Y47752
X106680Y45212
X106680Y4572
X106680Y2032
X109220Y98044
X109220Y95504
X109220Y47752
X109220Y45212
X111760Y98044
X111760Y95504
X111760Y54864
X111760Y52324
X111760Y47752
X111760Y45212
X111760Y4572
X111760Y2032
X114300Y98044
X114300Y95504
X114300Y54864
X114300Y52324
X114300Y47752
X114300Y45212
X114300Y4572
X114300Y2032
X116840Y98044
X116840Y95504
X116840Y54864
X116840Y52324
X116840Y47752
X116840Y45212
X116840Y4572
X116840Y2032
X119380Y98044
X119380Y95504
X119380Y54864
X119380Y52324
X119380Y47752
X119380Y45212
X119380Y4572
X119380Y2032
X121920Y98044
X121920Y95504
X121920Y54864
X121920Y52324
X121920Y47752
X121920Y45212
X121920Y4572
X121920Y2032
X124460Y54864
X124460Y52324
X124460Y4572
X124460Y2032
X127000Y98044
X127000Y95504
X127000Y54864
X127000Y52324
X127000Y47752
X127000Y45212
X127000Y4572
X127000Y2032
X129540Y98044
X129540Y95504
X129540Y47752
X129540Y45212
X132080Y54864
X132080Y52324
X132080Y4572
X132080Y2032
X132080Y98044
X132080Y95504
X132080Y47752
X132080Y45212
X134620Y54864
X134620Y52324
X134620Y4572
X134620Y2032
X134620Y98044
X134620Y95504
X134620Y47752
X134620Y45212
X137160Y54864
X137160Y52324
X137160Y4572
X137160Y2032
X137160Y98044
X137160Y95504
X137160Y47752
X137160Y45212
X139700Y54864
X139700Y52324
X139700Y4572
X139700Y2032
X139700Y98044
X139700Y95504
X139700Y47752
X139700Y45212
X142240Y54864
X142240Y52324
X142240Y4572
X142240Y2032
X142240Y98044
X142240Y95504
X142240Y47752
X142240Y45212
X144780Y54864
X144780Y52324
X144780Y4572
X144780Y2032
X144780Y98044
X144780Y95504
X144780Y47752
X144780Y45212
X147320Y54864
X147320Y52324
X147320Y4572
X147320Y2032
X147320Y98044
X147320Y95504
X147320Y47752
X147320Y45212
X149860Y54864
X149860Y52324
X149860Y4572
X149860Y2032
X149860Y98044
X149860Y95504
X149860Y47752
X149860Y45212
X152400Y54864
X152400Y52324
X152400Y4572
X152400Y2032
X152400Y98044
X152400Y95504
X152400Y47752
X152400Y45212
X154940Y54864
X154940Y52324
X154940Y4572
X154940Y2032
X154940Y98044
X154940Y95504
X154940Y47752
X154940Y45212
T0
M30
