G04 #@! TF.FileFunction,Other,ECO1*
%FSLAX46Y46*%
G04 Gerber Fmt 4.6, Leading zero omitted, Abs format (unit mm)*
G04 Created by KiCad (PCBNEW (after 2015-mar-04 BZR unknown)-product) date 2015年08月08日土曜日 23:09:20*
%MOMM*%
G01*
G04 APERTURE LIST*
%ADD10C,0.100000*%
%ADD11C,0.300000*%
G04 APERTURE END LIST*
D10*
D11*
X164731429Y79914141D02*
X164731429Y80628427D01*
X164017143Y80699856D01*
X164088571Y80628427D01*
X164160000Y80485570D01*
X164160000Y80128427D01*
X164088571Y79985570D01*
X164017143Y79914141D01*
X163874286Y79842713D01*
X163517143Y79842713D01*
X163374286Y79914141D01*
X163302857Y79985570D01*
X163231429Y80128427D01*
X163231429Y80485570D01*
X163302857Y80628427D01*
X163374286Y80699856D01*
X164731429Y78914142D02*
X164731429Y78771285D01*
X164660000Y78628428D01*
X164588571Y78556999D01*
X164445714Y78485570D01*
X164160000Y78414142D01*
X163802857Y78414142D01*
X163517143Y78485570D01*
X163374286Y78556999D01*
X163302857Y78628428D01*
X163231429Y78771285D01*
X163231429Y78914142D01*
X163302857Y79056999D01*
X163374286Y79128428D01*
X163517143Y79199856D01*
X163802857Y79271285D01*
X164160000Y79271285D01*
X164445714Y79199856D01*
X164588571Y79128428D01*
X164660000Y79056999D01*
X164731429Y78914142D01*
X163374286Y77771285D02*
X163302857Y77699857D01*
X163231429Y77771285D01*
X163302857Y77842714D01*
X163374286Y77771285D01*
X163231429Y77771285D01*
X164731429Y76771285D02*
X164731429Y76628428D01*
X164660000Y76485571D01*
X164588571Y76414142D01*
X164445714Y76342713D01*
X164160000Y76271285D01*
X163802857Y76271285D01*
X163517143Y76342713D01*
X163374286Y76414142D01*
X163302857Y76485571D01*
X163231429Y76628428D01*
X163231429Y76771285D01*
X163302857Y76914142D01*
X163374286Y76985571D01*
X163517143Y77056999D01*
X163802857Y77128428D01*
X164160000Y77128428D01*
X164445714Y77056999D01*
X164588571Y76985571D01*
X164660000Y76914142D01*
X164731429Y76771285D01*
X164731429Y75771285D02*
X164731429Y74842714D01*
X164160000Y75342714D01*
X164160000Y75128428D01*
X164088571Y74985571D01*
X164017143Y74914142D01*
X163874286Y74842714D01*
X163517143Y74842714D01*
X163374286Y74914142D01*
X163302857Y74985571D01*
X163231429Y75128428D01*
X163231429Y75557000D01*
X163302857Y75699857D01*
X163374286Y75771285D01*
X164088571Y73985571D02*
X164160000Y74128429D01*
X164231429Y74199857D01*
X164374286Y74271286D01*
X164445714Y74271286D01*
X164588571Y74199857D01*
X164660000Y74128429D01*
X164731429Y73985571D01*
X164731429Y73699857D01*
X164660000Y73557000D01*
X164588571Y73485571D01*
X164445714Y73414143D01*
X164374286Y73414143D01*
X164231429Y73485571D01*
X164160000Y73557000D01*
X164088571Y73699857D01*
X164088571Y73985571D01*
X164017143Y74128429D01*
X163945714Y74199857D01*
X163802857Y74271286D01*
X163517143Y74271286D01*
X163374286Y74199857D01*
X163302857Y74128429D01*
X163231429Y73985571D01*
X163231429Y73699857D01*
X163302857Y73557000D01*
X163374286Y73485571D01*
X163517143Y73414143D01*
X163802857Y73414143D01*
X163945714Y73485571D01*
X164017143Y73557000D01*
X164088571Y73699857D01*
X163231429Y72771286D02*
X164231429Y72771286D01*
X164088571Y72771286D02*
X164160000Y72699858D01*
X164231429Y72557000D01*
X164231429Y72342715D01*
X164160000Y72199858D01*
X164017143Y72128429D01*
X163231429Y72128429D01*
X164017143Y72128429D02*
X164160000Y72057000D01*
X164231429Y71914143D01*
X164231429Y71699858D01*
X164160000Y71557000D01*
X164017143Y71485572D01*
X163231429Y71485572D01*
X163231429Y70771286D02*
X164231429Y70771286D01*
X164088571Y70771286D02*
X164160000Y70699858D01*
X164231429Y70557000D01*
X164231429Y70342715D01*
X164160000Y70199858D01*
X164017143Y70128429D01*
X163231429Y70128429D01*
X164017143Y70128429D02*
X164160000Y70057000D01*
X164231429Y69914143D01*
X164231429Y69699858D01*
X164160000Y69557000D01*
X164017143Y69485572D01*
X163231429Y69485572D01*
X162560000Y100076000D02*
X162560000Y50038000D01*
X159004000Y100076000D02*
X165260000Y100076000D01*
X159004000Y50038000D02*
X165260000Y50038000D01*
X162560000Y50038000D02*
X161973579Y51164504D01*
X162560000Y50038000D02*
X163146421Y51164504D01*
X162560000Y100076000D02*
X161973579Y98949496D01*
X162560000Y100076000D02*
X163146421Y98949496D01*
X34036716Y111137429D02*
X35036716Y111137429D01*
X34393859Y109637429D01*
X35679572Y109637429D02*
X35965287Y109637429D01*
X36108144Y109708857D01*
X36179572Y109780286D01*
X36322430Y109994571D01*
X36393858Y110280286D01*
X36393858Y110851714D01*
X36322430Y110994571D01*
X36251001Y111066000D01*
X36108144Y111137429D01*
X35822430Y111137429D01*
X35679572Y111066000D01*
X35608144Y110994571D01*
X35536715Y110851714D01*
X35536715Y110494571D01*
X35608144Y110351714D01*
X35679572Y110280286D01*
X35822430Y110208857D01*
X36108144Y110208857D01*
X36251001Y110280286D01*
X36322430Y110351714D01*
X36393858Y110494571D01*
X37036715Y109780286D02*
X37108143Y109708857D01*
X37036715Y109637429D01*
X36965286Y109708857D01*
X37036715Y109780286D01*
X37036715Y109637429D01*
X38465287Y111137429D02*
X37751001Y111137429D01*
X37679572Y110423143D01*
X37751001Y110494571D01*
X37893858Y110566000D01*
X38251001Y110566000D01*
X38393858Y110494571D01*
X38465287Y110423143D01*
X38536715Y110280286D01*
X38536715Y109923143D01*
X38465287Y109780286D01*
X38393858Y109708857D01*
X38251001Y109637429D01*
X37893858Y109637429D01*
X37751001Y109708857D01*
X37679572Y109780286D01*
X39465286Y111137429D02*
X39608143Y111137429D01*
X39751000Y111066000D01*
X39822429Y110994571D01*
X39893858Y110851714D01*
X39965286Y110566000D01*
X39965286Y110208857D01*
X39893858Y109923143D01*
X39822429Y109780286D01*
X39751000Y109708857D01*
X39608143Y109637429D01*
X39465286Y109637429D01*
X39322429Y109708857D01*
X39251000Y109780286D01*
X39179572Y109923143D01*
X39108143Y110208857D01*
X39108143Y110566000D01*
X39179572Y110851714D01*
X39251000Y110994571D01*
X39322429Y111066000D01*
X39465286Y111137429D01*
X40536714Y110994571D02*
X40608143Y111066000D01*
X40751000Y111137429D01*
X41108143Y111137429D01*
X41251000Y111066000D01*
X41322429Y110994571D01*
X41393857Y110851714D01*
X41393857Y110708857D01*
X41322429Y110494571D01*
X40465286Y109637429D01*
X41393857Y109637429D01*
X42036714Y109637429D02*
X42036714Y110637429D01*
X42036714Y110494571D02*
X42108142Y110566000D01*
X42251000Y110637429D01*
X42465285Y110637429D01*
X42608142Y110566000D01*
X42679571Y110423143D01*
X42679571Y109637429D01*
X42679571Y110423143D02*
X42751000Y110566000D01*
X42893857Y110637429D01*
X43108142Y110637429D01*
X43251000Y110566000D01*
X43322428Y110423143D01*
X43322428Y109637429D01*
X44036714Y109637429D02*
X44036714Y110637429D01*
X44036714Y110494571D02*
X44108142Y110566000D01*
X44251000Y110637429D01*
X44465285Y110637429D01*
X44608142Y110566000D01*
X44679571Y110423143D01*
X44679571Y109637429D01*
X44679571Y110423143D02*
X44751000Y110566000D01*
X44893857Y110637429D01*
X45108142Y110637429D01*
X45251000Y110566000D01*
X45322428Y110423143D01*
X45322428Y109637429D01*
X0Y108966000D02*
X79502000Y108966000D01*
X0Y100584000D02*
X0Y111666000D01*
X79502000Y100584000D02*
X79502000Y111666000D01*
X79502000Y108966000D02*
X78375496Y108379579D01*
X79502000Y108966000D02*
X78375496Y109552421D01*
X0Y108966000D02*
X1126504Y108379579D01*
X0Y108966000D02*
X1126504Y109552421D01*
M02*
