G04 #@! TF.FileFunction,Soldermask,Bot*
%FSLAX46Y46*%
G04 Gerber Fmt 4.6, Leading zero omitted, Abs format (unit mm)*
G04 Created by KiCad (PCBNEW (after 2015-mar-04 BZR unknown)-product) date 2015年08月13日木曜日 20:06:45*
%MOMM*%
G01*
G04 APERTURE LIST*
%ADD10C,0.100000*%
%ADD11R,2.127200X2.127200*%
%ADD12O,2.127200X2.127200*%
G04 APERTURE END LIST*
D10*
D11*
X127000400Y47752000D03*
D12*
X127000400Y45212000D03*
X129540400Y47752000D03*
X129540400Y45212000D03*
X132080400Y47752000D03*
X132080400Y45212000D03*
X134620400Y47752000D03*
X134620400Y45212000D03*
X137160400Y47752000D03*
X137160400Y45212000D03*
X139700400Y47752000D03*
X139700400Y45212000D03*
X142240400Y47752000D03*
X142240400Y45212000D03*
X144780400Y47752000D03*
X144780400Y45212000D03*
X147320400Y47752000D03*
X147320400Y45212000D03*
X149860400Y47752000D03*
X149860400Y45212000D03*
X152400400Y47752000D03*
X152400400Y45212000D03*
X154940400Y47752000D03*
X154940400Y45212000D03*
D11*
X99060400Y47752000D03*
D12*
X99060400Y45212000D03*
X101600400Y47752000D03*
X101600400Y45212000D03*
X104140400Y47752000D03*
X104140400Y45212000D03*
X106680400Y47752000D03*
X106680400Y45212000D03*
X109220400Y47752000D03*
X109220400Y45212000D03*
X111760400Y47752000D03*
X111760400Y45212000D03*
X114300400Y47752000D03*
X114300400Y45212000D03*
X116840400Y47752000D03*
X116840400Y45212000D03*
X119380400Y47752000D03*
X119380400Y45212000D03*
X121920400Y47752000D03*
X121920400Y45212000D03*
D11*
X132080000Y2032000D03*
D12*
X132080000Y4572000D03*
X134620000Y2032000D03*
X134620000Y4572000D03*
X137160000Y2032000D03*
X137160000Y4572000D03*
X139700000Y2032000D03*
X139700000Y4572000D03*
X142240000Y2032000D03*
X142240000Y4572000D03*
X144780000Y2032000D03*
X144780000Y4572000D03*
X147320000Y2032000D03*
X147320000Y4572000D03*
X149860000Y2032000D03*
X149860000Y4572000D03*
X152400000Y2032000D03*
X152400000Y4572000D03*
X154940000Y2032000D03*
X154940000Y4572000D03*
D11*
X111760400Y2032200D03*
D12*
X111760400Y4572200D03*
X114300400Y2032200D03*
X114300400Y4572200D03*
X116840400Y2032200D03*
X116840400Y4572200D03*
X119380400Y2032200D03*
X119380400Y4572200D03*
X121920400Y2032200D03*
X121920400Y4572200D03*
X124460400Y2032200D03*
X124460400Y4572200D03*
X127000400Y2032200D03*
X127000400Y4572200D03*
D11*
X96520400Y2032200D03*
D12*
X96520400Y4572200D03*
X99060400Y2032200D03*
X99060400Y4572200D03*
X101600400Y2032200D03*
X101600400Y4572200D03*
X104140400Y2032200D03*
X104140400Y4572200D03*
X106680400Y2032200D03*
X106680400Y4572200D03*
D11*
X83820400Y47752000D03*
D12*
X83820400Y45212000D03*
X86360400Y47752000D03*
X86360400Y45212000D03*
X88900400Y47752000D03*
X88900400Y45212000D03*
X91440400Y47752000D03*
X91440400Y45212000D03*
X93980400Y47752000D03*
X93980400Y45212000D03*
D11*
X83820400Y98044000D03*
D12*
X83820400Y95504000D03*
X86360400Y98044000D03*
X86360400Y95504000D03*
X88900400Y98044000D03*
X88900400Y95504000D03*
X91440400Y98044000D03*
X91440400Y95504000D03*
X93980400Y98044000D03*
X93980400Y95504000D03*
D11*
X96520400Y52324200D03*
D12*
X96520400Y54864200D03*
X99060400Y52324200D03*
X99060400Y54864200D03*
X101600400Y52324200D03*
X101600400Y54864200D03*
X104140400Y52324200D03*
X104140400Y54864200D03*
X106680400Y52324200D03*
X106680400Y54864200D03*
D11*
X111760400Y52324200D03*
D12*
X111760400Y54864200D03*
X114300400Y52324200D03*
X114300400Y54864200D03*
X116840400Y52324200D03*
X116840400Y54864200D03*
X119380400Y52324200D03*
X119380400Y54864200D03*
X121920400Y52324200D03*
X121920400Y54864200D03*
X124460400Y52324200D03*
X124460400Y54864200D03*
X127000400Y52324200D03*
X127000400Y54864200D03*
D11*
X132080000Y52324000D03*
D12*
X132080000Y54864000D03*
X134620000Y52324000D03*
X134620000Y54864000D03*
X137160000Y52324000D03*
X137160000Y54864000D03*
X139700000Y52324000D03*
X139700000Y54864000D03*
X142240000Y52324000D03*
X142240000Y54864000D03*
X144780000Y52324000D03*
X144780000Y54864000D03*
X147320000Y52324000D03*
X147320000Y54864000D03*
X149860000Y52324000D03*
X149860000Y54864000D03*
X152400000Y52324000D03*
X152400000Y54864000D03*
X154940000Y52324000D03*
X154940000Y54864000D03*
D11*
X99060400Y98044000D03*
D12*
X99060400Y95504000D03*
X101600400Y98044000D03*
X101600400Y95504000D03*
X104140400Y98044000D03*
X104140400Y95504000D03*
X106680400Y98044000D03*
X106680400Y95504000D03*
X109220400Y98044000D03*
X109220400Y95504000D03*
X111760400Y98044000D03*
X111760400Y95504000D03*
X114300400Y98044000D03*
X114300400Y95504000D03*
X116840400Y98044000D03*
X116840400Y95504000D03*
X119380400Y98044000D03*
X119380400Y95504000D03*
X121920400Y98044000D03*
X121920400Y95504000D03*
D11*
X127000400Y98044000D03*
D12*
X127000400Y95504000D03*
X129540400Y98044000D03*
X129540400Y95504000D03*
X132080400Y98044000D03*
X132080400Y95504000D03*
X134620400Y98044000D03*
X134620400Y95504000D03*
X137160400Y98044000D03*
X137160400Y95504000D03*
X139700400Y98044000D03*
X139700400Y95504000D03*
X142240400Y98044000D03*
X142240400Y95504000D03*
X144780400Y98044000D03*
X144780400Y95504000D03*
X147320400Y98044000D03*
X147320400Y95504000D03*
X149860400Y98044000D03*
X149860400Y95504000D03*
X152400400Y98044000D03*
X152400400Y95504000D03*
X154940400Y98044000D03*
X154940400Y95504000D03*
D11*
X47244400Y98044000D03*
D12*
X47244400Y95504000D03*
X49784400Y98044000D03*
X49784400Y95504000D03*
X52324400Y98044000D03*
X52324400Y95504000D03*
X54864400Y98044000D03*
X54864400Y95504000D03*
X57404400Y98044000D03*
X57404400Y95504000D03*
X59944400Y98044000D03*
X59944400Y95504000D03*
X62484400Y98044000D03*
X62484400Y95504000D03*
X65024400Y98044000D03*
X65024400Y95504000D03*
X67564400Y98044000D03*
X67564400Y95504000D03*
X70104400Y98044000D03*
X70104400Y95504000D03*
X72644400Y98044000D03*
X72644400Y95504000D03*
X75184400Y98044000D03*
X75184400Y95504000D03*
D11*
X19304400Y98044000D03*
D12*
X19304400Y95504000D03*
X21844400Y98044000D03*
X21844400Y95504000D03*
X24384400Y98044000D03*
X24384400Y95504000D03*
X26924400Y98044000D03*
X26924400Y95504000D03*
X29464400Y98044000D03*
X29464400Y95504000D03*
X32004400Y98044000D03*
X32004400Y95504000D03*
X34544400Y98044000D03*
X34544400Y95504000D03*
X37084400Y98044000D03*
X37084400Y95504000D03*
X39624400Y98044000D03*
X39624400Y95504000D03*
X42164400Y98044000D03*
X42164400Y95504000D03*
D11*
X52324000Y52324000D03*
D12*
X52324000Y54864000D03*
X54864000Y52324000D03*
X54864000Y54864000D03*
X57404000Y52324000D03*
X57404000Y54864000D03*
X59944000Y52324000D03*
X59944000Y54864000D03*
X62484000Y52324000D03*
X62484000Y54864000D03*
X65024000Y52324000D03*
X65024000Y54864000D03*
X67564000Y52324000D03*
X67564000Y54864000D03*
X70104000Y52324000D03*
X70104000Y54864000D03*
X72644000Y52324000D03*
X72644000Y54864000D03*
X75184000Y52324000D03*
X75184000Y54864000D03*
D11*
X32004400Y52324200D03*
D12*
X32004400Y54864200D03*
X34544400Y52324200D03*
X34544400Y54864200D03*
X37084400Y52324200D03*
X37084400Y54864200D03*
X39624400Y52324200D03*
X39624400Y54864200D03*
X42164400Y52324200D03*
X42164400Y54864200D03*
X44704400Y52324200D03*
X44704400Y54864200D03*
X47244400Y52324200D03*
X47244400Y54864200D03*
D11*
X16764400Y52324200D03*
D12*
X16764400Y54864200D03*
X19304400Y52324200D03*
X19304400Y54864200D03*
X21844400Y52324200D03*
X21844400Y54864200D03*
X24384400Y52324200D03*
X24384400Y54864200D03*
X26924400Y52324200D03*
X26924400Y54864200D03*
D11*
X4064400Y98044000D03*
D12*
X4064400Y95504000D03*
X6604400Y98044000D03*
X6604400Y95504000D03*
X9144400Y98044000D03*
X9144400Y95504000D03*
X11684400Y98044000D03*
X11684400Y95504000D03*
X14224400Y98044000D03*
X14224400Y95504000D03*
D11*
X4064400Y47752000D03*
D12*
X4064400Y45212000D03*
X6604400Y47752000D03*
X6604400Y45212000D03*
X9144400Y47752000D03*
X9144400Y45212000D03*
X11684400Y47752000D03*
X11684400Y45212000D03*
X14224400Y47752000D03*
X14224400Y45212000D03*
D11*
X16764400Y2032200D03*
D12*
X16764400Y4572200D03*
X19304400Y2032200D03*
X19304400Y4572200D03*
X21844400Y2032200D03*
X21844400Y4572200D03*
X24384400Y2032200D03*
X24384400Y4572200D03*
X26924400Y2032200D03*
X26924400Y4572200D03*
D11*
X32004400Y2032200D03*
D12*
X32004400Y4572200D03*
X34544400Y2032200D03*
X34544400Y4572200D03*
X37084400Y2032200D03*
X37084400Y4572200D03*
X39624400Y2032200D03*
X39624400Y4572200D03*
X42164400Y2032200D03*
X42164400Y4572200D03*
X44704400Y2032200D03*
X44704400Y4572200D03*
X47244400Y2032200D03*
X47244400Y4572200D03*
D11*
X52324000Y2032000D03*
D12*
X52324000Y4572000D03*
X54864000Y2032000D03*
X54864000Y4572000D03*
X57404000Y2032000D03*
X57404000Y4572000D03*
X59944000Y2032000D03*
X59944000Y4572000D03*
X62484000Y2032000D03*
X62484000Y4572000D03*
X65024000Y2032000D03*
X65024000Y4572000D03*
X67564000Y2032000D03*
X67564000Y4572000D03*
X70104000Y2032000D03*
X70104000Y4572000D03*
X72644000Y2032000D03*
X72644000Y4572000D03*
X75184000Y2032000D03*
X75184000Y4572000D03*
D11*
X19304400Y47752000D03*
D12*
X19304400Y45212000D03*
X21844400Y47752000D03*
X21844400Y45212000D03*
X24384400Y47752000D03*
X24384400Y45212000D03*
X26924400Y47752000D03*
X26924400Y45212000D03*
X29464400Y47752000D03*
X29464400Y45212000D03*
X32004400Y47752000D03*
X32004400Y45212000D03*
X34544400Y47752000D03*
X34544400Y45212000D03*
X37084400Y47752000D03*
X37084400Y45212000D03*
X39624400Y47752000D03*
X39624400Y45212000D03*
X42164400Y47752000D03*
X42164400Y45212000D03*
D11*
X47244400Y47752000D03*
D12*
X47244400Y45212000D03*
X49784400Y47752000D03*
X49784400Y45212000D03*
X52324400Y47752000D03*
X52324400Y45212000D03*
X54864400Y47752000D03*
X54864400Y45212000D03*
X57404400Y47752000D03*
X57404400Y45212000D03*
X59944400Y47752000D03*
X59944400Y45212000D03*
X62484400Y47752000D03*
X62484400Y45212000D03*
X65024400Y47752000D03*
X65024400Y45212000D03*
X67564400Y47752000D03*
X67564400Y45212000D03*
X70104400Y47752000D03*
X70104400Y45212000D03*
X72644400Y47752000D03*
X72644400Y45212000D03*
X75184400Y47752000D03*
X75184400Y45212000D03*
M02*
