M48
;DRILL file {kicad (after 2015-mar-04 BZR unknown)-product} date 2015年08月08日土曜日 05:56:39
;FORMAT={3:3/ absolute / metric / suppress leading zeros}
FMAT,2
METRIC,TZ
T1C0.300
T2C1.016
%
G90
G05
M71
T1
X18161Y42672
X27525Y40518
X32766Y34823
X33985Y34544
X37196Y37095
X38100Y35458
X38227Y38206
X40640Y38989
X40640Y41275
X47244Y38654
X48260Y38202
X48260Y34671
X49911Y34671
X53721Y38481
X56388Y41097
X56388Y39472
X61163Y38760
X64059Y38354
X67310Y38354
X68580Y38354
X69723Y38354
X71069Y38354
X72390Y38354
X73533Y38354
X74778Y38354
X76200Y38354
T2
X4064Y47752
X4064Y45212
X6604Y47752
X6604Y45212
X9144Y47752
X9144Y45212
X11684Y47752
X11684Y45212
X14224Y47752
X14224Y45212
X16764Y4572
X16764Y2032
X19304Y47752
X19304Y45212
X19304Y4572
X19304Y2032
X21844Y47752
X21844Y45212
X21844Y4572
X21844Y2032
X24384Y47752
X24384Y45212
X24384Y4572
X24384Y2032
X26924Y47752
X26924Y45212
X26924Y4572
X26924Y2032
X29464Y47752
X29464Y45212
X32004Y47752
X32004Y45212
X32004Y4572
X32004Y2032
X34544Y47752
X34544Y45212
X34544Y4572
X34544Y2032
X37084Y47752
X37084Y45212
X37084Y4572
X37084Y2032
X39624Y47752
X39624Y45212
X39624Y4572
X39624Y2032
X42164Y47752
X42164Y45212
X42164Y4572
X42164Y2032
X44704Y4572
X44704Y2032
X47244Y47752
X47244Y45212
X47244Y4572
X47244Y2032
X49784Y47752
X49784Y45212
X52324Y4572
X52324Y2032
X52324Y47752
X52324Y45212
X54864Y4572
X54864Y2032
X54864Y47752
X54864Y45212
X57404Y4572
X57404Y2032
X57404Y47752
X57404Y45212
X59944Y4572
X59944Y2032
X59944Y47752
X59944Y45212
X62484Y4572
X62484Y2032
X62484Y47752
X62484Y45212
X65024Y4572
X65024Y2032
X65024Y47752
X65024Y45212
X67564Y4572
X67564Y2032
X67564Y47752
X67564Y45212
X70104Y4572
X70104Y2032
X70104Y47752
X70104Y45212
X72644Y4572
X72644Y2032
X72644Y47752
X72644Y45212
X75184Y4572
X75184Y2032
X75184Y47752
X75184Y45212
T0
M30
