G04 #@! TF.FileFunction,Legend,Bot*
%FSLAX46Y46*%
G04 Gerber Fmt 4.6, Leading zero omitted, Abs format (unit mm)*
G04 Created by KiCad (PCBNEW (after 2015-mar-04 BZR unknown)-product) date 2015年08月08日土曜日 05:56:36*
%MOMM*%
G01*
G04 APERTURE LIST*
%ADD10C,0.100000*%
%ADD11C,0.250000*%
%ADD12C,0.300000*%
%ADD13C,0.200000*%
%ADD14C,0.275000*%
%ADD15C,0.150000*%
%ADD16R,2.127200X2.127200*%
%ADD17O,2.127200X2.127200*%
G04 APERTURE END LIST*
D10*
D11*
X31454000Y8610286D02*
X31401619Y8715048D01*
X31401619Y8872191D01*
X31454000Y9029333D01*
X31558762Y9134095D01*
X31663524Y9186476D01*
X31873048Y9238857D01*
X32030190Y9238857D01*
X32239714Y9186476D01*
X32344476Y9134095D01*
X32449238Y9029333D01*
X32501619Y8872191D01*
X32501619Y8767429D01*
X32449238Y8610286D01*
X32396857Y8557905D01*
X32030190Y8557905D01*
X32030190Y8767429D01*
X32501619Y8086476D02*
X31401619Y8086476D01*
X32501619Y7457905D01*
X31401619Y7457905D01*
X32501619Y6934095D02*
X31401619Y6934095D01*
X31401619Y6672190D01*
X31454000Y6515048D01*
X31558762Y6410286D01*
X31663524Y6357905D01*
X31873048Y6305524D01*
X32030190Y6305524D01*
X32239714Y6357905D01*
X32344476Y6410286D01*
X32449238Y6515048D01*
X32501619Y6672190D01*
X32501619Y6934095D01*
D12*
X49034000Y8254572D02*
X48962571Y8397429D01*
X48962571Y8611715D01*
X49034000Y8826000D01*
X49176857Y8968858D01*
X49319714Y9040286D01*
X49605429Y9111715D01*
X49819714Y9111715D01*
X50105429Y9040286D01*
X50248286Y8968858D01*
X50391143Y8826000D01*
X50462571Y8611715D01*
X50462571Y8468858D01*
X50391143Y8254572D01*
X50319714Y8183143D01*
X49819714Y8183143D01*
X49819714Y8468858D01*
X50462571Y7540286D02*
X48962571Y7540286D01*
X50462571Y6683143D01*
X48962571Y6683143D01*
X50462571Y5968857D02*
X48962571Y5968857D01*
X48962571Y5611714D01*
X49034000Y5397429D01*
X49176857Y5254571D01*
X49319714Y5183143D01*
X49605429Y5111714D01*
X49819714Y5111714D01*
X50105429Y5183143D01*
X50248286Y5254571D01*
X50391143Y5397429D01*
X50462571Y5611714D01*
X50462571Y5968857D01*
D13*
X49657000Y3810000D02*
X50038000Y3683000D01*
X49657000Y4191000D02*
X49657000Y3810000D01*
X49403000Y3683000D02*
X49657000Y4191000D01*
X49784000Y3683000D02*
X49403000Y3683000D01*
X49911000Y3683000D02*
X49784000Y3683000D01*
X49784000Y4064000D02*
X49911000Y3683000D01*
X50165000Y3556000D02*
X49784000Y4572000D01*
X49276000Y3556000D02*
X50165000Y3556000D01*
X49784000Y4572000D02*
X49276000Y3556000D01*
X49784000Y4064000D02*
X49784000Y4572000D01*
X49784000Y2921000D02*
X49784000Y4064000D01*
X49403000Y2921000D02*
X49784000Y2921000D01*
X49403000Y254000D02*
X49403000Y2921000D01*
X52324000Y254000D02*
X49403000Y254000D01*
D11*
X28914000Y7340286D02*
X28861619Y7445048D01*
X28861619Y7602191D01*
X28914000Y7759333D01*
X29018762Y7864095D01*
X29123524Y7916476D01*
X29333048Y7968857D01*
X29490190Y7968857D01*
X29699714Y7916476D01*
X29804476Y7864095D01*
X29909238Y7759333D01*
X29961619Y7602191D01*
X29961619Y7497429D01*
X29909238Y7340286D01*
X29856857Y7287905D01*
X29490190Y7287905D01*
X29490190Y7497429D01*
X29961619Y6816476D02*
X28861619Y6816476D01*
X29961619Y6187905D01*
X28861619Y6187905D01*
X29961619Y5664095D02*
X28861619Y5664095D01*
X28861619Y5402190D01*
X28914000Y5245048D01*
X29018762Y5140286D01*
X29123524Y5087905D01*
X29333048Y5035524D01*
X29490190Y5035524D01*
X29699714Y5087905D01*
X29804476Y5140286D01*
X29909238Y5245048D01*
X29961619Y5402190D01*
X29961619Y5664095D01*
D13*
X29718000Y3810000D02*
X29210000Y3810000D01*
X29464000Y4191000D02*
X29591000Y3810000D01*
X29337000Y4191000D02*
X29337000Y3810000D01*
X29845000Y3683000D02*
X29464000Y4572000D01*
X29083000Y3683000D02*
X29845000Y3683000D01*
X29464000Y4572000D02*
X29083000Y3683000D01*
X29464000Y2921000D02*
X29464000Y4572000D01*
X29083000Y2921000D02*
X29464000Y2921000D01*
X29083000Y254000D02*
X29083000Y2921000D01*
D11*
X5346000Y8381572D02*
X5274571Y8524429D01*
X5274571Y8738715D01*
X5346000Y8953000D01*
X5488857Y9095858D01*
X5631714Y9167286D01*
X5917429Y9238715D01*
X6131714Y9238715D01*
X6417429Y9167286D01*
X6560286Y9095858D01*
X6703143Y8953000D01*
X6774571Y8738715D01*
X6774571Y8595858D01*
X6703143Y8381572D01*
X6631714Y8310143D01*
X6131714Y8310143D01*
X6131714Y8595858D01*
X6774571Y7667286D02*
X5274571Y7667286D01*
X6774571Y6810143D01*
X5274571Y6810143D01*
X6774571Y6095857D02*
X5274571Y6095857D01*
X5274571Y5738714D01*
X5346000Y5524429D01*
X5488857Y5381571D01*
X5631714Y5310143D01*
X5917429Y5238714D01*
X6131714Y5238714D01*
X6417429Y5310143D01*
X6560286Y5381571D01*
X6703143Y5524429D01*
X6774571Y5738714D01*
X6774571Y6095857D01*
D13*
X6350000Y3810000D02*
X6223000Y3810000D01*
X5969000Y3683000D02*
X6350000Y3810000D01*
X6477000Y3556000D02*
X5969000Y3683000D01*
X6096000Y4064000D02*
X6477000Y3556000D01*
X5715000Y3556000D02*
X6096000Y4064000D01*
X6604000Y3556000D02*
X5715000Y3556000D01*
X6096000Y4318000D02*
X6604000Y3556000D01*
X5334000Y3429000D02*
X6096000Y4318000D01*
X5588000Y3429000D02*
X5334000Y3429000D01*
X5334000Y3429000D02*
X6096000Y4699000D01*
X5461000Y3429000D02*
X6096000Y4699000D01*
X6858000Y3429000D02*
X5461000Y3429000D01*
X6096000Y4699000D02*
X6858000Y3429000D01*
X6096000Y3175000D02*
X6096000Y3048000D01*
X6096000Y4699000D02*
X6096000Y3175000D01*
X6096000Y508000D02*
X6096000Y3048000D01*
X19304000Y508000D02*
X6096000Y508000D01*
X32004000Y254000D02*
X27051000Y254000D01*
X26924000Y1016000D02*
X26924000Y254000D01*
X21844000Y254000D02*
X21844000Y1016000D01*
X19304000Y254000D02*
X21844000Y254000D01*
X19304000Y1016000D02*
X19304000Y254000D01*
X32004000Y1016000D02*
X32004000Y254000D01*
X52324000Y254000D02*
X52324000Y1016000D01*
X57277000Y254000D02*
X52324000Y254000D01*
X67818000Y254000D02*
X57277000Y254000D01*
X75184000Y254000D02*
X67818000Y254000D01*
X75184000Y1016000D02*
X75184000Y254000D01*
D11*
X14279619Y4825810D02*
X14232000Y4778191D01*
X14184381Y4682953D01*
X14184381Y4444857D01*
X14232000Y4349619D01*
X14279619Y4302000D01*
X14374857Y4254381D01*
X14470095Y4254381D01*
X14612952Y4302000D01*
X15184381Y4873429D01*
X15184381Y4254381D01*
X15184381Y1778190D02*
X15184381Y2349619D01*
X15184381Y2063905D02*
X14184381Y2063905D01*
X14327238Y2159143D01*
X14422476Y2254381D01*
X14470095Y2349619D01*
X2738381Y47434381D02*
X2738381Y48005810D01*
X2738381Y47720096D02*
X1738381Y47720096D01*
X1881238Y47815334D01*
X1976476Y47910572D01*
X2024095Y48005810D01*
X1833619Y45529619D02*
X1786000Y45482000D01*
X1738381Y45386762D01*
X1738381Y45148666D01*
X1786000Y45053428D01*
X1833619Y45005809D01*
X1928857Y44958190D01*
X2024095Y44958190D01*
X2166952Y45005809D01*
X2738381Y45577238D01*
X2738381Y44958190D01*
D13*
X77533500Y46609000D02*
X77381100Y46647100D01*
X77571600Y46329600D02*
X77533500Y46609000D01*
X77812900Y46469300D02*
X77571600Y46329600D01*
X77863700Y46609000D02*
X77812900Y46469300D01*
X77724000Y46736000D02*
X77863700Y46609000D01*
X77470000Y46482000D02*
X77724000Y46736000D01*
X77724000Y46482000D02*
X77470000Y46482000D01*
X77724000Y46228000D02*
X77724000Y46482000D01*
X77978000Y46482000D02*
X77724000Y46228000D01*
X77978000Y46736000D02*
X77978000Y46482000D01*
X77470000Y46736000D02*
X77978000Y46736000D01*
X77470000Y46736000D02*
X77978000Y46736000D01*
X78232000Y46736000D02*
X77724000Y45974000D01*
X77216000Y46736000D02*
X78232000Y46736000D01*
X77724000Y45974000D02*
X77216000Y46736000D01*
X77724000Y49530000D02*
X77724000Y45974000D01*
X75184000Y49530000D02*
X77724000Y49530000D01*
D11*
X77644667Y18502381D02*
X77644667Y19216667D01*
X77597047Y19359524D01*
X77501809Y19454762D01*
X77358952Y19502381D01*
X77263714Y19502381D01*
X78549429Y18502381D02*
X78358952Y18502381D01*
X78263714Y18550000D01*
X78216095Y18597619D01*
X78120857Y18740476D01*
X78073238Y18930952D01*
X78073238Y19311905D01*
X78120857Y19407143D01*
X78168476Y19454762D01*
X78263714Y19502381D01*
X78454191Y19502381D01*
X78549429Y19454762D01*
X78597048Y19407143D01*
X78644667Y19311905D01*
X78644667Y19073810D01*
X78597048Y18978571D01*
X78549429Y18930952D01*
X78454191Y18883333D01*
X78263714Y18883333D01*
X78168476Y18930952D01*
X78120857Y18978571D01*
X78073238Y19073810D01*
X71025714Y19903381D02*
X71359047Y20903381D01*
X71692381Y19903381D01*
X72025714Y20903381D02*
X72025714Y19903381D01*
X72692380Y19903381D02*
X72882857Y19903381D01*
X72978095Y19951000D01*
X73073333Y20046238D01*
X73120952Y20236714D01*
X73120952Y20570048D01*
X73073333Y20760524D01*
X72978095Y20855762D01*
X72882857Y20903381D01*
X72692380Y20903381D01*
X72597142Y20855762D01*
X72501904Y20760524D01*
X72454285Y20570048D01*
X72454285Y20236714D01*
X72501904Y20046238D01*
X72597142Y19951000D01*
X72692380Y19903381D01*
X73311428Y20998619D02*
X74073333Y20998619D01*
X74216190Y19903381D02*
X74835238Y19903381D01*
X74501904Y20284333D01*
X74644762Y20284333D01*
X74740000Y20331952D01*
X74787619Y20379571D01*
X74835238Y20474810D01*
X74835238Y20712905D01*
X74787619Y20808143D01*
X74740000Y20855762D01*
X74644762Y20903381D01*
X74359047Y20903381D01*
X74263809Y20855762D01*
X74216190Y20808143D01*
X75120952Y19903381D02*
X75454285Y20903381D01*
X75787619Y19903381D01*
X76025714Y19903381D02*
X76644762Y19903381D01*
X76311428Y20284333D01*
X76454286Y20284333D01*
X76549524Y20331952D01*
X76597143Y20379571D01*
X76644762Y20474810D01*
X76644762Y20712905D01*
X76597143Y20808143D01*
X76549524Y20855762D01*
X76454286Y20903381D01*
X76168571Y20903381D01*
X76073333Y20855762D01*
X76025714Y20808143D01*
X76978095Y19903381D02*
X77644762Y19903381D01*
X76978095Y20903381D01*
X77644762Y20903381D01*
X77930476Y19903381D02*
X78597143Y19903381D01*
X77930476Y20903381D01*
X78597143Y20903381D01*
X66882857Y21553381D02*
X66882857Y22267667D01*
X66835237Y22410524D01*
X66739999Y22505762D01*
X66597142Y22553381D01*
X66501904Y22553381D01*
X67216190Y21553381D02*
X67787619Y21553381D01*
X67501904Y22553381D02*
X67501904Y21553381D01*
X68073333Y22267667D02*
X68549524Y22267667D01*
X67978095Y22553381D02*
X68311428Y21553381D01*
X68644762Y22553381D01*
X69501905Y21601000D02*
X69406667Y21553381D01*
X69263810Y21553381D01*
X69120952Y21601000D01*
X69025714Y21696238D01*
X68978095Y21791476D01*
X68930476Y21981952D01*
X68930476Y22124810D01*
X68978095Y22315286D01*
X69025714Y22410524D01*
X69120952Y22505762D01*
X69263810Y22553381D01*
X69359048Y22553381D01*
X69501905Y22505762D01*
X69549524Y22458143D01*
X69549524Y22124810D01*
X69359048Y22124810D01*
X69740000Y22648619D02*
X70501905Y22648619D01*
X70597143Y21553381D02*
X71168572Y21553381D01*
X70882857Y22553381D02*
X70882857Y21553381D01*
X71501905Y22553381D02*
X71501905Y21553381D01*
X71835239Y22267667D01*
X72168572Y21553381D01*
X72168572Y22553381D01*
X72597143Y22505762D02*
X72740000Y22553381D01*
X72978096Y22553381D01*
X73073334Y22505762D01*
X73120953Y22458143D01*
X73168572Y22362905D01*
X73168572Y22267667D01*
X73120953Y22172429D01*
X73073334Y22124810D01*
X72978096Y22077190D01*
X72787619Y22029571D01*
X72692381Y21981952D01*
X72644762Y21934333D01*
X72597143Y21839095D01*
X72597143Y21743857D01*
X72644762Y21648619D01*
X72692381Y21601000D01*
X72787619Y21553381D01*
X73025715Y21553381D01*
X73168572Y21601000D01*
X73359048Y22648619D02*
X74120953Y22648619D01*
X74311429Y22505762D02*
X74454286Y22553381D01*
X74692382Y22553381D01*
X74787620Y22505762D01*
X74835239Y22458143D01*
X74882858Y22362905D01*
X74882858Y22267667D01*
X74835239Y22172429D01*
X74787620Y22124810D01*
X74692382Y22077190D01*
X74501905Y22029571D01*
X74406667Y21981952D01*
X74359048Y21934333D01*
X74311429Y21839095D01*
X74311429Y21743857D01*
X74359048Y21648619D01*
X74406667Y21601000D01*
X74501905Y21553381D01*
X74740001Y21553381D01*
X74882858Y21601000D01*
X75216191Y21553381D02*
X75454286Y22553381D01*
X75644763Y21839095D01*
X75835239Y22553381D01*
X76073334Y21553381D01*
X76454286Y22553381D02*
X76454286Y21553381D01*
X76692381Y21553381D01*
X76835239Y21601000D01*
X76930477Y21696238D01*
X76978096Y21791476D01*
X77025715Y21981952D01*
X77025715Y22124810D01*
X76978096Y22315286D01*
X76930477Y22410524D01*
X76835239Y22505762D01*
X76692381Y22553381D01*
X76454286Y22553381D01*
X77454286Y22553381D02*
X77454286Y21553381D01*
X78120952Y21553381D02*
X78311429Y21553381D01*
X78406667Y21601000D01*
X78501905Y21696238D01*
X78549524Y21886714D01*
X78549524Y22220048D01*
X78501905Y22410524D01*
X78406667Y22505762D01*
X78311429Y22553381D01*
X78120952Y22553381D01*
X78025714Y22505762D01*
X77930476Y22410524D01*
X77882857Y22220048D01*
X77882857Y21886714D01*
X77930476Y21696238D01*
X78025714Y21601000D01*
X78120952Y21553381D01*
X66692380Y23203381D02*
X66692380Y23917667D01*
X66644760Y24060524D01*
X66549522Y24155762D01*
X66406665Y24203381D01*
X66311427Y24203381D01*
X67025713Y23203381D02*
X67597142Y23203381D01*
X67311427Y24203381D02*
X67311427Y23203381D01*
X67882856Y23917667D02*
X68359047Y23917667D01*
X67787618Y24203381D02*
X68120951Y23203381D01*
X68454285Y24203381D01*
X69311428Y23251000D02*
X69216190Y23203381D01*
X69073333Y23203381D01*
X68930475Y23251000D01*
X68835237Y23346238D01*
X68787618Y23441476D01*
X68739999Y23631952D01*
X68739999Y23774810D01*
X68787618Y23965286D01*
X68835237Y24060524D01*
X68930475Y24155762D01*
X69073333Y24203381D01*
X69168571Y24203381D01*
X69311428Y24155762D01*
X69359047Y24108143D01*
X69359047Y23774810D01*
X69168571Y23774810D01*
X69549523Y24298619D02*
X70311428Y24298619D01*
X70406666Y23203381D02*
X70978095Y23203381D01*
X70692380Y24203381D02*
X70692380Y23203381D01*
X71882857Y24108143D02*
X71835238Y24155762D01*
X71692381Y24203381D01*
X71597143Y24203381D01*
X71454285Y24155762D01*
X71359047Y24060524D01*
X71311428Y23965286D01*
X71263809Y23774810D01*
X71263809Y23631952D01*
X71311428Y23441476D01*
X71359047Y23346238D01*
X71454285Y23251000D01*
X71597143Y23203381D01*
X71692381Y23203381D01*
X71835238Y23251000D01*
X71882857Y23298619D01*
X72311428Y24203381D02*
X72311428Y23203381D01*
X72882857Y24203381D02*
X72454285Y23631952D01*
X72882857Y23203381D02*
X72311428Y23774810D01*
X73073333Y24298619D02*
X73835238Y24298619D01*
X74025714Y24155762D02*
X74168571Y24203381D01*
X74406667Y24203381D01*
X74501905Y24155762D01*
X74549524Y24108143D01*
X74597143Y24012905D01*
X74597143Y23917667D01*
X74549524Y23822429D01*
X74501905Y23774810D01*
X74406667Y23727190D01*
X74216190Y23679571D01*
X74120952Y23631952D01*
X74073333Y23584333D01*
X74025714Y23489095D01*
X74025714Y23393857D01*
X74073333Y23298619D01*
X74120952Y23251000D01*
X74216190Y23203381D01*
X74454286Y23203381D01*
X74597143Y23251000D01*
X74930476Y23203381D02*
X75168571Y24203381D01*
X75359048Y23489095D01*
X75549524Y24203381D01*
X75787619Y23203381D01*
X76740000Y24108143D02*
X76692381Y24155762D01*
X76549524Y24203381D01*
X76454286Y24203381D01*
X76311428Y24155762D01*
X76216190Y24060524D01*
X76168571Y23965286D01*
X76120952Y23774810D01*
X76120952Y23631952D01*
X76168571Y23441476D01*
X76216190Y23346238D01*
X76311428Y23251000D01*
X76454286Y23203381D01*
X76549524Y23203381D01*
X76692381Y23251000D01*
X76740000Y23298619D01*
X77644762Y24203381D02*
X77168571Y24203381D01*
X77168571Y23203381D01*
X77978095Y24203381D02*
X77978095Y23203381D01*
X78549524Y24203381D02*
X78120952Y23631952D01*
X78549524Y23203381D02*
X77978095Y23774810D01*
X68406666Y24853381D02*
X68406666Y25567667D01*
X68359046Y25710524D01*
X68263808Y25805762D01*
X68120951Y25853381D01*
X68025713Y25853381D01*
X68739999Y24853381D02*
X69311428Y24853381D01*
X69025713Y25853381D02*
X69025713Y24853381D01*
X69597142Y25567667D02*
X70073333Y25567667D01*
X69501904Y25853381D02*
X69835237Y24853381D01*
X70168571Y25853381D01*
X71025714Y24901000D02*
X70930476Y24853381D01*
X70787619Y24853381D01*
X70644761Y24901000D01*
X70549523Y24996238D01*
X70501904Y25091476D01*
X70454285Y25281952D01*
X70454285Y25424810D01*
X70501904Y25615286D01*
X70549523Y25710524D01*
X70644761Y25805762D01*
X70787619Y25853381D01*
X70882857Y25853381D01*
X71025714Y25805762D01*
X71073333Y25758143D01*
X71073333Y25424810D01*
X70882857Y25424810D01*
X71263809Y25948619D02*
X72025714Y25948619D01*
X72120952Y24853381D02*
X72692381Y24853381D01*
X72406666Y25853381D02*
X72406666Y24853381D01*
X73025714Y25853381D02*
X73025714Y24853381D01*
X73263809Y24853381D01*
X73406667Y24901000D01*
X73501905Y24996238D01*
X73549524Y25091476D01*
X73597143Y25281952D01*
X73597143Y25424810D01*
X73549524Y25615286D01*
X73501905Y25710524D01*
X73406667Y25805762D01*
X73263809Y25853381D01*
X73025714Y25853381D01*
X74216190Y24853381D02*
X74406667Y24853381D01*
X74501905Y24901000D01*
X74597143Y24996238D01*
X74644762Y25186714D01*
X74644762Y25520048D01*
X74597143Y25710524D01*
X74501905Y25805762D01*
X74406667Y25853381D01*
X74216190Y25853381D01*
X74120952Y25805762D01*
X74025714Y25710524D01*
X73978095Y25520048D01*
X73978095Y25186714D01*
X74025714Y24996238D01*
X74120952Y24901000D01*
X74216190Y24853381D01*
X74835238Y25948619D02*
X75597143Y25948619D01*
X75787619Y25805762D02*
X75930476Y25853381D01*
X76168572Y25853381D01*
X76263810Y25805762D01*
X76311429Y25758143D01*
X76359048Y25662905D01*
X76359048Y25567667D01*
X76311429Y25472429D01*
X76263810Y25424810D01*
X76168572Y25377190D01*
X75978095Y25329571D01*
X75882857Y25281952D01*
X75835238Y25234333D01*
X75787619Y25139095D01*
X75787619Y25043857D01*
X75835238Y24948619D01*
X75882857Y24901000D01*
X75978095Y24853381D01*
X76216191Y24853381D01*
X76359048Y24901000D01*
X76692381Y24853381D02*
X76930476Y25853381D01*
X77120953Y25139095D01*
X77311429Y25853381D01*
X77549524Y24853381D01*
X78120952Y24853381D02*
X78311429Y24853381D01*
X78406667Y24901000D01*
X78501905Y24996238D01*
X78549524Y25186714D01*
X78549524Y25520048D01*
X78501905Y25710524D01*
X78406667Y25805762D01*
X78311429Y25853381D01*
X78120952Y25853381D01*
X78025714Y25805762D01*
X77930476Y25710524D01*
X77882857Y25520048D01*
X77882857Y25186714D01*
X77930476Y24996238D01*
X78025714Y24901000D01*
X78120952Y24853381D01*
X72882857Y26503381D02*
X72882857Y27217667D01*
X72835237Y27360524D01*
X72739999Y27455762D01*
X72597142Y27503381D01*
X72501904Y27503381D01*
X73216190Y26503381D02*
X73787619Y26503381D01*
X73501904Y27503381D02*
X73501904Y26503381D01*
X74073333Y27217667D02*
X74549524Y27217667D01*
X73978095Y27503381D02*
X74311428Y26503381D01*
X74644762Y27503381D01*
X75501905Y26551000D02*
X75406667Y26503381D01*
X75263810Y26503381D01*
X75120952Y26551000D01*
X75025714Y26646238D01*
X74978095Y26741476D01*
X74930476Y26931952D01*
X74930476Y27074810D01*
X74978095Y27265286D01*
X75025714Y27360524D01*
X75120952Y27455762D01*
X75263810Y27503381D01*
X75359048Y27503381D01*
X75501905Y27455762D01*
X75549524Y27408143D01*
X75549524Y27074810D01*
X75359048Y27074810D01*
X75740000Y27598619D02*
X76501905Y27598619D01*
X76597143Y26503381D02*
X77168572Y26503381D01*
X76882857Y27503381D02*
X76882857Y26503381D01*
X77501905Y27503381D02*
X77501905Y26503381D01*
X77740000Y26503381D01*
X77882858Y26551000D01*
X77978096Y26646238D01*
X78025715Y26741476D01*
X78073334Y26931952D01*
X78073334Y27074810D01*
X78025715Y27265286D01*
X77978096Y27360524D01*
X77882858Y27455762D01*
X77740000Y27503381D01*
X77501905Y27503381D01*
X78501905Y27503381D02*
X78501905Y26503381D01*
X70597142Y28153381D02*
X70597142Y28867667D01*
X70549522Y29010524D01*
X70454284Y29105762D01*
X70311427Y29153381D01*
X70216189Y29153381D01*
X70930475Y28153381D02*
X71501904Y28153381D01*
X71216189Y29153381D02*
X71216189Y28153381D01*
X71787618Y28867667D02*
X72263809Y28867667D01*
X71692380Y29153381D02*
X72025713Y28153381D01*
X72359047Y29153381D01*
X73216190Y28201000D02*
X73120952Y28153381D01*
X72978095Y28153381D01*
X72835237Y28201000D01*
X72739999Y28296238D01*
X72692380Y28391476D01*
X72644761Y28581952D01*
X72644761Y28724810D01*
X72692380Y28915286D01*
X72739999Y29010524D01*
X72835237Y29105762D01*
X72978095Y29153381D01*
X73073333Y29153381D01*
X73216190Y29105762D01*
X73263809Y29058143D01*
X73263809Y28724810D01*
X73073333Y28724810D01*
X73454285Y29248619D02*
X74216190Y29248619D01*
X75025714Y29153381D02*
X74692380Y28677190D01*
X74454285Y29153381D02*
X74454285Y28153381D01*
X74835238Y28153381D01*
X74930476Y28201000D01*
X74978095Y28248619D01*
X75025714Y28343857D01*
X75025714Y28486714D01*
X74978095Y28581952D01*
X74930476Y28629571D01*
X74835238Y28677190D01*
X74454285Y28677190D01*
X75454285Y28629571D02*
X75787619Y28629571D01*
X75930476Y29153381D02*
X75454285Y29153381D01*
X75454285Y28153381D01*
X75930476Y28153381D01*
X76311428Y29105762D02*
X76454285Y29153381D01*
X76692381Y29153381D01*
X76787619Y29105762D01*
X76835238Y29058143D01*
X76882857Y28962905D01*
X76882857Y28867667D01*
X76835238Y28772429D01*
X76787619Y28724810D01*
X76692381Y28677190D01*
X76501904Y28629571D01*
X76406666Y28581952D01*
X76359047Y28534333D01*
X76311428Y28439095D01*
X76311428Y28343857D01*
X76359047Y28248619D01*
X76406666Y28201000D01*
X76501904Y28153381D01*
X76740000Y28153381D01*
X76882857Y28201000D01*
X77311428Y28629571D02*
X77644762Y28629571D01*
X77787619Y29153381D02*
X77311428Y29153381D01*
X77311428Y28153381D01*
X77787619Y28153381D01*
X78073333Y28153381D02*
X78644762Y28153381D01*
X78359047Y29153381D02*
X78359047Y28153381D01*
X72406666Y30279571D02*
X72740000Y30279571D01*
X72882857Y30803381D02*
X72406666Y30803381D01*
X72406666Y29803381D01*
X72882857Y29803381D01*
X73216190Y29803381D02*
X73882857Y30803381D01*
X73882857Y29803381D02*
X73216190Y30803381D01*
X74120952Y29803381D02*
X74692381Y29803381D01*
X74406666Y30803381D02*
X74406666Y29803381D01*
X74787619Y30898619D02*
X75549524Y30898619D01*
X75787619Y30803381D02*
X75787619Y29803381D01*
X76168572Y29803381D01*
X76263810Y29851000D01*
X76311429Y29898619D01*
X76359048Y29993857D01*
X76359048Y30136714D01*
X76311429Y30231952D01*
X76263810Y30279571D01*
X76168572Y30327190D01*
X75787619Y30327190D01*
X76978095Y29803381D02*
X77168572Y29803381D01*
X77263810Y29851000D01*
X77359048Y29946238D01*
X77406667Y30136714D01*
X77406667Y30470048D01*
X77359048Y30660524D01*
X77263810Y30755762D01*
X77168572Y30803381D01*
X76978095Y30803381D01*
X76882857Y30755762D01*
X76787619Y30660524D01*
X76740000Y30470048D01*
X76740000Y30136714D01*
X76787619Y29946238D01*
X76882857Y29851000D01*
X76978095Y29803381D01*
X77740000Y29803381D02*
X77978095Y30803381D01*
X78168572Y30089095D01*
X78359048Y30803381D01*
X78597143Y29803381D01*
X76454286Y31501000D02*
X76359048Y31453381D01*
X76216191Y31453381D01*
X76073333Y31501000D01*
X75978095Y31596238D01*
X75930476Y31691476D01*
X75882857Y31881952D01*
X75882857Y32024810D01*
X75930476Y32215286D01*
X75978095Y32310524D01*
X76073333Y32405762D01*
X76216191Y32453381D01*
X76311429Y32453381D01*
X76454286Y32405762D01*
X76501905Y32358143D01*
X76501905Y32024810D01*
X76311429Y32024810D01*
X76930476Y32453381D02*
X76930476Y31453381D01*
X77501905Y32453381D01*
X77501905Y31453381D01*
X77978095Y32453381D02*
X77978095Y31453381D01*
X78216190Y31453381D01*
X78359048Y31501000D01*
X78454286Y31596238D01*
X78501905Y31691476D01*
X78549524Y31881952D01*
X78549524Y32024810D01*
X78501905Y32215286D01*
X78454286Y32310524D01*
X78359048Y32405762D01*
X78216190Y32453381D01*
X77978095Y32453381D01*
X70406666Y34103381D02*
X70406666Y33103381D01*
X70835237Y34055762D02*
X70978094Y34103381D01*
X71216190Y34103381D01*
X71311428Y34055762D01*
X71359047Y34008143D01*
X71406666Y33912905D01*
X71406666Y33817667D01*
X71359047Y33722429D01*
X71311428Y33674810D01*
X71216190Y33627190D01*
X71025713Y33579571D01*
X70930475Y33531952D01*
X70882856Y33484333D01*
X70835237Y33389095D01*
X70835237Y33293857D01*
X70882856Y33198619D01*
X70930475Y33151000D01*
X71025713Y33103381D01*
X71263809Y33103381D01*
X71406666Y33151000D01*
X71835237Y34103381D02*
X71835237Y33103381D01*
X72216190Y33103381D01*
X72311428Y33151000D01*
X72359047Y33198619D01*
X72406666Y33293857D01*
X72406666Y33436714D01*
X72359047Y33531952D01*
X72311428Y33579571D01*
X72216190Y33627190D01*
X71835237Y33627190D01*
X72597142Y34198619D02*
X73359047Y34198619D01*
X74168571Y34008143D02*
X74120952Y34055762D01*
X73978095Y34103381D01*
X73882857Y34103381D01*
X73739999Y34055762D01*
X73644761Y33960524D01*
X73597142Y33865286D01*
X73549523Y33674810D01*
X73549523Y33531952D01*
X73597142Y33341476D01*
X73644761Y33246238D01*
X73739999Y33151000D01*
X73882857Y33103381D01*
X73978095Y33103381D01*
X74120952Y33151000D01*
X74168571Y33198619D01*
X74454285Y33103381D02*
X75025714Y33103381D01*
X74739999Y34103381D02*
X74739999Y33103381D01*
X75835238Y34103381D02*
X75359047Y34103381D01*
X75359047Y33103381D01*
X75930476Y34198619D02*
X76692381Y34198619D01*
X77120952Y33103381D02*
X77311429Y33103381D01*
X77406667Y33151000D01*
X77501905Y33246238D01*
X77549524Y33436714D01*
X77549524Y33770048D01*
X77501905Y33960524D01*
X77406667Y34055762D01*
X77311429Y34103381D01*
X77120952Y34103381D01*
X77025714Y34055762D01*
X76930476Y33960524D01*
X76882857Y33770048D01*
X76882857Y33436714D01*
X76930476Y33246238D01*
X77025714Y33151000D01*
X77120952Y33103381D01*
X77978095Y34103381D02*
X77978095Y33103381D01*
X78216190Y33103381D01*
X78359048Y33151000D01*
X78454286Y33246238D01*
X78501905Y33341476D01*
X78549524Y33531952D01*
X78549524Y33674810D01*
X78501905Y33865286D01*
X78454286Y33960524D01*
X78359048Y34055762D01*
X78216190Y34103381D01*
X77978095Y34103381D01*
X13842571Y2562143D02*
X13442571Y1362143D01*
X13042571Y2562143D01*
X12642572Y1362143D02*
X12642572Y2562143D01*
X11842571Y2562143D02*
X11614000Y2562143D01*
X11499714Y2505000D01*
X11385428Y2390714D01*
X11328286Y2162143D01*
X11328286Y1762143D01*
X11385428Y1533571D01*
X11499714Y1419286D01*
X11614000Y1362143D01*
X11842571Y1362143D01*
X11956857Y1419286D01*
X12071143Y1533571D01*
X12128286Y1762143D01*
X12128286Y2162143D01*
X12071143Y2390714D01*
X11956857Y2505000D01*
X11842571Y2562143D01*
X11099714Y1247857D02*
X10185428Y1247857D01*
X10013999Y2562143D02*
X9271142Y2562143D01*
X9671142Y2105000D01*
X9499714Y2105000D01*
X9385428Y2047857D01*
X9328285Y1990714D01*
X9271142Y1876429D01*
X9271142Y1590714D01*
X9328285Y1476429D01*
X9385428Y1419286D01*
X9499714Y1362143D01*
X9842571Y1362143D01*
X9956857Y1419286D01*
X10013999Y1476429D01*
X8928285Y2562143D02*
X8528285Y1362143D01*
X8128285Y2562143D01*
X7842571Y2562143D02*
X7099714Y2562143D01*
X7499714Y2105000D01*
X7328286Y2105000D01*
X7214000Y2047857D01*
X7156857Y1990714D01*
X7099714Y1876429D01*
X7099714Y1590714D01*
X7156857Y1476429D01*
X7214000Y1419286D01*
X7328286Y1362143D01*
X7671143Y1362143D01*
X7785429Y1419286D01*
X7842571Y1476429D01*
X27602571Y24961141D02*
X27602571Y25675427D01*
X26102571Y25675427D01*
X27602571Y24461141D02*
X26102571Y24461141D01*
X26102571Y23889713D01*
X26174000Y23746855D01*
X26245429Y23675427D01*
X26388286Y23603998D01*
X26602571Y23603998D01*
X26745429Y23675427D01*
X26816857Y23746855D01*
X26888286Y23889713D01*
X26888286Y24461141D01*
X27459714Y22103998D02*
X27531143Y22175427D01*
X27602571Y22389713D01*
X27602571Y22532570D01*
X27531143Y22746855D01*
X27388286Y22889713D01*
X27245429Y22961141D01*
X26959714Y23032570D01*
X26745429Y23032570D01*
X26459714Y22961141D01*
X26316857Y22889713D01*
X26174000Y22746855D01*
X26102571Y22532570D01*
X26102571Y22389713D01*
X26174000Y22175427D01*
X26245429Y22103998D01*
X26602571Y20818284D02*
X27602571Y20818284D01*
X26031143Y21175427D02*
X27102571Y21532570D01*
X27102571Y20603998D01*
X26102571Y20175427D02*
X26102571Y19246856D01*
X26674000Y19746856D01*
X26674000Y19532570D01*
X26745429Y19389713D01*
X26816857Y19318284D01*
X26959714Y19246856D01*
X27316857Y19246856D01*
X27459714Y19318284D01*
X27531143Y19389713D01*
X27602571Y19532570D01*
X27602571Y19961142D01*
X27531143Y20103999D01*
X27459714Y20175427D01*
X26102571Y18746856D02*
X26102571Y17746856D01*
X27602571Y18389713D01*
X26102571Y16889714D02*
X26102571Y16746857D01*
X26174000Y16604000D01*
X26245429Y16532571D01*
X26388286Y16461142D01*
X26674000Y16389714D01*
X27031143Y16389714D01*
X27316857Y16461142D01*
X27459714Y16532571D01*
X27531143Y16604000D01*
X27602571Y16746857D01*
X27602571Y16889714D01*
X27531143Y17032571D01*
X27459714Y17104000D01*
X27316857Y17175428D01*
X27031143Y17246857D01*
X26674000Y17246857D01*
X26388286Y17175428D01*
X26245429Y17104000D01*
X26174000Y17032571D01*
X26102571Y16889714D01*
X27745429Y16104000D02*
X27745429Y14961143D01*
X27602571Y14604000D02*
X26102571Y14604000D01*
X27602571Y13746857D01*
X26102571Y13746857D01*
X27602571Y12175428D02*
X26888286Y12675428D01*
X27602571Y13032571D02*
X26102571Y13032571D01*
X26102571Y12461143D01*
X26174000Y12318285D01*
X26245429Y12246857D01*
X26388286Y12175428D01*
X26602571Y12175428D01*
X26745429Y12246857D01*
X26816857Y12318285D01*
X26888286Y12461143D01*
X26888286Y13032571D01*
X26816857Y11532571D02*
X26816857Y11032571D01*
X27602571Y10818285D02*
X27602571Y11532571D01*
X26102571Y11532571D01*
X26102571Y10818285D01*
X27531143Y10246857D02*
X27602571Y10032571D01*
X27602571Y9675428D01*
X27531143Y9532571D01*
X27459714Y9461142D01*
X27316857Y9389714D01*
X27174000Y9389714D01*
X27031143Y9461142D01*
X26959714Y9532571D01*
X26888286Y9675428D01*
X26816857Y9961142D01*
X26745429Y10104000D01*
X26674000Y10175428D01*
X26531143Y10246857D01*
X26388286Y10246857D01*
X26245429Y10175428D01*
X26174000Y10104000D01*
X26102571Y9961142D01*
X26102571Y9604000D01*
X26174000Y9389714D01*
X26816857Y8746857D02*
X26816857Y8246857D01*
X27602571Y8032571D02*
X27602571Y8746857D01*
X26102571Y8746857D01*
X26102571Y8032571D01*
X26102571Y7604000D02*
X26102571Y6746857D01*
X27602571Y7175428D02*
X26102571Y7175428D01*
X25062571Y19961141D02*
X25062571Y20675427D01*
X23562571Y20675427D01*
X25062571Y19461141D02*
X23562571Y19461141D01*
X23562571Y18889713D01*
X23634000Y18746855D01*
X23705429Y18675427D01*
X23848286Y18603998D01*
X24062571Y18603998D01*
X24205429Y18675427D01*
X24276857Y18746855D01*
X24348286Y18889713D01*
X24348286Y19461141D01*
X24919714Y17103998D02*
X24991143Y17175427D01*
X25062571Y17389713D01*
X25062571Y17532570D01*
X24991143Y17746855D01*
X24848286Y17889713D01*
X24705429Y17961141D01*
X24419714Y18032570D01*
X24205429Y18032570D01*
X23919714Y17961141D01*
X23776857Y17889713D01*
X23634000Y17746855D01*
X23562571Y17532570D01*
X23562571Y17389713D01*
X23634000Y17175427D01*
X23705429Y17103998D01*
X24062571Y15818284D02*
X25062571Y15818284D01*
X23491143Y16175427D02*
X24562571Y16532570D01*
X24562571Y15603998D01*
X23562571Y15175427D02*
X23562571Y14246856D01*
X24134000Y14746856D01*
X24134000Y14532570D01*
X24205429Y14389713D01*
X24276857Y14318284D01*
X24419714Y14246856D01*
X24776857Y14246856D01*
X24919714Y14318284D01*
X24991143Y14389713D01*
X25062571Y14532570D01*
X25062571Y14961142D01*
X24991143Y15103999D01*
X24919714Y15175427D01*
X23562571Y13746856D02*
X23562571Y12746856D01*
X25062571Y13389713D01*
X23562571Y11889714D02*
X23562571Y11746857D01*
X23634000Y11604000D01*
X23705429Y11532571D01*
X23848286Y11461142D01*
X24134000Y11389714D01*
X24491143Y11389714D01*
X24776857Y11461142D01*
X24919714Y11532571D01*
X24991143Y11604000D01*
X25062571Y11746857D01*
X25062571Y11889714D01*
X24991143Y12032571D01*
X24919714Y12104000D01*
X24776857Y12175428D01*
X24491143Y12246857D01*
X24134000Y12246857D01*
X23848286Y12175428D01*
X23705429Y12104000D01*
X23634000Y12032571D01*
X23562571Y11889714D01*
X25205429Y11104000D02*
X25205429Y9961143D01*
X23562571Y9818286D02*
X23562571Y8961143D01*
X25062571Y9389714D02*
X23562571Y9389714D01*
X25062571Y8461143D02*
X23562571Y8461143D01*
X23562571Y8104000D01*
X23634000Y7889715D01*
X23776857Y7746857D01*
X23919714Y7675429D01*
X24205429Y7604000D01*
X24419714Y7604000D01*
X24705429Y7675429D01*
X24848286Y7746857D01*
X24991143Y7889715D01*
X25062571Y8104000D01*
X25062571Y8461143D01*
X25062571Y6961143D02*
X23562571Y6961143D01*
X22522571Y20818284D02*
X22522571Y21532570D01*
X21022571Y21532570D01*
X22522571Y20318284D02*
X21022571Y20318284D01*
X21022571Y19746856D01*
X21094000Y19603998D01*
X21165429Y19532570D01*
X21308286Y19461141D01*
X21522571Y19461141D01*
X21665429Y19532570D01*
X21736857Y19603998D01*
X21808286Y19746856D01*
X21808286Y20318284D01*
X22379714Y17961141D02*
X22451143Y18032570D01*
X22522571Y18246856D01*
X22522571Y18389713D01*
X22451143Y18603998D01*
X22308286Y18746856D01*
X22165429Y18818284D01*
X21879714Y18889713D01*
X21665429Y18889713D01*
X21379714Y18818284D01*
X21236857Y18746856D01*
X21094000Y18603998D01*
X21022571Y18389713D01*
X21022571Y18246856D01*
X21094000Y18032570D01*
X21165429Y17961141D01*
X21522571Y16675427D02*
X22522571Y16675427D01*
X20951143Y17032570D02*
X22022571Y17389713D01*
X22022571Y16461141D01*
X21022571Y16032570D02*
X21022571Y15103999D01*
X21594000Y15603999D01*
X21594000Y15389713D01*
X21665429Y15246856D01*
X21736857Y15175427D01*
X21879714Y15103999D01*
X22236857Y15103999D01*
X22379714Y15175427D01*
X22451143Y15246856D01*
X22522571Y15389713D01*
X22522571Y15818285D01*
X22451143Y15961142D01*
X22379714Y16032570D01*
X21022571Y14603999D02*
X21022571Y13603999D01*
X22522571Y14246856D01*
X21022571Y12746857D02*
X21022571Y12604000D01*
X21094000Y12461143D01*
X21165429Y12389714D01*
X21308286Y12318285D01*
X21594000Y12246857D01*
X21951143Y12246857D01*
X22236857Y12318285D01*
X22379714Y12389714D01*
X22451143Y12461143D01*
X22522571Y12604000D01*
X22522571Y12746857D01*
X22451143Y12889714D01*
X22379714Y12961143D01*
X22236857Y13032571D01*
X21951143Y13104000D01*
X21594000Y13104000D01*
X21308286Y13032571D01*
X21165429Y12961143D01*
X21094000Y12889714D01*
X21022571Y12746857D01*
X22665429Y11961143D02*
X22665429Y10818286D01*
X21022571Y10675429D02*
X21022571Y9818286D01*
X22522571Y10246857D02*
X21022571Y10246857D01*
X22522571Y9318286D02*
X21022571Y9318286D01*
X21022571Y8961143D01*
X21094000Y8746858D01*
X21236857Y8604000D01*
X21379714Y8532572D01*
X21665429Y8461143D01*
X21879714Y8461143D01*
X22165429Y8532572D01*
X22308286Y8604000D01*
X22451143Y8746858D01*
X22522571Y8961143D01*
X22522571Y9318286D01*
X21022571Y7532572D02*
X21022571Y7246858D01*
X21094000Y7104000D01*
X21236857Y6961143D01*
X21522571Y6889715D01*
X22022571Y6889715D01*
X22308286Y6961143D01*
X22451143Y7104000D01*
X22522571Y7246858D01*
X22522571Y7532572D01*
X22451143Y7675429D01*
X22308286Y7818286D01*
X22022571Y7889715D01*
X21522571Y7889715D01*
X21236857Y7818286D01*
X21094000Y7675429D01*
X21022571Y7532572D01*
X19982571Y20746855D02*
X19982571Y21461141D01*
X18482571Y21461141D01*
X19982571Y20246855D02*
X18482571Y20246855D01*
X18482571Y19675427D01*
X18554000Y19532569D01*
X18625429Y19461141D01*
X18768286Y19389712D01*
X18982571Y19389712D01*
X19125429Y19461141D01*
X19196857Y19532569D01*
X19268286Y19675427D01*
X19268286Y20246855D01*
X19839714Y17889712D02*
X19911143Y17961141D01*
X19982571Y18175427D01*
X19982571Y18318284D01*
X19911143Y18532569D01*
X19768286Y18675427D01*
X19625429Y18746855D01*
X19339714Y18818284D01*
X19125429Y18818284D01*
X18839714Y18746855D01*
X18696857Y18675427D01*
X18554000Y18532569D01*
X18482571Y18318284D01*
X18482571Y18175427D01*
X18554000Y17961141D01*
X18625429Y17889712D01*
X18982571Y16603998D02*
X19982571Y16603998D01*
X18411143Y16961141D02*
X19482571Y17318284D01*
X19482571Y16389712D01*
X18482571Y15961141D02*
X18482571Y15032570D01*
X19054000Y15532570D01*
X19054000Y15318284D01*
X19125429Y15175427D01*
X19196857Y15103998D01*
X19339714Y15032570D01*
X19696857Y15032570D01*
X19839714Y15103998D01*
X19911143Y15175427D01*
X19982571Y15318284D01*
X19982571Y15746856D01*
X19911143Y15889713D01*
X19839714Y15961141D01*
X18482571Y14532570D02*
X18482571Y13532570D01*
X19982571Y14175427D01*
X18482571Y12675428D02*
X18482571Y12532571D01*
X18554000Y12389714D01*
X18625429Y12318285D01*
X18768286Y12246856D01*
X19054000Y12175428D01*
X19411143Y12175428D01*
X19696857Y12246856D01*
X19839714Y12318285D01*
X19911143Y12389714D01*
X19982571Y12532571D01*
X19982571Y12675428D01*
X19911143Y12818285D01*
X19839714Y12889714D01*
X19696857Y12961142D01*
X19411143Y13032571D01*
X19054000Y13032571D01*
X18768286Y12961142D01*
X18625429Y12889714D01*
X18554000Y12818285D01*
X18482571Y12675428D01*
X20125429Y11889714D02*
X20125429Y10746857D01*
X18482571Y10604000D02*
X18482571Y9746857D01*
X19982571Y10175428D02*
X18482571Y10175428D01*
X19839714Y8389714D02*
X19911143Y8461143D01*
X19982571Y8675429D01*
X19982571Y8818286D01*
X19911143Y9032571D01*
X19768286Y9175429D01*
X19625429Y9246857D01*
X19339714Y9318286D01*
X19125429Y9318286D01*
X18839714Y9246857D01*
X18696857Y9175429D01*
X18554000Y9032571D01*
X18482571Y8818286D01*
X18482571Y8675429D01*
X18554000Y8461143D01*
X18625429Y8389714D01*
X19982571Y7746857D02*
X18482571Y7746857D01*
X19982571Y6889714D02*
X19125429Y7532571D01*
X18482571Y6889714D02*
X19339714Y7746857D01*
X17442571Y20889712D02*
X17442571Y21603998D01*
X15942571Y21603998D01*
X17442571Y20389712D02*
X15942571Y20389712D01*
X15942571Y19818284D01*
X16014000Y19675426D01*
X16085429Y19603998D01*
X16228286Y19532569D01*
X16442571Y19532569D01*
X16585429Y19603998D01*
X16656857Y19675426D01*
X16728286Y19818284D01*
X16728286Y20389712D01*
X17299714Y18032569D02*
X17371143Y18103998D01*
X17442571Y18318284D01*
X17442571Y18461141D01*
X17371143Y18675426D01*
X17228286Y18818284D01*
X17085429Y18889712D01*
X16799714Y18961141D01*
X16585429Y18961141D01*
X16299714Y18889712D01*
X16156857Y18818284D01*
X16014000Y18675426D01*
X15942571Y18461141D01*
X15942571Y18318284D01*
X16014000Y18103998D01*
X16085429Y18032569D01*
X16442571Y16746855D02*
X17442571Y16746855D01*
X15871143Y17103998D02*
X16942571Y17461141D01*
X16942571Y16532569D01*
X15942571Y16103998D02*
X15942571Y15175427D01*
X16514000Y15675427D01*
X16514000Y15461141D01*
X16585429Y15318284D01*
X16656857Y15246855D01*
X16799714Y15175427D01*
X17156857Y15175427D01*
X17299714Y15246855D01*
X17371143Y15318284D01*
X17442571Y15461141D01*
X17442571Y15889713D01*
X17371143Y16032570D01*
X17299714Y16103998D01*
X15942571Y14675427D02*
X15942571Y13675427D01*
X17442571Y14318284D01*
X15942571Y12818285D02*
X15942571Y12675428D01*
X16014000Y12532571D01*
X16085429Y12461142D01*
X16228286Y12389713D01*
X16514000Y12318285D01*
X16871143Y12318285D01*
X17156857Y12389713D01*
X17299714Y12461142D01*
X17371143Y12532571D01*
X17442571Y12675428D01*
X17442571Y12818285D01*
X17371143Y12961142D01*
X17299714Y13032571D01*
X17156857Y13103999D01*
X16871143Y13175428D01*
X16514000Y13175428D01*
X16228286Y13103999D01*
X16085429Y13032571D01*
X16014000Y12961142D01*
X15942571Y12818285D01*
X17585429Y12032571D02*
X17585429Y10889714D01*
X15942571Y10746857D02*
X15942571Y9889714D01*
X17442571Y10318285D02*
X15942571Y10318285D01*
X17442571Y9389714D02*
X15942571Y9389714D01*
X17014000Y8889714D01*
X15942571Y8389714D01*
X17442571Y8389714D01*
X17371143Y7746857D02*
X17442571Y7532571D01*
X17442571Y7175428D01*
X17371143Y7032571D01*
X17299714Y6961142D01*
X17156857Y6889714D01*
X17014000Y6889714D01*
X16871143Y6961142D01*
X16799714Y7032571D01*
X16728286Y7175428D01*
X16656857Y7461142D01*
X16585429Y7604000D01*
X16514000Y7675428D01*
X16371143Y7746857D01*
X16228286Y7746857D01*
X16085429Y7675428D01*
X16014000Y7604000D01*
X15942571Y7461142D01*
X15942571Y7104000D01*
X16014000Y6889714D01*
D13*
X75184000Y5842000D02*
X75184000Y5334000D01*
D11*
X45474000Y15588571D02*
X45426381Y15683809D01*
X45426381Y15826666D01*
X45474000Y15969524D01*
X45569238Y16064762D01*
X45664476Y16112381D01*
X45854952Y16160000D01*
X45997810Y16160000D01*
X46188286Y16112381D01*
X46283524Y16064762D01*
X46378762Y15969524D01*
X46426381Y15826666D01*
X46426381Y15731428D01*
X46378762Y15588571D01*
X46331143Y15540952D01*
X45997810Y15540952D01*
X45997810Y15731428D01*
X46426381Y15112381D02*
X45426381Y15112381D01*
X45426381Y14731428D01*
X45474000Y14636190D01*
X45521619Y14588571D01*
X45616857Y14540952D01*
X45759714Y14540952D01*
X45854952Y14588571D01*
X45902571Y14636190D01*
X45950190Y14731428D01*
X45950190Y15112381D01*
X46426381Y14112381D02*
X45426381Y14112381D01*
X45426381Y13445715D02*
X45426381Y13255238D01*
X45474000Y13160000D01*
X45569238Y13064762D01*
X45759714Y13017143D01*
X46093048Y13017143D01*
X46283524Y13064762D01*
X46378762Y13160000D01*
X46426381Y13255238D01*
X46426381Y13445715D01*
X46378762Y13540953D01*
X46283524Y13636191D01*
X46093048Y13683810D01*
X45759714Y13683810D01*
X45569238Y13636191D01*
X45474000Y13540953D01*
X45426381Y13445715D01*
X45426381Y12683810D02*
X45426381Y12064762D01*
X45807333Y12398096D01*
X45807333Y12255238D01*
X45854952Y12160000D01*
X45902571Y12112381D01*
X45997810Y12064762D01*
X46235905Y12064762D01*
X46331143Y12112381D01*
X46378762Y12160000D01*
X46426381Y12255238D01*
X46426381Y12540953D01*
X46378762Y12636191D01*
X46331143Y12683810D01*
X46521619Y11874286D02*
X46521619Y11112381D01*
X45426381Y10969524D02*
X45426381Y10302857D01*
X46426381Y10731429D01*
X46744000Y11524571D02*
X46696381Y11619809D01*
X46696381Y11762666D01*
X46744000Y11905524D01*
X46839238Y12000762D01*
X46934476Y12048381D01*
X47124952Y12096000D01*
X47267810Y12096000D01*
X47458286Y12048381D01*
X47553524Y12000762D01*
X47648762Y11905524D01*
X47696381Y11762666D01*
X47696381Y11667428D01*
X47648762Y11524571D01*
X47601143Y11476952D01*
X47267810Y11476952D01*
X47267810Y11667428D01*
X47696381Y11048381D02*
X46696381Y11048381D01*
X46696381Y10667428D01*
X46744000Y10572190D01*
X46791619Y10524571D01*
X46886857Y10476952D01*
X47029714Y10476952D01*
X47124952Y10524571D01*
X47172571Y10572190D01*
X47220190Y10667428D01*
X47220190Y11048381D01*
X47696381Y10048381D02*
X46696381Y10048381D01*
X46696381Y9381715D02*
X46696381Y9191238D01*
X46744000Y9096000D01*
X46839238Y9000762D01*
X47029714Y8953143D01*
X47363048Y8953143D01*
X47553524Y9000762D01*
X47648762Y9096000D01*
X47696381Y9191238D01*
X47696381Y9381715D01*
X47648762Y9476953D01*
X47553524Y9572191D01*
X47363048Y9619810D01*
X47029714Y9619810D01*
X46839238Y9572191D01*
X46744000Y9476953D01*
X46696381Y9381715D01*
X46696381Y8619810D02*
X46696381Y8000762D01*
X47077333Y8334096D01*
X47077333Y8191238D01*
X47124952Y8096000D01*
X47172571Y8048381D01*
X47267810Y8000762D01*
X47505905Y8000762D01*
X47601143Y8048381D01*
X47648762Y8096000D01*
X47696381Y8191238D01*
X47696381Y8476953D01*
X47648762Y8572191D01*
X47601143Y8619810D01*
X47791619Y7810286D02*
X47791619Y7048381D01*
X46696381Y6334095D02*
X46696381Y6810286D01*
X47172571Y6857905D01*
X47124952Y6810286D01*
X47077333Y6715048D01*
X47077333Y6476952D01*
X47124952Y6381714D01*
X47172571Y6334095D01*
X47267810Y6286476D01*
X47505905Y6286476D01*
X47601143Y6334095D01*
X47648762Y6381714D01*
X47696381Y6476952D01*
X47696381Y6715048D01*
X47648762Y6810286D01*
X47601143Y6857905D01*
X42934000Y15588571D02*
X42886381Y15683809D01*
X42886381Y15826666D01*
X42934000Y15969524D01*
X43029238Y16064762D01*
X43124476Y16112381D01*
X43314952Y16160000D01*
X43457810Y16160000D01*
X43648286Y16112381D01*
X43743524Y16064762D01*
X43838762Y15969524D01*
X43886381Y15826666D01*
X43886381Y15731428D01*
X43838762Y15588571D01*
X43791143Y15540952D01*
X43457810Y15540952D01*
X43457810Y15731428D01*
X43886381Y15112381D02*
X42886381Y15112381D01*
X42886381Y14731428D01*
X42934000Y14636190D01*
X42981619Y14588571D01*
X43076857Y14540952D01*
X43219714Y14540952D01*
X43314952Y14588571D01*
X43362571Y14636190D01*
X43410190Y14731428D01*
X43410190Y15112381D01*
X43886381Y14112381D02*
X42886381Y14112381D01*
X42886381Y13445715D02*
X42886381Y13255238D01*
X42934000Y13160000D01*
X43029238Y13064762D01*
X43219714Y13017143D01*
X43553048Y13017143D01*
X43743524Y13064762D01*
X43838762Y13160000D01*
X43886381Y13255238D01*
X43886381Y13445715D01*
X43838762Y13540953D01*
X43743524Y13636191D01*
X43553048Y13683810D01*
X43219714Y13683810D01*
X43029238Y13636191D01*
X42934000Y13540953D01*
X42886381Y13445715D01*
X42886381Y12112381D02*
X42886381Y12588572D01*
X43362571Y12636191D01*
X43314952Y12588572D01*
X43267333Y12493334D01*
X43267333Y12255238D01*
X43314952Y12160000D01*
X43362571Y12112381D01*
X43457810Y12064762D01*
X43695905Y12064762D01*
X43791143Y12112381D01*
X43838762Y12160000D01*
X43886381Y12255238D01*
X43886381Y12493334D01*
X43838762Y12588572D01*
X43791143Y12636191D01*
X43981619Y11874286D02*
X43981619Y11112381D01*
X43886381Y10826667D02*
X43886381Y10636191D01*
X43838762Y10540952D01*
X43791143Y10493333D01*
X43648286Y10398095D01*
X43457810Y10350476D01*
X43076857Y10350476D01*
X42981619Y10398095D01*
X42934000Y10445714D01*
X42886381Y10540952D01*
X42886381Y10731429D01*
X42934000Y10826667D01*
X42981619Y10874286D01*
X43076857Y10921905D01*
X43314952Y10921905D01*
X43410190Y10874286D01*
X43457810Y10826667D01*
X43505429Y10731429D01*
X43505429Y10540952D01*
X43457810Y10445714D01*
X43410190Y10398095D01*
X43314952Y10350476D01*
X44204000Y11524571D02*
X44156381Y11619809D01*
X44156381Y11762666D01*
X44204000Y11905524D01*
X44299238Y12000762D01*
X44394476Y12048381D01*
X44584952Y12096000D01*
X44727810Y12096000D01*
X44918286Y12048381D01*
X45013524Y12000762D01*
X45108762Y11905524D01*
X45156381Y11762666D01*
X45156381Y11667428D01*
X45108762Y11524571D01*
X45061143Y11476952D01*
X44727810Y11476952D01*
X44727810Y11667428D01*
X45156381Y11048381D02*
X44156381Y11048381D01*
X44156381Y10667428D01*
X44204000Y10572190D01*
X44251619Y10524571D01*
X44346857Y10476952D01*
X44489714Y10476952D01*
X44584952Y10524571D01*
X44632571Y10572190D01*
X44680190Y10667428D01*
X44680190Y11048381D01*
X45156381Y10048381D02*
X44156381Y10048381D01*
X44156381Y9381715D02*
X44156381Y9191238D01*
X44204000Y9096000D01*
X44299238Y9000762D01*
X44489714Y8953143D01*
X44823048Y8953143D01*
X45013524Y9000762D01*
X45108762Y9096000D01*
X45156381Y9191238D01*
X45156381Y9381715D01*
X45108762Y9476953D01*
X45013524Y9572191D01*
X44823048Y9619810D01*
X44489714Y9619810D01*
X44299238Y9572191D01*
X44204000Y9476953D01*
X44156381Y9381715D01*
X44156381Y8048381D02*
X44156381Y8524572D01*
X44632571Y8572191D01*
X44584952Y8524572D01*
X44537333Y8429334D01*
X44537333Y8191238D01*
X44584952Y8096000D01*
X44632571Y8048381D01*
X44727810Y8000762D01*
X44965905Y8000762D01*
X45061143Y8048381D01*
X45108762Y8096000D01*
X45156381Y8191238D01*
X45156381Y8429334D01*
X45108762Y8524572D01*
X45061143Y8572191D01*
X45251619Y7810286D02*
X45251619Y7048381D01*
X44584952Y6667429D02*
X44537333Y6762667D01*
X44489714Y6810286D01*
X44394476Y6857905D01*
X44346857Y6857905D01*
X44251619Y6810286D01*
X44204000Y6762667D01*
X44156381Y6667429D01*
X44156381Y6476952D01*
X44204000Y6381714D01*
X44251619Y6334095D01*
X44346857Y6286476D01*
X44394476Y6286476D01*
X44489714Y6334095D01*
X44537333Y6381714D01*
X44584952Y6476952D01*
X44584952Y6667429D01*
X44632571Y6762667D01*
X44680190Y6810286D01*
X44775429Y6857905D01*
X44965905Y6857905D01*
X45061143Y6810286D01*
X45108762Y6762667D01*
X45156381Y6667429D01*
X45156381Y6476952D01*
X45108762Y6381714D01*
X45061143Y6334095D01*
X44965905Y6286476D01*
X44775429Y6286476D01*
X44680190Y6334095D01*
X44632571Y6381714D01*
X44584952Y6476952D01*
X41346381Y15921905D02*
X40346381Y15921905D01*
X40441619Y15493334D02*
X40394000Y15445715D01*
X40346381Y15350477D01*
X40346381Y15112381D01*
X40394000Y15017143D01*
X40441619Y14969524D01*
X40536857Y14921905D01*
X40632095Y14921905D01*
X40774952Y14969524D01*
X41346381Y15540953D01*
X41346381Y14921905D01*
X41251143Y13921905D02*
X41298762Y13969524D01*
X41346381Y14112381D01*
X41346381Y14207619D01*
X41298762Y14350477D01*
X41203524Y14445715D01*
X41108286Y14493334D01*
X40917810Y14540953D01*
X40774952Y14540953D01*
X40584476Y14493334D01*
X40489238Y14445715D01*
X40394000Y14350477D01*
X40346381Y14207619D01*
X40346381Y14112381D01*
X40394000Y13969524D01*
X40441619Y13921905D01*
X41441619Y13731429D02*
X41441619Y12969524D01*
X41298762Y12779048D02*
X41346381Y12636191D01*
X41346381Y12398095D01*
X41298762Y12302857D01*
X41251143Y12255238D01*
X41155905Y12207619D01*
X41060667Y12207619D01*
X40965429Y12255238D01*
X40917810Y12302857D01*
X40870190Y12398095D01*
X40822571Y12588572D01*
X40774952Y12683810D01*
X40727333Y12731429D01*
X40632095Y12779048D01*
X40536857Y12779048D01*
X40441619Y12731429D01*
X40394000Y12683810D01*
X40346381Y12588572D01*
X40346381Y12350476D01*
X40394000Y12207619D01*
X41346381Y11779048D02*
X40346381Y11779048D01*
X40346381Y11540953D01*
X40394000Y11398095D01*
X40489238Y11302857D01*
X40584476Y11255238D01*
X40774952Y11207619D01*
X40917810Y11207619D01*
X41108286Y11255238D01*
X41203524Y11302857D01*
X41298762Y11398095D01*
X41346381Y11540953D01*
X41346381Y11779048D01*
X41060667Y10826667D02*
X41060667Y10350476D01*
X41346381Y10921905D02*
X40346381Y10588572D01*
X41346381Y10255238D01*
X42616381Y11810286D02*
X41616381Y11810286D01*
X41711619Y11381715D02*
X41664000Y11334096D01*
X41616381Y11238858D01*
X41616381Y11000762D01*
X41664000Y10905524D01*
X41711619Y10857905D01*
X41806857Y10810286D01*
X41902095Y10810286D01*
X42044952Y10857905D01*
X42616381Y11429334D01*
X42616381Y10810286D01*
X42521143Y9810286D02*
X42568762Y9857905D01*
X42616381Y10000762D01*
X42616381Y10096000D01*
X42568762Y10238858D01*
X42473524Y10334096D01*
X42378286Y10381715D01*
X42187810Y10429334D01*
X42044952Y10429334D01*
X41854476Y10381715D01*
X41759238Y10334096D01*
X41664000Y10238858D01*
X41616381Y10096000D01*
X41616381Y10000762D01*
X41664000Y9857905D01*
X41711619Y9810286D01*
X42711619Y9619810D02*
X42711619Y8857905D01*
X42568762Y8667429D02*
X42616381Y8524572D01*
X42616381Y8286476D01*
X42568762Y8191238D01*
X42521143Y8143619D01*
X42425905Y8096000D01*
X42330667Y8096000D01*
X42235429Y8143619D01*
X42187810Y8191238D01*
X42140190Y8286476D01*
X42092571Y8476953D01*
X42044952Y8572191D01*
X41997333Y8619810D01*
X41902095Y8667429D01*
X41806857Y8667429D01*
X41711619Y8619810D01*
X41664000Y8572191D01*
X41616381Y8476953D01*
X41616381Y8238857D01*
X41664000Y8096000D01*
X42521143Y7096000D02*
X42568762Y7143619D01*
X42616381Y7286476D01*
X42616381Y7381714D01*
X42568762Y7524572D01*
X42473524Y7619810D01*
X42378286Y7667429D01*
X42187810Y7715048D01*
X42044952Y7715048D01*
X41854476Y7667429D01*
X41759238Y7619810D01*
X41664000Y7524572D01*
X41616381Y7381714D01*
X41616381Y7286476D01*
X41664000Y7143619D01*
X41711619Y7096000D01*
X42616381Y6191238D02*
X42616381Y6667429D01*
X41616381Y6667429D01*
X37806381Y18017144D02*
X38615905Y18017144D01*
X38711143Y17969525D01*
X38758762Y17921906D01*
X38806381Y17826668D01*
X38806381Y17636191D01*
X38758762Y17540953D01*
X38711143Y17493334D01*
X38615905Y17445715D01*
X37806381Y17445715D01*
X38520667Y17017144D02*
X38520667Y16540953D01*
X38806381Y17112382D02*
X37806381Y16779049D01*
X38806381Y16445715D01*
X38806381Y15540953D02*
X38330190Y15874287D01*
X38806381Y16112382D02*
X37806381Y16112382D01*
X37806381Y15731429D01*
X37854000Y15636191D01*
X37901619Y15588572D01*
X37996857Y15540953D01*
X38139714Y15540953D01*
X38234952Y15588572D01*
X38282571Y15636191D01*
X38330190Y15731429D01*
X38330190Y16112382D01*
X37806381Y15255239D02*
X37806381Y14683810D01*
X38806381Y14969525D02*
X37806381Y14969525D01*
X37901619Y14398096D02*
X37854000Y14350477D01*
X37806381Y14255239D01*
X37806381Y14017143D01*
X37854000Y13921905D01*
X37901619Y13874286D01*
X37996857Y13826667D01*
X38092095Y13826667D01*
X38234952Y13874286D01*
X38806381Y14445715D01*
X38806381Y13826667D01*
X38901619Y13636191D02*
X38901619Y12874286D01*
X37806381Y12779048D02*
X37806381Y12207619D01*
X38806381Y12493334D02*
X37806381Y12493334D01*
X37806381Y11969524D02*
X38806381Y11302857D01*
X37806381Y11302857D02*
X38806381Y11969524D01*
X38806381Y10921905D02*
X37806381Y10921905D01*
X37806381Y10683810D01*
X37854000Y10540952D01*
X37949238Y10445714D01*
X38044476Y10398095D01*
X38234952Y10350476D01*
X38377810Y10350476D01*
X38568286Y10398095D01*
X38663524Y10445714D01*
X38758762Y10540952D01*
X38806381Y10683810D01*
X38806381Y10921905D01*
X39076381Y14191239D02*
X39885905Y14191239D01*
X39981143Y14143620D01*
X40028762Y14096001D01*
X40076381Y14000763D01*
X40076381Y13810286D01*
X40028762Y13715048D01*
X39981143Y13667429D01*
X39885905Y13619810D01*
X39076381Y13619810D01*
X39790667Y13191239D02*
X39790667Y12715048D01*
X40076381Y13286477D02*
X39076381Y12953144D01*
X40076381Y12619810D01*
X40076381Y11715048D02*
X39600190Y12048382D01*
X40076381Y12286477D02*
X39076381Y12286477D01*
X39076381Y11905524D01*
X39124000Y11810286D01*
X39171619Y11762667D01*
X39266857Y11715048D01*
X39409714Y11715048D01*
X39504952Y11762667D01*
X39552571Y11810286D01*
X39600190Y11905524D01*
X39600190Y12286477D01*
X39076381Y11429334D02*
X39076381Y10857905D01*
X40076381Y11143620D02*
X39076381Y11143620D01*
X39171619Y10572191D02*
X39124000Y10524572D01*
X39076381Y10429334D01*
X39076381Y10191238D01*
X39124000Y10096000D01*
X39171619Y10048381D01*
X39266857Y10000762D01*
X39362095Y10000762D01*
X39504952Y10048381D01*
X40076381Y10619810D01*
X40076381Y10000762D01*
X40171619Y9810286D02*
X40171619Y9048381D01*
X40076381Y8238857D02*
X39600190Y8572191D01*
X40076381Y8810286D02*
X39076381Y8810286D01*
X39076381Y8429333D01*
X39124000Y8334095D01*
X39171619Y8286476D01*
X39266857Y8238857D01*
X39409714Y8238857D01*
X39504952Y8286476D01*
X39552571Y8334095D01*
X39600190Y8429333D01*
X39600190Y8810286D01*
X39076381Y7905524D02*
X40076381Y7238857D01*
X39076381Y7238857D02*
X40076381Y7905524D01*
X40076381Y6857905D02*
X39076381Y6857905D01*
X39076381Y6619810D01*
X39124000Y6476952D01*
X39219238Y6381714D01*
X39314476Y6334095D01*
X39504952Y6286476D01*
X39647810Y6286476D01*
X39838286Y6334095D01*
X39933524Y6381714D01*
X40028762Y6476952D01*
X40076381Y6619810D01*
X40076381Y6857905D01*
X36218762Y17255239D02*
X36266381Y17112382D01*
X36266381Y16874286D01*
X36218762Y16779048D01*
X36171143Y16731429D01*
X36075905Y16683810D01*
X35980667Y16683810D01*
X35885429Y16731429D01*
X35837810Y16779048D01*
X35790190Y16874286D01*
X35742571Y17064763D01*
X35694952Y17160001D01*
X35647333Y17207620D01*
X35552095Y17255239D01*
X35456857Y17255239D01*
X35361619Y17207620D01*
X35314000Y17160001D01*
X35266381Y17064763D01*
X35266381Y16826667D01*
X35314000Y16683810D01*
X36218762Y16302858D02*
X36266381Y16160001D01*
X36266381Y15921905D01*
X36218762Y15826667D01*
X36171143Y15779048D01*
X36075905Y15731429D01*
X35980667Y15731429D01*
X35885429Y15779048D01*
X35837810Y15826667D01*
X35790190Y15921905D01*
X35742571Y16112382D01*
X35694952Y16207620D01*
X35647333Y16255239D01*
X35552095Y16302858D01*
X35456857Y16302858D01*
X35361619Y16255239D01*
X35314000Y16207620D01*
X35266381Y16112382D01*
X35266381Y15874286D01*
X35314000Y15731429D01*
X36266381Y15302858D02*
X35266381Y15302858D01*
X35266381Y14921905D01*
X35314000Y14826667D01*
X35361619Y14779048D01*
X35456857Y14731429D01*
X35599714Y14731429D01*
X35694952Y14779048D01*
X35742571Y14826667D01*
X35790190Y14921905D01*
X35790190Y15302858D01*
X36266381Y13779048D02*
X36266381Y14350477D01*
X36266381Y14064763D02*
X35266381Y14064763D01*
X35409238Y14160001D01*
X35504476Y14255239D01*
X35552095Y14350477D01*
X36361619Y13588572D02*
X36361619Y12826667D01*
X36218762Y12636191D02*
X36266381Y12493334D01*
X36266381Y12255238D01*
X36218762Y12160000D01*
X36171143Y12112381D01*
X36075905Y12064762D01*
X35980667Y12064762D01*
X35885429Y12112381D01*
X35837810Y12160000D01*
X35790190Y12255238D01*
X35742571Y12445715D01*
X35694952Y12540953D01*
X35647333Y12588572D01*
X35552095Y12636191D01*
X35456857Y12636191D01*
X35361619Y12588572D01*
X35314000Y12540953D01*
X35266381Y12445715D01*
X35266381Y12207619D01*
X35314000Y12064762D01*
X35742571Y11636191D02*
X35742571Y11302857D01*
X36266381Y11160000D02*
X36266381Y11636191D01*
X35266381Y11636191D01*
X35266381Y11160000D01*
X36266381Y10255238D02*
X36266381Y10731429D01*
X35266381Y10731429D01*
X37488762Y14143619D02*
X37536381Y14000762D01*
X37536381Y13762666D01*
X37488762Y13667428D01*
X37441143Y13619809D01*
X37345905Y13572190D01*
X37250667Y13572190D01*
X37155429Y13619809D01*
X37107810Y13667428D01*
X37060190Y13762666D01*
X37012571Y13953143D01*
X36964952Y14048381D01*
X36917333Y14096000D01*
X36822095Y14143619D01*
X36726857Y14143619D01*
X36631619Y14096000D01*
X36584000Y14048381D01*
X36536381Y13953143D01*
X36536381Y13715047D01*
X36584000Y13572190D01*
X37488762Y13191238D02*
X37536381Y13048381D01*
X37536381Y12810285D01*
X37488762Y12715047D01*
X37441143Y12667428D01*
X37345905Y12619809D01*
X37250667Y12619809D01*
X37155429Y12667428D01*
X37107810Y12715047D01*
X37060190Y12810285D01*
X37012571Y13000762D01*
X36964952Y13096000D01*
X36917333Y13143619D01*
X36822095Y13191238D01*
X36726857Y13191238D01*
X36631619Y13143619D01*
X36584000Y13096000D01*
X36536381Y13000762D01*
X36536381Y12762666D01*
X36584000Y12619809D01*
X37536381Y12191238D02*
X36536381Y12191238D01*
X36536381Y11810285D01*
X36584000Y11715047D01*
X36631619Y11667428D01*
X36726857Y11619809D01*
X36869714Y11619809D01*
X36964952Y11667428D01*
X37012571Y11715047D01*
X37060190Y11810285D01*
X37060190Y12191238D01*
X37536381Y10667428D02*
X37536381Y11238857D01*
X37536381Y10953143D02*
X36536381Y10953143D01*
X36679238Y11048381D01*
X36774476Y11143619D01*
X36822095Y11238857D01*
X37631619Y10476952D02*
X37631619Y9715047D01*
X37536381Y9476952D02*
X36536381Y9476952D01*
X37250667Y9143618D01*
X36536381Y8810285D01*
X37536381Y8810285D01*
X37536381Y8334095D02*
X36536381Y8334095D01*
X37488762Y7905524D02*
X37536381Y7762667D01*
X37536381Y7524571D01*
X37488762Y7429333D01*
X37441143Y7381714D01*
X37345905Y7334095D01*
X37250667Y7334095D01*
X37155429Y7381714D01*
X37107810Y7429333D01*
X37060190Y7524571D01*
X37012571Y7715048D01*
X36964952Y7810286D01*
X36917333Y7857905D01*
X36822095Y7905524D01*
X36726857Y7905524D01*
X36631619Y7857905D01*
X36584000Y7810286D01*
X36536381Y7715048D01*
X36536381Y7476952D01*
X36584000Y7334095D01*
X36536381Y6715048D02*
X36536381Y6524571D01*
X36584000Y6429333D01*
X36679238Y6334095D01*
X36869714Y6286476D01*
X37203048Y6286476D01*
X37393524Y6334095D01*
X37488762Y6429333D01*
X37536381Y6524571D01*
X37536381Y6715048D01*
X37488762Y6810286D01*
X37393524Y6905524D01*
X37203048Y6953143D01*
X36869714Y6953143D01*
X36679238Y6905524D01*
X36584000Y6810286D01*
X36536381Y6715048D01*
X33678762Y18207619D02*
X33726381Y18064762D01*
X33726381Y17826666D01*
X33678762Y17731428D01*
X33631143Y17683809D01*
X33535905Y17636190D01*
X33440667Y17636190D01*
X33345429Y17683809D01*
X33297810Y17731428D01*
X33250190Y17826666D01*
X33202571Y18017143D01*
X33154952Y18112381D01*
X33107333Y18160000D01*
X33012095Y18207619D01*
X32916857Y18207619D01*
X32821619Y18160000D01*
X32774000Y18112381D01*
X32726381Y18017143D01*
X32726381Y17779047D01*
X32774000Y17636190D01*
X33678762Y17255238D02*
X33726381Y17112381D01*
X33726381Y16874285D01*
X33678762Y16779047D01*
X33631143Y16731428D01*
X33535905Y16683809D01*
X33440667Y16683809D01*
X33345429Y16731428D01*
X33297810Y16779047D01*
X33250190Y16874285D01*
X33202571Y17064762D01*
X33154952Y17160000D01*
X33107333Y17207619D01*
X33012095Y17255238D01*
X32916857Y17255238D01*
X32821619Y17207619D01*
X32774000Y17160000D01*
X32726381Y17064762D01*
X32726381Y16826666D01*
X32774000Y16683809D01*
X33726381Y16255238D02*
X32726381Y16255238D01*
X32726381Y15874285D01*
X32774000Y15779047D01*
X32821619Y15731428D01*
X32916857Y15683809D01*
X33059714Y15683809D01*
X33154952Y15731428D01*
X33202571Y15779047D01*
X33250190Y15874285D01*
X33250190Y16255238D01*
X33726381Y14731428D02*
X33726381Y15302857D01*
X33726381Y15017143D02*
X32726381Y15017143D01*
X32869238Y15112381D01*
X32964476Y15207619D01*
X33012095Y15302857D01*
X33821619Y14540952D02*
X33821619Y13779047D01*
X33726381Y13540952D02*
X32726381Y13540952D01*
X33440667Y13207618D01*
X32726381Y12874285D01*
X33726381Y12874285D01*
X32726381Y12207619D02*
X32726381Y12017142D01*
X32774000Y11921904D01*
X32869238Y11826666D01*
X33059714Y11779047D01*
X33393048Y11779047D01*
X33583524Y11826666D01*
X33678762Y11921904D01*
X33726381Y12017142D01*
X33726381Y12207619D01*
X33678762Y12302857D01*
X33583524Y12398095D01*
X33393048Y12445714D01*
X33059714Y12445714D01*
X32869238Y12398095D01*
X32774000Y12302857D01*
X32726381Y12207619D01*
X33678762Y11398095D02*
X33726381Y11255238D01*
X33726381Y11017142D01*
X33678762Y10921904D01*
X33631143Y10874285D01*
X33535905Y10826666D01*
X33440667Y10826666D01*
X33345429Y10874285D01*
X33297810Y10921904D01*
X33250190Y11017142D01*
X33202571Y11207619D01*
X33154952Y11302857D01*
X33107333Y11350476D01*
X33012095Y11398095D01*
X32916857Y11398095D01*
X32821619Y11350476D01*
X32774000Y11302857D01*
X32726381Y11207619D01*
X32726381Y10969523D01*
X32774000Y10826666D01*
X33726381Y10398095D02*
X32726381Y10398095D01*
X34948762Y13476953D02*
X34996381Y13334096D01*
X34996381Y13096000D01*
X34948762Y13000762D01*
X34901143Y12953143D01*
X34805905Y12905524D01*
X34710667Y12905524D01*
X34615429Y12953143D01*
X34567810Y13000762D01*
X34520190Y13096000D01*
X34472571Y13286477D01*
X34424952Y13381715D01*
X34377333Y13429334D01*
X34282095Y13476953D01*
X34186857Y13476953D01*
X34091619Y13429334D01*
X34044000Y13381715D01*
X33996381Y13286477D01*
X33996381Y13048381D01*
X34044000Y12905524D01*
X34948762Y12524572D02*
X34996381Y12381715D01*
X34996381Y12143619D01*
X34948762Y12048381D01*
X34901143Y12000762D01*
X34805905Y11953143D01*
X34710667Y11953143D01*
X34615429Y12000762D01*
X34567810Y12048381D01*
X34520190Y12143619D01*
X34472571Y12334096D01*
X34424952Y12429334D01*
X34377333Y12476953D01*
X34282095Y12524572D01*
X34186857Y12524572D01*
X34091619Y12476953D01*
X34044000Y12429334D01*
X33996381Y12334096D01*
X33996381Y12096000D01*
X34044000Y11953143D01*
X34996381Y11524572D02*
X33996381Y11524572D01*
X33996381Y11143619D01*
X34044000Y11048381D01*
X34091619Y11000762D01*
X34186857Y10953143D01*
X34329714Y10953143D01*
X34424952Y11000762D01*
X34472571Y11048381D01*
X34520190Y11143619D01*
X34520190Y11524572D01*
X34996381Y10000762D02*
X34996381Y10572191D01*
X34996381Y10286477D02*
X33996381Y10286477D01*
X34139238Y10381715D01*
X34234476Y10476953D01*
X34282095Y10572191D01*
X35091619Y9810286D02*
X35091619Y9048381D01*
X34948762Y8857905D02*
X34996381Y8715048D01*
X34996381Y8476952D01*
X34948762Y8381714D01*
X34901143Y8334095D01*
X34805905Y8286476D01*
X34710667Y8286476D01*
X34615429Y8334095D01*
X34567810Y8381714D01*
X34520190Y8476952D01*
X34472571Y8667429D01*
X34424952Y8762667D01*
X34377333Y8810286D01*
X34282095Y8857905D01*
X34186857Y8857905D01*
X34091619Y8810286D01*
X34044000Y8762667D01*
X33996381Y8667429D01*
X33996381Y8429333D01*
X34044000Y8286476D01*
X34901143Y7286476D02*
X34948762Y7334095D01*
X34996381Y7476952D01*
X34996381Y7572190D01*
X34948762Y7715048D01*
X34853524Y7810286D01*
X34758286Y7857905D01*
X34567810Y7905524D01*
X34424952Y7905524D01*
X34234476Y7857905D01*
X34139238Y7810286D01*
X34044000Y7715048D01*
X33996381Y7572190D01*
X33996381Y7476952D01*
X34044000Y7334095D01*
X34091619Y7286476D01*
X34996381Y6857905D02*
X33996381Y6857905D01*
X34996381Y6286476D02*
X34424952Y6715048D01*
X33996381Y6286476D02*
X34567810Y6857905D01*
X30131619Y17344095D02*
X31231619Y16977428D01*
X30131619Y16610762D01*
X31231619Y16244095D02*
X30131619Y16244095D01*
X30131619Y15510761D02*
X30131619Y15301238D01*
X30184000Y15196476D01*
X30288762Y15091714D01*
X30498286Y15039333D01*
X30864952Y15039333D01*
X31074476Y15091714D01*
X31179238Y15196476D01*
X31231619Y15301238D01*
X31231619Y15510761D01*
X31179238Y15615523D01*
X31074476Y15720285D01*
X30864952Y15772666D01*
X30498286Y15772666D01*
X30288762Y15720285D01*
X30184000Y15615523D01*
X30131619Y15510761D01*
X31336381Y14829809D02*
X31336381Y13991714D01*
X30131619Y13834571D02*
X30131619Y13153619D01*
X30550667Y13520285D01*
X30550667Y13363143D01*
X30603048Y13258381D01*
X30655429Y13206000D01*
X30760190Y13153619D01*
X31022095Y13153619D01*
X31126857Y13206000D01*
X31179238Y13258381D01*
X31231619Y13363143D01*
X31231619Y13677428D01*
X31179238Y13782190D01*
X31126857Y13834571D01*
X30131619Y12839333D02*
X31231619Y12472666D01*
X30131619Y12106000D01*
X30131619Y11844095D02*
X30131619Y11163143D01*
X30550667Y11529809D01*
X30550667Y11372667D01*
X30603048Y11267905D01*
X30655429Y11215524D01*
X30760190Y11163143D01*
X31022095Y11163143D01*
X31126857Y11215524D01*
X31179238Y11267905D01*
X31231619Y11372667D01*
X31231619Y11686952D01*
X31179238Y11791714D01*
X31126857Y11844095D01*
X30131619Y10796476D02*
X30131619Y10063143D01*
X31231619Y10796476D01*
X31231619Y10063143D01*
D13*
X14224000Y49276000D02*
X21844000Y49276000D01*
X14224000Y49276000D02*
X14224000Y48768000D01*
X9144000Y49276000D02*
X14224000Y49276000D01*
X9144000Y49530000D02*
X9144000Y48768000D01*
X6604000Y49530000D02*
X9144000Y49530000D01*
X6604000Y48768000D02*
X6604000Y49530000D01*
D12*
X76974000Y44323143D02*
X76902571Y44466000D01*
X76902571Y44680286D01*
X76974000Y44894571D01*
X77116857Y45037429D01*
X77259714Y45108857D01*
X77545429Y45180286D01*
X77759714Y45180286D01*
X78045429Y45108857D01*
X78188286Y45037429D01*
X78331143Y44894571D01*
X78402571Y44680286D01*
X78402571Y44537429D01*
X78331143Y44323143D01*
X78259714Y44251714D01*
X77759714Y44251714D01*
X77759714Y44537429D01*
X78402571Y43608857D02*
X76902571Y43608857D01*
X78402571Y42751714D01*
X76902571Y42751714D01*
X78402571Y42037428D02*
X76902571Y42037428D01*
X76902571Y41680285D01*
X76974000Y41466000D01*
X77116857Y41323142D01*
X77259714Y41251714D01*
X77545429Y41180285D01*
X77759714Y41180285D01*
X78045429Y41251714D01*
X78188286Y41323142D01*
X78331143Y41466000D01*
X78402571Y41680285D01*
X78402571Y42037428D01*
D13*
X47244000Y49276000D02*
X44704000Y49276000D01*
X42164000Y49276000D02*
X47244000Y49276000D01*
X75184000Y49530000D02*
X75184000Y48768000D01*
X47244000Y49530000D02*
X75184000Y49530000D01*
X47244000Y48768000D02*
X47244000Y49530000D01*
X24384000Y49276000D02*
X29464000Y49276000D01*
X42164000Y49530000D02*
X42164000Y48768000D01*
X29464000Y49530000D02*
X42164000Y49530000D01*
X29464000Y48768000D02*
X29464000Y49530000D01*
X24384000Y49530000D02*
X24384000Y48768000D01*
X21844000Y49530000D02*
X24384000Y49530000D01*
X21844000Y48768000D02*
X21844000Y49530000D01*
D11*
X44156381Y46036571D02*
X44870667Y46036571D01*
X45013524Y46084191D01*
X45108762Y46179429D01*
X45156381Y46322286D01*
X45156381Y46417524D01*
X44156381Y45655619D02*
X44156381Y44988952D01*
X45156381Y45417524D01*
X45251619Y44846095D02*
X45251619Y44084190D01*
X44584952Y43703238D02*
X44537333Y43798476D01*
X44489714Y43846095D01*
X44394476Y43893714D01*
X44346857Y43893714D01*
X44251619Y43846095D01*
X44204000Y43798476D01*
X44156381Y43703238D01*
X44156381Y43512761D01*
X44204000Y43417523D01*
X44251619Y43369904D01*
X44346857Y43322285D01*
X44394476Y43322285D01*
X44489714Y43369904D01*
X44537333Y43417523D01*
X44584952Y43512761D01*
X44584952Y43703238D01*
X44632571Y43798476D01*
X44680190Y43846095D01*
X44775429Y43893714D01*
X44965905Y43893714D01*
X45061143Y43846095D01*
X45108762Y43798476D01*
X45156381Y43703238D01*
X45156381Y43512761D01*
X45108762Y43417523D01*
X45061143Y43369904D01*
X44965905Y43322285D01*
X44775429Y43322285D01*
X44680190Y43369904D01*
X44632571Y43417523D01*
X44584952Y43512761D01*
X44775429Y42893714D02*
X44775429Y42131809D01*
X44156381Y41750857D02*
X44156381Y41084190D01*
X45156381Y41512762D01*
X45156381Y38988952D02*
X44156381Y38988952D01*
X45108762Y38560381D02*
X45156381Y38417524D01*
X45156381Y38179428D01*
X45108762Y38084190D01*
X45061143Y38036571D01*
X44965905Y37988952D01*
X44870667Y37988952D01*
X44775429Y38036571D01*
X44727810Y38084190D01*
X44680190Y38179428D01*
X44632571Y38369905D01*
X44584952Y38465143D01*
X44537333Y38512762D01*
X44442095Y38560381D01*
X44346857Y38560381D01*
X44251619Y38512762D01*
X44204000Y38465143D01*
X44156381Y38369905D01*
X44156381Y38131809D01*
X44204000Y37988952D01*
X45156381Y37560381D02*
X44156381Y37560381D01*
X44156381Y37179428D01*
X44204000Y37084190D01*
X44251619Y37036571D01*
X44346857Y36988952D01*
X44489714Y36988952D01*
X44584952Y37036571D01*
X44632571Y37084190D01*
X44680190Y37179428D01*
X44680190Y37560381D01*
X45251619Y36798476D02*
X45251619Y36036571D01*
X45061143Y35227047D02*
X45108762Y35274666D01*
X45156381Y35417523D01*
X45156381Y35512761D01*
X45108762Y35655619D01*
X45013524Y35750857D01*
X44918286Y35798476D01*
X44727810Y35846095D01*
X44584952Y35846095D01*
X44394476Y35798476D01*
X44299238Y35750857D01*
X44204000Y35655619D01*
X44156381Y35512761D01*
X44156381Y35417523D01*
X44204000Y35274666D01*
X44251619Y35227047D01*
X44156381Y34941333D02*
X44156381Y34369904D01*
X45156381Y34655619D02*
X44156381Y34655619D01*
X45156381Y33560380D02*
X45156381Y34036571D01*
X44156381Y34036571D01*
X45251619Y33465142D02*
X45251619Y32703237D01*
X44156381Y32274666D02*
X44156381Y32084189D01*
X44204000Y31988951D01*
X44299238Y31893713D01*
X44489714Y31846094D01*
X44823048Y31846094D01*
X45013524Y31893713D01*
X45108762Y31988951D01*
X45156381Y32084189D01*
X45156381Y32274666D01*
X45108762Y32369904D01*
X45013524Y32465142D01*
X44823048Y32512761D01*
X44489714Y32512761D01*
X44299238Y32465142D01*
X44204000Y32369904D01*
X44156381Y32274666D01*
X45156381Y31417523D02*
X44156381Y31417523D01*
X44156381Y31179428D01*
X44204000Y31036570D01*
X44299238Y30941332D01*
X44394476Y30893713D01*
X44584952Y30846094D01*
X44727810Y30846094D01*
X44918286Y30893713D01*
X45013524Y30941332D01*
X45108762Y31036570D01*
X45156381Y31179428D01*
X45156381Y31417523D01*
D14*
X74362571Y15064285D02*
X75862571Y14564285D01*
X74362571Y14064285D01*
X75862571Y13564285D02*
X74362571Y13564285D01*
X74362571Y12564285D02*
X74362571Y12278571D01*
X74434000Y12135713D01*
X74576857Y11992856D01*
X74862571Y11921428D01*
X75362571Y11921428D01*
X75648286Y11992856D01*
X75791143Y12135713D01*
X75862571Y12278571D01*
X75862571Y12564285D01*
X75791143Y12707142D01*
X75648286Y12849999D01*
X75362571Y12921428D01*
X74862571Y12921428D01*
X74576857Y12849999D01*
X74434000Y12707142D01*
X74362571Y12564285D01*
X76005429Y11635713D02*
X76005429Y10492856D01*
X74362571Y10278570D02*
X74362571Y9349999D01*
X74934000Y9849999D01*
X74934000Y9635713D01*
X75005429Y9492856D01*
X75076857Y9421427D01*
X75219714Y9349999D01*
X75576857Y9349999D01*
X75719714Y9421427D01*
X75791143Y9492856D01*
X75862571Y9635713D01*
X75862571Y10064285D01*
X75791143Y10207142D01*
X75719714Y10278570D01*
X74362571Y8921428D02*
X75862571Y8421428D01*
X74362571Y7921428D01*
X74362571Y7564285D02*
X74362571Y6635714D01*
X74934000Y7135714D01*
X74934000Y6921428D01*
X75005429Y6778571D01*
X75076857Y6707142D01*
X75219714Y6635714D01*
X75576857Y6635714D01*
X75719714Y6707142D01*
X75791143Y6778571D01*
X75862571Y6921428D01*
X75862571Y7350000D01*
X75791143Y7492857D01*
X75719714Y7564285D01*
D12*
X73129714Y19092858D02*
X73186857Y18921429D01*
X73186857Y18635715D01*
X73129714Y18521429D01*
X73072571Y18464286D01*
X72958286Y18407143D01*
X72844000Y18407143D01*
X72729714Y18464286D01*
X72672571Y18521429D01*
X72615429Y18635715D01*
X72558286Y18864286D01*
X72501143Y18978572D01*
X72444000Y19035715D01*
X72329714Y19092858D01*
X72215429Y19092858D01*
X72101143Y19035715D01*
X72044000Y18978572D01*
X71986857Y18864286D01*
X71986857Y18578572D01*
X72044000Y18407143D01*
X72044000Y17264286D02*
X71986857Y17378572D01*
X71986857Y17550001D01*
X72044000Y17721429D01*
X72158286Y17835715D01*
X72272571Y17892858D01*
X72501143Y17950001D01*
X72672571Y17950001D01*
X72901143Y17892858D01*
X73015429Y17835715D01*
X73129714Y17721429D01*
X73186857Y17550001D01*
X73186857Y17435715D01*
X73129714Y17264286D01*
X73072571Y17207143D01*
X72672571Y17207143D01*
X72672571Y17435715D01*
X73186857Y16692858D02*
X71986857Y16692858D01*
X71986857Y16235715D01*
X72044000Y16121429D01*
X72101143Y16064286D01*
X72215429Y16007143D01*
X72386857Y16007143D01*
X72501143Y16064286D01*
X72558286Y16121429D01*
X72615429Y16235715D01*
X72615429Y16692858D01*
X73186857Y15492858D02*
X71986857Y15492858D01*
X71986857Y14692857D02*
X71986857Y14464286D01*
X72044000Y14350000D01*
X72158286Y14235714D01*
X72386857Y14178572D01*
X72786857Y14178572D01*
X73015429Y14235714D01*
X73129714Y14350000D01*
X73186857Y14464286D01*
X73186857Y14692857D01*
X73129714Y14807143D01*
X73015429Y14921429D01*
X72786857Y14978572D01*
X72386857Y14978572D01*
X72158286Y14921429D01*
X72044000Y14807143D01*
X71986857Y14692857D01*
X73301143Y13950000D02*
X73301143Y13035714D01*
X73186857Y12121428D02*
X73186857Y12807143D01*
X73186857Y12464285D02*
X71986857Y12464285D01*
X72158286Y12578571D01*
X72272571Y12692857D01*
X72329714Y12807143D01*
X71986857Y11721428D02*
X71986857Y10978571D01*
X72444000Y11378571D01*
X72444000Y11207143D01*
X72501143Y11092857D01*
X72558286Y11035714D01*
X72672571Y10978571D01*
X72958286Y10978571D01*
X73072571Y11035714D01*
X73129714Y11092857D01*
X73186857Y11207143D01*
X73186857Y11550000D01*
X73129714Y11664286D01*
X73072571Y11721428D01*
X73301143Y10750000D02*
X73301143Y9835714D01*
X72558286Y9150000D02*
X72615429Y8978571D01*
X72672571Y8921428D01*
X72786857Y8864285D01*
X72958286Y8864285D01*
X73072571Y8921428D01*
X73129714Y8978571D01*
X73186857Y9092857D01*
X73186857Y9550000D01*
X71986857Y9550000D01*
X71986857Y9150000D01*
X72044000Y9035714D01*
X72101143Y8978571D01*
X72215429Y8921428D01*
X72329714Y8921428D01*
X72444000Y8978571D01*
X72501143Y9035714D01*
X72558286Y9150000D01*
X72558286Y9550000D01*
X71986857Y8350000D02*
X72958286Y8350000D01*
X73072571Y8292857D01*
X73129714Y8235714D01*
X73186857Y8121428D01*
X73186857Y7892857D01*
X73129714Y7778571D01*
X73072571Y7721428D01*
X72958286Y7664285D01*
X71986857Y7664285D01*
X72558286Y6692857D02*
X72558286Y7092857D01*
X73186857Y7092857D02*
X71986857Y7092857D01*
X71986857Y6521428D01*
X70589714Y17950001D02*
X70646857Y17778572D01*
X70646857Y17492858D01*
X70589714Y17378572D01*
X70532571Y17321429D01*
X70418286Y17264286D01*
X70304000Y17264286D01*
X70189714Y17321429D01*
X70132571Y17378572D01*
X70075429Y17492858D01*
X70018286Y17721429D01*
X69961143Y17835715D01*
X69904000Y17892858D01*
X69789714Y17950001D01*
X69675429Y17950001D01*
X69561143Y17892858D01*
X69504000Y17835715D01*
X69446857Y17721429D01*
X69446857Y17435715D01*
X69504000Y17264286D01*
X69504000Y16121429D02*
X69446857Y16235715D01*
X69446857Y16407144D01*
X69504000Y16578572D01*
X69618286Y16692858D01*
X69732571Y16750001D01*
X69961143Y16807144D01*
X70132571Y16807144D01*
X70361143Y16750001D01*
X70475429Y16692858D01*
X70589714Y16578572D01*
X70646857Y16407144D01*
X70646857Y16292858D01*
X70589714Y16121429D01*
X70532571Y16064286D01*
X70132571Y16064286D01*
X70132571Y16292858D01*
X70646857Y15550001D02*
X69446857Y15550001D01*
X69446857Y15092858D01*
X69504000Y14978572D01*
X69561143Y14921429D01*
X69675429Y14864286D01*
X69846857Y14864286D01*
X69961143Y14921429D01*
X70018286Y14978572D01*
X70075429Y15092858D01*
X70075429Y15550001D01*
X70646857Y14350001D02*
X69446857Y14350001D01*
X69446857Y13550000D02*
X69446857Y13321429D01*
X69504000Y13207143D01*
X69618286Y13092857D01*
X69846857Y13035715D01*
X70246857Y13035715D01*
X70475429Y13092857D01*
X70589714Y13207143D01*
X70646857Y13321429D01*
X70646857Y13550000D01*
X70589714Y13664286D01*
X70475429Y13778572D01*
X70246857Y13835715D01*
X69846857Y13835715D01*
X69618286Y13778572D01*
X69504000Y13664286D01*
X69446857Y13550000D01*
X70761143Y12807143D02*
X70761143Y11892857D01*
X70646857Y11550000D02*
X70646857Y11321428D01*
X70589714Y11207143D01*
X70532571Y11150000D01*
X70361143Y11035714D01*
X70132571Y10978571D01*
X69675429Y10978571D01*
X69561143Y11035714D01*
X69504000Y11092857D01*
X69446857Y11207143D01*
X69446857Y11435714D01*
X69504000Y11550000D01*
X69561143Y11607143D01*
X69675429Y11664286D01*
X69961143Y11664286D01*
X70075429Y11607143D01*
X70132571Y11550000D01*
X70189714Y11435714D01*
X70189714Y11207143D01*
X70132571Y11092857D01*
X70075429Y11035714D01*
X69961143Y10978571D01*
X70761143Y10750000D02*
X70761143Y9835714D01*
X70018286Y9150000D02*
X70075429Y8978571D01*
X70132571Y8921428D01*
X70246857Y8864285D01*
X70418286Y8864285D01*
X70532571Y8921428D01*
X70589714Y8978571D01*
X70646857Y9092857D01*
X70646857Y9550000D01*
X69446857Y9550000D01*
X69446857Y9150000D01*
X69504000Y9035714D01*
X69561143Y8978571D01*
X69675429Y8921428D01*
X69789714Y8921428D01*
X69904000Y8978571D01*
X69961143Y9035714D01*
X70018286Y9150000D01*
X70018286Y9550000D01*
X69446857Y8350000D02*
X70418286Y8350000D01*
X70532571Y8292857D01*
X70589714Y8235714D01*
X70646857Y8121428D01*
X70646857Y7892857D01*
X70589714Y7778571D01*
X70532571Y7721428D01*
X70418286Y7664285D01*
X69446857Y7664285D01*
X70018286Y6692857D02*
X70018286Y7092857D01*
X70646857Y7092857D02*
X69446857Y7092857D01*
X69446857Y6521428D01*
X68242571Y13850000D02*
X66742571Y13850000D01*
X66742571Y13492857D01*
X66814000Y13278572D01*
X66956857Y13135714D01*
X67099714Y13064286D01*
X67385429Y12992857D01*
X67599714Y12992857D01*
X67885429Y13064286D01*
X68028286Y13135714D01*
X68171143Y13278572D01*
X68242571Y13492857D01*
X68242571Y13850000D01*
X68242571Y12350000D02*
X66742571Y12350000D01*
X68242571Y10778571D02*
X67528286Y11278571D01*
X68242571Y11635714D02*
X66742571Y11635714D01*
X66742571Y11064286D01*
X66814000Y10921428D01*
X66885429Y10850000D01*
X67028286Y10778571D01*
X67242571Y10778571D01*
X67385429Y10850000D01*
X67456857Y10921428D01*
X67528286Y11064286D01*
X67528286Y11635714D01*
X68385429Y10492857D02*
X68385429Y9350000D01*
X66742571Y8992857D02*
X67956857Y8992857D01*
X68099714Y8921429D01*
X68171143Y8850000D01*
X68242571Y8707143D01*
X68242571Y8421429D01*
X68171143Y8278571D01*
X68099714Y8207143D01*
X67956857Y8135714D01*
X66742571Y8135714D01*
X66742571Y7564285D02*
X66742571Y6635714D01*
X67314000Y7135714D01*
X67314000Y6921428D01*
X67385429Y6778571D01*
X67456857Y6707142D01*
X67599714Y6635714D01*
X67956857Y6635714D01*
X68099714Y6707142D01*
X68171143Y6778571D01*
X68242571Y6921428D01*
X68242571Y7350000D01*
X68171143Y7492857D01*
X68099714Y7564285D01*
X65702571Y13850000D02*
X64202571Y13850000D01*
X64202571Y13492857D01*
X64274000Y13278572D01*
X64416857Y13135714D01*
X64559714Y13064286D01*
X64845429Y12992857D01*
X65059714Y12992857D01*
X65345429Y13064286D01*
X65488286Y13135714D01*
X65631143Y13278572D01*
X65702571Y13492857D01*
X65702571Y13850000D01*
X65702571Y12350000D02*
X64202571Y12350000D01*
X65702571Y10778571D02*
X64988286Y11278571D01*
X65702571Y11635714D02*
X64202571Y11635714D01*
X64202571Y11064286D01*
X64274000Y10921428D01*
X64345429Y10850000D01*
X64488286Y10778571D01*
X64702571Y10778571D01*
X64845429Y10850000D01*
X64916857Y10921428D01*
X64988286Y11064286D01*
X64988286Y11635714D01*
X65845429Y10492857D02*
X65845429Y9350000D01*
X64202571Y8992857D02*
X65416857Y8992857D01*
X65559714Y8921429D01*
X65631143Y8850000D01*
X65702571Y8707143D01*
X65702571Y8421429D01*
X65631143Y8278571D01*
X65559714Y8207143D01*
X65416857Y8135714D01*
X64202571Y8135714D01*
X64702571Y6778571D02*
X65702571Y6778571D01*
X64131143Y7135714D02*
X65202571Y7492857D01*
X65202571Y6564285D01*
X62376857Y17135713D02*
X62376857Y16635713D01*
X63162571Y16421427D02*
X63162571Y17135713D01*
X61662571Y17135713D01*
X61662571Y16421427D01*
X61662571Y15921427D02*
X63162571Y14921427D01*
X61662571Y14921427D02*
X63162571Y15921427D01*
X63162571Y14349999D02*
X61662571Y14349999D01*
X61662571Y13778571D01*
X61734000Y13635713D01*
X61805429Y13564285D01*
X61948286Y13492856D01*
X62162571Y13492856D01*
X62305429Y13564285D01*
X62376857Y13635713D01*
X62448286Y13778571D01*
X62448286Y14349999D01*
X63305429Y13207142D02*
X63305429Y12064285D01*
X62734000Y11778571D02*
X62734000Y11064285D01*
X63162571Y11921428D02*
X61662571Y11421428D01*
X63162571Y10921428D01*
X63162571Y10421428D02*
X61662571Y10421428D01*
X61662571Y10064285D01*
X61734000Y9850000D01*
X61876857Y9707142D01*
X62019714Y9635714D01*
X62305429Y9564285D01*
X62519714Y9564285D01*
X62805429Y9635714D01*
X62948286Y9707142D01*
X63091143Y9850000D01*
X63162571Y10064285D01*
X63162571Y10421428D01*
X63019714Y8064285D02*
X63091143Y8135714D01*
X63162571Y8350000D01*
X63162571Y8492857D01*
X63091143Y8707142D01*
X62948286Y8850000D01*
X62805429Y8921428D01*
X62519714Y8992857D01*
X62305429Y8992857D01*
X62019714Y8921428D01*
X61876857Y8850000D01*
X61734000Y8707142D01*
X61662571Y8492857D01*
X61662571Y8350000D01*
X61734000Y8135714D01*
X61805429Y8064285D01*
X61662571Y7564285D02*
X61662571Y6635714D01*
X62234000Y7135714D01*
X62234000Y6921428D01*
X62305429Y6778571D01*
X62376857Y6707142D01*
X62519714Y6635714D01*
X62876857Y6635714D01*
X63019714Y6707142D01*
X63091143Y6778571D01*
X63162571Y6921428D01*
X63162571Y7350000D01*
X63091143Y7492857D01*
X63019714Y7564285D01*
X59836857Y17135713D02*
X59836857Y16635713D01*
X60622571Y16421427D02*
X60622571Y17135713D01*
X59122571Y17135713D01*
X59122571Y16421427D01*
X59122571Y15921427D02*
X60622571Y14921427D01*
X59122571Y14921427D02*
X60622571Y15921427D01*
X60622571Y14349999D02*
X59122571Y14349999D01*
X59122571Y13778571D01*
X59194000Y13635713D01*
X59265429Y13564285D01*
X59408286Y13492856D01*
X59622571Y13492856D01*
X59765429Y13564285D01*
X59836857Y13635713D01*
X59908286Y13778571D01*
X59908286Y14349999D01*
X60765429Y13207142D02*
X60765429Y12064285D01*
X60194000Y11778571D02*
X60194000Y11064285D01*
X60622571Y11921428D02*
X59122571Y11421428D01*
X60622571Y10921428D01*
X60622571Y10421428D02*
X59122571Y10421428D01*
X59122571Y10064285D01*
X59194000Y9850000D01*
X59336857Y9707142D01*
X59479714Y9635714D01*
X59765429Y9564285D01*
X59979714Y9564285D01*
X60265429Y9635714D01*
X60408286Y9707142D01*
X60551143Y9850000D01*
X60622571Y10064285D01*
X60622571Y10421428D01*
X60479714Y8064285D02*
X60551143Y8135714D01*
X60622571Y8350000D01*
X60622571Y8492857D01*
X60551143Y8707142D01*
X60408286Y8850000D01*
X60265429Y8921428D01*
X59979714Y8992857D01*
X59765429Y8992857D01*
X59479714Y8921428D01*
X59336857Y8850000D01*
X59194000Y8707142D01*
X59122571Y8492857D01*
X59122571Y8350000D01*
X59194000Y8135714D01*
X59265429Y8064285D01*
X59265429Y7492857D02*
X59194000Y7421428D01*
X59122571Y7278571D01*
X59122571Y6921428D01*
X59194000Y6778571D01*
X59265429Y6707142D01*
X59408286Y6635714D01*
X59551143Y6635714D01*
X59765429Y6707142D01*
X60622571Y7564285D01*
X60622571Y6635714D01*
X57296857Y17135713D02*
X57296857Y16635713D01*
X58082571Y16421427D02*
X58082571Y17135713D01*
X56582571Y17135713D01*
X56582571Y16421427D01*
X56582571Y15921427D02*
X58082571Y14921427D01*
X56582571Y14921427D02*
X58082571Y15921427D01*
X58082571Y14349999D02*
X56582571Y14349999D01*
X56582571Y13778571D01*
X56654000Y13635713D01*
X56725429Y13564285D01*
X56868286Y13492856D01*
X57082571Y13492856D01*
X57225429Y13564285D01*
X57296857Y13635713D01*
X57368286Y13778571D01*
X57368286Y14349999D01*
X58225429Y13207142D02*
X58225429Y12064285D01*
X57654000Y11778571D02*
X57654000Y11064285D01*
X58082571Y11921428D02*
X56582571Y11421428D01*
X58082571Y10921428D01*
X58082571Y10421428D02*
X56582571Y10421428D01*
X56582571Y10064285D01*
X56654000Y9850000D01*
X56796857Y9707142D01*
X56939714Y9635714D01*
X57225429Y9564285D01*
X57439714Y9564285D01*
X57725429Y9635714D01*
X57868286Y9707142D01*
X58011143Y9850000D01*
X58082571Y10064285D01*
X58082571Y10421428D01*
X57939714Y8064285D02*
X58011143Y8135714D01*
X58082571Y8350000D01*
X58082571Y8492857D01*
X58011143Y8707142D01*
X57868286Y8850000D01*
X57725429Y8921428D01*
X57439714Y8992857D01*
X57225429Y8992857D01*
X56939714Y8921428D01*
X56796857Y8850000D01*
X56654000Y8707142D01*
X56582571Y8492857D01*
X56582571Y8350000D01*
X56654000Y8135714D01*
X56725429Y8064285D01*
X58082571Y6635714D02*
X58082571Y7492857D01*
X58082571Y7064285D02*
X56582571Y7064285D01*
X56796857Y7207142D01*
X56939714Y7350000D01*
X57011143Y7492857D01*
X54756857Y22564284D02*
X54756857Y22064284D01*
X55542571Y21849998D02*
X55542571Y22564284D01*
X54042571Y22564284D01*
X54042571Y21849998D01*
X54042571Y21349998D02*
X55542571Y20349998D01*
X54042571Y20349998D02*
X55542571Y21349998D01*
X55542571Y19778570D02*
X54042571Y19778570D01*
X54042571Y19207142D01*
X54114000Y19064284D01*
X54185429Y18992856D01*
X54328286Y18921427D01*
X54542571Y18921427D01*
X54685429Y18992856D01*
X54756857Y19064284D01*
X54828286Y19207142D01*
X54828286Y19778570D01*
X55685429Y18635713D02*
X55685429Y17492856D01*
X55114000Y17207142D02*
X55114000Y16492856D01*
X55542571Y17349999D02*
X54042571Y16849999D01*
X55542571Y16349999D01*
X55542571Y15849999D02*
X54042571Y15849999D01*
X54042571Y15492856D01*
X54114000Y15278571D01*
X54256857Y15135713D01*
X54399714Y15064285D01*
X54685429Y14992856D01*
X54899714Y14992856D01*
X55185429Y15064285D01*
X55328286Y15135713D01*
X55471143Y15278571D01*
X55542571Y15492856D01*
X55542571Y15849999D01*
X55399714Y13492856D02*
X55471143Y13564285D01*
X55542571Y13778571D01*
X55542571Y13921428D01*
X55471143Y14135713D01*
X55328286Y14278571D01*
X55185429Y14349999D01*
X54899714Y14421428D01*
X54685429Y14421428D01*
X54399714Y14349999D01*
X54256857Y14278571D01*
X54114000Y14135713D01*
X54042571Y13921428D01*
X54042571Y13778571D01*
X54114000Y13564285D01*
X54185429Y13492856D01*
X54042571Y12564285D02*
X54042571Y12421428D01*
X54114000Y12278571D01*
X54185429Y12207142D01*
X54328286Y12135713D01*
X54614000Y12064285D01*
X54971143Y12064285D01*
X55256857Y12135713D01*
X55399714Y12207142D01*
X55471143Y12278571D01*
X55542571Y12421428D01*
X55542571Y12564285D01*
X55471143Y12707142D01*
X55399714Y12778571D01*
X55256857Y12849999D01*
X54971143Y12921428D01*
X54614000Y12921428D01*
X54328286Y12849999D01*
X54185429Y12778571D01*
X54114000Y12707142D01*
X54042571Y12564285D01*
X55685429Y11778571D02*
X55685429Y10635714D01*
X55542571Y10278571D02*
X54042571Y10278571D01*
X54042571Y9921428D01*
X54114000Y9707143D01*
X54256857Y9564285D01*
X54399714Y9492857D01*
X54685429Y9421428D01*
X54899714Y9421428D01*
X55185429Y9492857D01*
X55328286Y9564285D01*
X55471143Y9707143D01*
X55542571Y9921428D01*
X55542571Y10278571D01*
X55114000Y8850000D02*
X55114000Y8135714D01*
X55542571Y8992857D02*
X54042571Y8492857D01*
X55542571Y7992857D01*
X55399714Y6635714D02*
X55471143Y6707143D01*
X55542571Y6921429D01*
X55542571Y7064286D01*
X55471143Y7278571D01*
X55328286Y7421429D01*
X55185429Y7492857D01*
X54899714Y7564286D01*
X54685429Y7564286D01*
X54399714Y7492857D01*
X54256857Y7421429D01*
X54114000Y7278571D01*
X54042571Y7064286D01*
X54042571Y6921429D01*
X54114000Y6707143D01*
X54185429Y6635714D01*
X51502571Y11778571D02*
X53002571Y11278571D01*
X51502571Y10778571D01*
X53002571Y10278571D02*
X51502571Y10278571D01*
X51502571Y9921428D01*
X51574000Y9707143D01*
X51716857Y9564285D01*
X51859714Y9492857D01*
X52145429Y9421428D01*
X52359714Y9421428D01*
X52645429Y9492857D01*
X52788286Y9564285D01*
X52931143Y9707143D01*
X53002571Y9921428D01*
X53002571Y10278571D01*
X53002571Y8778571D02*
X51502571Y8778571D01*
X51502571Y8421428D01*
X51574000Y8207143D01*
X51716857Y8064285D01*
X51859714Y7992857D01*
X52145429Y7921428D01*
X52359714Y7921428D01*
X52645429Y7992857D01*
X52788286Y8064285D01*
X52931143Y8207143D01*
X53002571Y8421428D01*
X53002571Y8778571D01*
X52574000Y7350000D02*
X52574000Y6635714D01*
X53002571Y7492857D02*
X51502571Y6992857D01*
X53002571Y6492857D01*
X13402571Y42902286D02*
X14474000Y42902286D01*
X14688286Y42973714D01*
X14831143Y43116571D01*
X14902571Y43330857D01*
X14902571Y43473714D01*
X13402571Y42402286D02*
X13402571Y41545143D01*
X14902571Y41973714D02*
X13402571Y41973714D01*
X14474000Y41116572D02*
X14474000Y40402286D01*
X14902571Y41259429D02*
X13402571Y40759429D01*
X14902571Y40259429D01*
X13474000Y38973715D02*
X13402571Y39116572D01*
X13402571Y39330858D01*
X13474000Y39545143D01*
X13616857Y39688001D01*
X13759714Y39759429D01*
X14045429Y39830858D01*
X14259714Y39830858D01*
X14545429Y39759429D01*
X14688286Y39688001D01*
X14831143Y39545143D01*
X14902571Y39330858D01*
X14902571Y39188001D01*
X14831143Y38973715D01*
X14759714Y38902286D01*
X14259714Y38902286D01*
X14259714Y39188001D01*
X15045429Y38616572D02*
X15045429Y37473715D01*
X14902571Y36259429D02*
X14188286Y36759429D01*
X14902571Y37116572D02*
X13402571Y37116572D01*
X13402571Y36545144D01*
X13474000Y36402286D01*
X13545429Y36330858D01*
X13688286Y36259429D01*
X13902571Y36259429D01*
X14045429Y36330858D01*
X14116857Y36402286D01*
X14188286Y36545144D01*
X14188286Y37116572D01*
X14116857Y35616572D02*
X14116857Y35116572D01*
X14902571Y34902286D02*
X14902571Y35616572D01*
X13402571Y35616572D01*
X13402571Y34902286D01*
X14831143Y34330858D02*
X14902571Y34116572D01*
X14902571Y33759429D01*
X14831143Y33616572D01*
X14759714Y33545143D01*
X14616857Y33473715D01*
X14474000Y33473715D01*
X14331143Y33545143D01*
X14259714Y33616572D01*
X14188286Y33759429D01*
X14116857Y34045143D01*
X14045429Y34188001D01*
X13974000Y34259429D01*
X13831143Y34330858D01*
X13688286Y34330858D01*
X13545429Y34259429D01*
X13474000Y34188001D01*
X13402571Y34045143D01*
X13402571Y33688001D01*
X13474000Y33473715D01*
X14116857Y32830858D02*
X14116857Y32330858D01*
X14902571Y32116572D02*
X14902571Y32830858D01*
X13402571Y32830858D01*
X13402571Y32116572D01*
X13402571Y31688001D02*
X13402571Y30830858D01*
X14902571Y31259429D02*
X13402571Y31259429D01*
X10862571Y42902286D02*
X11934000Y42902286D01*
X12148286Y42973714D01*
X12291143Y43116571D01*
X12362571Y43330857D01*
X12362571Y43473714D01*
X10862571Y42402286D02*
X10862571Y41545143D01*
X12362571Y41973714D02*
X10862571Y41973714D01*
X11934000Y41116572D02*
X11934000Y40402286D01*
X12362571Y41259429D02*
X10862571Y40759429D01*
X12362571Y40259429D01*
X10934000Y38973715D02*
X10862571Y39116572D01*
X10862571Y39330858D01*
X10934000Y39545143D01*
X11076857Y39688001D01*
X11219714Y39759429D01*
X11505429Y39830858D01*
X11719714Y39830858D01*
X12005429Y39759429D01*
X12148286Y39688001D01*
X12291143Y39545143D01*
X12362571Y39330858D01*
X12362571Y39188001D01*
X12291143Y38973715D01*
X12219714Y38902286D01*
X11719714Y38902286D01*
X11719714Y39188001D01*
X12505429Y38616572D02*
X12505429Y37473715D01*
X10862571Y37330858D02*
X10862571Y36473715D01*
X12362571Y36902286D02*
X10862571Y36902286D01*
X12362571Y35973715D02*
X10862571Y35973715D01*
X10862571Y35616572D01*
X10934000Y35402287D01*
X11076857Y35259429D01*
X11219714Y35188001D01*
X11505429Y35116572D01*
X11719714Y35116572D01*
X12005429Y35188001D01*
X12148286Y35259429D01*
X12291143Y35402287D01*
X12362571Y35616572D01*
X12362571Y35973715D01*
X12362571Y34473715D02*
X10862571Y34473715D01*
X8322571Y42902286D02*
X9394000Y42902286D01*
X9608286Y42973714D01*
X9751143Y43116571D01*
X9822571Y43330857D01*
X9822571Y43473714D01*
X8322571Y42402286D02*
X8322571Y41545143D01*
X9822571Y41973714D02*
X8322571Y41973714D01*
X9394000Y41116572D02*
X9394000Y40402286D01*
X9822571Y41259429D02*
X8322571Y40759429D01*
X9822571Y40259429D01*
X8394000Y38973715D02*
X8322571Y39116572D01*
X8322571Y39330858D01*
X8394000Y39545143D01*
X8536857Y39688001D01*
X8679714Y39759429D01*
X8965429Y39830858D01*
X9179714Y39830858D01*
X9465429Y39759429D01*
X9608286Y39688001D01*
X9751143Y39545143D01*
X9822571Y39330858D01*
X9822571Y39188001D01*
X9751143Y38973715D01*
X9679714Y38902286D01*
X9179714Y38902286D01*
X9179714Y39188001D01*
X9965429Y38616572D02*
X9965429Y37473715D01*
X8322571Y37330858D02*
X8322571Y36473715D01*
X9822571Y36902286D02*
X8322571Y36902286D01*
X9822571Y35973715D02*
X8322571Y35973715D01*
X8322571Y35616572D01*
X8394000Y35402287D01*
X8536857Y35259429D01*
X8679714Y35188001D01*
X8965429Y35116572D01*
X9179714Y35116572D01*
X9465429Y35188001D01*
X9608286Y35259429D01*
X9751143Y35402287D01*
X9822571Y35616572D01*
X9822571Y35973715D01*
X8322571Y34188001D02*
X8322571Y33902287D01*
X8394000Y33759429D01*
X8536857Y33616572D01*
X8822571Y33545144D01*
X9322571Y33545144D01*
X9608286Y33616572D01*
X9751143Y33759429D01*
X9822571Y33902287D01*
X9822571Y34188001D01*
X9751143Y34330858D01*
X9608286Y34473715D01*
X9322571Y34545144D01*
X8822571Y34545144D01*
X8536857Y34473715D01*
X8394000Y34330858D01*
X8322571Y34188001D01*
X9965429Y33259429D02*
X9965429Y32116572D01*
X9751143Y31830858D02*
X9822571Y31616572D01*
X9822571Y31259429D01*
X9751143Y31116572D01*
X9679714Y31045143D01*
X9536857Y30973715D01*
X9394000Y30973715D01*
X9251143Y31045143D01*
X9179714Y31116572D01*
X9108286Y31259429D01*
X9036857Y31545143D01*
X8965429Y31688001D01*
X8894000Y31759429D01*
X8751143Y31830858D01*
X8608286Y31830858D01*
X8465429Y31759429D01*
X8394000Y31688001D01*
X8322571Y31545143D01*
X8322571Y31188001D01*
X8394000Y30973715D01*
X8322571Y30473715D02*
X9822571Y30116572D01*
X8751143Y29830858D01*
X9822571Y29545144D01*
X8322571Y29188001D01*
X8322571Y28330858D02*
X8322571Y28045144D01*
X8394000Y27902286D01*
X8536857Y27759429D01*
X8822571Y27688001D01*
X9322571Y27688001D01*
X9608286Y27759429D01*
X9751143Y27902286D01*
X9822571Y28045144D01*
X9822571Y28330858D01*
X9751143Y28473715D01*
X9608286Y28616572D01*
X9322571Y28688001D01*
X8822571Y28688001D01*
X8536857Y28616572D01*
X8394000Y28473715D01*
X8322571Y28330858D01*
X5782571Y42902286D02*
X6854000Y42902286D01*
X7068286Y42973714D01*
X7211143Y43116571D01*
X7282571Y43330857D01*
X7282571Y43473714D01*
X5782571Y42402286D02*
X5782571Y41545143D01*
X7282571Y41973714D02*
X5782571Y41973714D01*
X6854000Y41116572D02*
X6854000Y40402286D01*
X7282571Y41259429D02*
X5782571Y40759429D01*
X7282571Y40259429D01*
X5854000Y38973715D02*
X5782571Y39116572D01*
X5782571Y39330858D01*
X5854000Y39545143D01*
X5996857Y39688001D01*
X6139714Y39759429D01*
X6425429Y39830858D01*
X6639714Y39830858D01*
X6925429Y39759429D01*
X7068286Y39688001D01*
X7211143Y39545143D01*
X7282571Y39330858D01*
X7282571Y39188001D01*
X7211143Y38973715D01*
X7139714Y38902286D01*
X6639714Y38902286D01*
X6639714Y39188001D01*
X7425429Y38616572D02*
X7425429Y37473715D01*
X5782571Y37330858D02*
X5782571Y36473715D01*
X7282571Y36902286D02*
X5782571Y36902286D01*
X7139714Y35116572D02*
X7211143Y35188001D01*
X7282571Y35402287D01*
X7282571Y35545144D01*
X7211143Y35759429D01*
X7068286Y35902287D01*
X6925429Y35973715D01*
X6639714Y36045144D01*
X6425429Y36045144D01*
X6139714Y35973715D01*
X5996857Y35902287D01*
X5854000Y35759429D01*
X5782571Y35545144D01*
X5782571Y35402287D01*
X5854000Y35188001D01*
X5925429Y35116572D01*
X7282571Y34473715D02*
X5782571Y34473715D01*
X7282571Y33616572D02*
X6425429Y34259429D01*
X5782571Y33616572D02*
X6639714Y34473715D01*
X7425429Y33330858D02*
X7425429Y32188001D01*
X7211143Y31902287D02*
X7282571Y31688001D01*
X7282571Y31330858D01*
X7211143Y31188001D01*
X7139714Y31116572D01*
X6996857Y31045144D01*
X6854000Y31045144D01*
X6711143Y31116572D01*
X6639714Y31188001D01*
X6568286Y31330858D01*
X6496857Y31616572D01*
X6425429Y31759430D01*
X6354000Y31830858D01*
X6211143Y31902287D01*
X6068286Y31902287D01*
X5925429Y31830858D01*
X5854000Y31759430D01*
X5782571Y31616572D01*
X5782571Y31259430D01*
X5854000Y31045144D01*
X5782571Y30545144D02*
X7282571Y30188001D01*
X6211143Y29902287D01*
X7282571Y29616573D01*
X5782571Y29259430D01*
X7139714Y27830858D02*
X7211143Y27902287D01*
X7282571Y28116573D01*
X7282571Y28259430D01*
X7211143Y28473715D01*
X7068286Y28616573D01*
X6925429Y28688001D01*
X6639714Y28759430D01*
X6425429Y28759430D01*
X6139714Y28688001D01*
X5996857Y28616573D01*
X5854000Y28473715D01*
X5782571Y28259430D01*
X5782571Y28116573D01*
X5854000Y27902287D01*
X5925429Y27830858D01*
X7282571Y26473715D02*
X7282571Y27188001D01*
X5782571Y27188001D01*
X7282571Y25973715D02*
X5782571Y25973715D01*
X7282571Y25116572D02*
X6425429Y25759429D01*
X5782571Y25116572D02*
X6639714Y25973715D01*
D11*
X2498857Y42773714D02*
X2498857Y43459429D01*
X2498857Y43116571D02*
X1298857Y43116571D01*
X1470286Y43230857D01*
X1584571Y43345143D01*
X1641714Y43459429D01*
X2384571Y42259429D02*
X2441714Y42202286D01*
X2498857Y42259429D01*
X2441714Y42316572D01*
X2384571Y42259429D01*
X2498857Y42259429D01*
X1756000Y42259429D02*
X1813143Y42202286D01*
X1870286Y42259429D01*
X1813143Y42316572D01*
X1756000Y42259429D01*
X1870286Y42259429D01*
X1298857Y41345143D02*
X2156000Y41345143D01*
X2327429Y41402285D01*
X2441714Y41516571D01*
X2498857Y41688000D01*
X2498857Y41802285D01*
X1298857Y40945142D02*
X1298857Y40259428D01*
X2498857Y40602285D02*
X1298857Y40602285D01*
X2156000Y39916571D02*
X2156000Y39345142D01*
X2498857Y40030856D02*
X1298857Y39630856D01*
X2498857Y39230856D01*
X1356000Y38202285D02*
X1298857Y38316571D01*
X1298857Y38488000D01*
X1356000Y38659428D01*
X1470286Y38773714D01*
X1584571Y38830857D01*
X1813143Y38888000D01*
X1984571Y38888000D01*
X2213143Y38830857D01*
X2327429Y38773714D01*
X2441714Y38659428D01*
X2498857Y38488000D01*
X2498857Y38373714D01*
X2441714Y38202285D01*
X2384571Y38145142D01*
X1984571Y38145142D01*
X1984571Y38373714D01*
X2041714Y37630857D02*
X2041714Y36716571D01*
X1298857Y36316571D02*
X2498857Y35916571D01*
X1298857Y35516571D01*
X2498857Y34430857D02*
X1927429Y34830857D01*
X2498857Y35116572D02*
X1298857Y35116572D01*
X1298857Y34659429D01*
X1356000Y34545143D01*
X1413143Y34488000D01*
X1527429Y34430857D01*
X1698857Y34430857D01*
X1813143Y34488000D01*
X1870286Y34545143D01*
X1927429Y34659429D01*
X1927429Y35116572D01*
X1870286Y33916572D02*
X1870286Y33516572D01*
X2498857Y33345143D02*
X2498857Y33916572D01*
X1298857Y33916572D01*
X1298857Y33345143D01*
X1870286Y32430858D02*
X1870286Y32830858D01*
X2498857Y32830858D02*
X1298857Y32830858D01*
X1298857Y32259429D01*
X3343143Y43459429D02*
X3286000Y43402286D01*
X3228857Y43288000D01*
X3228857Y43002286D01*
X3286000Y42888000D01*
X3343143Y42830857D01*
X3457429Y42773714D01*
X3571714Y42773714D01*
X3743143Y42830857D01*
X4428857Y43516571D01*
X4428857Y42773714D01*
X4314571Y42259429D02*
X4371714Y42202286D01*
X4428857Y42259429D01*
X4371714Y42316572D01*
X4314571Y42259429D01*
X4428857Y42259429D01*
X3686000Y42259429D02*
X3743143Y42202286D01*
X3800286Y42259429D01*
X3743143Y42316572D01*
X3686000Y42259429D01*
X3800286Y42259429D01*
X3228857Y41345143D02*
X4086000Y41345143D01*
X4257429Y41402285D01*
X4371714Y41516571D01*
X4428857Y41688000D01*
X4428857Y41802285D01*
X3228857Y40945142D02*
X3228857Y40259428D01*
X4428857Y40602285D02*
X3228857Y40602285D01*
X4086000Y39916571D02*
X4086000Y39345142D01*
X4428857Y40030856D02*
X3228857Y39630856D01*
X4428857Y39230856D01*
X3286000Y38202285D02*
X3228857Y38316571D01*
X3228857Y38488000D01*
X3286000Y38659428D01*
X3400286Y38773714D01*
X3514571Y38830857D01*
X3743143Y38888000D01*
X3914571Y38888000D01*
X4143143Y38830857D01*
X4257429Y38773714D01*
X4371714Y38659428D01*
X4428857Y38488000D01*
X4428857Y38373714D01*
X4371714Y38202285D01*
X4314571Y38145142D01*
X3914571Y38145142D01*
X3914571Y38373714D01*
X4543143Y37916571D02*
X4543143Y37002285D01*
X3228857Y36887999D02*
X3228857Y36202285D01*
X4428857Y36545142D02*
X3228857Y36545142D01*
X4428857Y35802285D02*
X3228857Y35802285D01*
X4086000Y35402285D01*
X3228857Y35002285D01*
X4428857Y35002285D01*
X4371714Y34487999D02*
X4428857Y34316570D01*
X4428857Y34030856D01*
X4371714Y33916570D01*
X4314571Y33859427D01*
X4200286Y33802284D01*
X4086000Y33802284D01*
X3971714Y33859427D01*
X3914571Y33916570D01*
X3857429Y34030856D01*
X3800286Y34259427D01*
X3743143Y34373713D01*
X3686000Y34430856D01*
X3571714Y34487999D01*
X3457429Y34487999D01*
X3343143Y34430856D01*
X3286000Y34373713D01*
X3228857Y34259427D01*
X3228857Y33973713D01*
X3286000Y33802284D01*
X4543143Y33573713D02*
X4543143Y32659427D01*
X4371714Y32430856D02*
X4428857Y32259427D01*
X4428857Y31973713D01*
X4371714Y31859427D01*
X4314571Y31802284D01*
X4200286Y31745141D01*
X4086000Y31745141D01*
X3971714Y31802284D01*
X3914571Y31859427D01*
X3857429Y31973713D01*
X3800286Y32202284D01*
X3743143Y32316570D01*
X3686000Y32373713D01*
X3571714Y32430856D01*
X3457429Y32430856D01*
X3343143Y32373713D01*
X3286000Y32316570D01*
X3228857Y32202284D01*
X3228857Y31916570D01*
X3286000Y31745141D01*
X3228857Y31345141D02*
X4428857Y31059427D01*
X3571714Y30830856D01*
X4428857Y30602284D01*
X3228857Y30316570D01*
X4428857Y29859427D02*
X3228857Y29859427D01*
X3228857Y29573712D01*
X3286000Y29402284D01*
X3400286Y29287998D01*
X3514571Y29230855D01*
X3743143Y29173712D01*
X3914571Y29173712D01*
X4143143Y29230855D01*
X4257429Y29287998D01*
X4371714Y29402284D01*
X4428857Y29573712D01*
X4428857Y29859427D01*
X4428857Y28659427D02*
X3228857Y28659427D01*
X3228857Y27859426D02*
X3228857Y27630855D01*
X3286000Y27516569D01*
X3400286Y27402283D01*
X3628857Y27345141D01*
X4028857Y27345141D01*
X4257429Y27402283D01*
X4371714Y27516569D01*
X4428857Y27630855D01*
X4428857Y27859426D01*
X4371714Y27973712D01*
X4257429Y28087998D01*
X4028857Y28145141D01*
X3628857Y28145141D01*
X3400286Y28087998D01*
X3286000Y27973712D01*
X3228857Y27859426D01*
D14*
X74434000Y42545143D02*
X74362571Y42688000D01*
X74362571Y42902286D01*
X74434000Y43116571D01*
X74576857Y43259429D01*
X74719714Y43330857D01*
X75005429Y43402286D01*
X75219714Y43402286D01*
X75505429Y43330857D01*
X75648286Y43259429D01*
X75791143Y43116571D01*
X75862571Y42902286D01*
X75862571Y42759429D01*
X75791143Y42545143D01*
X75719714Y42473714D01*
X75219714Y42473714D01*
X75219714Y42759429D01*
X75862571Y41830857D02*
X74362571Y41830857D01*
X74362571Y41259429D01*
X74434000Y41116571D01*
X74505429Y41045143D01*
X74648286Y40973714D01*
X74862571Y40973714D01*
X75005429Y41045143D01*
X75076857Y41116571D01*
X75148286Y41259429D01*
X75148286Y41830857D01*
X75862571Y40330857D02*
X74362571Y40330857D01*
X74362571Y39330857D02*
X74362571Y39045143D01*
X74434000Y38902285D01*
X74576857Y38759428D01*
X74862571Y38688000D01*
X75362571Y38688000D01*
X75648286Y38759428D01*
X75791143Y38902285D01*
X75862571Y39045143D01*
X75862571Y39330857D01*
X75791143Y39473714D01*
X75648286Y39616571D01*
X75362571Y39688000D01*
X74862571Y39688000D01*
X74576857Y39616571D01*
X74434000Y39473714D01*
X74362571Y39330857D01*
X74362571Y38187999D02*
X74362571Y37259428D01*
X74934000Y37759428D01*
X74934000Y37545142D01*
X75005429Y37402285D01*
X75076857Y37330856D01*
X75219714Y37259428D01*
X75576857Y37259428D01*
X75719714Y37330856D01*
X75791143Y37402285D01*
X75862571Y37545142D01*
X75862571Y37973714D01*
X75791143Y38116571D01*
X75719714Y38187999D01*
X76005429Y36973714D02*
X76005429Y35830857D01*
X74362571Y35616571D02*
X74362571Y34688000D01*
X74934000Y35188000D01*
X74934000Y34973714D01*
X75005429Y34830857D01*
X75076857Y34759428D01*
X75219714Y34688000D01*
X75576857Y34688000D01*
X75719714Y34759428D01*
X75791143Y34830857D01*
X75862571Y34973714D01*
X75862571Y35402286D01*
X75791143Y35545143D01*
X75719714Y35616571D01*
X71894000Y42545143D02*
X71822571Y42688000D01*
X71822571Y42902286D01*
X71894000Y43116571D01*
X72036857Y43259429D01*
X72179714Y43330857D01*
X72465429Y43402286D01*
X72679714Y43402286D01*
X72965429Y43330857D01*
X73108286Y43259429D01*
X73251143Y43116571D01*
X73322571Y42902286D01*
X73322571Y42759429D01*
X73251143Y42545143D01*
X73179714Y42473714D01*
X72679714Y42473714D01*
X72679714Y42759429D01*
X73322571Y41830857D02*
X71822571Y41830857D01*
X71822571Y41259429D01*
X71894000Y41116571D01*
X71965429Y41045143D01*
X72108286Y40973714D01*
X72322571Y40973714D01*
X72465429Y41045143D01*
X72536857Y41116571D01*
X72608286Y41259429D01*
X72608286Y41830857D01*
X73322571Y40330857D02*
X71822571Y40330857D01*
X71822571Y39330857D02*
X71822571Y39045143D01*
X71894000Y38902285D01*
X72036857Y38759428D01*
X72322571Y38688000D01*
X72822571Y38688000D01*
X73108286Y38759428D01*
X73251143Y38902285D01*
X73322571Y39045143D01*
X73322571Y39330857D01*
X73251143Y39473714D01*
X73108286Y39616571D01*
X72822571Y39688000D01*
X72322571Y39688000D01*
X72036857Y39616571D01*
X71894000Y39473714D01*
X71822571Y39330857D01*
X71822571Y38187999D02*
X71822571Y37259428D01*
X72394000Y37759428D01*
X72394000Y37545142D01*
X72465429Y37402285D01*
X72536857Y37330856D01*
X72679714Y37259428D01*
X73036857Y37259428D01*
X73179714Y37330856D01*
X73251143Y37402285D01*
X73322571Y37545142D01*
X73322571Y37973714D01*
X73251143Y38116571D01*
X73179714Y38187999D01*
X73465429Y36973714D02*
X73465429Y35830857D01*
X71822571Y35616571D02*
X71822571Y34688000D01*
X72394000Y35188000D01*
X72394000Y34973714D01*
X72465429Y34830857D01*
X72536857Y34759428D01*
X72679714Y34688000D01*
X73036857Y34688000D01*
X73179714Y34759428D01*
X73251143Y34830857D01*
X73322571Y34973714D01*
X73322571Y35402286D01*
X73251143Y35545143D01*
X73179714Y35616571D01*
D12*
X69354000Y42545143D02*
X69282571Y42688000D01*
X69282571Y42902286D01*
X69354000Y43116571D01*
X69496857Y43259429D01*
X69639714Y43330857D01*
X69925429Y43402286D01*
X70139714Y43402286D01*
X70425429Y43330857D01*
X70568286Y43259429D01*
X70711143Y43116571D01*
X70782571Y42902286D01*
X70782571Y42759429D01*
X70711143Y42545143D01*
X70639714Y42473714D01*
X70139714Y42473714D01*
X70139714Y42759429D01*
X70782571Y41830857D02*
X69282571Y41830857D01*
X69282571Y41259429D01*
X69354000Y41116571D01*
X69425429Y41045143D01*
X69568286Y40973714D01*
X69782571Y40973714D01*
X69925429Y41045143D01*
X69996857Y41116571D01*
X70068286Y41259429D01*
X70068286Y41830857D01*
X70782571Y40330857D02*
X69282571Y40330857D01*
X69282571Y39330857D02*
X69282571Y39045143D01*
X69354000Y38902285D01*
X69496857Y38759428D01*
X69782571Y38688000D01*
X70282571Y38688000D01*
X70568286Y38759428D01*
X70711143Y38902285D01*
X70782571Y39045143D01*
X70782571Y39330857D01*
X70711143Y39473714D01*
X70568286Y39616571D01*
X70282571Y39688000D01*
X69782571Y39688000D01*
X69496857Y39616571D01*
X69354000Y39473714D01*
X69282571Y39330857D01*
X69282571Y38187999D02*
X69282571Y37259428D01*
X69854000Y37759428D01*
X69854000Y37545142D01*
X69925429Y37402285D01*
X69996857Y37330856D01*
X70139714Y37259428D01*
X70496857Y37259428D01*
X70639714Y37330856D01*
X70711143Y37402285D01*
X70782571Y37545142D01*
X70782571Y37973714D01*
X70711143Y38116571D01*
X70639714Y38187999D01*
X70925429Y36973714D02*
X70925429Y35830857D01*
X70782571Y34688000D02*
X70782571Y35545143D01*
X70782571Y35116571D02*
X69282571Y35116571D01*
X69496857Y35259428D01*
X69639714Y35402286D01*
X69711143Y35545143D01*
X66814000Y42545143D02*
X66742571Y42688000D01*
X66742571Y42902286D01*
X66814000Y43116571D01*
X66956857Y43259429D01*
X67099714Y43330857D01*
X67385429Y43402286D01*
X67599714Y43402286D01*
X67885429Y43330857D01*
X68028286Y43259429D01*
X68171143Y43116571D01*
X68242571Y42902286D01*
X68242571Y42759429D01*
X68171143Y42545143D01*
X68099714Y42473714D01*
X67599714Y42473714D01*
X67599714Y42759429D01*
X68242571Y41830857D02*
X66742571Y41830857D01*
X66742571Y41259429D01*
X66814000Y41116571D01*
X66885429Y41045143D01*
X67028286Y40973714D01*
X67242571Y40973714D01*
X67385429Y41045143D01*
X67456857Y41116571D01*
X67528286Y41259429D01*
X67528286Y41830857D01*
X68242571Y40330857D02*
X66742571Y40330857D01*
X66742571Y39330857D02*
X66742571Y39045143D01*
X66814000Y38902285D01*
X66956857Y38759428D01*
X67242571Y38688000D01*
X67742571Y38688000D01*
X68028286Y38759428D01*
X68171143Y38902285D01*
X68242571Y39045143D01*
X68242571Y39330857D01*
X68171143Y39473714D01*
X68028286Y39616571D01*
X67742571Y39688000D01*
X67242571Y39688000D01*
X66956857Y39616571D01*
X66814000Y39473714D01*
X66742571Y39330857D01*
X66742571Y38187999D02*
X66742571Y37259428D01*
X67314000Y37759428D01*
X67314000Y37545142D01*
X67385429Y37402285D01*
X67456857Y37330856D01*
X67599714Y37259428D01*
X67956857Y37259428D01*
X68099714Y37330856D01*
X68171143Y37402285D01*
X68242571Y37545142D01*
X68242571Y37973714D01*
X68171143Y38116571D01*
X68099714Y38187999D01*
X68385429Y36973714D02*
X68385429Y35830857D01*
X66742571Y35188000D02*
X66742571Y35045143D01*
X66814000Y34902286D01*
X66885429Y34830857D01*
X67028286Y34759428D01*
X67314000Y34688000D01*
X67671143Y34688000D01*
X67956857Y34759428D01*
X68099714Y34830857D01*
X68171143Y34902286D01*
X68242571Y35045143D01*
X68242571Y35188000D01*
X68171143Y35330857D01*
X68099714Y35402286D01*
X67956857Y35473714D01*
X67671143Y35545143D01*
X67314000Y35545143D01*
X67028286Y35473714D01*
X66885429Y35402286D01*
X66814000Y35330857D01*
X66742571Y35188000D01*
X64274000Y42545143D02*
X64202571Y42688000D01*
X64202571Y42902286D01*
X64274000Y43116571D01*
X64416857Y43259429D01*
X64559714Y43330857D01*
X64845429Y43402286D01*
X65059714Y43402286D01*
X65345429Y43330857D01*
X65488286Y43259429D01*
X65631143Y43116571D01*
X65702571Y42902286D01*
X65702571Y42759429D01*
X65631143Y42545143D01*
X65559714Y42473714D01*
X65059714Y42473714D01*
X65059714Y42759429D01*
X65702571Y41830857D02*
X64202571Y41830857D01*
X64202571Y41259429D01*
X64274000Y41116571D01*
X64345429Y41045143D01*
X64488286Y40973714D01*
X64702571Y40973714D01*
X64845429Y41045143D01*
X64916857Y41116571D01*
X64988286Y41259429D01*
X64988286Y41830857D01*
X65702571Y40330857D02*
X64202571Y40330857D01*
X64202571Y39330857D02*
X64202571Y39045143D01*
X64274000Y38902285D01*
X64416857Y38759428D01*
X64702571Y38688000D01*
X65202571Y38688000D01*
X65488286Y38759428D01*
X65631143Y38902285D01*
X65702571Y39045143D01*
X65702571Y39330857D01*
X65631143Y39473714D01*
X65488286Y39616571D01*
X65202571Y39688000D01*
X64702571Y39688000D01*
X64416857Y39616571D01*
X64274000Y39473714D01*
X64202571Y39330857D01*
X65702571Y37259428D02*
X65702571Y38116571D01*
X65702571Y37687999D02*
X64202571Y37687999D01*
X64416857Y37830856D01*
X64559714Y37973714D01*
X64631143Y38116571D01*
X65845429Y36973714D02*
X65845429Y35830857D01*
X65702571Y34688000D02*
X65702571Y35545143D01*
X65702571Y35116571D02*
X64202571Y35116571D01*
X64416857Y35259428D01*
X64559714Y35402286D01*
X64631143Y35545143D01*
X64202571Y34188000D02*
X64202571Y33259429D01*
X64774000Y33759429D01*
X64774000Y33545143D01*
X64845429Y33402286D01*
X64916857Y33330857D01*
X65059714Y33259429D01*
X65416857Y33259429D01*
X65559714Y33330857D01*
X65631143Y33402286D01*
X65702571Y33545143D01*
X65702571Y33973715D01*
X65631143Y34116572D01*
X65559714Y34188000D01*
X61734000Y42545143D02*
X61662571Y42688000D01*
X61662571Y42902286D01*
X61734000Y43116571D01*
X61876857Y43259429D01*
X62019714Y43330857D01*
X62305429Y43402286D01*
X62519714Y43402286D01*
X62805429Y43330857D01*
X62948286Y43259429D01*
X63091143Y43116571D01*
X63162571Y42902286D01*
X63162571Y42759429D01*
X63091143Y42545143D01*
X63019714Y42473714D01*
X62519714Y42473714D01*
X62519714Y42759429D01*
X63162571Y41830857D02*
X61662571Y41830857D01*
X61662571Y41259429D01*
X61734000Y41116571D01*
X61805429Y41045143D01*
X61948286Y40973714D01*
X62162571Y40973714D01*
X62305429Y41045143D01*
X62376857Y41116571D01*
X62448286Y41259429D01*
X62448286Y41830857D01*
X63162571Y40330857D02*
X61662571Y40330857D01*
X61662571Y39330857D02*
X61662571Y39045143D01*
X61734000Y38902285D01*
X61876857Y38759428D01*
X62162571Y38688000D01*
X62662571Y38688000D01*
X62948286Y38759428D01*
X63091143Y38902285D01*
X63162571Y39045143D01*
X63162571Y39330857D01*
X63091143Y39473714D01*
X62948286Y39616571D01*
X62662571Y39688000D01*
X62162571Y39688000D01*
X61876857Y39616571D01*
X61734000Y39473714D01*
X61662571Y39330857D01*
X63162571Y37259428D02*
X63162571Y38116571D01*
X63162571Y37687999D02*
X61662571Y37687999D01*
X61876857Y37830856D01*
X62019714Y37973714D01*
X62091143Y38116571D01*
X63305429Y36973714D02*
X63305429Y35830857D01*
X63162571Y34688000D02*
X63162571Y35545143D01*
X63162571Y35116571D02*
X61662571Y35116571D01*
X61876857Y35259428D01*
X62019714Y35402286D01*
X62091143Y35545143D01*
X61805429Y34116572D02*
X61734000Y34045143D01*
X61662571Y33902286D01*
X61662571Y33545143D01*
X61734000Y33402286D01*
X61805429Y33330857D01*
X61948286Y33259429D01*
X62091143Y33259429D01*
X62305429Y33330857D01*
X63162571Y34188000D01*
X63162571Y33259429D01*
X59194000Y42545143D02*
X59122571Y42688000D01*
X59122571Y42902286D01*
X59194000Y43116571D01*
X59336857Y43259429D01*
X59479714Y43330857D01*
X59765429Y43402286D01*
X59979714Y43402286D01*
X60265429Y43330857D01*
X60408286Y43259429D01*
X60551143Y43116571D01*
X60622571Y42902286D01*
X60622571Y42759429D01*
X60551143Y42545143D01*
X60479714Y42473714D01*
X59979714Y42473714D01*
X59979714Y42759429D01*
X60622571Y41830857D02*
X59122571Y41830857D01*
X59122571Y41259429D01*
X59194000Y41116571D01*
X59265429Y41045143D01*
X59408286Y40973714D01*
X59622571Y40973714D01*
X59765429Y41045143D01*
X59836857Y41116571D01*
X59908286Y41259429D01*
X59908286Y41830857D01*
X60622571Y40330857D02*
X59122571Y40330857D01*
X59122571Y39330857D02*
X59122571Y39045143D01*
X59194000Y38902285D01*
X59336857Y38759428D01*
X59622571Y38688000D01*
X60122571Y38688000D01*
X60408286Y38759428D01*
X60551143Y38902285D01*
X60622571Y39045143D01*
X60622571Y39330857D01*
X60551143Y39473714D01*
X60408286Y39616571D01*
X60122571Y39688000D01*
X59622571Y39688000D01*
X59336857Y39616571D01*
X59194000Y39473714D01*
X59122571Y39330857D01*
X60622571Y37259428D02*
X60622571Y38116571D01*
X60622571Y37687999D02*
X59122571Y37687999D01*
X59336857Y37830856D01*
X59479714Y37973714D01*
X59551143Y38116571D01*
X60765429Y36973714D02*
X60765429Y35830857D01*
X60622571Y34688000D02*
X60622571Y35545143D01*
X60622571Y35116571D02*
X59122571Y35116571D01*
X59336857Y35259428D01*
X59479714Y35402286D01*
X59551143Y35545143D01*
X59265429Y34116572D02*
X59194000Y34045143D01*
X59122571Y33902286D01*
X59122571Y33545143D01*
X59194000Y33402286D01*
X59265429Y33330857D01*
X59408286Y33259429D01*
X59551143Y33259429D01*
X59765429Y33330857D01*
X60622571Y34188000D01*
X60622571Y33259429D01*
X56654000Y42545143D02*
X56582571Y42688000D01*
X56582571Y42902286D01*
X56654000Y43116571D01*
X56796857Y43259429D01*
X56939714Y43330857D01*
X57225429Y43402286D01*
X57439714Y43402286D01*
X57725429Y43330857D01*
X57868286Y43259429D01*
X58011143Y43116571D01*
X58082571Y42902286D01*
X58082571Y42759429D01*
X58011143Y42545143D01*
X57939714Y42473714D01*
X57439714Y42473714D01*
X57439714Y42759429D01*
X58082571Y41830857D02*
X56582571Y41830857D01*
X56582571Y41259429D01*
X56654000Y41116571D01*
X56725429Y41045143D01*
X56868286Y40973714D01*
X57082571Y40973714D01*
X57225429Y41045143D01*
X57296857Y41116571D01*
X57368286Y41259429D01*
X57368286Y41830857D01*
X58082571Y40330857D02*
X56582571Y40330857D01*
X56582571Y39330857D02*
X56582571Y39045143D01*
X56654000Y38902285D01*
X56796857Y38759428D01*
X57082571Y38688000D01*
X57582571Y38688000D01*
X57868286Y38759428D01*
X58011143Y38902285D01*
X58082571Y39045143D01*
X58082571Y39330857D01*
X58011143Y39473714D01*
X57868286Y39616571D01*
X57582571Y39688000D01*
X57082571Y39688000D01*
X56796857Y39616571D01*
X56654000Y39473714D01*
X56582571Y39330857D01*
X58082571Y37259428D02*
X58082571Y38116571D01*
X58082571Y37687999D02*
X56582571Y37687999D01*
X56796857Y37830856D01*
X56939714Y37973714D01*
X57011143Y38116571D01*
X58225429Y36973714D02*
X58225429Y35830857D01*
X57082571Y34830857D02*
X58082571Y34830857D01*
X56511143Y35188000D02*
X57582571Y35545143D01*
X57582571Y34616571D01*
X54114000Y42545143D02*
X54042571Y42688000D01*
X54042571Y42902286D01*
X54114000Y43116571D01*
X54256857Y43259429D01*
X54399714Y43330857D01*
X54685429Y43402286D01*
X54899714Y43402286D01*
X55185429Y43330857D01*
X55328286Y43259429D01*
X55471143Y43116571D01*
X55542571Y42902286D01*
X55542571Y42759429D01*
X55471143Y42545143D01*
X55399714Y42473714D01*
X54899714Y42473714D01*
X54899714Y42759429D01*
X55542571Y41830857D02*
X54042571Y41830857D01*
X54042571Y41259429D01*
X54114000Y41116571D01*
X54185429Y41045143D01*
X54328286Y40973714D01*
X54542571Y40973714D01*
X54685429Y41045143D01*
X54756857Y41116571D01*
X54828286Y41259429D01*
X54828286Y41830857D01*
X55542571Y40330857D02*
X54042571Y40330857D01*
X54042571Y39330857D02*
X54042571Y39045143D01*
X54114000Y38902285D01*
X54256857Y38759428D01*
X54542571Y38688000D01*
X55042571Y38688000D01*
X55328286Y38759428D01*
X55471143Y38902285D01*
X55542571Y39045143D01*
X55542571Y39330857D01*
X55471143Y39473714D01*
X55328286Y39616571D01*
X55042571Y39688000D01*
X54542571Y39688000D01*
X54256857Y39616571D01*
X54114000Y39473714D01*
X54042571Y39330857D01*
X55542571Y37259428D02*
X55542571Y38116571D01*
X55542571Y37687999D02*
X54042571Y37687999D01*
X54256857Y37830856D01*
X54399714Y37973714D01*
X54471143Y38116571D01*
X55685429Y36973714D02*
X55685429Y35830857D01*
X54042571Y35616571D02*
X54042571Y34688000D01*
X54614000Y35188000D01*
X54614000Y34973714D01*
X54685429Y34830857D01*
X54756857Y34759428D01*
X54899714Y34688000D01*
X55256857Y34688000D01*
X55399714Y34759428D01*
X55471143Y34830857D01*
X55542571Y34973714D01*
X55542571Y35402286D01*
X55471143Y35545143D01*
X55399714Y35616571D01*
X51574000Y42545143D02*
X51502571Y42688000D01*
X51502571Y42902286D01*
X51574000Y43116571D01*
X51716857Y43259429D01*
X51859714Y43330857D01*
X52145429Y43402286D01*
X52359714Y43402286D01*
X52645429Y43330857D01*
X52788286Y43259429D01*
X52931143Y43116571D01*
X53002571Y42902286D01*
X53002571Y42759429D01*
X52931143Y42545143D01*
X52859714Y42473714D01*
X52359714Y42473714D01*
X52359714Y42759429D01*
X53002571Y41830857D02*
X51502571Y41830857D01*
X51502571Y41259429D01*
X51574000Y41116571D01*
X51645429Y41045143D01*
X51788286Y40973714D01*
X52002571Y40973714D01*
X52145429Y41045143D01*
X52216857Y41116571D01*
X52288286Y41259429D01*
X52288286Y41830857D01*
X53002571Y40330857D02*
X51502571Y40330857D01*
X51502571Y39330857D02*
X51502571Y39045143D01*
X51574000Y38902285D01*
X51716857Y38759428D01*
X52002571Y38688000D01*
X52502571Y38688000D01*
X52788286Y38759428D01*
X52931143Y38902285D01*
X53002571Y39045143D01*
X53002571Y39330857D01*
X52931143Y39473714D01*
X52788286Y39616571D01*
X52502571Y39688000D01*
X52002571Y39688000D01*
X51716857Y39616571D01*
X51574000Y39473714D01*
X51502571Y39330857D01*
X53002571Y37259428D02*
X53002571Y38116571D01*
X53002571Y37687999D02*
X51502571Y37687999D01*
X51716857Y37830856D01*
X51859714Y37973714D01*
X51931143Y38116571D01*
X53145429Y36973714D02*
X53145429Y35830857D01*
X51645429Y35545143D02*
X51574000Y35473714D01*
X51502571Y35330857D01*
X51502571Y34973714D01*
X51574000Y34830857D01*
X51645429Y34759428D01*
X51788286Y34688000D01*
X51931143Y34688000D01*
X52145429Y34759428D01*
X53002571Y35616571D01*
X53002571Y34688000D01*
X49034000Y42545143D02*
X48962571Y42688000D01*
X48962571Y42902286D01*
X49034000Y43116571D01*
X49176857Y43259429D01*
X49319714Y43330857D01*
X49605429Y43402286D01*
X49819714Y43402286D01*
X50105429Y43330857D01*
X50248286Y43259429D01*
X50391143Y43116571D01*
X50462571Y42902286D01*
X50462571Y42759429D01*
X50391143Y42545143D01*
X50319714Y42473714D01*
X49819714Y42473714D01*
X49819714Y42759429D01*
X50462571Y41830857D02*
X48962571Y41830857D01*
X48962571Y41259429D01*
X49034000Y41116571D01*
X49105429Y41045143D01*
X49248286Y40973714D01*
X49462571Y40973714D01*
X49605429Y41045143D01*
X49676857Y41116571D01*
X49748286Y41259429D01*
X49748286Y41830857D01*
X50462571Y40330857D02*
X48962571Y40330857D01*
X48962571Y39330857D02*
X48962571Y39045143D01*
X49034000Y38902285D01*
X49176857Y38759428D01*
X49462571Y38688000D01*
X49962571Y38688000D01*
X50248286Y38759428D01*
X50391143Y38902285D01*
X50462571Y39045143D01*
X50462571Y39330857D01*
X50391143Y39473714D01*
X50248286Y39616571D01*
X49962571Y39688000D01*
X49462571Y39688000D01*
X49176857Y39616571D01*
X49034000Y39473714D01*
X48962571Y39330857D01*
X50462571Y37259428D02*
X50462571Y38116571D01*
X50462571Y37687999D02*
X48962571Y37687999D01*
X49176857Y37830856D01*
X49319714Y37973714D01*
X49391143Y38116571D01*
X50605429Y36973714D02*
X50605429Y35830857D01*
X50462571Y34688000D02*
X50462571Y35545143D01*
X50462571Y35116571D02*
X48962571Y35116571D01*
X49176857Y35259428D01*
X49319714Y35402286D01*
X49391143Y35545143D01*
X46494000Y42545143D02*
X46422571Y42688000D01*
X46422571Y42902286D01*
X46494000Y43116571D01*
X46636857Y43259429D01*
X46779714Y43330857D01*
X47065429Y43402286D01*
X47279714Y43402286D01*
X47565429Y43330857D01*
X47708286Y43259429D01*
X47851143Y43116571D01*
X47922571Y42902286D01*
X47922571Y42759429D01*
X47851143Y42545143D01*
X47779714Y42473714D01*
X47279714Y42473714D01*
X47279714Y42759429D01*
X47922571Y41830857D02*
X46422571Y41830857D01*
X46422571Y41259429D01*
X46494000Y41116571D01*
X46565429Y41045143D01*
X46708286Y40973714D01*
X46922571Y40973714D01*
X47065429Y41045143D01*
X47136857Y41116571D01*
X47208286Y41259429D01*
X47208286Y41830857D01*
X47922571Y40330857D02*
X46422571Y40330857D01*
X46422571Y39330857D02*
X46422571Y39045143D01*
X46494000Y38902285D01*
X46636857Y38759428D01*
X46922571Y38688000D01*
X47422571Y38688000D01*
X47708286Y38759428D01*
X47851143Y38902285D01*
X47922571Y39045143D01*
X47922571Y39330857D01*
X47851143Y39473714D01*
X47708286Y39616571D01*
X47422571Y39688000D01*
X46922571Y39688000D01*
X46636857Y39616571D01*
X46494000Y39473714D01*
X46422571Y39330857D01*
X47922571Y37259428D02*
X47922571Y38116571D01*
X47922571Y37687999D02*
X46422571Y37687999D01*
X46636857Y37830856D01*
X46779714Y37973714D01*
X46851143Y38116571D01*
X48065429Y36973714D02*
X48065429Y35830857D01*
X46422571Y35188000D02*
X46422571Y35045143D01*
X46494000Y34902286D01*
X46565429Y34830857D01*
X46708286Y34759428D01*
X46994000Y34688000D01*
X47351143Y34688000D01*
X47636857Y34759428D01*
X47779714Y34830857D01*
X47851143Y34902286D01*
X47922571Y35045143D01*
X47922571Y35188000D01*
X47851143Y35330857D01*
X47779714Y35402286D01*
X47636857Y35473714D01*
X47351143Y35545143D01*
X46994000Y35545143D01*
X46708286Y35473714D01*
X46565429Y35402286D01*
X46494000Y35330857D01*
X46422571Y35188000D01*
X41706095Y43541237D02*
X41706095Y42798380D01*
X43006095Y43169809D02*
X41706095Y43169809D01*
X43006095Y41622190D02*
X42387048Y42055523D01*
X43006095Y42365047D02*
X41706095Y42365047D01*
X41706095Y41869809D01*
X41768000Y41746000D01*
X41829905Y41684095D01*
X41953714Y41622190D01*
X42139429Y41622190D01*
X42263238Y41684095D01*
X42325143Y41746000D01*
X42387048Y41869809D01*
X42387048Y42365047D01*
X42634667Y41126952D02*
X42634667Y40507904D01*
X43006095Y41250761D02*
X41706095Y40817428D01*
X43006095Y40384095D01*
X42882286Y39207904D02*
X42944190Y39269809D01*
X43006095Y39455523D01*
X43006095Y39579333D01*
X42944190Y39765047D01*
X42820381Y39888856D01*
X42696571Y39950761D01*
X42448952Y40012666D01*
X42263238Y40012666D01*
X42015619Y39950761D01*
X41891810Y39888856D01*
X41768000Y39765047D01*
X41706095Y39579333D01*
X41706095Y39455523D01*
X41768000Y39269809D01*
X41829905Y39207904D01*
X42325143Y38650761D02*
X42325143Y38217428D01*
X43006095Y38031714D02*
X43006095Y38650761D01*
X41706095Y38650761D01*
X41706095Y38031714D01*
X43006095Y37474571D02*
X41706095Y37474571D01*
X41706095Y37165047D01*
X41768000Y36979333D01*
X41891810Y36855524D01*
X42015619Y36793619D01*
X42263238Y36731714D01*
X42448952Y36731714D01*
X42696571Y36793619D01*
X42820381Y36855524D01*
X42944190Y36979333D01*
X43006095Y37165047D01*
X43006095Y37474571D01*
X42634667Y36236476D02*
X42634667Y35617428D01*
X43006095Y36360285D02*
X41706095Y35926952D01*
X43006095Y35493619D01*
X41706095Y35245999D02*
X41706095Y34503142D01*
X43006095Y34874571D02*
X41706095Y34874571D01*
X42634667Y34131714D02*
X42634667Y33512666D01*
X43006095Y34255523D02*
X41706095Y33822190D01*
X43006095Y33388857D01*
X41706095Y33079333D02*
X41706095Y32274571D01*
X42201333Y32707904D01*
X42201333Y32522190D01*
X42263238Y32398380D01*
X42325143Y32336476D01*
X42448952Y32274571D01*
X42758476Y32274571D01*
X42882286Y32336476D01*
X42944190Y32398380D01*
X43006095Y32522190D01*
X43006095Y32893618D01*
X42944190Y33017428D01*
X42882286Y33079333D01*
X39166095Y43541237D02*
X39166095Y42798380D01*
X40466095Y43169809D02*
X39166095Y43169809D01*
X40466095Y41622190D02*
X39847048Y42055523D01*
X40466095Y42365047D02*
X39166095Y42365047D01*
X39166095Y41869809D01*
X39228000Y41746000D01*
X39289905Y41684095D01*
X39413714Y41622190D01*
X39599429Y41622190D01*
X39723238Y41684095D01*
X39785143Y41746000D01*
X39847048Y41869809D01*
X39847048Y42365047D01*
X40094667Y41126952D02*
X40094667Y40507904D01*
X40466095Y41250761D02*
X39166095Y40817428D01*
X40466095Y40384095D01*
X40342286Y39207904D02*
X40404190Y39269809D01*
X40466095Y39455523D01*
X40466095Y39579333D01*
X40404190Y39765047D01*
X40280381Y39888856D01*
X40156571Y39950761D01*
X39908952Y40012666D01*
X39723238Y40012666D01*
X39475619Y39950761D01*
X39351810Y39888856D01*
X39228000Y39765047D01*
X39166095Y39579333D01*
X39166095Y39455523D01*
X39228000Y39269809D01*
X39289905Y39207904D01*
X39785143Y38650761D02*
X39785143Y38217428D01*
X40466095Y38031714D02*
X40466095Y38650761D01*
X39166095Y38650761D01*
X39166095Y38031714D01*
X40466095Y37474571D02*
X39166095Y37474571D01*
X39166095Y37165047D01*
X39228000Y36979333D01*
X39351810Y36855524D01*
X39475619Y36793619D01*
X39723238Y36731714D01*
X39908952Y36731714D01*
X40156571Y36793619D01*
X40280381Y36855524D01*
X40404190Y36979333D01*
X40466095Y37165047D01*
X40466095Y37474571D01*
X40094667Y36236476D02*
X40094667Y35617428D01*
X40466095Y36360285D02*
X39166095Y35926952D01*
X40466095Y35493619D01*
X39166095Y35245999D02*
X39166095Y34503142D01*
X40466095Y34874571D02*
X39166095Y34874571D01*
X40094667Y34131714D02*
X40094667Y33512666D01*
X40466095Y34255523D02*
X39166095Y33822190D01*
X40466095Y33388857D01*
X39289905Y33017428D02*
X39228000Y32955523D01*
X39166095Y32831714D01*
X39166095Y32522190D01*
X39228000Y32398380D01*
X39289905Y32336476D01*
X39413714Y32274571D01*
X39537524Y32274571D01*
X39723238Y32336476D01*
X40466095Y33079333D01*
X40466095Y32274571D01*
X36372095Y43541237D02*
X36372095Y42798380D01*
X37672095Y43169809D02*
X36372095Y43169809D01*
X37672095Y41622190D02*
X37053048Y42055523D01*
X37672095Y42365047D02*
X36372095Y42365047D01*
X36372095Y41869809D01*
X36434000Y41746000D01*
X36495905Y41684095D01*
X36619714Y41622190D01*
X36805429Y41622190D01*
X36929238Y41684095D01*
X36991143Y41746000D01*
X37053048Y41869809D01*
X37053048Y42365047D01*
X37300667Y41126952D02*
X37300667Y40507904D01*
X37672095Y41250761D02*
X36372095Y40817428D01*
X37672095Y40384095D01*
X37548286Y39207904D02*
X37610190Y39269809D01*
X37672095Y39455523D01*
X37672095Y39579333D01*
X37610190Y39765047D01*
X37486381Y39888856D01*
X37362571Y39950761D01*
X37114952Y40012666D01*
X36929238Y40012666D01*
X36681619Y39950761D01*
X36557810Y39888856D01*
X36434000Y39765047D01*
X36372095Y39579333D01*
X36372095Y39455523D01*
X36434000Y39269809D01*
X36495905Y39207904D01*
X36991143Y38650761D02*
X36991143Y38217428D01*
X37672095Y38031714D02*
X37672095Y38650761D01*
X36372095Y38650761D01*
X36372095Y38031714D01*
X37672095Y37474571D02*
X36372095Y37474571D01*
X36372095Y37165047D01*
X36434000Y36979333D01*
X36557810Y36855524D01*
X36681619Y36793619D01*
X36929238Y36731714D01*
X37114952Y36731714D01*
X37362571Y36793619D01*
X37486381Y36855524D01*
X37610190Y36979333D01*
X37672095Y37165047D01*
X37672095Y37474571D01*
X37300667Y36236476D02*
X37300667Y35617428D01*
X37672095Y36360285D02*
X36372095Y35926952D01*
X37672095Y35493619D01*
X36372095Y35245999D02*
X36372095Y34503142D01*
X37672095Y34874571D02*
X36372095Y34874571D01*
X37300667Y34131714D02*
X37300667Y33512666D01*
X37672095Y34255523D02*
X36372095Y33822190D01*
X37672095Y33388857D01*
X37672095Y32274571D02*
X37672095Y33017428D01*
X37672095Y32645999D02*
X36372095Y32645999D01*
X36557810Y32769809D01*
X36681619Y32893618D01*
X36743524Y33017428D01*
X33832095Y43541237D02*
X33832095Y42798380D01*
X35132095Y43169809D02*
X33832095Y43169809D01*
X35132095Y41622190D02*
X34513048Y42055523D01*
X35132095Y42365047D02*
X33832095Y42365047D01*
X33832095Y41869809D01*
X33894000Y41746000D01*
X33955905Y41684095D01*
X34079714Y41622190D01*
X34265429Y41622190D01*
X34389238Y41684095D01*
X34451143Y41746000D01*
X34513048Y41869809D01*
X34513048Y42365047D01*
X34760667Y41126952D02*
X34760667Y40507904D01*
X35132095Y41250761D02*
X33832095Y40817428D01*
X35132095Y40384095D01*
X35008286Y39207904D02*
X35070190Y39269809D01*
X35132095Y39455523D01*
X35132095Y39579333D01*
X35070190Y39765047D01*
X34946381Y39888856D01*
X34822571Y39950761D01*
X34574952Y40012666D01*
X34389238Y40012666D01*
X34141619Y39950761D01*
X34017810Y39888856D01*
X33894000Y39765047D01*
X33832095Y39579333D01*
X33832095Y39455523D01*
X33894000Y39269809D01*
X33955905Y39207904D01*
X34451143Y38650761D02*
X34451143Y38217428D01*
X35132095Y38031714D02*
X35132095Y38650761D01*
X33832095Y38650761D01*
X33832095Y38031714D01*
X35132095Y37474571D02*
X33832095Y37474571D01*
X33832095Y37165047D01*
X33894000Y36979333D01*
X34017810Y36855524D01*
X34141619Y36793619D01*
X34389238Y36731714D01*
X34574952Y36731714D01*
X34822571Y36793619D01*
X34946381Y36855524D01*
X35070190Y36979333D01*
X35132095Y37165047D01*
X35132095Y37474571D01*
X34760667Y36236476D02*
X34760667Y35617428D01*
X35132095Y36360285D02*
X33832095Y35926952D01*
X35132095Y35493619D01*
X33832095Y35245999D02*
X33832095Y34503142D01*
X35132095Y34874571D02*
X33832095Y34874571D01*
X34760667Y34131714D02*
X34760667Y33512666D01*
X35132095Y34255523D02*
X33832095Y33822190D01*
X35132095Y33388857D01*
X33832095Y32707904D02*
X33832095Y32584095D01*
X33894000Y32460285D01*
X33955905Y32398380D01*
X34079714Y32336476D01*
X34327333Y32274571D01*
X34636857Y32274571D01*
X34884476Y32336476D01*
X35008286Y32398380D01*
X35070190Y32460285D01*
X35132095Y32584095D01*
X35132095Y32707904D01*
X35070190Y32831714D01*
X35008286Y32893618D01*
X34884476Y32955523D01*
X34636857Y33017428D01*
X34327333Y33017428D01*
X34079714Y32955523D01*
X33955905Y32893618D01*
X33894000Y32831714D01*
X33832095Y32707904D01*
D14*
X31401619Y43583238D02*
X31401619Y42954667D01*
X32501619Y43268952D02*
X31401619Y43268952D01*
X32501619Y41959429D02*
X31977810Y42326095D01*
X32501619Y42588000D02*
X31401619Y42588000D01*
X31401619Y42168953D01*
X31454000Y42064191D01*
X31506381Y42011810D01*
X31611143Y41959429D01*
X31768286Y41959429D01*
X31873048Y42011810D01*
X31925429Y42064191D01*
X31977810Y42168953D01*
X31977810Y42588000D01*
X32187333Y41540381D02*
X32187333Y41016572D01*
X32501619Y41645143D02*
X31401619Y41278476D01*
X32501619Y40911810D01*
X32396857Y39916572D02*
X32449238Y39968953D01*
X32501619Y40126096D01*
X32501619Y40230858D01*
X32449238Y40388000D01*
X32344476Y40492762D01*
X32239714Y40545143D01*
X32030190Y40597524D01*
X31873048Y40597524D01*
X31663524Y40545143D01*
X31558762Y40492762D01*
X31454000Y40388000D01*
X31401619Y40230858D01*
X31401619Y40126096D01*
X31454000Y39968953D01*
X31506381Y39916572D01*
X31925429Y39445143D02*
X31925429Y39078477D01*
X32501619Y38921334D02*
X32501619Y39445143D01*
X31401619Y39445143D01*
X31401619Y38921334D01*
X32396857Y37821334D02*
X32449238Y37873715D01*
X32501619Y38030858D01*
X32501619Y38135620D01*
X32449238Y38292762D01*
X32344476Y38397524D01*
X32239714Y38449905D01*
X32030190Y38502286D01*
X31873048Y38502286D01*
X31663524Y38449905D01*
X31558762Y38397524D01*
X31454000Y38292762D01*
X31401619Y38135620D01*
X31401619Y38030858D01*
X31454000Y37873715D01*
X31506381Y37821334D01*
X32501619Y36826096D02*
X32501619Y37349905D01*
X31401619Y37349905D01*
X32501619Y36459429D02*
X31401619Y36459429D01*
X32501619Y35830858D02*
X31873048Y36302286D01*
X31401619Y35830858D02*
X32030190Y36459429D01*
X32606381Y35621334D02*
X32606381Y34783239D01*
X32501619Y33892763D02*
X31977810Y34259429D01*
X32501619Y34521334D02*
X31401619Y34521334D01*
X31401619Y34102287D01*
X31454000Y33997525D01*
X31506381Y33945144D01*
X31611143Y33892763D01*
X31768286Y33892763D01*
X31873048Y33945144D01*
X31925429Y33997525D01*
X31977810Y34102287D01*
X31977810Y34521334D01*
X31401619Y33578477D02*
X31401619Y32949906D01*
X32501619Y33264191D02*
X31401619Y33264191D01*
X32396857Y31954668D02*
X32449238Y32007049D01*
X32501619Y32164192D01*
X32501619Y32268954D01*
X32449238Y32426096D01*
X32344476Y32530858D01*
X32239714Y32583239D01*
X32030190Y32635620D01*
X31873048Y32635620D01*
X31663524Y32583239D01*
X31558762Y32530858D01*
X31454000Y32426096D01*
X31401619Y32268954D01*
X31401619Y32164192D01*
X31454000Y32007049D01*
X31506381Y31954668D01*
X32501619Y31483239D02*
X31401619Y31483239D01*
X32501619Y30854668D02*
X31873048Y31326096D01*
X31401619Y30854668D02*
X32030190Y31483239D01*
D12*
X28642571Y42902286D02*
X29714000Y42902286D01*
X29928286Y42973714D01*
X30071143Y43116571D01*
X30142571Y43330857D01*
X30142571Y43473714D01*
X28642571Y42402286D02*
X28642571Y41545143D01*
X30142571Y41973714D02*
X28642571Y41973714D01*
X29714000Y41116572D02*
X29714000Y40402286D01*
X30142571Y41259429D02*
X28642571Y40759429D01*
X30142571Y40259429D01*
X28714000Y38973715D02*
X28642571Y39116572D01*
X28642571Y39330858D01*
X28714000Y39545143D01*
X28856857Y39688001D01*
X28999714Y39759429D01*
X29285429Y39830858D01*
X29499714Y39830858D01*
X29785429Y39759429D01*
X29928286Y39688001D01*
X30071143Y39545143D01*
X30142571Y39330858D01*
X30142571Y39188001D01*
X30071143Y38973715D01*
X29999714Y38902286D01*
X29499714Y38902286D01*
X29499714Y39188001D01*
X30285429Y38616572D02*
X30285429Y37473715D01*
X30142571Y36259429D02*
X29428286Y36759429D01*
X30142571Y37116572D02*
X28642571Y37116572D01*
X28642571Y36545144D01*
X28714000Y36402286D01*
X28785429Y36330858D01*
X28928286Y36259429D01*
X29142571Y36259429D01*
X29285429Y36330858D01*
X29356857Y36402286D01*
X29428286Y36545144D01*
X29428286Y37116572D01*
X29356857Y35616572D02*
X29356857Y35116572D01*
X30142571Y34902286D02*
X30142571Y35616572D01*
X28642571Y35616572D01*
X28642571Y34902286D01*
X30071143Y34330858D02*
X30142571Y34116572D01*
X30142571Y33759429D01*
X30071143Y33616572D01*
X29999714Y33545143D01*
X29856857Y33473715D01*
X29714000Y33473715D01*
X29571143Y33545143D01*
X29499714Y33616572D01*
X29428286Y33759429D01*
X29356857Y34045143D01*
X29285429Y34188001D01*
X29214000Y34259429D01*
X29071143Y34330858D01*
X28928286Y34330858D01*
X28785429Y34259429D01*
X28714000Y34188001D01*
X28642571Y34045143D01*
X28642571Y33688001D01*
X28714000Y33473715D01*
X29356857Y32830858D02*
X29356857Y32330858D01*
X30142571Y32116572D02*
X30142571Y32830858D01*
X28642571Y32830858D01*
X28642571Y32116572D01*
X28642571Y31688001D02*
X28642571Y30830858D01*
X30142571Y31259429D02*
X28642571Y31259429D01*
X25848571Y42902286D02*
X26920000Y42902286D01*
X27134286Y42973714D01*
X27277143Y43116571D01*
X27348571Y43330857D01*
X27348571Y43473714D01*
X25848571Y42402286D02*
X25848571Y41545143D01*
X27348571Y41973714D02*
X25848571Y41973714D01*
X26920000Y41116572D02*
X26920000Y40402286D01*
X27348571Y41259429D02*
X25848571Y40759429D01*
X27348571Y40259429D01*
X25920000Y38973715D02*
X25848571Y39116572D01*
X25848571Y39330858D01*
X25920000Y39545143D01*
X26062857Y39688001D01*
X26205714Y39759429D01*
X26491429Y39830858D01*
X26705714Y39830858D01*
X26991429Y39759429D01*
X27134286Y39688001D01*
X27277143Y39545143D01*
X27348571Y39330858D01*
X27348571Y39188001D01*
X27277143Y38973715D01*
X27205714Y38902286D01*
X26705714Y38902286D01*
X26705714Y39188001D01*
X27491429Y38616572D02*
X27491429Y37473715D01*
X25848571Y37330858D02*
X25848571Y36473715D01*
X27348571Y36902286D02*
X25848571Y36902286D01*
X27348571Y35973715D02*
X25848571Y35973715D01*
X25848571Y35616572D01*
X25920000Y35402287D01*
X26062857Y35259429D01*
X26205714Y35188001D01*
X26491429Y35116572D01*
X26705714Y35116572D01*
X26991429Y35188001D01*
X27134286Y35259429D01*
X27277143Y35402287D01*
X27348571Y35616572D01*
X27348571Y35973715D01*
X27348571Y34473715D02*
X25848571Y34473715D01*
X23562571Y42902286D02*
X24634000Y42902286D01*
X24848286Y42973714D01*
X24991143Y43116571D01*
X25062571Y43330857D01*
X25062571Y43473714D01*
X23562571Y42402286D02*
X23562571Y41545143D01*
X25062571Y41973714D02*
X23562571Y41973714D01*
X24634000Y41116572D02*
X24634000Y40402286D01*
X25062571Y41259429D02*
X23562571Y40759429D01*
X25062571Y40259429D01*
X23634000Y38973715D02*
X23562571Y39116572D01*
X23562571Y39330858D01*
X23634000Y39545143D01*
X23776857Y39688001D01*
X23919714Y39759429D01*
X24205429Y39830858D01*
X24419714Y39830858D01*
X24705429Y39759429D01*
X24848286Y39688001D01*
X24991143Y39545143D01*
X25062571Y39330858D01*
X25062571Y39188001D01*
X24991143Y38973715D01*
X24919714Y38902286D01*
X24419714Y38902286D01*
X24419714Y39188001D01*
X25205429Y38616572D02*
X25205429Y37473715D01*
X23562571Y37330858D02*
X23562571Y36473715D01*
X25062571Y36902286D02*
X23562571Y36902286D01*
X25062571Y35973715D02*
X23562571Y35973715D01*
X23562571Y35616572D01*
X23634000Y35402287D01*
X23776857Y35259429D01*
X23919714Y35188001D01*
X24205429Y35116572D01*
X24419714Y35116572D01*
X24705429Y35188001D01*
X24848286Y35259429D01*
X24991143Y35402287D01*
X25062571Y35616572D01*
X25062571Y35973715D01*
X23562571Y34188001D02*
X23562571Y33902287D01*
X23634000Y33759429D01*
X23776857Y33616572D01*
X24062571Y33545144D01*
X24562571Y33545144D01*
X24848286Y33616572D01*
X24991143Y33759429D01*
X25062571Y33902287D01*
X25062571Y34188001D01*
X24991143Y34330858D01*
X24848286Y34473715D01*
X24562571Y34545144D01*
X24062571Y34545144D01*
X23776857Y34473715D01*
X23634000Y34330858D01*
X23562571Y34188001D01*
X25205429Y33259429D02*
X25205429Y32116572D01*
X24991143Y31830858D02*
X25062571Y31616572D01*
X25062571Y31259429D01*
X24991143Y31116572D01*
X24919714Y31045143D01*
X24776857Y30973715D01*
X24634000Y30973715D01*
X24491143Y31045143D01*
X24419714Y31116572D01*
X24348286Y31259429D01*
X24276857Y31545143D01*
X24205429Y31688001D01*
X24134000Y31759429D01*
X23991143Y31830858D01*
X23848286Y31830858D01*
X23705429Y31759429D01*
X23634000Y31688001D01*
X23562571Y31545143D01*
X23562571Y31188001D01*
X23634000Y30973715D01*
X23562571Y30473715D02*
X25062571Y30116572D01*
X23991143Y29830858D01*
X25062571Y29545144D01*
X23562571Y29188001D01*
X23562571Y28330858D02*
X23562571Y28045144D01*
X23634000Y27902286D01*
X23776857Y27759429D01*
X24062571Y27688001D01*
X24562571Y27688001D01*
X24848286Y27759429D01*
X24991143Y27902286D01*
X25062571Y28045144D01*
X25062571Y28330858D01*
X24991143Y28473715D01*
X24848286Y28616572D01*
X24562571Y28688001D01*
X24062571Y28688001D01*
X23776857Y28616572D01*
X23634000Y28473715D01*
X23562571Y28330858D01*
X21022571Y42902286D02*
X22094000Y42902286D01*
X22308286Y42973714D01*
X22451143Y43116571D01*
X22522571Y43330857D01*
X22522571Y43473714D01*
X21022571Y42402286D02*
X21022571Y41545143D01*
X22522571Y41973714D02*
X21022571Y41973714D01*
X22094000Y41116572D02*
X22094000Y40402286D01*
X22522571Y41259429D02*
X21022571Y40759429D01*
X22522571Y40259429D01*
X21094000Y38973715D02*
X21022571Y39116572D01*
X21022571Y39330858D01*
X21094000Y39545143D01*
X21236857Y39688001D01*
X21379714Y39759429D01*
X21665429Y39830858D01*
X21879714Y39830858D01*
X22165429Y39759429D01*
X22308286Y39688001D01*
X22451143Y39545143D01*
X22522571Y39330858D01*
X22522571Y39188001D01*
X22451143Y38973715D01*
X22379714Y38902286D01*
X21879714Y38902286D01*
X21879714Y39188001D01*
X22665429Y38616572D02*
X22665429Y37473715D01*
X21022571Y37330858D02*
X21022571Y36473715D01*
X22522571Y36902286D02*
X21022571Y36902286D01*
X22379714Y35116572D02*
X22451143Y35188001D01*
X22522571Y35402287D01*
X22522571Y35545144D01*
X22451143Y35759429D01*
X22308286Y35902287D01*
X22165429Y35973715D01*
X21879714Y36045144D01*
X21665429Y36045144D01*
X21379714Y35973715D01*
X21236857Y35902287D01*
X21094000Y35759429D01*
X21022571Y35545144D01*
X21022571Y35402287D01*
X21094000Y35188001D01*
X21165429Y35116572D01*
X22522571Y34473715D02*
X21022571Y34473715D01*
X22522571Y33616572D02*
X21665429Y34259429D01*
X21022571Y33616572D02*
X21879714Y34473715D01*
X22665429Y33330858D02*
X22665429Y32188001D01*
X22451143Y31902287D02*
X22522571Y31688001D01*
X22522571Y31330858D01*
X22451143Y31188001D01*
X22379714Y31116572D01*
X22236857Y31045144D01*
X22094000Y31045144D01*
X21951143Y31116572D01*
X21879714Y31188001D01*
X21808286Y31330858D01*
X21736857Y31616572D01*
X21665429Y31759430D01*
X21594000Y31830858D01*
X21451143Y31902287D01*
X21308286Y31902287D01*
X21165429Y31830858D01*
X21094000Y31759430D01*
X21022571Y31616572D01*
X21022571Y31259430D01*
X21094000Y31045144D01*
X21022571Y30545144D02*
X22522571Y30188001D01*
X21451143Y29902287D01*
X22522571Y29616573D01*
X21022571Y29259430D01*
X22379714Y27830858D02*
X22451143Y27902287D01*
X22522571Y28116573D01*
X22522571Y28259430D01*
X22451143Y28473715D01*
X22308286Y28616573D01*
X22165429Y28688001D01*
X21879714Y28759430D01*
X21665429Y28759430D01*
X21379714Y28688001D01*
X21236857Y28616573D01*
X21094000Y28473715D01*
X21022571Y28259430D01*
X21022571Y28116573D01*
X21094000Y27902287D01*
X21165429Y27830858D01*
X22522571Y26473715D02*
X22522571Y27188001D01*
X21022571Y27188001D01*
X22522571Y25973715D02*
X21022571Y25973715D01*
X22522571Y25116572D02*
X21665429Y25759429D01*
X21022571Y25116572D02*
X21879714Y25973715D01*
X18482571Y42902286D02*
X19554000Y42902286D01*
X19768286Y42973714D01*
X19911143Y43116571D01*
X19982571Y43330857D01*
X19982571Y43473714D01*
X18482571Y42402286D02*
X18482571Y41545143D01*
X19982571Y41973714D02*
X18482571Y41973714D01*
X19554000Y41116572D02*
X19554000Y40402286D01*
X19982571Y41259429D02*
X18482571Y40759429D01*
X19982571Y40259429D01*
X18554000Y38973715D02*
X18482571Y39116572D01*
X18482571Y39330858D01*
X18554000Y39545143D01*
X18696857Y39688001D01*
X18839714Y39759429D01*
X19125429Y39830858D01*
X19339714Y39830858D01*
X19625429Y39759429D01*
X19768286Y39688001D01*
X19911143Y39545143D01*
X19982571Y39330858D01*
X19982571Y39188001D01*
X19911143Y38973715D01*
X19839714Y38902286D01*
X19339714Y38902286D01*
X19339714Y39188001D01*
X20125429Y38616572D02*
X20125429Y37473715D01*
X18482571Y37330858D02*
X18482571Y36473715D01*
X19982571Y36902286D02*
X18482571Y36902286D01*
X19982571Y35973715D02*
X18482571Y35973715D01*
X19554000Y35473715D01*
X18482571Y34973715D01*
X19982571Y34973715D01*
X19911143Y34330858D02*
X19982571Y34116572D01*
X19982571Y33759429D01*
X19911143Y33616572D01*
X19839714Y33545143D01*
X19696857Y33473715D01*
X19554000Y33473715D01*
X19411143Y33545143D01*
X19339714Y33616572D01*
X19268286Y33759429D01*
X19196857Y34045143D01*
X19125429Y34188001D01*
X19054000Y34259429D01*
X18911143Y34330858D01*
X18768286Y34330858D01*
X18625429Y34259429D01*
X18554000Y34188001D01*
X18482571Y34045143D01*
X18482571Y33688001D01*
X18554000Y33473715D01*
X20125429Y33188001D02*
X20125429Y32045144D01*
X19911143Y31759430D02*
X19982571Y31545144D01*
X19982571Y31188001D01*
X19911143Y31045144D01*
X19839714Y30973715D01*
X19696857Y30902287D01*
X19554000Y30902287D01*
X19411143Y30973715D01*
X19339714Y31045144D01*
X19268286Y31188001D01*
X19196857Y31473715D01*
X19125429Y31616573D01*
X19054000Y31688001D01*
X18911143Y31759430D01*
X18768286Y31759430D01*
X18625429Y31688001D01*
X18554000Y31616573D01*
X18482571Y31473715D01*
X18482571Y31116573D01*
X18554000Y30902287D01*
X18482571Y30402287D02*
X19982571Y30045144D01*
X18911143Y29759430D01*
X19982571Y29473716D01*
X18482571Y29116573D01*
X19982571Y28545144D02*
X18482571Y28545144D01*
X18482571Y28188001D01*
X18554000Y27973716D01*
X18696857Y27830858D01*
X18839714Y27759430D01*
X19125429Y27688001D01*
X19339714Y27688001D01*
X19625429Y27759430D01*
X19768286Y27830858D01*
X19911143Y27973716D01*
X19982571Y28188001D01*
X19982571Y28545144D01*
X19982571Y27045144D02*
X18482571Y27045144D01*
X18482571Y26045144D02*
X18482571Y25759430D01*
X18554000Y25616572D01*
X18696857Y25473715D01*
X18982571Y25402287D01*
X19482571Y25402287D01*
X19768286Y25473715D01*
X19911143Y25616572D01*
X19982571Y25759430D01*
X19982571Y26045144D01*
X19911143Y26188001D01*
X19768286Y26330858D01*
X19482571Y26402287D01*
X18982571Y26402287D01*
X18696857Y26330858D01*
X18554000Y26188001D01*
X18482571Y26045144D01*
X50613333Y31953905D02*
X50613333Y31025333D01*
X50675237Y30839619D01*
X50799047Y30715810D01*
X50984761Y30653905D01*
X51108571Y30653905D01*
X49994285Y30653905D02*
X49994285Y31953905D01*
X49499047Y31953905D01*
X49375238Y31892000D01*
X49313333Y31830095D01*
X49251428Y31706286D01*
X49251428Y31520571D01*
X49313333Y31396762D01*
X49375238Y31334857D01*
X49499047Y31272952D01*
X49994285Y31272952D01*
X48756190Y31830095D02*
X48694285Y31892000D01*
X48570476Y31953905D01*
X48260952Y31953905D01*
X48137142Y31892000D01*
X48075238Y31830095D01*
X48013333Y31706286D01*
X48013333Y31582476D01*
X48075238Y31396762D01*
X48818095Y30653905D01*
X48013333Y30653905D01*
X40961333Y31953905D02*
X40961333Y31025333D01*
X41023237Y30839619D01*
X41147047Y30715810D01*
X41332761Y30653905D01*
X41456571Y30653905D01*
X40342285Y30653905D02*
X40342285Y31953905D01*
X39847047Y31953905D01*
X39723238Y31892000D01*
X39661333Y31830095D01*
X39599428Y31706286D01*
X39599428Y31520571D01*
X39661333Y31396762D01*
X39723238Y31334857D01*
X39847047Y31272952D01*
X40342285Y31272952D01*
X38361333Y30653905D02*
X39104190Y30653905D01*
X38732761Y30653905D02*
X38732761Y31953905D01*
X38856571Y31768190D01*
X38980380Y31644381D01*
X39104190Y31582476D01*
D15*
X15494400Y5842200D02*
X28194400Y5842200D01*
X28194400Y5842200D02*
X28194400Y762200D01*
X28194400Y762200D02*
X18034400Y762200D01*
X15494400Y5842200D02*
X15494400Y3302200D01*
X15494400Y762200D02*
X18034400Y762200D01*
X15494400Y3302200D02*
X18034400Y3302200D01*
X18034400Y3302200D02*
X18034400Y762200D01*
X15494400Y762200D02*
X15494400Y3302200D01*
X48514400Y5842200D02*
X30734400Y5842200D01*
X33274400Y762200D02*
X48514400Y762200D01*
X48514400Y5842200D02*
X48514400Y762200D01*
X30734400Y5842200D02*
X30734400Y3302200D01*
X30734400Y762200D02*
X33274400Y762200D01*
X30734400Y3302200D02*
X33274400Y3302200D01*
X33274400Y3302200D02*
X33274400Y762200D01*
X30734400Y762200D02*
X30734400Y3302200D01*
X76454000Y5842000D02*
X51054000Y5842000D01*
X53594000Y762000D02*
X76454000Y762000D01*
X76454000Y5842000D02*
X76454000Y762000D01*
X51054000Y5842000D02*
X51054000Y3302000D01*
X51054000Y762000D02*
X53594000Y762000D01*
X51054000Y3302000D02*
X53594000Y3302000D01*
X53594000Y3302000D02*
X53594000Y762000D01*
X51054000Y762000D02*
X51054000Y3302000D01*
X468381Y48085333D02*
X1182667Y48085333D01*
X1325524Y48132953D01*
X1420762Y48228191D01*
X1468381Y48371048D01*
X1468381Y48466286D01*
X468381Y47704381D02*
X468381Y47037714D01*
X1468381Y47466286D01*
X13041381Y3762333D02*
X13755667Y3762333D01*
X13898524Y3809953D01*
X13993762Y3905191D01*
X14041381Y4048048D01*
X14041381Y4143286D01*
X13136619Y3333762D02*
X13089000Y3286143D01*
X13041381Y3190905D01*
X13041381Y2952809D01*
X13089000Y2857571D01*
X13136619Y2809952D01*
X13231857Y2762333D01*
X13327095Y2762333D01*
X13469952Y2809952D01*
X14041381Y3381381D01*
X14041381Y2762333D01*
X29424381Y2365733D02*
X30138667Y2365733D01*
X30281524Y2413353D01*
X30376762Y2508591D01*
X30424381Y2651448D01*
X30424381Y2746686D01*
X29424381Y1984781D02*
X29424381Y1365733D01*
X29805333Y1699067D01*
X29805333Y1556209D01*
X29852952Y1460971D01*
X29900571Y1413352D01*
X29995810Y1365733D01*
X30233905Y1365733D01*
X30329143Y1413352D01*
X30376762Y1460971D01*
X30424381Y1556209D01*
X30424381Y1841924D01*
X30376762Y1937162D01*
X30329143Y1984781D01*
X49743981Y2365533D02*
X50458267Y2365533D01*
X50601124Y2413153D01*
X50696362Y2508391D01*
X50743981Y2651248D01*
X50743981Y2746486D01*
X50077314Y1460771D02*
X50743981Y1460771D01*
X49696362Y1698867D02*
X50410648Y1936962D01*
X50410648Y1317914D01*
X16724381Y48085333D02*
X17438667Y48085333D01*
X17581524Y48132953D01*
X17676762Y48228191D01*
X17724381Y48371048D01*
X17724381Y48466286D01*
X17152952Y47466286D02*
X17105333Y47561524D01*
X17057714Y47609143D01*
X16962476Y47656762D01*
X16914857Y47656762D01*
X16819619Y47609143D01*
X16772000Y47561524D01*
X16724381Y47466286D01*
X16724381Y47275809D01*
X16772000Y47180571D01*
X16819619Y47132952D01*
X16914857Y47085333D01*
X16962476Y47085333D01*
X17057714Y47132952D01*
X17105333Y47180571D01*
X17152952Y47275809D01*
X17152952Y47466286D01*
X17200571Y47561524D01*
X17248190Y47609143D01*
X17343429Y47656762D01*
X17533905Y47656762D01*
X17629143Y47609143D01*
X17676762Y47561524D01*
X17724381Y47466286D01*
X17724381Y47275809D01*
X17676762Y47180571D01*
X17629143Y47132952D01*
X17533905Y47085333D01*
X17343429Y47085333D01*
X17248190Y47132952D01*
X17200571Y47180571D01*
X17152952Y47275809D01*
X44664381Y48085333D02*
X45378667Y48085333D01*
X45521524Y48132953D01*
X45616762Y48228191D01*
X45664381Y48371048D01*
X45664381Y48466286D01*
X45664381Y47561524D02*
X45664381Y47371048D01*
X45616762Y47275809D01*
X45569143Y47228190D01*
X45426286Y47132952D01*
X45235810Y47085333D01*
X44854857Y47085333D01*
X44759619Y47132952D01*
X44712000Y47180571D01*
X44664381Y47275809D01*
X44664381Y47466286D01*
X44712000Y47561524D01*
X44759619Y47609143D01*
X44854857Y47656762D01*
X45092952Y47656762D01*
X45188190Y47609143D01*
X45235810Y47561524D01*
X45283429Y47466286D01*
X45283429Y47275809D01*
X45235810Y47180571D01*
X45188190Y47132952D01*
X45092952Y47085333D01*
%LPC*%
D16*
X4064400Y47752000D03*
D17*
X4064400Y45212000D03*
X6604400Y47752000D03*
X6604400Y45212000D03*
X9144400Y47752000D03*
X9144400Y45212000D03*
X11684400Y47752000D03*
X11684400Y45212000D03*
X14224400Y47752000D03*
X14224400Y45212000D03*
D16*
X16764400Y2032200D03*
D17*
X16764400Y4572200D03*
X19304400Y2032200D03*
X19304400Y4572200D03*
X21844400Y2032200D03*
X21844400Y4572200D03*
X24384400Y2032200D03*
X24384400Y4572200D03*
X26924400Y2032200D03*
X26924400Y4572200D03*
D16*
X32004400Y2032200D03*
D17*
X32004400Y4572200D03*
X34544400Y2032200D03*
X34544400Y4572200D03*
X37084400Y2032200D03*
X37084400Y4572200D03*
X39624400Y2032200D03*
X39624400Y4572200D03*
X42164400Y2032200D03*
X42164400Y4572200D03*
X44704400Y2032200D03*
X44704400Y4572200D03*
X47244400Y2032200D03*
X47244400Y4572200D03*
D16*
X52324000Y2032000D03*
D17*
X52324000Y4572000D03*
X54864000Y2032000D03*
X54864000Y4572000D03*
X57404000Y2032000D03*
X57404000Y4572000D03*
X59944000Y2032000D03*
X59944000Y4572000D03*
X62484000Y2032000D03*
X62484000Y4572000D03*
X65024000Y2032000D03*
X65024000Y4572000D03*
X67564000Y2032000D03*
X67564000Y4572000D03*
X70104000Y2032000D03*
X70104000Y4572000D03*
X72644000Y2032000D03*
X72644000Y4572000D03*
X75184000Y2032000D03*
X75184000Y4572000D03*
D16*
X19304400Y47752000D03*
D17*
X19304400Y45212000D03*
X21844400Y47752000D03*
X21844400Y45212000D03*
X24384400Y47752000D03*
X24384400Y45212000D03*
X26924400Y47752000D03*
X26924400Y45212000D03*
X29464400Y47752000D03*
X29464400Y45212000D03*
X32004400Y47752000D03*
X32004400Y45212000D03*
X34544400Y47752000D03*
X34544400Y45212000D03*
X37084400Y47752000D03*
X37084400Y45212000D03*
X39624400Y47752000D03*
X39624400Y45212000D03*
X42164400Y47752000D03*
X42164400Y45212000D03*
D16*
X47244400Y47752000D03*
D17*
X47244400Y45212000D03*
X49784400Y47752000D03*
X49784400Y45212000D03*
X52324400Y47752000D03*
X52324400Y45212000D03*
X54864400Y47752000D03*
X54864400Y45212000D03*
X57404400Y47752000D03*
X57404400Y45212000D03*
X59944400Y47752000D03*
X59944400Y45212000D03*
X62484400Y47752000D03*
X62484400Y45212000D03*
X65024400Y47752000D03*
X65024400Y45212000D03*
X67564400Y47752000D03*
X67564400Y45212000D03*
X70104400Y47752000D03*
X70104400Y45212000D03*
X72644400Y47752000D03*
X72644400Y45212000D03*
X75184400Y47752000D03*
X75184400Y45212000D03*
M02*
