G04 #@! TF.FileFunction,Copper,L2,Bot,Signal*
%FSLAX46Y46*%
G04 Gerber Fmt 4.6, Leading zero omitted, Abs format (unit mm)*
G04 Created by KiCad (PCBNEW (after 2015-mar-04 BZR unknown)-product) date 2015年08月08日土曜日 05:56:36*
%MOMM*%
G01*
G04 APERTURE LIST*
%ADD10C,0.100000*%
%ADD11R,1.727200X1.727200*%
%ADD12O,1.727200X1.727200*%
%ADD13C,0.600000*%
%ADD14C,0.254000*%
G04 APERTURE END LIST*
D10*
D11*
X4064400Y47752000D03*
D12*
X4064400Y45212000D03*
X6604400Y47752000D03*
X6604400Y45212000D03*
X9144400Y47752000D03*
X9144400Y45212000D03*
X11684400Y47752000D03*
X11684400Y45212000D03*
X14224400Y47752000D03*
X14224400Y45212000D03*
D11*
X16764400Y2032200D03*
D12*
X16764400Y4572200D03*
X19304400Y2032200D03*
X19304400Y4572200D03*
X21844400Y2032200D03*
X21844400Y4572200D03*
X24384400Y2032200D03*
X24384400Y4572200D03*
X26924400Y2032200D03*
X26924400Y4572200D03*
D11*
X32004400Y2032200D03*
D12*
X32004400Y4572200D03*
X34544400Y2032200D03*
X34544400Y4572200D03*
X37084400Y2032200D03*
X37084400Y4572200D03*
X39624400Y2032200D03*
X39624400Y4572200D03*
X42164400Y2032200D03*
X42164400Y4572200D03*
X44704400Y2032200D03*
X44704400Y4572200D03*
X47244400Y2032200D03*
X47244400Y4572200D03*
D11*
X52324000Y2032000D03*
D12*
X52324000Y4572000D03*
X54864000Y2032000D03*
X54864000Y4572000D03*
X57404000Y2032000D03*
X57404000Y4572000D03*
X59944000Y2032000D03*
X59944000Y4572000D03*
X62484000Y2032000D03*
X62484000Y4572000D03*
X65024000Y2032000D03*
X65024000Y4572000D03*
X67564000Y2032000D03*
X67564000Y4572000D03*
X70104000Y2032000D03*
X70104000Y4572000D03*
X72644000Y2032000D03*
X72644000Y4572000D03*
X75184000Y2032000D03*
X75184000Y4572000D03*
D11*
X19304400Y47752000D03*
D12*
X19304400Y45212000D03*
X21844400Y47752000D03*
X21844400Y45212000D03*
X24384400Y47752000D03*
X24384400Y45212000D03*
X26924400Y47752000D03*
X26924400Y45212000D03*
X29464400Y47752000D03*
X29464400Y45212000D03*
X32004400Y47752000D03*
X32004400Y45212000D03*
X34544400Y47752000D03*
X34544400Y45212000D03*
X37084400Y47752000D03*
X37084400Y45212000D03*
X39624400Y47752000D03*
X39624400Y45212000D03*
X42164400Y47752000D03*
X42164400Y45212000D03*
D11*
X47244400Y47752000D03*
D12*
X47244400Y45212000D03*
X49784400Y47752000D03*
X49784400Y45212000D03*
X52324400Y47752000D03*
X52324400Y45212000D03*
X54864400Y47752000D03*
X54864400Y45212000D03*
X57404400Y47752000D03*
X57404400Y45212000D03*
X59944400Y47752000D03*
X59944400Y45212000D03*
X62484400Y47752000D03*
X62484400Y45212000D03*
X65024400Y47752000D03*
X65024400Y45212000D03*
X67564400Y47752000D03*
X67564400Y45212000D03*
X70104400Y47752000D03*
X70104400Y45212000D03*
X72644400Y47752000D03*
X72644400Y45212000D03*
X75184400Y47752000D03*
X75184400Y45212000D03*
D13*
X18161000Y42672000D03*
X27524551Y40518151D03*
X32766000Y34823400D03*
X33985200Y34544000D03*
X40640000Y41275000D03*
X38100008Y35458400D03*
X40639994Y38989000D03*
X37196122Y37094522D03*
X38226781Y38206116D03*
X48260000Y34671000D03*
X49911000Y34670996D03*
X48260000Y38201600D03*
X47244000Y38654020D03*
X53721000Y38481008D03*
X56388000Y39471600D03*
X56388000Y41097200D03*
X64058800Y38354000D03*
X61163196Y38760400D03*
X67310000Y38354000D03*
X68580000Y38354000D03*
X69723000Y38354000D03*
X71069200Y38354000D03*
X72389998Y38354000D03*
X73533000Y38354000D03*
X74777600Y38354000D03*
X76200000Y38353996D03*
D14*
X17736736Y42672000D02*
X18161000Y42672000D01*
X11684400Y42672000D02*
X17736736Y42672000D01*
X9144400Y45212000D02*
X11684400Y42672000D01*
X23997849Y40518151D02*
X27100287Y40518151D01*
X20132040Y46466760D02*
X20574400Y46024400D01*
X17556480Y46466760D02*
X20132040Y46466760D01*
X27100287Y40518151D02*
X27524551Y40518151D01*
X12989960Y49057560D02*
X14965680Y49057560D01*
X11684400Y47752000D02*
X12989960Y49057560D01*
X14965680Y49057560D02*
X17556480Y46466760D01*
X20574400Y46024400D02*
X20574400Y43941600D01*
X20574400Y43941600D02*
X23997849Y40518151D01*
X32341736Y34823400D02*
X32766000Y34823400D01*
X27564428Y34823400D02*
X32341736Y34823400D01*
X12939160Y46466760D02*
X15921068Y46466760D01*
X15921068Y46466760D02*
X27564428Y34823400D01*
X11684400Y45212000D02*
X12939160Y46466760D01*
X14224400Y45212000D02*
X16637000Y45212000D01*
X16637000Y45212000D02*
X27604999Y34244001D01*
X27604999Y34244001D02*
X33685201Y34244001D01*
X33685201Y34244001D02*
X33985200Y34544000D01*
X40340001Y41574999D02*
X40640000Y41275000D01*
X35814000Y48747680D02*
X35814000Y46852840D01*
X38354400Y43560600D02*
X40340001Y41574999D01*
X38354400Y46009160D02*
X38354400Y43560600D01*
X19893690Y49458890D02*
X35102790Y49458890D01*
X37871400Y46492160D02*
X38354400Y46009160D01*
X35814000Y46852840D02*
X36174680Y46492160D01*
X36174680Y46492160D02*
X37871400Y46492160D01*
X19304400Y48869600D02*
X19893690Y49458890D01*
X35102790Y49458890D02*
X35814000Y48747680D01*
X19304400Y47752000D02*
X19304400Y48869600D01*
X36642121Y36492023D02*
X37675744Y35458400D01*
X36642121Y39557879D02*
X36642121Y36492023D01*
X37675744Y35458400D02*
X38100008Y35458400D01*
X24384400Y45212000D02*
X26416400Y43180000D01*
X33020000Y43180000D02*
X36642121Y39557879D01*
X26416400Y43180000D02*
X33020000Y43180000D01*
X35824160Y43804834D02*
X40339995Y39288999D01*
X35824160Y46146720D02*
X35824160Y43804834D01*
X26924400Y47752000D02*
X28250280Y49077880D01*
X35493960Y46476920D02*
X35824160Y46146720D01*
X30281880Y49077880D02*
X30728920Y48630840D01*
X28250280Y49077880D02*
X30281880Y49077880D01*
X30728920Y48630840D02*
X30728920Y46695360D01*
X40339995Y39288999D02*
X40639994Y38989000D01*
X30947360Y46476920D02*
X35493960Y46476920D01*
X30728920Y46695360D02*
X30947360Y46476920D01*
X33177819Y43561010D02*
X37023131Y39715698D01*
X37023131Y37691777D02*
X37196122Y37518786D01*
X37196122Y37518786D02*
X37196122Y37094522D01*
X37023131Y39715698D02*
X37023131Y37691777D01*
X28575390Y43561010D02*
X33177819Y43561010D01*
X26924400Y45212000D02*
X28575390Y43561010D01*
X33335638Y43942020D02*
X37404141Y39873517D01*
X37926782Y38506115D02*
X38226781Y38206116D01*
X37404141Y39028756D02*
X37926782Y38506115D01*
X37404141Y39873517D02*
X37404141Y39028756D01*
X30734380Y43942020D02*
X33335638Y43942020D01*
X29464400Y45212000D02*
X30734380Y43942020D01*
X47835736Y34671000D02*
X48260000Y34671000D01*
X33468086Y44348401D02*
X43145487Y34671000D01*
X32004400Y45212000D02*
X32867999Y44348401D01*
X43145487Y34671000D02*
X47835736Y34671000D01*
X32867999Y44348401D02*
X33468086Y44348401D01*
X34544400Y45212000D02*
X34544400Y43990686D01*
X34544400Y43990686D02*
X43229086Y35306000D01*
X43229086Y35306000D02*
X49275996Y35306000D01*
X49275996Y35306000D02*
X49611001Y34970995D01*
X49611001Y34970995D02*
X49911000Y34670996D01*
X37084400Y45212000D02*
X37084400Y43990686D01*
X37084400Y43990686D02*
X42975086Y38100000D01*
X42975086Y38100000D02*
X48133000Y38100000D01*
X48133000Y38100000D02*
X48260000Y38227000D01*
X48260000Y38227000D02*
X48260000Y38201600D01*
X41402400Y43434000D02*
X44831000Y43434000D01*
X39624400Y45212000D02*
X41402400Y43434000D01*
X44831000Y43434000D02*
X47244000Y41021000D01*
X47244000Y41021000D02*
X47244000Y38654020D01*
X42164400Y45212000D02*
X43591829Y45212000D01*
X48343744Y43434000D02*
X53296736Y38481008D01*
X43591829Y45212000D02*
X45369829Y43434000D01*
X45369829Y43434000D02*
X48343744Y43434000D01*
X53296736Y38481008D02*
X53721000Y38481008D01*
X49022400Y43434000D02*
X52001336Y43434000D01*
X52001336Y43434000D02*
X55963736Y39471600D01*
X47244400Y45212000D02*
X49022400Y43434000D01*
X55963736Y39471600D02*
X56388000Y39471600D01*
X55963736Y41097200D02*
X56388000Y41097200D01*
X54876965Y41097200D02*
X55963736Y41097200D01*
X52159155Y43815010D02*
X54876965Y41097200D01*
X51181390Y43815010D02*
X52159155Y43815010D01*
X49784400Y45212000D02*
X51181390Y43815010D01*
X55880400Y41656000D02*
X56953922Y41656000D01*
X52324400Y45212000D02*
X55880400Y41656000D01*
X56953922Y41656000D02*
X60555921Y38054001D01*
X63758801Y38054001D02*
X64058800Y38354000D01*
X60555921Y38054001D02*
X63758801Y38054001D01*
X61163196Y38913204D02*
X61163196Y38760400D01*
X54864400Y45212000D02*
X61163196Y38913204D01*
X57404400Y45212000D02*
X59182410Y43433990D01*
X62992010Y43433990D02*
X67310000Y39116000D01*
X59182410Y43433990D02*
X62992010Y43433990D01*
X67310000Y39116000D02*
X67310000Y38354000D01*
X59944400Y45212000D02*
X61341400Y43815000D01*
X61341400Y43815000D02*
X63149829Y43815000D01*
X63149829Y43815000D02*
X68580000Y38384829D01*
X68580000Y38384829D02*
X68580000Y38354000D01*
X69723000Y38778264D02*
X69723000Y38354000D01*
X67183010Y43433990D02*
X69723000Y40894000D01*
X64262410Y43433990D02*
X67183010Y43433990D01*
X69723000Y40894000D02*
X69723000Y38778264D01*
X62484400Y45212000D02*
X64262410Y43433990D01*
X65024400Y45212000D02*
X66421400Y43815000D01*
X71069200Y38778264D02*
X71069200Y38354000D01*
X71069200Y40086629D02*
X71069200Y38778264D01*
X66421400Y43815000D02*
X67340829Y43815000D01*
X67340829Y43815000D02*
X71069200Y40086629D01*
X67564400Y45212000D02*
X72389998Y40386402D01*
X72389998Y40386402D02*
X72389998Y38354000D01*
X70104400Y45212000D02*
X73533000Y41783400D01*
X73533000Y38778264D02*
X73533000Y38354000D01*
X73533000Y41783400D02*
X73533000Y38778264D01*
X74777600Y38778264D02*
X74777600Y38354000D01*
X74777600Y43078800D02*
X74777600Y38778264D01*
X72644400Y45212000D02*
X74777600Y43078800D01*
X76200000Y44196400D02*
X76200000Y38778260D01*
X75184400Y45212000D02*
X76200000Y44196400D01*
X76200000Y38778260D02*
X76200000Y38353996D01*
G36*
X14371400Y47625000D02*
X14351400Y47625000D01*
X14351400Y47605000D01*
X14097400Y47605000D01*
X14097400Y47625000D01*
X14077400Y47625000D01*
X14077400Y47879000D01*
X14097400Y47879000D01*
X14097400Y47899000D01*
X14351400Y47899000D01*
X14351400Y47879000D01*
X14371400Y47879000D01*
X14371400Y47625000D01*
X14371400Y47625000D01*
G37*
X14371400Y47625000D02*
X14351400Y47625000D01*
X14351400Y47605000D01*
X14097400Y47605000D01*
X14097400Y47625000D01*
X14077400Y47625000D01*
X14077400Y47879000D01*
X14097400Y47879000D01*
X14097400Y47899000D01*
X14351400Y47899000D01*
X14351400Y47879000D01*
X14371400Y47879000D01*
X14371400Y47625000D01*
G36*
X24531400Y47625000D02*
X24511400Y47625000D01*
X24511400Y47605000D01*
X24257400Y47605000D01*
X24257400Y47625000D01*
X23178217Y47625000D01*
X23050583Y47625000D01*
X21971400Y47625000D01*
X21971400Y47605000D01*
X21717400Y47605000D01*
X21717400Y47625000D01*
X21697400Y47625000D01*
X21697400Y47879000D01*
X21717400Y47879000D01*
X21717400Y47899000D01*
X21971400Y47899000D01*
X21971400Y47879000D01*
X23050583Y47879000D01*
X23178217Y47879000D01*
X24257400Y47879000D01*
X24257400Y47899000D01*
X24511400Y47899000D01*
X24511400Y47879000D01*
X24531400Y47879000D01*
X24531400Y47625000D01*
X24531400Y47625000D01*
G37*
X24531400Y47625000D02*
X24511400Y47625000D01*
X24511400Y47605000D01*
X24257400Y47605000D01*
X24257400Y47625000D01*
X23178217Y47625000D01*
X23050583Y47625000D01*
X21971400Y47625000D01*
X21971400Y47605000D01*
X21717400Y47605000D01*
X21717400Y47625000D01*
X21697400Y47625000D01*
X21697400Y47879000D01*
X21717400Y47879000D01*
X21717400Y47899000D01*
X21971400Y47899000D01*
X21971400Y47879000D01*
X23050583Y47879000D01*
X23178217Y47879000D01*
X24257400Y47879000D01*
X24257400Y47899000D01*
X24511400Y47899000D01*
X24511400Y47879000D01*
X24531400Y47879000D01*
X24531400Y47625000D01*
G36*
X29611400Y47625000D02*
X29591400Y47625000D01*
X29591400Y47605000D01*
X29337400Y47605000D01*
X29337400Y47625000D01*
X29317400Y47625000D01*
X29317400Y47879000D01*
X29337400Y47879000D01*
X29337400Y47899000D01*
X29591400Y47899000D01*
X29591400Y47879000D01*
X29611400Y47879000D01*
X29611400Y47625000D01*
X29611400Y47625000D01*
G37*
X29611400Y47625000D02*
X29591400Y47625000D01*
X29591400Y47605000D01*
X29337400Y47605000D01*
X29337400Y47625000D01*
X29317400Y47625000D01*
X29317400Y47879000D01*
X29337400Y47879000D01*
X29337400Y47899000D01*
X29591400Y47899000D01*
X29591400Y47879000D01*
X29611400Y47879000D01*
X29611400Y47625000D01*
G36*
X34691400Y47625000D02*
X34671400Y47625000D01*
X34671400Y47605000D01*
X34417400Y47605000D01*
X34417400Y47625000D01*
X33338217Y47625000D01*
X33210583Y47625000D01*
X32131400Y47625000D01*
X32131400Y47605000D01*
X31877400Y47605000D01*
X31877400Y47625000D01*
X31857400Y47625000D01*
X31857400Y47879000D01*
X31877400Y47879000D01*
X31877400Y47899000D01*
X32131400Y47899000D01*
X32131400Y47879000D01*
X33210583Y47879000D01*
X33338217Y47879000D01*
X34417400Y47879000D01*
X34417400Y47899000D01*
X34671400Y47899000D01*
X34671400Y47879000D01*
X34691400Y47879000D01*
X34691400Y47625000D01*
X34691400Y47625000D01*
G37*
X34691400Y47625000D02*
X34671400Y47625000D01*
X34671400Y47605000D01*
X34417400Y47605000D01*
X34417400Y47625000D01*
X33338217Y47625000D01*
X33210583Y47625000D01*
X32131400Y47625000D01*
X32131400Y47605000D01*
X31877400Y47605000D01*
X31877400Y47625000D01*
X31857400Y47625000D01*
X31857400Y47879000D01*
X31877400Y47879000D01*
X31877400Y47899000D01*
X32131400Y47899000D01*
X32131400Y47879000D01*
X33210583Y47879000D01*
X33338217Y47879000D01*
X34417400Y47879000D01*
X34417400Y47899000D01*
X34671400Y47899000D01*
X34671400Y47879000D01*
X34691400Y47879000D01*
X34691400Y47625000D01*
G36*
X78792000Y456000D02*
X77724000Y456000D01*
X76638958Y456000D01*
X76638958Y1672974D01*
X76638958Y2391026D01*
X76593222Y2541814D01*
X76466684Y2806944D01*
X76290854Y3042293D01*
X76072488Y3238817D01*
X75819978Y3388964D01*
X75689980Y3434964D01*
X75878773Y3535346D01*
X76067010Y3688868D01*
X76221842Y3876029D01*
X76337373Y4089698D01*
X76409201Y4321738D01*
X76434592Y4563311D01*
X76412577Y4805215D01*
X76343995Y5038235D01*
X76231459Y5253497D01*
X76079255Y5442801D01*
X75893180Y5598936D01*
X75680322Y5715956D01*
X75448789Y5789403D01*
X75207399Y5816479D01*
X75190022Y5816600D01*
X75177978Y5816600D01*
X74936234Y5792897D01*
X74703698Y5722690D01*
X74489227Y5608654D01*
X74300990Y5455132D01*
X74146158Y5267971D01*
X74030627Y5054302D01*
X73958799Y4822262D01*
X73933408Y4580689D01*
X73955423Y4338785D01*
X74024005Y4105765D01*
X74136541Y3890503D01*
X74288745Y3701199D01*
X74474820Y3545064D01*
X74676238Y3434334D01*
X74548022Y3388964D01*
X74295512Y3238817D01*
X74077146Y3042293D01*
X73914000Y2823922D01*
X73750854Y3042293D01*
X73532488Y3238817D01*
X73279978Y3388964D01*
X73149980Y3434964D01*
X73338773Y3535346D01*
X73527010Y3688868D01*
X73681842Y3876029D01*
X73797373Y4089698D01*
X73869201Y4321738D01*
X73894592Y4563311D01*
X73872577Y4805215D01*
X73803995Y5038235D01*
X73691459Y5253497D01*
X73539255Y5442801D01*
X73353180Y5598936D01*
X73140322Y5715956D01*
X72908789Y5789403D01*
X72667399Y5816479D01*
X72650022Y5816600D01*
X72637978Y5816600D01*
X72396234Y5792897D01*
X72163698Y5722690D01*
X71949227Y5608654D01*
X71760990Y5455132D01*
X71606158Y5267971D01*
X71490627Y5054302D01*
X71418799Y4822262D01*
X71393408Y4580689D01*
X71415423Y4338785D01*
X71484005Y4105765D01*
X71596541Y3890503D01*
X71748745Y3701199D01*
X71934820Y3545064D01*
X72136238Y3434334D01*
X72008022Y3388964D01*
X71755512Y3238817D01*
X71537146Y3042293D01*
X71374000Y2823922D01*
X71210854Y3042293D01*
X70992488Y3238817D01*
X70739978Y3388964D01*
X70609980Y3434964D01*
X70798773Y3535346D01*
X70987010Y3688868D01*
X71141842Y3876029D01*
X71257373Y4089698D01*
X71329201Y4321738D01*
X71354592Y4563311D01*
X71332577Y4805215D01*
X71263995Y5038235D01*
X71151459Y5253497D01*
X70999255Y5442801D01*
X70813180Y5598936D01*
X70600322Y5715956D01*
X70368789Y5789403D01*
X70127399Y5816479D01*
X70110022Y5816600D01*
X70097978Y5816600D01*
X69856234Y5792897D01*
X69623698Y5722690D01*
X69409227Y5608654D01*
X69220990Y5455132D01*
X69066158Y5267971D01*
X68950627Y5054302D01*
X68878799Y4822262D01*
X68853408Y4580689D01*
X68875423Y4338785D01*
X68944005Y4105765D01*
X69056541Y3890503D01*
X69208745Y3701199D01*
X69394820Y3545064D01*
X69596238Y3434334D01*
X69468022Y3388964D01*
X69215512Y3238817D01*
X68997146Y3042293D01*
X68834000Y2823922D01*
X68670854Y3042293D01*
X68452488Y3238817D01*
X68199978Y3388964D01*
X68069980Y3434964D01*
X68258773Y3535346D01*
X68447010Y3688868D01*
X68601842Y3876029D01*
X68717373Y4089698D01*
X68789201Y4321738D01*
X68814592Y4563311D01*
X68792577Y4805215D01*
X68723995Y5038235D01*
X68611459Y5253497D01*
X68459255Y5442801D01*
X68273180Y5598936D01*
X68060322Y5715956D01*
X67828789Y5789403D01*
X67587399Y5816479D01*
X67570022Y5816600D01*
X67557978Y5816600D01*
X67316234Y5792897D01*
X67083698Y5722690D01*
X66869227Y5608654D01*
X66680990Y5455132D01*
X66526158Y5267971D01*
X66410627Y5054302D01*
X66338799Y4822262D01*
X66313408Y4580689D01*
X66335423Y4338785D01*
X66404005Y4105765D01*
X66516541Y3890503D01*
X66668745Y3701199D01*
X66854820Y3545064D01*
X67056238Y3434334D01*
X66928022Y3388964D01*
X66675512Y3238817D01*
X66457146Y3042293D01*
X66294000Y2823922D01*
X66130854Y3042293D01*
X65912488Y3238817D01*
X65659978Y3388964D01*
X65529980Y3434964D01*
X65718773Y3535346D01*
X65907010Y3688868D01*
X66061842Y3876029D01*
X66177373Y4089698D01*
X66249201Y4321738D01*
X66274592Y4563311D01*
X66252577Y4805215D01*
X66183995Y5038235D01*
X66071459Y5253497D01*
X65919255Y5442801D01*
X65733180Y5598936D01*
X65520322Y5715956D01*
X65288789Y5789403D01*
X65047399Y5816479D01*
X65030022Y5816600D01*
X65017978Y5816600D01*
X64776234Y5792897D01*
X64543698Y5722690D01*
X64329227Y5608654D01*
X64140990Y5455132D01*
X63986158Y5267971D01*
X63870627Y5054302D01*
X63798799Y4822262D01*
X63773408Y4580689D01*
X63795423Y4338785D01*
X63864005Y4105765D01*
X63976541Y3890503D01*
X64128745Y3701199D01*
X64314820Y3545064D01*
X64516238Y3434334D01*
X64388022Y3388964D01*
X64135512Y3238817D01*
X63917146Y3042293D01*
X63754000Y2823922D01*
X63590854Y3042293D01*
X63372488Y3238817D01*
X63119978Y3388964D01*
X62989980Y3434964D01*
X63178773Y3535346D01*
X63367010Y3688868D01*
X63521842Y3876029D01*
X63637373Y4089698D01*
X63709201Y4321738D01*
X63734592Y4563311D01*
X63712577Y4805215D01*
X63643995Y5038235D01*
X63531459Y5253497D01*
X63379255Y5442801D01*
X63193180Y5598936D01*
X62980322Y5715956D01*
X62748789Y5789403D01*
X62507399Y5816479D01*
X62490022Y5816600D01*
X62477978Y5816600D01*
X62236234Y5792897D01*
X62003698Y5722690D01*
X61789227Y5608654D01*
X61600990Y5455132D01*
X61446158Y5267971D01*
X61330627Y5054302D01*
X61258799Y4822262D01*
X61233408Y4580689D01*
X61255423Y4338785D01*
X61324005Y4105765D01*
X61436541Y3890503D01*
X61588745Y3701199D01*
X61774820Y3545064D01*
X61976238Y3434334D01*
X61848022Y3388964D01*
X61595512Y3238817D01*
X61377146Y3042293D01*
X61214000Y2823922D01*
X61050854Y3042293D01*
X60832488Y3238817D01*
X60579978Y3388964D01*
X60449980Y3434964D01*
X60638773Y3535346D01*
X60827010Y3688868D01*
X60981842Y3876029D01*
X61097373Y4089698D01*
X61169201Y4321738D01*
X61194592Y4563311D01*
X61172577Y4805215D01*
X61103995Y5038235D01*
X60991459Y5253497D01*
X60839255Y5442801D01*
X60653180Y5598936D01*
X60440322Y5715956D01*
X60208789Y5789403D01*
X59967399Y5816479D01*
X59950022Y5816600D01*
X59937978Y5816600D01*
X59696234Y5792897D01*
X59463698Y5722690D01*
X59249227Y5608654D01*
X59060990Y5455132D01*
X58906158Y5267971D01*
X58790627Y5054302D01*
X58718799Y4822262D01*
X58693408Y4580689D01*
X58715423Y4338785D01*
X58784005Y4105765D01*
X58896541Y3890503D01*
X59048745Y3701199D01*
X59234820Y3545064D01*
X59436238Y3434334D01*
X59308022Y3388964D01*
X59055512Y3238817D01*
X58837146Y3042293D01*
X58674000Y2823922D01*
X58510854Y3042293D01*
X58292488Y3238817D01*
X58039978Y3388964D01*
X57909980Y3434964D01*
X58098773Y3535346D01*
X58287010Y3688868D01*
X58441842Y3876029D01*
X58557373Y4089698D01*
X58629201Y4321738D01*
X58654592Y4563311D01*
X58632577Y4805215D01*
X58563995Y5038235D01*
X58451459Y5253497D01*
X58299255Y5442801D01*
X58113180Y5598936D01*
X57900322Y5715956D01*
X57668789Y5789403D01*
X57427399Y5816479D01*
X57410022Y5816600D01*
X57397978Y5816600D01*
X57156234Y5792897D01*
X56923698Y5722690D01*
X56709227Y5608654D01*
X56520990Y5455132D01*
X56366158Y5267971D01*
X56250627Y5054302D01*
X56178799Y4822262D01*
X56153408Y4580689D01*
X56175423Y4338785D01*
X56244005Y4105765D01*
X56356541Y3890503D01*
X56508745Y3701199D01*
X56694820Y3545064D01*
X56896238Y3434334D01*
X56768022Y3388964D01*
X56515512Y3238817D01*
X56297146Y3042293D01*
X56134000Y2823922D01*
X55970854Y3042293D01*
X55752488Y3238817D01*
X55499978Y3388964D01*
X55369980Y3434964D01*
X55558773Y3535346D01*
X55747010Y3688868D01*
X55901842Y3876029D01*
X56017373Y4089698D01*
X56089201Y4321738D01*
X56114592Y4563311D01*
X56092577Y4805215D01*
X56023995Y5038235D01*
X55911459Y5253497D01*
X55759255Y5442801D01*
X55573180Y5598936D01*
X55360322Y5715956D01*
X55128789Y5789403D01*
X54887399Y5816479D01*
X54870022Y5816600D01*
X54857978Y5816600D01*
X54616234Y5792897D01*
X54383698Y5722690D01*
X54169227Y5608654D01*
X53980990Y5455132D01*
X53826158Y5267971D01*
X53710627Y5054302D01*
X53638799Y4822262D01*
X53613408Y4580689D01*
X53635423Y4338785D01*
X53704005Y4105765D01*
X53816541Y3890503D01*
X53968745Y3701199D01*
X54154820Y3545064D01*
X54356238Y3434334D01*
X54228022Y3388964D01*
X53975512Y3238817D01*
X53798464Y3079479D01*
X53798197Y3080823D01*
X53750330Y3196385D01*
X53680837Y3300389D01*
X53592389Y3388837D01*
X53488385Y3458330D01*
X53372823Y3506197D01*
X53250142Y3530600D01*
X53009847Y3530600D01*
X53018773Y3535346D01*
X53207010Y3688868D01*
X53361842Y3876029D01*
X53477373Y4089698D01*
X53549201Y4321738D01*
X53574592Y4563311D01*
X53552577Y4805215D01*
X53483995Y5038235D01*
X53371459Y5253497D01*
X53219255Y5442801D01*
X53033180Y5598936D01*
X52820322Y5715956D01*
X52588789Y5789403D01*
X52347399Y5816479D01*
X52330022Y5816600D01*
X52317978Y5816600D01*
X52076234Y5792897D01*
X52018000Y5775316D01*
X52018000Y19304000D01*
X52018000Y30226000D01*
X52013810Y30268729D01*
X52009923Y30311446D01*
X52009472Y30312978D01*
X52009316Y30314571D01*
X51996909Y30355664D01*
X51984796Y30396821D01*
X51984054Y30398240D01*
X51983593Y30399768D01*
X51963470Y30437613D01*
X51943565Y30475689D01*
X51942561Y30476937D01*
X51941812Y30478347D01*
X51914716Y30511569D01*
X51887800Y30545046D01*
X51886573Y30546075D01*
X51885564Y30547313D01*
X51852529Y30574642D01*
X51819625Y30602252D01*
X51818222Y30603024D01*
X51816992Y30604041D01*
X51779277Y30624434D01*
X51741638Y30645126D01*
X51740113Y30645610D01*
X51738707Y30646370D01*
X51697711Y30659061D01*
X51656808Y30672035D01*
X51655219Y30672214D01*
X51653692Y30672686D01*
X51611044Y30677169D01*
X51568367Y30681956D01*
X51565294Y30681978D01*
X51565183Y30681989D01*
X51565070Y30681979D01*
X51562000Y30682000D01*
X38100000Y30682000D01*
X38057271Y30677811D01*
X38014554Y30673923D01*
X38013022Y30673473D01*
X38011429Y30673316D01*
X37970336Y30660910D01*
X37929179Y30648796D01*
X37927760Y30648055D01*
X37926232Y30647593D01*
X37888387Y30627471D01*
X37850311Y30607565D01*
X37849063Y30606562D01*
X37847653Y30605812D01*
X37814431Y30578717D01*
X37780954Y30551800D01*
X37779925Y30550574D01*
X37778687Y30549564D01*
X37751358Y30516530D01*
X37723748Y30483625D01*
X37722976Y30482223D01*
X37721959Y30480992D01*
X37701566Y30443278D01*
X37680874Y30405638D01*
X37680390Y30404114D01*
X37679630Y30402707D01*
X37666939Y30361712D01*
X37653965Y30320808D01*
X37653786Y30319220D01*
X37653314Y30317692D01*
X37648831Y30275045D01*
X37644044Y30232367D01*
X37644022Y30229295D01*
X37644011Y30229183D01*
X37644021Y30229071D01*
X37644000Y30226000D01*
X37644000Y19304000D01*
X37648189Y19261272D01*
X37652077Y19218554D01*
X37652527Y19217023D01*
X37652684Y19215429D01*
X37665090Y19174337D01*
X37677204Y19133179D01*
X37677945Y19131761D01*
X37678407Y19130232D01*
X37698529Y19092388D01*
X37718435Y19054311D01*
X37719438Y19053064D01*
X37720188Y19051653D01*
X37747283Y19018432D01*
X37774200Y18984954D01*
X37775426Y18983926D01*
X37776436Y18982687D01*
X37809470Y18955359D01*
X37842375Y18927748D01*
X37843777Y18926977D01*
X37845008Y18925959D01*
X37882722Y18905567D01*
X37920362Y18884874D01*
X37921886Y18884391D01*
X37923293Y18883630D01*
X37964288Y18870940D01*
X38005192Y18857965D01*
X38006780Y18857787D01*
X38008308Y18857314D01*
X38050955Y18852832D01*
X38093633Y18848044D01*
X38096705Y18848023D01*
X38096817Y18848011D01*
X38096929Y18848022D01*
X38100000Y18848000D01*
X51562000Y18848000D01*
X51604728Y18852190D01*
X51647446Y18856077D01*
X51648977Y18856528D01*
X51650571Y18856684D01*
X51691663Y18869091D01*
X51732821Y18881204D01*
X51734239Y18881946D01*
X51735768Y18882407D01*
X51773612Y18902530D01*
X51811689Y18922435D01*
X51812936Y18923439D01*
X51814347Y18924188D01*
X51847568Y18951284D01*
X51881046Y18978200D01*
X51882074Y18979427D01*
X51883313Y18980436D01*
X51910641Y19013471D01*
X51938252Y19046375D01*
X51939023Y19047778D01*
X51940041Y19049008D01*
X51960433Y19086723D01*
X51981126Y19124362D01*
X51981609Y19125887D01*
X51982370Y19127293D01*
X51995060Y19168289D01*
X52008035Y19209192D01*
X52008213Y19210781D01*
X52008686Y19212308D01*
X52013168Y19254956D01*
X52017956Y19297633D01*
X52017977Y19300706D01*
X52017989Y19300817D01*
X52017978Y19300930D01*
X52018000Y19304000D01*
X52018000Y5775316D01*
X51843698Y5722690D01*
X51629227Y5608654D01*
X51440990Y5455132D01*
X51286158Y5267971D01*
X51170627Y5054302D01*
X51098799Y4822262D01*
X51073408Y4580689D01*
X51095423Y4338785D01*
X51164005Y4105765D01*
X51276541Y3890503D01*
X51428745Y3701199D01*
X51614820Y3545064D01*
X51641129Y3530600D01*
X51397858Y3530600D01*
X51275177Y3506197D01*
X51159615Y3458330D01*
X51055611Y3388837D01*
X50967163Y3300389D01*
X50897670Y3196385D01*
X50849803Y3080823D01*
X50825400Y2958142D01*
X50825400Y2833058D01*
X50825400Y2317750D01*
X50984150Y2159000D01*
X52197000Y2159000D01*
X52197000Y2179000D01*
X52451000Y2179000D01*
X52451000Y2159000D01*
X53530183Y2159000D01*
X53663850Y2159000D01*
X54737000Y2159000D01*
X54737000Y2179000D01*
X54991000Y2179000D01*
X54991000Y2159000D01*
X56070183Y2159000D01*
X56197817Y2159000D01*
X57277000Y2159000D01*
X57277000Y2179000D01*
X57531000Y2179000D01*
X57531000Y2159000D01*
X58610183Y2159000D01*
X58737817Y2159000D01*
X59817000Y2159000D01*
X59817000Y2179000D01*
X60071000Y2179000D01*
X60071000Y2159000D01*
X61150183Y2159000D01*
X61277817Y2159000D01*
X62357000Y2159000D01*
X62357000Y2179000D01*
X62611000Y2179000D01*
X62611000Y2159000D01*
X63690183Y2159000D01*
X63817817Y2159000D01*
X64897000Y2159000D01*
X64897000Y2179000D01*
X65151000Y2179000D01*
X65151000Y2159000D01*
X66230183Y2159000D01*
X66357817Y2159000D01*
X67437000Y2159000D01*
X67437000Y2179000D01*
X67691000Y2179000D01*
X67691000Y2159000D01*
X68770183Y2159000D01*
X68897817Y2159000D01*
X69977000Y2159000D01*
X69977000Y2179000D01*
X70231000Y2179000D01*
X70231000Y2159000D01*
X71310183Y2159000D01*
X71437817Y2159000D01*
X72517000Y2159000D01*
X72517000Y2179000D01*
X72771000Y2179000D01*
X72771000Y2159000D01*
X73850183Y2159000D01*
X73977817Y2159000D01*
X75057000Y2159000D01*
X75057000Y2179000D01*
X75311000Y2179000D01*
X75311000Y2159000D01*
X76517817Y2159000D01*
X76638958Y2391026D01*
X76638958Y1672974D01*
X76517817Y1905000D01*
X75311000Y1905000D01*
X75311000Y697536D01*
X75543027Y577037D01*
X75819978Y675036D01*
X76072488Y825183D01*
X76290854Y1021707D01*
X76466684Y1257056D01*
X76593222Y1522186D01*
X76638958Y1672974D01*
X76638958Y456000D01*
X75057000Y456000D01*
X75057000Y697536D01*
X75057000Y1905000D01*
X73977817Y1905000D01*
X73850183Y1905000D01*
X72771000Y1905000D01*
X72771000Y697536D01*
X73003027Y577037D01*
X73279978Y675036D01*
X73532488Y825183D01*
X73750854Y1021707D01*
X73914000Y1240079D01*
X74077146Y1021707D01*
X74295512Y825183D01*
X74548022Y675036D01*
X74824973Y577037D01*
X75057000Y697536D01*
X75057000Y456000D01*
X72517000Y456000D01*
X72517000Y697536D01*
X72517000Y1905000D01*
X71437817Y1905000D01*
X71310183Y1905000D01*
X70231000Y1905000D01*
X70231000Y697536D01*
X70463027Y577037D01*
X70739978Y675036D01*
X70992488Y825183D01*
X71210854Y1021707D01*
X71374000Y1240079D01*
X71537146Y1021707D01*
X71755512Y825183D01*
X72008022Y675036D01*
X72284973Y577037D01*
X72517000Y697536D01*
X72517000Y456000D01*
X69977000Y456000D01*
X69977000Y697536D01*
X69977000Y1905000D01*
X68897817Y1905000D01*
X68770183Y1905000D01*
X67691000Y1905000D01*
X67691000Y697536D01*
X67923027Y577037D01*
X68199978Y675036D01*
X68452488Y825183D01*
X68670854Y1021707D01*
X68834000Y1240079D01*
X68997146Y1021707D01*
X69215512Y825183D01*
X69468022Y675036D01*
X69744973Y577037D01*
X69977000Y697536D01*
X69977000Y456000D01*
X67437000Y456000D01*
X67437000Y697536D01*
X67437000Y1905000D01*
X66357817Y1905000D01*
X66230183Y1905000D01*
X65151000Y1905000D01*
X65151000Y697536D01*
X65383027Y577037D01*
X65659978Y675036D01*
X65912488Y825183D01*
X66130854Y1021707D01*
X66294000Y1240079D01*
X66457146Y1021707D01*
X66675512Y825183D01*
X66928022Y675036D01*
X67204973Y577037D01*
X67437000Y697536D01*
X67437000Y456000D01*
X64897000Y456000D01*
X64897000Y697536D01*
X64897000Y1905000D01*
X63817817Y1905000D01*
X63690183Y1905000D01*
X62611000Y1905000D01*
X62611000Y697536D01*
X62843027Y577037D01*
X63119978Y675036D01*
X63372488Y825183D01*
X63590854Y1021707D01*
X63754000Y1240079D01*
X63917146Y1021707D01*
X64135512Y825183D01*
X64388022Y675036D01*
X64664973Y577037D01*
X64897000Y697536D01*
X64897000Y456000D01*
X62357000Y456000D01*
X62357000Y697536D01*
X62357000Y1905000D01*
X61277817Y1905000D01*
X61150183Y1905000D01*
X60071000Y1905000D01*
X60071000Y697536D01*
X60303027Y577037D01*
X60579978Y675036D01*
X60832488Y825183D01*
X61050854Y1021707D01*
X61214000Y1240079D01*
X61377146Y1021707D01*
X61595512Y825183D01*
X61848022Y675036D01*
X62124973Y577037D01*
X62357000Y697536D01*
X62357000Y456000D01*
X59817000Y456000D01*
X59817000Y697536D01*
X59817000Y1905000D01*
X58737817Y1905000D01*
X58610183Y1905000D01*
X57531000Y1905000D01*
X57531000Y697536D01*
X57763027Y577037D01*
X58039978Y675036D01*
X58292488Y825183D01*
X58510854Y1021707D01*
X58674000Y1240079D01*
X58837146Y1021707D01*
X59055512Y825183D01*
X59308022Y675036D01*
X59584973Y577037D01*
X59817000Y697536D01*
X59817000Y456000D01*
X57277000Y456000D01*
X57277000Y697536D01*
X57277000Y1905000D01*
X56197817Y1905000D01*
X56070183Y1905000D01*
X54991000Y1905000D01*
X54991000Y697536D01*
X55223027Y577037D01*
X55499978Y675036D01*
X55752488Y825183D01*
X55970854Y1021707D01*
X56134000Y1240079D01*
X56297146Y1021707D01*
X56515512Y825183D01*
X56768022Y675036D01*
X57044973Y577037D01*
X57277000Y697536D01*
X57277000Y456000D01*
X55372000Y456000D01*
X54737000Y456000D01*
X54737000Y697536D01*
X54737000Y1905000D01*
X53663850Y1905000D01*
X53530183Y1905000D01*
X52451000Y1905000D01*
X52451000Y692150D01*
X52609750Y533400D01*
X53250142Y533400D01*
X53372823Y557803D01*
X53488385Y605670D01*
X53592389Y675163D01*
X53680837Y763611D01*
X53750330Y867615D01*
X53798197Y983177D01*
X53798464Y984522D01*
X53975512Y825183D01*
X54228022Y675036D01*
X54504973Y577037D01*
X54737000Y697536D01*
X54737000Y456000D01*
X52197000Y456000D01*
X52197000Y692150D01*
X52197000Y1905000D01*
X50984150Y1905000D01*
X50825400Y1746250D01*
X50825400Y1230942D01*
X50825400Y1105858D01*
X50849803Y983177D01*
X50897670Y867615D01*
X50967163Y763611D01*
X51055611Y675163D01*
X51159615Y605670D01*
X51275177Y557803D01*
X51397858Y533400D01*
X52038250Y533400D01*
X52197000Y692150D01*
X52197000Y456000D01*
X48494992Y456000D01*
X48494992Y2023511D01*
X48494992Y4563511D01*
X48472977Y4805415D01*
X48404395Y5038435D01*
X48291859Y5253697D01*
X48139655Y5443001D01*
X47953580Y5599136D01*
X47740722Y5716156D01*
X47509189Y5789603D01*
X47267799Y5816679D01*
X47250422Y5816800D01*
X47238378Y5816800D01*
X46996634Y5793097D01*
X46764098Y5722890D01*
X46549627Y5608854D01*
X46361390Y5455332D01*
X46206558Y5268171D01*
X46091027Y5054502D01*
X46019199Y4822462D01*
X45993808Y4580889D01*
X46015823Y4338985D01*
X46084405Y4105965D01*
X46196941Y3890703D01*
X46349145Y3701399D01*
X46535220Y3545264D01*
X46748078Y3428244D01*
X46979611Y3354797D01*
X47221001Y3327721D01*
X47238378Y3327600D01*
X47250422Y3327600D01*
X47492166Y3351303D01*
X47724702Y3421510D01*
X47939173Y3535546D01*
X48127410Y3689068D01*
X48282242Y3876229D01*
X48397773Y4089898D01*
X48469601Y4321938D01*
X48494992Y4563511D01*
X48494992Y2023511D01*
X48472977Y2265415D01*
X48404395Y2498435D01*
X48291859Y2713697D01*
X48139655Y2903001D01*
X47953580Y3059136D01*
X47740722Y3176156D01*
X47509189Y3249603D01*
X47267799Y3276679D01*
X47250422Y3276800D01*
X47238378Y3276800D01*
X46996634Y3253097D01*
X46764098Y3182890D01*
X46549627Y3068854D01*
X46361390Y2915332D01*
X46206558Y2728171D01*
X46091027Y2514502D01*
X46019199Y2282462D01*
X45993808Y2040889D01*
X46015823Y1798985D01*
X46084405Y1565965D01*
X46196941Y1350703D01*
X46349145Y1161399D01*
X46535220Y1005264D01*
X46748078Y888244D01*
X46979611Y814797D01*
X47221001Y787721D01*
X47238378Y787600D01*
X47250422Y787600D01*
X47492166Y811303D01*
X47724702Y881510D01*
X47939173Y995546D01*
X48127410Y1149068D01*
X48282242Y1336229D01*
X48397773Y1549898D01*
X48469601Y1781938D01*
X48494992Y2023511D01*
X48494992Y456000D01*
X45954992Y456000D01*
X45954992Y2023511D01*
X45954992Y4563511D01*
X45932977Y4805415D01*
X45864395Y5038435D01*
X45751859Y5253697D01*
X45599655Y5443001D01*
X45413580Y5599136D01*
X45200722Y5716156D01*
X44969189Y5789603D01*
X44727799Y5816679D01*
X44710422Y5816800D01*
X44698378Y5816800D01*
X44456634Y5793097D01*
X44224098Y5722890D01*
X44009627Y5608854D01*
X43821390Y5455332D01*
X43666558Y5268171D01*
X43551027Y5054502D01*
X43479199Y4822462D01*
X43453808Y4580889D01*
X43475823Y4338985D01*
X43544405Y4105965D01*
X43656941Y3890703D01*
X43809145Y3701399D01*
X43995220Y3545264D01*
X44208078Y3428244D01*
X44439611Y3354797D01*
X44681001Y3327721D01*
X44698378Y3327600D01*
X44710422Y3327600D01*
X44952166Y3351303D01*
X45184702Y3421510D01*
X45399173Y3535546D01*
X45587410Y3689068D01*
X45742242Y3876229D01*
X45857773Y4089898D01*
X45929601Y4321938D01*
X45954992Y4563511D01*
X45954992Y2023511D01*
X45932977Y2265415D01*
X45864395Y2498435D01*
X45751859Y2713697D01*
X45599655Y2903001D01*
X45413580Y3059136D01*
X45200722Y3176156D01*
X44969189Y3249603D01*
X44727799Y3276679D01*
X44710422Y3276800D01*
X44698378Y3276800D01*
X44456634Y3253097D01*
X44224098Y3182890D01*
X44009627Y3068854D01*
X43821390Y2915332D01*
X43666558Y2728171D01*
X43551027Y2514502D01*
X43479199Y2282462D01*
X43453808Y2040889D01*
X43475823Y1798985D01*
X43544405Y1565965D01*
X43656941Y1350703D01*
X43809145Y1161399D01*
X43995220Y1005264D01*
X44208078Y888244D01*
X44439611Y814797D01*
X44681001Y787721D01*
X44698378Y787600D01*
X44710422Y787600D01*
X44952166Y811303D01*
X45184702Y881510D01*
X45399173Y995546D01*
X45587410Y1149068D01*
X45742242Y1336229D01*
X45857773Y1549898D01*
X45929601Y1781938D01*
X45954992Y2023511D01*
X45954992Y456000D01*
X43414992Y456000D01*
X43414992Y2023511D01*
X43414992Y4563511D01*
X43392977Y4805415D01*
X43324395Y5038435D01*
X43211859Y5253697D01*
X43059655Y5443001D01*
X42873580Y5599136D01*
X42660722Y5716156D01*
X42429189Y5789603D01*
X42187799Y5816679D01*
X42170422Y5816800D01*
X42158378Y5816800D01*
X41916634Y5793097D01*
X41684098Y5722890D01*
X41469627Y5608854D01*
X41281390Y5455332D01*
X41126558Y5268171D01*
X41011027Y5054502D01*
X40939199Y4822462D01*
X40913808Y4580889D01*
X40935823Y4338985D01*
X41004405Y4105965D01*
X41116941Y3890703D01*
X41269145Y3701399D01*
X41455220Y3545264D01*
X41668078Y3428244D01*
X41899611Y3354797D01*
X42141001Y3327721D01*
X42158378Y3327600D01*
X42170422Y3327600D01*
X42412166Y3351303D01*
X42644702Y3421510D01*
X42859173Y3535546D01*
X43047410Y3689068D01*
X43202242Y3876229D01*
X43317773Y4089898D01*
X43389601Y4321938D01*
X43414992Y4563511D01*
X43414992Y2023511D01*
X43392977Y2265415D01*
X43324395Y2498435D01*
X43211859Y2713697D01*
X43059655Y2903001D01*
X42873580Y3059136D01*
X42660722Y3176156D01*
X42429189Y3249603D01*
X42187799Y3276679D01*
X42170422Y3276800D01*
X42158378Y3276800D01*
X41916634Y3253097D01*
X41684098Y3182890D01*
X41469627Y3068854D01*
X41281390Y2915332D01*
X41126558Y2728171D01*
X41011027Y2514502D01*
X40939199Y2282462D01*
X40913808Y2040889D01*
X40935823Y1798985D01*
X41004405Y1565965D01*
X41116941Y1350703D01*
X41269145Y1161399D01*
X41455220Y1005264D01*
X41668078Y888244D01*
X41899611Y814797D01*
X42141001Y787721D01*
X42158378Y787600D01*
X42170422Y787600D01*
X42412166Y811303D01*
X42644702Y881510D01*
X42859173Y995546D01*
X43047410Y1149068D01*
X43202242Y1336229D01*
X43317773Y1549898D01*
X43389601Y1781938D01*
X43414992Y2023511D01*
X43414992Y456000D01*
X40874992Y456000D01*
X40874992Y2023511D01*
X40874992Y4563511D01*
X40852977Y4805415D01*
X40784395Y5038435D01*
X40671859Y5253697D01*
X40519655Y5443001D01*
X40333580Y5599136D01*
X40120722Y5716156D01*
X39889189Y5789603D01*
X39647799Y5816679D01*
X39630422Y5816800D01*
X39618378Y5816800D01*
X39376634Y5793097D01*
X39144098Y5722890D01*
X38929627Y5608854D01*
X38741390Y5455332D01*
X38586558Y5268171D01*
X38471027Y5054502D01*
X38399199Y4822462D01*
X38373808Y4580889D01*
X38395823Y4338985D01*
X38464405Y4105965D01*
X38576941Y3890703D01*
X38729145Y3701399D01*
X38915220Y3545264D01*
X39128078Y3428244D01*
X39359611Y3354797D01*
X39601001Y3327721D01*
X39618378Y3327600D01*
X39630422Y3327600D01*
X39872166Y3351303D01*
X40104702Y3421510D01*
X40319173Y3535546D01*
X40507410Y3689068D01*
X40662242Y3876229D01*
X40777773Y4089898D01*
X40849601Y4321938D01*
X40874992Y4563511D01*
X40874992Y2023511D01*
X40852977Y2265415D01*
X40784395Y2498435D01*
X40671859Y2713697D01*
X40519655Y2903001D01*
X40333580Y3059136D01*
X40120722Y3176156D01*
X39889189Y3249603D01*
X39647799Y3276679D01*
X39630422Y3276800D01*
X39618378Y3276800D01*
X39376634Y3253097D01*
X39144098Y3182890D01*
X38929627Y3068854D01*
X38741390Y2915332D01*
X38586558Y2728171D01*
X38471027Y2514502D01*
X38399199Y2282462D01*
X38373808Y2040889D01*
X38395823Y1798985D01*
X38464405Y1565965D01*
X38576941Y1350703D01*
X38729145Y1161399D01*
X38915220Y1005264D01*
X39128078Y888244D01*
X39359611Y814797D01*
X39601001Y787721D01*
X39618378Y787600D01*
X39630422Y787600D01*
X39872166Y811303D01*
X40104702Y881510D01*
X40319173Y995546D01*
X40507410Y1149068D01*
X40662242Y1336229D01*
X40777773Y1549898D01*
X40849601Y1781938D01*
X40874992Y2023511D01*
X40874992Y456000D01*
X38334992Y456000D01*
X38334992Y2023511D01*
X38334992Y4563511D01*
X38312977Y4805415D01*
X38244395Y5038435D01*
X38131859Y5253697D01*
X37979655Y5443001D01*
X37793580Y5599136D01*
X37580722Y5716156D01*
X37349189Y5789603D01*
X37107799Y5816679D01*
X37090422Y5816800D01*
X37078378Y5816800D01*
X36836634Y5793097D01*
X36604098Y5722890D01*
X36389627Y5608854D01*
X36201390Y5455332D01*
X36046558Y5268171D01*
X35931027Y5054502D01*
X35859199Y4822462D01*
X35833808Y4580889D01*
X35855823Y4338985D01*
X35924405Y4105965D01*
X36036941Y3890703D01*
X36189145Y3701399D01*
X36375220Y3545264D01*
X36588078Y3428244D01*
X36819611Y3354797D01*
X37061001Y3327721D01*
X37078378Y3327600D01*
X37090422Y3327600D01*
X37332166Y3351303D01*
X37564702Y3421510D01*
X37779173Y3535546D01*
X37967410Y3689068D01*
X38122242Y3876229D01*
X38237773Y4089898D01*
X38309601Y4321938D01*
X38334992Y4563511D01*
X38334992Y2023511D01*
X38312977Y2265415D01*
X38244395Y2498435D01*
X38131859Y2713697D01*
X37979655Y2903001D01*
X37793580Y3059136D01*
X37580722Y3176156D01*
X37349189Y3249603D01*
X37107799Y3276679D01*
X37090422Y3276800D01*
X37078378Y3276800D01*
X36836634Y3253097D01*
X36604098Y3182890D01*
X36389627Y3068854D01*
X36201390Y2915332D01*
X36046558Y2728171D01*
X35931027Y2514502D01*
X35859199Y2282462D01*
X35833808Y2040889D01*
X35855823Y1798985D01*
X35924405Y1565965D01*
X36036941Y1350703D01*
X36189145Y1161399D01*
X36375220Y1005264D01*
X36588078Y888244D01*
X36819611Y814797D01*
X37061001Y787721D01*
X37078378Y787600D01*
X37090422Y787600D01*
X37332166Y811303D01*
X37564702Y881510D01*
X37779173Y995546D01*
X37967410Y1149068D01*
X38122242Y1336229D01*
X38237773Y1549898D01*
X38309601Y1781938D01*
X38334992Y2023511D01*
X38334992Y456000D01*
X35794992Y456000D01*
X35794992Y2023511D01*
X35794992Y4563511D01*
X35772977Y4805415D01*
X35704395Y5038435D01*
X35591859Y5253697D01*
X35439655Y5443001D01*
X35253580Y5599136D01*
X35040722Y5716156D01*
X34809189Y5789603D01*
X34567799Y5816679D01*
X34550422Y5816800D01*
X34538378Y5816800D01*
X34296634Y5793097D01*
X34064098Y5722890D01*
X33849627Y5608854D01*
X33661390Y5455332D01*
X33506558Y5268171D01*
X33391027Y5054502D01*
X33319199Y4822462D01*
X33293808Y4580889D01*
X33315823Y4338985D01*
X33384405Y4105965D01*
X33496941Y3890703D01*
X33649145Y3701399D01*
X33835220Y3545264D01*
X34048078Y3428244D01*
X34279611Y3354797D01*
X34521001Y3327721D01*
X34538378Y3327600D01*
X34550422Y3327600D01*
X34792166Y3351303D01*
X35024702Y3421510D01*
X35239173Y3535546D01*
X35427410Y3689068D01*
X35582242Y3876229D01*
X35697773Y4089898D01*
X35769601Y4321938D01*
X35794992Y4563511D01*
X35794992Y2023511D01*
X35772977Y2265415D01*
X35704395Y2498435D01*
X35591859Y2713697D01*
X35439655Y2903001D01*
X35253580Y3059136D01*
X35040722Y3176156D01*
X34809189Y3249603D01*
X34567799Y3276679D01*
X34550422Y3276800D01*
X34538378Y3276800D01*
X34296634Y3253097D01*
X34064098Y3182890D01*
X33849627Y3068854D01*
X33661390Y2915332D01*
X33506558Y2728171D01*
X33503000Y2721591D01*
X33503000Y2833258D01*
X33503000Y2958342D01*
X33478597Y3081023D01*
X33430730Y3196585D01*
X33361237Y3300589D01*
X33272789Y3389037D01*
X33168785Y3458530D01*
X33053223Y3506397D01*
X32930542Y3530800D01*
X32690247Y3530800D01*
X32699173Y3535546D01*
X32887410Y3689068D01*
X33042242Y3876229D01*
X33157773Y4089898D01*
X33229601Y4321938D01*
X33254992Y4563511D01*
X33232977Y4805415D01*
X33164395Y5038435D01*
X33051859Y5253697D01*
X32899655Y5443001D01*
X32713580Y5599136D01*
X32500722Y5716156D01*
X32269189Y5789603D01*
X32027799Y5816679D01*
X32010422Y5816800D01*
X31998378Y5816800D01*
X31756634Y5793097D01*
X31524098Y5722890D01*
X31309627Y5608854D01*
X31121390Y5455332D01*
X30966558Y5268171D01*
X30851027Y5054502D01*
X30779199Y4822462D01*
X30753808Y4580889D01*
X30775823Y4338985D01*
X30844405Y4105965D01*
X30956941Y3890703D01*
X31109145Y3701399D01*
X31295220Y3545264D01*
X31321529Y3530800D01*
X31078258Y3530800D01*
X30955577Y3506397D01*
X30840015Y3458530D01*
X30736011Y3389037D01*
X30647563Y3300589D01*
X30578070Y3196585D01*
X30530203Y3081023D01*
X30505800Y2958342D01*
X30505800Y2833258D01*
X30505800Y2317950D01*
X30664550Y2159200D01*
X31877400Y2159200D01*
X31877400Y2179200D01*
X32131400Y2179200D01*
X32131400Y2159200D01*
X32151400Y2159200D01*
X32151400Y1905200D01*
X32131400Y1905200D01*
X32131400Y692350D01*
X32290150Y533600D01*
X32930542Y533600D01*
X33053223Y558003D01*
X33168785Y605870D01*
X33272789Y675363D01*
X33361237Y763811D01*
X33430730Y867815D01*
X33478597Y983377D01*
X33503000Y1106058D01*
X33503000Y1231142D01*
X33503000Y1343168D01*
X33649145Y1161399D01*
X33835220Y1005264D01*
X34048078Y888244D01*
X34279611Y814797D01*
X34521001Y787721D01*
X34538378Y787600D01*
X34550422Y787600D01*
X34792166Y811303D01*
X35024702Y881510D01*
X35239173Y995546D01*
X35427410Y1149068D01*
X35582242Y1336229D01*
X35697773Y1549898D01*
X35769601Y1781938D01*
X35794992Y2023511D01*
X35794992Y456000D01*
X31877400Y456000D01*
X31877400Y692350D01*
X31877400Y1905200D01*
X30664550Y1905200D01*
X30505800Y1746450D01*
X30505800Y1231142D01*
X30505800Y1106058D01*
X30530203Y983377D01*
X30578070Y867815D01*
X30647563Y763811D01*
X30736011Y675363D01*
X30840015Y605870D01*
X30955577Y558003D01*
X31078258Y533600D01*
X31718650Y533600D01*
X31877400Y692350D01*
X31877400Y456000D01*
X28379358Y456000D01*
X28379358Y1673174D01*
X28379358Y2391226D01*
X28333622Y2542014D01*
X28207084Y2807144D01*
X28031254Y3042493D01*
X27812888Y3239017D01*
X27560378Y3389164D01*
X27430380Y3435164D01*
X27619173Y3535546D01*
X27807410Y3689068D01*
X27962242Y3876229D01*
X28077773Y4089898D01*
X28149601Y4321938D01*
X28174992Y4563511D01*
X28152977Y4805415D01*
X28084395Y5038435D01*
X27971859Y5253697D01*
X27819655Y5443001D01*
X27633580Y5599136D01*
X27420722Y5716156D01*
X27189189Y5789603D01*
X26947799Y5816679D01*
X26930422Y5816800D01*
X26918378Y5816800D01*
X26676634Y5793097D01*
X26444098Y5722890D01*
X26229627Y5608854D01*
X26041390Y5455332D01*
X25886558Y5268171D01*
X25771027Y5054502D01*
X25699199Y4822462D01*
X25673808Y4580889D01*
X25695823Y4338985D01*
X25764405Y4105965D01*
X25876941Y3890703D01*
X26029145Y3701399D01*
X26215220Y3545264D01*
X26416638Y3434534D01*
X26288422Y3389164D01*
X26035912Y3239017D01*
X25817546Y3042493D01*
X25641716Y2807144D01*
X25634992Y2793056D01*
X25634992Y4563511D01*
X25612977Y4805415D01*
X25544395Y5038435D01*
X25431859Y5253697D01*
X25279655Y5443001D01*
X25093580Y5599136D01*
X24880722Y5716156D01*
X24649189Y5789603D01*
X24407799Y5816679D01*
X24390422Y5816800D01*
X24378378Y5816800D01*
X24136634Y5793097D01*
X23904098Y5722890D01*
X23689627Y5608854D01*
X23501390Y5455332D01*
X23346558Y5268171D01*
X23231027Y5054502D01*
X23159199Y4822462D01*
X23133808Y4580889D01*
X23155823Y4338985D01*
X23224405Y4105965D01*
X23336941Y3890703D01*
X23489145Y3701399D01*
X23675220Y3545264D01*
X23888078Y3428244D01*
X24119611Y3354797D01*
X24361001Y3327721D01*
X24378378Y3327600D01*
X24390422Y3327600D01*
X24632166Y3351303D01*
X24864702Y3421510D01*
X25079173Y3535546D01*
X25267410Y3689068D01*
X25422242Y3876229D01*
X25537773Y4089898D01*
X25609601Y4321938D01*
X25634992Y4563511D01*
X25634992Y2793056D01*
X25518248Y2548449D01*
X25431859Y2713697D01*
X25279655Y2903001D01*
X25093580Y3059136D01*
X24880722Y3176156D01*
X24649189Y3249603D01*
X24407799Y3276679D01*
X24390422Y3276800D01*
X24378378Y3276800D01*
X24136634Y3253097D01*
X23904098Y3182890D01*
X23689627Y3068854D01*
X23501390Y2915332D01*
X23346558Y2728171D01*
X23250002Y2549597D01*
X23127084Y2807144D01*
X22951254Y3042493D01*
X22732888Y3239017D01*
X22480378Y3389164D01*
X22350380Y3435164D01*
X22539173Y3535546D01*
X22727410Y3689068D01*
X22882242Y3876229D01*
X22997773Y4089898D01*
X23069601Y4321938D01*
X23094992Y4563511D01*
X23072977Y4805415D01*
X23004395Y5038435D01*
X22891859Y5253697D01*
X22739655Y5443001D01*
X22553580Y5599136D01*
X22340722Y5716156D01*
X22109189Y5789603D01*
X21867799Y5816679D01*
X21850422Y5816800D01*
X21838378Y5816800D01*
X21596634Y5793097D01*
X21364098Y5722890D01*
X21149627Y5608854D01*
X20961390Y5455332D01*
X20806558Y5268171D01*
X20691027Y5054502D01*
X20619199Y4822462D01*
X20593808Y4580889D01*
X20615823Y4338985D01*
X20684405Y4105965D01*
X20796941Y3890703D01*
X20949145Y3701399D01*
X21135220Y3545264D01*
X21336638Y3434534D01*
X21208422Y3389164D01*
X20955912Y3239017D01*
X20737546Y3042493D01*
X20574400Y2824122D01*
X20411254Y3042493D01*
X20192888Y3239017D01*
X19940378Y3389164D01*
X19810380Y3435164D01*
X19999173Y3535546D01*
X20187410Y3689068D01*
X20342242Y3876229D01*
X20457773Y4089898D01*
X20529601Y4321938D01*
X20554992Y4563511D01*
X20532977Y4805415D01*
X20464395Y5038435D01*
X20351859Y5253697D01*
X20199655Y5443001D01*
X20013580Y5599136D01*
X19800722Y5716156D01*
X19569189Y5789603D01*
X19327799Y5816679D01*
X19310422Y5816800D01*
X19298378Y5816800D01*
X19056634Y5793097D01*
X18824098Y5722890D01*
X18609627Y5608854D01*
X18421390Y5455332D01*
X18266558Y5268171D01*
X18151027Y5054502D01*
X18079199Y4822462D01*
X18053808Y4580889D01*
X18075823Y4338985D01*
X18144405Y4105965D01*
X18256941Y3890703D01*
X18409145Y3701399D01*
X18595220Y3545264D01*
X18796638Y3434534D01*
X18668422Y3389164D01*
X18415912Y3239017D01*
X18197546Y3042493D01*
X18021716Y2807144D01*
X18014992Y2793056D01*
X18014992Y4563511D01*
X17992977Y4805415D01*
X17924395Y5038435D01*
X17811859Y5253697D01*
X17659655Y5443001D01*
X17473580Y5599136D01*
X17260722Y5716156D01*
X17029189Y5789603D01*
X16787799Y5816679D01*
X16770422Y5816800D01*
X16758378Y5816800D01*
X16516634Y5793097D01*
X16284098Y5722890D01*
X16069627Y5608854D01*
X15881390Y5455332D01*
X15726558Y5268171D01*
X15611027Y5054502D01*
X15539199Y4822462D01*
X15513808Y4580889D01*
X15535823Y4338985D01*
X15604405Y4105965D01*
X15716941Y3890703D01*
X15869145Y3701399D01*
X16055220Y3545264D01*
X16268078Y3428244D01*
X16499611Y3354797D01*
X16741001Y3327721D01*
X16758378Y3327600D01*
X16770422Y3327600D01*
X17012166Y3351303D01*
X17244702Y3421510D01*
X17459173Y3535546D01*
X17647410Y3689068D01*
X17802242Y3876229D01*
X17917773Y4089898D01*
X17989601Y4321938D01*
X18014992Y4563511D01*
X18014992Y2793056D01*
X18010843Y2784363D01*
X18010843Y2895800D01*
X18005818Y2957626D01*
X17973736Y3060225D01*
X17914396Y3149860D01*
X17832475Y3219465D01*
X17734433Y3263551D01*
X17628000Y3278643D01*
X15900800Y3278643D01*
X15838974Y3273618D01*
X15736375Y3241536D01*
X15646740Y3182196D01*
X15577135Y3100275D01*
X15533049Y3002233D01*
X15517957Y2895800D01*
X15517957Y1168600D01*
X15522982Y1106774D01*
X15555064Y1004175D01*
X15614404Y914540D01*
X15696325Y844935D01*
X15794367Y800849D01*
X15900800Y785757D01*
X17628000Y785757D01*
X17689826Y790782D01*
X17792425Y822864D01*
X17882060Y882204D01*
X17951665Y964125D01*
X17995751Y1062167D01*
X18010843Y1168600D01*
X18010843Y1280038D01*
X18021716Y1257256D01*
X18197546Y1021907D01*
X18415912Y825383D01*
X18668422Y675236D01*
X18945373Y577237D01*
X19177400Y697736D01*
X19177400Y1905200D01*
X19157400Y1905200D01*
X19157400Y2159200D01*
X19177400Y2159200D01*
X19177400Y2179200D01*
X19431400Y2179200D01*
X19431400Y2159200D01*
X20510583Y2159200D01*
X20638217Y2159200D01*
X21717400Y2159200D01*
X21717400Y2179200D01*
X21971400Y2179200D01*
X21971400Y2159200D01*
X21991400Y2159200D01*
X21991400Y1905200D01*
X21971400Y1905200D01*
X21971400Y697736D01*
X22203427Y577237D01*
X22480378Y675236D01*
X22732888Y825383D01*
X22951254Y1021907D01*
X23127084Y1257256D01*
X23250551Y1515952D01*
X23336941Y1350703D01*
X23489145Y1161399D01*
X23675220Y1005264D01*
X23888078Y888244D01*
X24119611Y814797D01*
X24361001Y787721D01*
X24378378Y787600D01*
X24390422Y787600D01*
X24632166Y811303D01*
X24864702Y881510D01*
X25079173Y995546D01*
X25267410Y1149068D01*
X25422242Y1336229D01*
X25518797Y1514804D01*
X25641716Y1257256D01*
X25817546Y1021907D01*
X26035912Y825383D01*
X26288422Y675236D01*
X26565373Y577237D01*
X26797400Y697736D01*
X26797400Y1905200D01*
X26777400Y1905200D01*
X26777400Y2159200D01*
X26797400Y2159200D01*
X26797400Y2179200D01*
X27051400Y2179200D01*
X27051400Y2159200D01*
X28258217Y2159200D01*
X28379358Y2391226D01*
X28379358Y1673174D01*
X28258217Y1905200D01*
X27051400Y1905200D01*
X27051400Y697736D01*
X27283427Y577237D01*
X27560378Y675236D01*
X27812888Y825383D01*
X28031254Y1021907D01*
X28207084Y1257256D01*
X28333622Y1522386D01*
X28379358Y1673174D01*
X28379358Y456000D01*
X21717400Y456000D01*
X21717400Y697736D01*
X21717400Y1905200D01*
X20638217Y1905200D01*
X20510583Y1905200D01*
X19431400Y1905200D01*
X19431400Y697736D01*
X19663427Y577237D01*
X19940378Y675236D01*
X20192888Y825383D01*
X20411254Y1021907D01*
X20574400Y1240279D01*
X20737546Y1021907D01*
X20955912Y825383D01*
X21208422Y675236D01*
X21485373Y577237D01*
X21717400Y697736D01*
X21717400Y456000D01*
X20066000Y456000D01*
X5314992Y456000D01*
X5314992Y45203311D01*
X5292977Y45445215D01*
X5224395Y45678235D01*
X5111859Y45893497D01*
X4959655Y46082801D01*
X4773580Y46238936D01*
X4560722Y46355956D01*
X4329189Y46429403D01*
X4087799Y46456479D01*
X4070422Y46456600D01*
X4058378Y46456600D01*
X3816634Y46432897D01*
X3584098Y46362690D01*
X3369627Y46248654D01*
X3181390Y46095132D01*
X3026558Y45907971D01*
X2911027Y45694302D01*
X2839199Y45462262D01*
X2813808Y45220689D01*
X2835823Y44978785D01*
X2904405Y44745765D01*
X3016941Y44530503D01*
X3169145Y44341199D01*
X3355220Y44185064D01*
X3568078Y44068044D01*
X3799611Y43994597D01*
X4041001Y43967521D01*
X4058378Y43967400D01*
X4070422Y43967400D01*
X4312166Y43991103D01*
X4544702Y44061310D01*
X4759173Y44175346D01*
X4947410Y44328868D01*
X5102242Y44516029D01*
X5217773Y44729698D01*
X5289601Y44961738D01*
X5314992Y45203311D01*
X5314992Y456000D01*
X2540000Y456000D01*
X456000Y456000D01*
X456000Y49328000D01*
X2540000Y49328000D01*
X12541980Y49328000D01*
X12126983Y48913004D01*
X11949189Y48969403D01*
X11707799Y48996479D01*
X11690422Y48996600D01*
X11678378Y48996600D01*
X11436634Y48972897D01*
X11204098Y48902690D01*
X10989627Y48788654D01*
X10801390Y48635132D01*
X10646558Y48447971D01*
X10550002Y48269397D01*
X10427084Y48526944D01*
X10251254Y48762293D01*
X10032888Y48958817D01*
X9780378Y49108964D01*
X9503427Y49206963D01*
X9271400Y49086464D01*
X9271400Y47879000D01*
X9291400Y47879000D01*
X9291400Y47625000D01*
X9271400Y47625000D01*
X9271400Y47605000D01*
X9017400Y47605000D01*
X9017400Y47625000D01*
X9017400Y47879000D01*
X9017400Y49086464D01*
X8785373Y49206963D01*
X8508422Y49108964D01*
X8255912Y48958817D01*
X8037546Y48762293D01*
X7874400Y48543922D01*
X7711254Y48762293D01*
X7492888Y48958817D01*
X7240378Y49108964D01*
X6963427Y49206963D01*
X6731400Y49086464D01*
X6731400Y47879000D01*
X7810583Y47879000D01*
X7938217Y47879000D01*
X9017400Y47879000D01*
X9017400Y47625000D01*
X7938217Y47625000D01*
X7810583Y47625000D01*
X6731400Y47625000D01*
X6731400Y47605000D01*
X6477400Y47605000D01*
X6477400Y47625000D01*
X6457400Y47625000D01*
X6457400Y47879000D01*
X6477400Y47879000D01*
X6477400Y49086464D01*
X6245373Y49206963D01*
X5968422Y49108964D01*
X5715912Y48958817D01*
X5497546Y48762293D01*
X5321716Y48526944D01*
X5310843Y48504163D01*
X5310843Y48615600D01*
X5305818Y48677426D01*
X5273736Y48780025D01*
X5214396Y48869660D01*
X5132475Y48939265D01*
X5034433Y48983351D01*
X4928000Y48998443D01*
X3200800Y48998443D01*
X3138974Y48993418D01*
X3036375Y48961336D01*
X2946740Y48901996D01*
X2877135Y48820075D01*
X2833049Y48722033D01*
X2817957Y48615600D01*
X2817957Y46888400D01*
X2822982Y46826574D01*
X2855064Y46723975D01*
X2914404Y46634340D01*
X2996325Y46564735D01*
X3094367Y46520649D01*
X3200800Y46505557D01*
X4928000Y46505557D01*
X4989826Y46510582D01*
X5092425Y46542664D01*
X5182060Y46602004D01*
X5251665Y46683925D01*
X5295751Y46781967D01*
X5310843Y46888400D01*
X5310843Y46999838D01*
X5321716Y46977056D01*
X5497546Y46741707D01*
X5715912Y46545183D01*
X5968422Y46395036D01*
X6098419Y46349037D01*
X5909627Y46248654D01*
X5721390Y46095132D01*
X5566558Y45907971D01*
X5451027Y45694302D01*
X5379199Y45462262D01*
X5353808Y45220689D01*
X5375823Y44978785D01*
X5444405Y44745765D01*
X5556941Y44530503D01*
X5709145Y44341199D01*
X5895220Y44185064D01*
X6108078Y44068044D01*
X6339611Y43994597D01*
X6581001Y43967521D01*
X6598378Y43967400D01*
X6610422Y43967400D01*
X6852166Y43991103D01*
X7084702Y44061310D01*
X7299173Y44175346D01*
X7487410Y44328868D01*
X7642242Y44516029D01*
X7757773Y44729698D01*
X7829601Y44961738D01*
X7854992Y45203311D01*
X7832977Y45445215D01*
X7764395Y45678235D01*
X7651859Y45893497D01*
X7499655Y46082801D01*
X7313580Y46238936D01*
X7112161Y46349667D01*
X7240378Y46395036D01*
X7492888Y46545183D01*
X7711254Y46741707D01*
X7874400Y46960079D01*
X8037546Y46741707D01*
X8255912Y46545183D01*
X8508422Y46395036D01*
X8638419Y46349037D01*
X8449627Y46248654D01*
X8261390Y46095132D01*
X8106558Y45907971D01*
X7991027Y45694302D01*
X7919199Y45462262D01*
X7893808Y45220689D01*
X7915823Y44978785D01*
X7984405Y44745765D01*
X8096941Y44530503D01*
X8249145Y44341199D01*
X8435220Y44185064D01*
X8648078Y44068044D01*
X8879611Y43994597D01*
X9121001Y43967521D01*
X9138378Y43967400D01*
X9150422Y43967400D01*
X9392166Y43991103D01*
X9587808Y44050172D01*
X11325189Y42312790D01*
X11361452Y42283004D01*
X11397397Y42252842D01*
X11399739Y42251555D01*
X11401802Y42249860D01*
X11443114Y42227709D01*
X11484278Y42205079D01*
X11486827Y42204271D01*
X11489178Y42203010D01*
X11534024Y42189299D01*
X11578781Y42175101D01*
X11581434Y42174804D01*
X11583990Y42174022D01*
X11630717Y42169276D01*
X11677307Y42164050D01*
X11682525Y42164014D01*
X11682626Y42164003D01*
X11682719Y42164012D01*
X11684400Y42164000D01*
X17704828Y42164000D01*
X17717495Y42150883D01*
X17827160Y42074664D01*
X17949541Y42021197D01*
X18079977Y41992519D01*
X18213498Y41989722D01*
X18345020Y42012913D01*
X18469533Y42061208D01*
X18582294Y42132768D01*
X18679008Y42224868D01*
X18755991Y42333998D01*
X18768495Y42362085D01*
X27245789Y33884791D01*
X27282027Y33855025D01*
X27317996Y33824843D01*
X27320338Y33823556D01*
X27322401Y33821861D01*
X27363748Y33799691D01*
X27404877Y33777080D01*
X27407422Y33776273D01*
X27409777Y33775010D01*
X27454669Y33761286D01*
X27499380Y33747102D01*
X27502033Y33746805D01*
X27504589Y33746023D01*
X27551311Y33741278D01*
X27597906Y33736051D01*
X27603125Y33736015D01*
X27603226Y33736004D01*
X27603319Y33736013D01*
X27604999Y33736001D01*
X33685201Y33736001D01*
X33731904Y33740581D01*
X33778649Y33744670D01*
X33781214Y33745416D01*
X33783872Y33745676D01*
X33828757Y33759228D01*
X33873856Y33772330D01*
X33876230Y33773561D01*
X33878785Y33774332D01*
X33920178Y33796341D01*
X33961878Y33817956D01*
X33963967Y33819624D01*
X33966324Y33820877D01*
X34002709Y33850553D01*
X34017237Y33862151D01*
X34037698Y33861722D01*
X34169220Y33884913D01*
X34293733Y33933208D01*
X34406494Y34004768D01*
X34503208Y34096868D01*
X34580191Y34205998D01*
X34634511Y34328003D01*
X34664099Y34458235D01*
X34666229Y34610775D01*
X34640289Y34741783D01*
X34589397Y34865257D01*
X34515491Y34976494D01*
X34421386Y35071258D01*
X34310667Y35145939D01*
X34187552Y35197692D01*
X34056728Y35224546D01*
X33923181Y35225479D01*
X33791995Y35200454D01*
X33668169Y35150425D01*
X33556418Y35077297D01*
X33461000Y34983856D01*
X33435774Y34947016D01*
X33421089Y35021183D01*
X33370197Y35144657D01*
X33296291Y35255894D01*
X33202186Y35350658D01*
X33091467Y35425339D01*
X32968352Y35477092D01*
X32837528Y35503946D01*
X32703981Y35504879D01*
X32572795Y35479854D01*
X32448969Y35429825D01*
X32337218Y35356697D01*
X32311385Y35331400D01*
X27774848Y35331400D01*
X19120752Y43985496D01*
X19281001Y43967521D01*
X19298378Y43967400D01*
X19310422Y43967400D01*
X19552166Y43991103D01*
X19784702Y44061310D01*
X19999173Y44175346D01*
X20066400Y44230175D01*
X20066400Y43941600D01*
X20070979Y43894897D01*
X20075069Y43848152D01*
X20075814Y43845587D01*
X20076075Y43842929D01*
X20089626Y43798044D01*
X20102729Y43752945D01*
X20103959Y43750571D01*
X20104731Y43748016D01*
X20126739Y43706623D01*
X20148355Y43664923D01*
X20150022Y43662834D01*
X20151276Y43660477D01*
X20180951Y43624092D01*
X20210210Y43587441D01*
X20213872Y43583727D01*
X20213938Y43583646D01*
X20214012Y43583585D01*
X20215190Y43582390D01*
X23638639Y40158941D01*
X23674877Y40129175D01*
X23710846Y40098993D01*
X23713188Y40097706D01*
X23715251Y40096011D01*
X23756598Y40073841D01*
X23797727Y40051230D01*
X23800272Y40050423D01*
X23802627Y40049160D01*
X23847519Y40035436D01*
X23892230Y40021252D01*
X23894883Y40020955D01*
X23897439Y40020173D01*
X23944161Y40015428D01*
X23990756Y40010201D01*
X23995975Y40010165D01*
X23996076Y40010154D01*
X23996169Y40010163D01*
X23997849Y40010151D01*
X27068379Y40010151D01*
X27081046Y39997034D01*
X27190711Y39920815D01*
X27313092Y39867348D01*
X27443528Y39838670D01*
X27577049Y39835873D01*
X27708571Y39859064D01*
X27833084Y39907359D01*
X27945845Y39978919D01*
X28042559Y40071019D01*
X28119542Y40180149D01*
X28173862Y40302154D01*
X28203450Y40432386D01*
X28205580Y40584926D01*
X28179640Y40715934D01*
X28128748Y40839408D01*
X28054842Y40950645D01*
X27960737Y41045409D01*
X27850018Y41120090D01*
X27726903Y41171843D01*
X27596079Y41198697D01*
X27462532Y41199630D01*
X27331346Y41174605D01*
X27207520Y41124576D01*
X27095769Y41051448D01*
X27069936Y41026151D01*
X24208268Y41026151D01*
X21082400Y44152020D01*
X21082400Y44229386D01*
X21135220Y44185064D01*
X21348078Y44068044D01*
X21579611Y43994597D01*
X21821001Y43967521D01*
X21838378Y43967400D01*
X21850422Y43967400D01*
X22092166Y43991103D01*
X22324702Y44061310D01*
X22539173Y44175346D01*
X22727410Y44328868D01*
X22882242Y44516029D01*
X22997773Y44729698D01*
X23069601Y44961738D01*
X23094992Y45203311D01*
X23072977Y45445215D01*
X23004395Y45678235D01*
X22891859Y45893497D01*
X22739655Y46082801D01*
X22553580Y46238936D01*
X22352161Y46349667D01*
X22480378Y46395036D01*
X22732888Y46545183D01*
X22951254Y46741707D01*
X23114400Y46960079D01*
X23277546Y46741707D01*
X23495912Y46545183D01*
X23748422Y46395036D01*
X23878419Y46349037D01*
X23689627Y46248654D01*
X23501390Y46095132D01*
X23346558Y45907971D01*
X23231027Y45694302D01*
X23159199Y45462262D01*
X23133808Y45220689D01*
X23155823Y44978785D01*
X23224405Y44745765D01*
X23336941Y44530503D01*
X23489145Y44341199D01*
X23675220Y44185064D01*
X23888078Y44068044D01*
X24119611Y43994597D01*
X24361001Y43967521D01*
X24378378Y43967400D01*
X24390422Y43967400D01*
X24632166Y43991103D01*
X24827808Y44050172D01*
X26057190Y42820790D01*
X26093428Y42791024D01*
X26129397Y42760842D01*
X26131739Y42759555D01*
X26133802Y42757860D01*
X26175149Y42735690D01*
X26216278Y42713079D01*
X26218823Y42712272D01*
X26221178Y42711009D01*
X26266070Y42697285D01*
X26310781Y42683101D01*
X26313434Y42682804D01*
X26315990Y42682022D01*
X26362712Y42677277D01*
X26409307Y42672050D01*
X26414526Y42672014D01*
X26414627Y42672003D01*
X26414720Y42672012D01*
X26416400Y42672000D01*
X32809580Y42672000D01*
X36134121Y39347459D01*
X36134121Y36492023D01*
X36138700Y36445320D01*
X36142790Y36398575D01*
X36143535Y36396010D01*
X36143796Y36393352D01*
X36157347Y36348467D01*
X36170450Y36303368D01*
X36171680Y36300994D01*
X36172452Y36298439D01*
X36194460Y36257046D01*
X36216076Y36215346D01*
X36217743Y36213257D01*
X36218997Y36210900D01*
X36248672Y36174515D01*
X36277931Y36137864D01*
X36281593Y36134150D01*
X36281659Y36134069D01*
X36281733Y36134008D01*
X36282911Y36132813D01*
X37316534Y35099190D01*
X37352772Y35069424D01*
X37388741Y35039242D01*
X37391083Y35037955D01*
X37393146Y35036260D01*
X37434474Y35014100D01*
X37475622Y34991479D01*
X37478169Y34990671D01*
X37480523Y34989409D01*
X37525400Y34975689D01*
X37570125Y34961501D01*
X37572778Y34961204D01*
X37575334Y34960422D01*
X37622056Y34955677D01*
X37640767Y34953578D01*
X37656503Y34937283D01*
X37766168Y34861064D01*
X37888549Y34807597D01*
X38018985Y34778919D01*
X38152506Y34776122D01*
X38284028Y34799313D01*
X38408541Y34847608D01*
X38521302Y34919168D01*
X38618016Y35011268D01*
X38694999Y35120398D01*
X38749319Y35242403D01*
X38778907Y35372635D01*
X38781037Y35525175D01*
X38755097Y35656183D01*
X38704205Y35779657D01*
X38630299Y35890894D01*
X38536194Y35985658D01*
X38425475Y36060339D01*
X38302360Y36112092D01*
X38171536Y36138946D01*
X38037989Y36139879D01*
X37906803Y36114854D01*
X37786368Y36066196D01*
X37406792Y36445772D01*
X37504655Y36483730D01*
X37617416Y36555290D01*
X37714130Y36647390D01*
X37791113Y36756520D01*
X37845433Y36878525D01*
X37875021Y37008757D01*
X37877151Y37161297D01*
X37851211Y37292305D01*
X37800319Y37415779D01*
X37726413Y37527016D01*
X37700784Y37552825D01*
X37699542Y37565486D01*
X37695453Y37612234D01*
X37694707Y37614800D01*
X37694447Y37617457D01*
X37680885Y37662376D01*
X37667792Y37707442D01*
X37666563Y37709813D01*
X37665791Y37712370D01*
X37643752Y37753820D01*
X37622166Y37795463D01*
X37620500Y37797549D01*
X37619246Y37799909D01*
X37589567Y37836299D01*
X37560312Y37872946D01*
X37556648Y37876662D01*
X37556584Y37876740D01*
X37556511Y37876801D01*
X37555332Y37877996D01*
X37531131Y37902197D01*
X37531131Y38183346D01*
X37545171Y38169306D01*
X37544886Y38148856D01*
X37568994Y38017499D01*
X37618158Y37893326D01*
X37690503Y37781068D01*
X37783276Y37684999D01*
X37892941Y37608780D01*
X38015322Y37555313D01*
X38145758Y37526635D01*
X38279279Y37523838D01*
X38410801Y37547029D01*
X38535314Y37595324D01*
X38648075Y37666884D01*
X38744789Y37758984D01*
X38821772Y37868114D01*
X38876092Y37990119D01*
X38905680Y38120351D01*
X38906672Y38191395D01*
X42786277Y34311790D01*
X42822515Y34282024D01*
X42858484Y34251842D01*
X42860826Y34250555D01*
X42862889Y34248860D01*
X42904217Y34226700D01*
X42945365Y34204079D01*
X42947912Y34203271D01*
X42950266Y34202009D01*
X42995143Y34188289D01*
X43039868Y34174101D01*
X43042521Y34173804D01*
X43045077Y34173022D01*
X43091799Y34168277D01*
X43138394Y34163050D01*
X43143613Y34163014D01*
X43143714Y34163003D01*
X43143807Y34163012D01*
X43145487Y34163000D01*
X47803828Y34163000D01*
X47816495Y34149883D01*
X47926160Y34073664D01*
X48048541Y34020197D01*
X48178977Y33991519D01*
X48312498Y33988722D01*
X48444020Y34011913D01*
X48568533Y34060208D01*
X48681294Y34131768D01*
X48778008Y34223868D01*
X48854991Y34332998D01*
X48909311Y34455003D01*
X48938899Y34585235D01*
X48941029Y34737775D01*
X48929104Y34798000D01*
X49065575Y34798000D01*
X49229390Y34634185D01*
X49229105Y34613736D01*
X49253213Y34482379D01*
X49302377Y34358206D01*
X49374722Y34245948D01*
X49467495Y34149879D01*
X49577160Y34073660D01*
X49699541Y34020193D01*
X49829977Y33991515D01*
X49963498Y33988718D01*
X50095020Y34011909D01*
X50219533Y34060204D01*
X50332294Y34131764D01*
X50429008Y34223864D01*
X50505991Y34332994D01*
X50560311Y34454999D01*
X50589899Y34585231D01*
X50592029Y34737771D01*
X50566089Y34868779D01*
X50515197Y34992253D01*
X50441291Y35103490D01*
X50347186Y35198254D01*
X50236467Y35272935D01*
X50113352Y35324688D01*
X49982528Y35351542D01*
X49948638Y35351779D01*
X49635206Y35665210D01*
X49598967Y35694977D01*
X49562999Y35725158D01*
X49560656Y35726446D01*
X49558594Y35728140D01*
X49517246Y35750311D01*
X49476118Y35772921D01*
X49473572Y35773729D01*
X49471218Y35774991D01*
X49426325Y35788716D01*
X49381615Y35802899D01*
X49378961Y35803197D01*
X49376406Y35803978D01*
X49329683Y35808724D01*
X49283089Y35813950D01*
X49277869Y35813987D01*
X49277769Y35813997D01*
X49277675Y35813989D01*
X49275996Y35814000D01*
X43439506Y35814000D01*
X40895763Y38357743D01*
X40948527Y38378208D01*
X41061288Y38449768D01*
X41158002Y38541868D01*
X41234985Y38650998D01*
X41289305Y38773003D01*
X41318893Y38903235D01*
X41320745Y39035921D01*
X42615876Y37740790D01*
X42652114Y37711024D01*
X42688083Y37680842D01*
X42690425Y37679555D01*
X42692488Y37677860D01*
X42733835Y37655690D01*
X42774964Y37633079D01*
X42777509Y37632272D01*
X42779864Y37631009D01*
X42824756Y37617285D01*
X42869467Y37603101D01*
X42872120Y37602804D01*
X42874676Y37602022D01*
X42921398Y37597277D01*
X42967993Y37592050D01*
X42973212Y37592014D01*
X42973313Y37592003D01*
X42973406Y37592012D01*
X42975086Y37592000D01*
X47954231Y37592000D01*
X48048541Y37550797D01*
X48178977Y37522119D01*
X48312498Y37519322D01*
X48444020Y37542513D01*
X48568533Y37590808D01*
X48681294Y37662368D01*
X48778008Y37754468D01*
X48854991Y37863598D01*
X48909311Y37985603D01*
X48938899Y38115835D01*
X48941029Y38268375D01*
X48915089Y38399383D01*
X48864197Y38522857D01*
X48790291Y38634094D01*
X48696186Y38728858D01*
X48585467Y38803539D01*
X48462352Y38855292D01*
X48331528Y38882146D01*
X48197981Y38883079D01*
X48066795Y38858054D01*
X47942969Y38808025D01*
X47911796Y38787627D01*
X47899089Y38851803D01*
X47848197Y38975277D01*
X47774291Y39086514D01*
X47752000Y39108962D01*
X47752000Y41021000D01*
X47747420Y41067700D01*
X47743331Y41114448D01*
X47742585Y41117014D01*
X47742325Y41119671D01*
X47728763Y41164590D01*
X47715670Y41209656D01*
X47714441Y41212027D01*
X47713669Y41214584D01*
X47691630Y41256034D01*
X47670044Y41297677D01*
X47668378Y41299763D01*
X47667124Y41302123D01*
X47637445Y41338513D01*
X47608190Y41375160D01*
X47604526Y41378876D01*
X47604462Y41378954D01*
X47604389Y41379015D01*
X47603210Y41380210D01*
X46057420Y42926000D01*
X48133323Y42926000D01*
X52937525Y38121798D01*
X52973788Y38092012D01*
X53009733Y38061850D01*
X53012075Y38060563D01*
X53014138Y38058868D01*
X53055450Y38036717D01*
X53096614Y38014087D01*
X53099163Y38013279D01*
X53101514Y38012018D01*
X53146360Y37998307D01*
X53191117Y37984109D01*
X53193770Y37983812D01*
X53196326Y37983030D01*
X53243008Y37978289D01*
X53261759Y37976186D01*
X53277495Y37959891D01*
X53387160Y37883672D01*
X53509541Y37830205D01*
X53639977Y37801527D01*
X53773498Y37798730D01*
X53905020Y37821921D01*
X54029533Y37870216D01*
X54142294Y37941776D01*
X54239008Y38033876D01*
X54315991Y38143006D01*
X54370311Y38265011D01*
X54399899Y38395243D01*
X54402029Y38547783D01*
X54376089Y38678791D01*
X54325197Y38802265D01*
X54251291Y38913502D01*
X54157186Y39008266D01*
X54046467Y39082947D01*
X53923352Y39134700D01*
X53792528Y39161554D01*
X53658981Y39162487D01*
X53527795Y39137462D01*
X53407361Y39088804D01*
X49570164Y42926000D01*
X51790916Y42926000D01*
X55604526Y39112390D01*
X55640764Y39082624D01*
X55676733Y39052442D01*
X55679075Y39051155D01*
X55681138Y39049460D01*
X55722466Y39027300D01*
X55763614Y39004679D01*
X55766161Y39003871D01*
X55768515Y39002609D01*
X55813392Y38988889D01*
X55858117Y38974701D01*
X55860770Y38974404D01*
X55863326Y38973622D01*
X55910048Y38968877D01*
X55928759Y38966778D01*
X55944495Y38950483D01*
X56054160Y38874264D01*
X56176541Y38820797D01*
X56306977Y38792119D01*
X56440498Y38789322D01*
X56572020Y38812513D01*
X56696533Y38860808D01*
X56809294Y38932368D01*
X56906008Y39024468D01*
X56982991Y39133598D01*
X57037311Y39255603D01*
X57066899Y39385835D01*
X57069029Y39538375D01*
X57043089Y39669383D01*
X56992197Y39792857D01*
X56918291Y39904094D01*
X56824186Y39998858D01*
X56713467Y40073539D01*
X56590352Y40125292D01*
X56459528Y40152146D01*
X56325981Y40153079D01*
X56194795Y40128054D01*
X56074360Y40079396D01*
X55564556Y40589200D01*
X55931828Y40589200D01*
X55944495Y40576083D01*
X56054160Y40499864D01*
X56176541Y40446397D01*
X56306977Y40417719D01*
X56440498Y40414922D01*
X56572020Y40438113D01*
X56696533Y40486408D01*
X56809294Y40557968D01*
X56906008Y40650068D01*
X56982991Y40759198D01*
X57028989Y40862513D01*
X60196711Y37694791D01*
X60232949Y37665025D01*
X60268918Y37634843D01*
X60271260Y37633556D01*
X60273323Y37631861D01*
X60314651Y37609701D01*
X60355799Y37587080D01*
X60358346Y37586272D01*
X60360700Y37585010D01*
X60405577Y37571290D01*
X60450302Y37557102D01*
X60452955Y37556805D01*
X60455511Y37556023D01*
X60502233Y37551278D01*
X60548828Y37546051D01*
X60554047Y37546015D01*
X60554148Y37546004D01*
X60554241Y37546013D01*
X60555921Y37546001D01*
X63758801Y37546001D01*
X63805504Y37550581D01*
X63852249Y37554670D01*
X63854814Y37555416D01*
X63857472Y37555676D01*
X63902357Y37569228D01*
X63947456Y37582330D01*
X63949830Y37583561D01*
X63952385Y37584332D01*
X63993778Y37606341D01*
X64035478Y37627956D01*
X64037567Y37629624D01*
X64039924Y37630877D01*
X64076309Y37660553D01*
X64090837Y37672151D01*
X64111298Y37671722D01*
X64242820Y37694913D01*
X64367333Y37743208D01*
X64480094Y37814768D01*
X64576808Y37906868D01*
X64653791Y38015998D01*
X64708111Y38138003D01*
X64737699Y38268235D01*
X64739829Y38420775D01*
X64713889Y38551783D01*
X64662997Y38675257D01*
X64589091Y38786494D01*
X64494986Y38881258D01*
X64384267Y38955939D01*
X64261152Y39007692D01*
X64130328Y39034546D01*
X63996781Y39035479D01*
X63865595Y39010454D01*
X63741769Y38960425D01*
X63630018Y38887297D01*
X63534600Y38793856D01*
X63459148Y38683662D01*
X63407003Y38562001D01*
X61816505Y38562001D01*
X61842095Y38674635D01*
X61844225Y38827175D01*
X61818285Y38958183D01*
X61767393Y39081657D01*
X61693487Y39192894D01*
X61599382Y39287658D01*
X61488663Y39362339D01*
X61391736Y39403084D01*
X56028965Y44765855D01*
X56089601Y44961738D01*
X56114992Y45203311D01*
X56092977Y45445215D01*
X56024395Y45678235D01*
X55911859Y45893497D01*
X55759655Y46082801D01*
X55573580Y46238936D01*
X55372161Y46349667D01*
X55500378Y46395036D01*
X55752888Y46545183D01*
X55971254Y46741707D01*
X56134400Y46960079D01*
X56297546Y46741707D01*
X56515912Y46545183D01*
X56768422Y46395036D01*
X56898419Y46349037D01*
X56709627Y46248654D01*
X56521390Y46095132D01*
X56366558Y45907971D01*
X56251027Y45694302D01*
X56179199Y45462262D01*
X56153808Y45220689D01*
X56175823Y44978785D01*
X56244405Y44745765D01*
X56356941Y44530503D01*
X56509145Y44341199D01*
X56695220Y44185064D01*
X56908078Y44068044D01*
X57139611Y43994597D01*
X57381001Y43967521D01*
X57398378Y43967400D01*
X57410422Y43967400D01*
X57652166Y43991103D01*
X57847808Y44050172D01*
X58823200Y43074780D01*
X58859438Y43045014D01*
X58895407Y43014832D01*
X58897749Y43013545D01*
X58899812Y43011850D01*
X58941140Y42989690D01*
X58982288Y42967069D01*
X58984835Y42966261D01*
X58987189Y42964999D01*
X59032066Y42951279D01*
X59076791Y42937091D01*
X59079444Y42936794D01*
X59082000Y42936012D01*
X59128722Y42931267D01*
X59175317Y42926040D01*
X59180536Y42926004D01*
X59180637Y42925993D01*
X59180730Y42926002D01*
X59182410Y42925990D01*
X62781590Y42925990D01*
X66802000Y38905580D01*
X66802000Y38809721D01*
X66785800Y38793856D01*
X66710348Y38683662D01*
X66657736Y38560910D01*
X66629970Y38430278D01*
X66628105Y38296740D01*
X66652213Y38165383D01*
X66701377Y38041210D01*
X66773722Y37928952D01*
X66866495Y37832883D01*
X66976160Y37756664D01*
X67098541Y37703197D01*
X67228977Y37674519D01*
X67362498Y37671722D01*
X67494020Y37694913D01*
X67618533Y37743208D01*
X67731294Y37814768D01*
X67828008Y37906868D01*
X67904991Y38015998D01*
X67945412Y38106788D01*
X67971377Y38041210D01*
X68043722Y37928952D01*
X68136495Y37832883D01*
X68246160Y37756664D01*
X68368541Y37703197D01*
X68498977Y37674519D01*
X68632498Y37671722D01*
X68764020Y37694913D01*
X68888533Y37743208D01*
X69001294Y37814768D01*
X69098008Y37906868D01*
X69151806Y37983132D01*
X69186722Y37928952D01*
X69279495Y37832883D01*
X69389160Y37756664D01*
X69511541Y37703197D01*
X69641977Y37674519D01*
X69775498Y37671722D01*
X69907020Y37694913D01*
X70031533Y37743208D01*
X70144294Y37814768D01*
X70241008Y37906868D01*
X70317991Y38015998D01*
X70372311Y38138003D01*
X70396720Y38245441D01*
X70411413Y38165383D01*
X70460577Y38041210D01*
X70532922Y37928952D01*
X70625695Y37832883D01*
X70735360Y37756664D01*
X70857741Y37703197D01*
X70988177Y37674519D01*
X71121698Y37671722D01*
X71253220Y37694913D01*
X71377733Y37743208D01*
X71490494Y37814768D01*
X71587208Y37906868D01*
X71664191Y38015998D01*
X71718511Y38138003D01*
X71728868Y38183594D01*
X71732211Y38165383D01*
X71781375Y38041210D01*
X71853720Y37928952D01*
X71946493Y37832883D01*
X72056158Y37756664D01*
X72178539Y37703197D01*
X72308975Y37674519D01*
X72442496Y37671722D01*
X72574018Y37694913D01*
X72698531Y37743208D01*
X72811292Y37814768D01*
X72908006Y37906868D01*
X72961805Y37983133D01*
X72996722Y37928952D01*
X73089495Y37832883D01*
X73199160Y37756664D01*
X73321541Y37703197D01*
X73451977Y37674519D01*
X73585498Y37671722D01*
X73717020Y37694913D01*
X73841533Y37743208D01*
X73954294Y37814768D01*
X74051008Y37906868D01*
X74127991Y38015998D01*
X74154968Y38076591D01*
X74168977Y38041210D01*
X74241322Y37928952D01*
X74334095Y37832883D01*
X74443760Y37756664D01*
X74566141Y37703197D01*
X74696577Y37674519D01*
X74830098Y37671722D01*
X74961620Y37694913D01*
X75086133Y37743208D01*
X75198894Y37814768D01*
X75295608Y37906868D01*
X75372591Y38015998D01*
X75426911Y38138003D01*
X75456499Y38268235D01*
X75458629Y38420775D01*
X75432689Y38551783D01*
X75381797Y38675257D01*
X75307891Y38786494D01*
X75285600Y38808942D01*
X75285600Y43078800D01*
X75281020Y43125500D01*
X75276931Y43172248D01*
X75276185Y43174814D01*
X75275925Y43177471D01*
X75262363Y43222390D01*
X75249270Y43267456D01*
X75248041Y43269827D01*
X75247269Y43272384D01*
X75225230Y43313834D01*
X75203644Y43355477D01*
X75201978Y43357563D01*
X75200724Y43359923D01*
X75171045Y43396313D01*
X75141790Y43432960D01*
X75138122Y43436680D01*
X75138062Y43436754D01*
X75137993Y43436811D01*
X75136810Y43438011D01*
X73808965Y44765855D01*
X73869601Y44961738D01*
X73894992Y45203311D01*
X73872977Y45445215D01*
X73804395Y45678235D01*
X73691859Y45893497D01*
X73539655Y46082801D01*
X73353580Y46238936D01*
X73152161Y46349667D01*
X73280378Y46395036D01*
X73532888Y46545183D01*
X73751254Y46741707D01*
X73914400Y46960079D01*
X74077546Y46741707D01*
X74295912Y46545183D01*
X74548422Y46395036D01*
X74678419Y46349037D01*
X74489627Y46248654D01*
X74301390Y46095132D01*
X74146558Y45907971D01*
X74031027Y45694302D01*
X73959199Y45462262D01*
X73933808Y45220689D01*
X73955823Y44978785D01*
X74024405Y44745765D01*
X74136941Y44530503D01*
X74289145Y44341199D01*
X74475220Y44185064D01*
X74688078Y44068044D01*
X74919611Y43994597D01*
X75161001Y43967521D01*
X75178378Y43967400D01*
X75190422Y43967400D01*
X75432166Y43991103D01*
X75627808Y44050172D01*
X75692000Y43985980D01*
X75692000Y38809717D01*
X75675800Y38793852D01*
X75600348Y38683658D01*
X75547736Y38560906D01*
X75519970Y38430274D01*
X75518105Y38296736D01*
X75542213Y38165379D01*
X75591377Y38041206D01*
X75663722Y37928948D01*
X75756495Y37832879D01*
X75866160Y37756660D01*
X75988541Y37703193D01*
X76118977Y37674515D01*
X76252498Y37671718D01*
X76384020Y37694909D01*
X76508533Y37743204D01*
X76621294Y37814764D01*
X76718008Y37906864D01*
X76794991Y38015994D01*
X76849311Y38137999D01*
X76878899Y38268231D01*
X76881029Y38420771D01*
X76855089Y38551779D01*
X76804197Y38675253D01*
X76730291Y38786490D01*
X76708000Y38808938D01*
X76708000Y44196400D01*
X76703420Y44243100D01*
X76699331Y44289848D01*
X76698585Y44292414D01*
X76698325Y44295071D01*
X76684763Y44339990D01*
X76671670Y44385056D01*
X76670441Y44387427D01*
X76669669Y44389984D01*
X76647630Y44431434D01*
X76626044Y44473077D01*
X76624378Y44475163D01*
X76623124Y44477523D01*
X76593445Y44513913D01*
X76564190Y44550560D01*
X76560526Y44554276D01*
X76560462Y44554354D01*
X76560389Y44554415D01*
X76559210Y44555610D01*
X76348965Y44765855D01*
X76409601Y44961738D01*
X76434992Y45203311D01*
X76412977Y45445215D01*
X76344395Y45678235D01*
X76231859Y45893497D01*
X76079655Y46082801D01*
X75893580Y46238936D01*
X75692161Y46349667D01*
X75820378Y46395036D01*
X76072888Y46545183D01*
X76291254Y46741707D01*
X76467084Y46977056D01*
X76593622Y47242186D01*
X76639358Y47392974D01*
X76639358Y48111026D01*
X76593622Y48261814D01*
X76467084Y48526944D01*
X76291254Y48762293D01*
X76072888Y48958817D01*
X75820378Y49108964D01*
X75543427Y49206963D01*
X75311400Y49086464D01*
X75311400Y47879000D01*
X76518217Y47879000D01*
X76639358Y48111026D01*
X76639358Y47392974D01*
X76518217Y47625000D01*
X75311400Y47625000D01*
X75311400Y47605000D01*
X75057400Y47605000D01*
X75057400Y47625000D01*
X75057400Y47879000D01*
X75057400Y49086464D01*
X74825373Y49206963D01*
X74548422Y49108964D01*
X74295912Y48958817D01*
X74077546Y48762293D01*
X73914400Y48543922D01*
X73751254Y48762293D01*
X73532888Y48958817D01*
X73280378Y49108964D01*
X73003427Y49206963D01*
X72771400Y49086464D01*
X72771400Y47879000D01*
X73850583Y47879000D01*
X73978217Y47879000D01*
X75057400Y47879000D01*
X75057400Y47625000D01*
X73978217Y47625000D01*
X73850583Y47625000D01*
X72771400Y47625000D01*
X72771400Y47605000D01*
X72517400Y47605000D01*
X72517400Y47625000D01*
X72517400Y47879000D01*
X72517400Y49086464D01*
X72285373Y49206963D01*
X72008422Y49108964D01*
X71755912Y48958817D01*
X71537546Y48762293D01*
X71374400Y48543922D01*
X71211254Y48762293D01*
X70992888Y48958817D01*
X70740378Y49108964D01*
X70463427Y49206963D01*
X70231400Y49086464D01*
X70231400Y47879000D01*
X71310583Y47879000D01*
X71438217Y47879000D01*
X72517400Y47879000D01*
X72517400Y47625000D01*
X71438217Y47625000D01*
X71310583Y47625000D01*
X70231400Y47625000D01*
X70231400Y47605000D01*
X69977400Y47605000D01*
X69977400Y47625000D01*
X69977400Y47879000D01*
X69977400Y49086464D01*
X69745373Y49206963D01*
X69468422Y49108964D01*
X69215912Y48958817D01*
X68997546Y48762293D01*
X68834400Y48543922D01*
X68671254Y48762293D01*
X68452888Y48958817D01*
X68200378Y49108964D01*
X67923427Y49206963D01*
X67691400Y49086464D01*
X67691400Y47879000D01*
X68770583Y47879000D01*
X68898217Y47879000D01*
X69977400Y47879000D01*
X69977400Y47625000D01*
X68898217Y47625000D01*
X68770583Y47625000D01*
X67691400Y47625000D01*
X67691400Y47605000D01*
X67437400Y47605000D01*
X67437400Y47625000D01*
X67437400Y47879000D01*
X67437400Y49086464D01*
X67205373Y49206963D01*
X66928422Y49108964D01*
X66675912Y48958817D01*
X66457546Y48762293D01*
X66294400Y48543922D01*
X66131254Y48762293D01*
X65912888Y48958817D01*
X65660378Y49108964D01*
X65383427Y49206963D01*
X65151400Y49086464D01*
X65151400Y47879000D01*
X66230583Y47879000D01*
X66358217Y47879000D01*
X67437400Y47879000D01*
X67437400Y47625000D01*
X66358217Y47625000D01*
X66230583Y47625000D01*
X65151400Y47625000D01*
X65151400Y47605000D01*
X64897400Y47605000D01*
X64897400Y47625000D01*
X64897400Y47879000D01*
X64897400Y49086464D01*
X64665373Y49206963D01*
X64388422Y49108964D01*
X64135912Y48958817D01*
X63917546Y48762293D01*
X63754400Y48543922D01*
X63591254Y48762293D01*
X63372888Y48958817D01*
X63120378Y49108964D01*
X62843427Y49206963D01*
X62611400Y49086464D01*
X62611400Y47879000D01*
X63690583Y47879000D01*
X63818217Y47879000D01*
X64897400Y47879000D01*
X64897400Y47625000D01*
X63818217Y47625000D01*
X63690583Y47625000D01*
X62611400Y47625000D01*
X62611400Y47605000D01*
X62357400Y47605000D01*
X62357400Y47625000D01*
X62357400Y47879000D01*
X62357400Y49086464D01*
X62125373Y49206963D01*
X61848422Y49108964D01*
X61595912Y48958817D01*
X61377546Y48762293D01*
X61214400Y48543922D01*
X61051254Y48762293D01*
X60832888Y48958817D01*
X60580378Y49108964D01*
X60303427Y49206963D01*
X60071400Y49086464D01*
X60071400Y47879000D01*
X61150583Y47879000D01*
X61278217Y47879000D01*
X62357400Y47879000D01*
X62357400Y47625000D01*
X61278217Y47625000D01*
X61150583Y47625000D01*
X60071400Y47625000D01*
X60071400Y47605000D01*
X59817400Y47605000D01*
X59817400Y47625000D01*
X59817400Y47879000D01*
X59817400Y49086464D01*
X59585373Y49206963D01*
X59308422Y49108964D01*
X59055912Y48958817D01*
X58837546Y48762293D01*
X58674400Y48543922D01*
X58511254Y48762293D01*
X58292888Y48958817D01*
X58040378Y49108964D01*
X57763427Y49206963D01*
X57531400Y49086464D01*
X57531400Y47879000D01*
X58610583Y47879000D01*
X58738217Y47879000D01*
X59817400Y47879000D01*
X59817400Y47625000D01*
X58738217Y47625000D01*
X58610583Y47625000D01*
X57531400Y47625000D01*
X57531400Y47605000D01*
X57277400Y47605000D01*
X57277400Y47625000D01*
X57277400Y47879000D01*
X57277400Y49086464D01*
X57045373Y49206963D01*
X56768422Y49108964D01*
X56515912Y48958817D01*
X56297546Y48762293D01*
X56134400Y48543922D01*
X55971254Y48762293D01*
X55752888Y48958817D01*
X55500378Y49108964D01*
X55223427Y49206963D01*
X54991400Y49086464D01*
X54991400Y47879000D01*
X56070583Y47879000D01*
X56198217Y47879000D01*
X57277400Y47879000D01*
X57277400Y47625000D01*
X56198217Y47625000D01*
X56070583Y47625000D01*
X54991400Y47625000D01*
X54991400Y47605000D01*
X54737400Y47605000D01*
X54737400Y47625000D01*
X54737400Y47879000D01*
X54737400Y49086464D01*
X54505373Y49206963D01*
X54228422Y49108964D01*
X53975912Y48958817D01*
X53757546Y48762293D01*
X53594400Y48543922D01*
X53431254Y48762293D01*
X53212888Y48958817D01*
X52960378Y49108964D01*
X52683427Y49206963D01*
X52451400Y49086464D01*
X52451400Y47879000D01*
X53530583Y47879000D01*
X53658217Y47879000D01*
X54737400Y47879000D01*
X54737400Y47625000D01*
X53658217Y47625000D01*
X53530583Y47625000D01*
X52451400Y47625000D01*
X52451400Y47605000D01*
X52197400Y47605000D01*
X52197400Y47625000D01*
X52197400Y47879000D01*
X52197400Y49086464D01*
X51965373Y49206963D01*
X51688422Y49108964D01*
X51435912Y48958817D01*
X51217546Y48762293D01*
X51054400Y48543922D01*
X50891254Y48762293D01*
X50672888Y48958817D01*
X50420378Y49108964D01*
X50143427Y49206963D01*
X49911400Y49086464D01*
X49911400Y47879000D01*
X50990583Y47879000D01*
X51118217Y47879000D01*
X52197400Y47879000D01*
X52197400Y47625000D01*
X51118217Y47625000D01*
X50990583Y47625000D01*
X49911400Y47625000D01*
X49911400Y47605000D01*
X49657400Y47605000D01*
X49657400Y47625000D01*
X49657400Y47879000D01*
X49657400Y49086464D01*
X49425373Y49206963D01*
X49148422Y49108964D01*
X48895912Y48958817D01*
X48718864Y48799479D01*
X48718597Y48800823D01*
X48670730Y48916385D01*
X48601237Y49020389D01*
X48512789Y49108837D01*
X48408785Y49178330D01*
X48293223Y49226197D01*
X48170542Y49250600D01*
X47530150Y49250600D01*
X47371400Y49091850D01*
X47371400Y47879000D01*
X48450583Y47879000D01*
X48584250Y47879000D01*
X49657400Y47879000D01*
X49657400Y47625000D01*
X48584250Y47625000D01*
X48450583Y47625000D01*
X47371400Y47625000D01*
X47371400Y47605000D01*
X47117400Y47605000D01*
X47117400Y47625000D01*
X47117400Y47879000D01*
X47117400Y49091850D01*
X46958650Y49250600D01*
X46318258Y49250600D01*
X46195577Y49226197D01*
X46080015Y49178330D01*
X45976011Y49108837D01*
X45887563Y49020389D01*
X45818070Y48916385D01*
X45770203Y48800823D01*
X45745800Y48678142D01*
X45745800Y48553058D01*
X45745800Y48037750D01*
X45904550Y47879000D01*
X47117400Y47879000D01*
X47117400Y47625000D01*
X45904550Y47625000D01*
X45745800Y47466250D01*
X45745800Y46950942D01*
X45745800Y46825858D01*
X45770203Y46703177D01*
X45818070Y46587615D01*
X45887563Y46483611D01*
X45976011Y46395163D01*
X46080015Y46325670D01*
X46195577Y46277803D01*
X46318258Y46253400D01*
X46558552Y46253400D01*
X46549627Y46248654D01*
X46361390Y46095132D01*
X46206558Y45907971D01*
X46091027Y45694302D01*
X46019199Y45462262D01*
X45993808Y45220689D01*
X46015823Y44978785D01*
X46084405Y44745765D01*
X46196941Y44530503D01*
X46349145Y44341199D01*
X46535220Y44185064D01*
X46748078Y44068044D01*
X46979611Y43994597D01*
X47221001Y43967521D01*
X47238378Y43967400D01*
X47250422Y43967400D01*
X47492166Y43991103D01*
X47687808Y44050172D01*
X47795979Y43942000D01*
X45580249Y43942000D01*
X43951039Y45571210D01*
X43914800Y45600977D01*
X43878832Y45631158D01*
X43876489Y45632446D01*
X43874427Y45634140D01*
X43833079Y45656311D01*
X43791951Y45678921D01*
X43789405Y45679729D01*
X43787051Y45680991D01*
X43742158Y45694716D01*
X43697448Y45708899D01*
X43694794Y45709197D01*
X43692239Y45709978D01*
X43645516Y45714724D01*
X43598922Y45719950D01*
X43593702Y45719987D01*
X43593602Y45719997D01*
X43593508Y45719989D01*
X43591829Y45720000D01*
X43302560Y45720000D01*
X43211859Y45893497D01*
X43059655Y46082801D01*
X42873580Y46238936D01*
X42672161Y46349667D01*
X42800378Y46395036D01*
X43052888Y46545183D01*
X43271254Y46741707D01*
X43447084Y46977056D01*
X43573622Y47242186D01*
X43619358Y47392974D01*
X43619358Y48111026D01*
X43573622Y48261814D01*
X43447084Y48526944D01*
X43271254Y48762293D01*
X43052888Y48958817D01*
X42800378Y49108964D01*
X42523427Y49206963D01*
X42291400Y49086464D01*
X42291400Y47879000D01*
X43498217Y47879000D01*
X43619358Y48111026D01*
X43619358Y47392974D01*
X43498217Y47625000D01*
X42291400Y47625000D01*
X42291400Y47605000D01*
X42037400Y47605000D01*
X42037400Y47625000D01*
X42037400Y47879000D01*
X42037400Y49086464D01*
X41805373Y49206963D01*
X41528422Y49108964D01*
X41275912Y48958817D01*
X41057546Y48762293D01*
X40894400Y48543922D01*
X40731254Y48762293D01*
X40512888Y48958817D01*
X40260378Y49108964D01*
X39983427Y49206963D01*
X39751400Y49086464D01*
X39751400Y47879000D01*
X40830583Y47879000D01*
X40958217Y47879000D01*
X42037400Y47879000D01*
X42037400Y47625000D01*
X40958217Y47625000D01*
X40830583Y47625000D01*
X39751400Y47625000D01*
X39751400Y47605000D01*
X39497400Y47605000D01*
X39497400Y47625000D01*
X39497400Y47879000D01*
X39497400Y49086464D01*
X39265373Y49206963D01*
X38988422Y49108964D01*
X38735912Y48958817D01*
X38517546Y48762293D01*
X38354400Y48543922D01*
X38191254Y48762293D01*
X37972888Y48958817D01*
X37720378Y49108964D01*
X37443427Y49206963D01*
X37211400Y49086464D01*
X37211400Y47879000D01*
X38290583Y47879000D01*
X38418217Y47879000D01*
X39497400Y47879000D01*
X39497400Y47625000D01*
X38418217Y47625000D01*
X38290583Y47625000D01*
X37211400Y47625000D01*
X37211400Y47605000D01*
X36957400Y47605000D01*
X36957400Y47625000D01*
X36937400Y47625000D01*
X36937400Y47879000D01*
X36957400Y47879000D01*
X36957400Y49086464D01*
X36725373Y49206963D01*
X36448422Y49108964D01*
X36255615Y48994318D01*
X36240045Y49024357D01*
X36238376Y49026447D01*
X36237124Y49028803D01*
X36207473Y49065159D01*
X36178191Y49101839D01*
X36174526Y49105556D01*
X36174462Y49105634D01*
X36174389Y49105695D01*
X36173210Y49106890D01*
X35952100Y49328000D01*
X56896000Y49328000D01*
X77724000Y49328000D01*
X78792000Y49328000D01*
X78792000Y48260000D01*
X78792000Y35560000D01*
X78792000Y456000D01*
X78792000Y456000D01*
G37*
X78792000Y456000D02*
X77724000Y456000D01*
X76638958Y456000D01*
X76638958Y1672974D01*
X76638958Y2391026D01*
X76593222Y2541814D01*
X76466684Y2806944D01*
X76290854Y3042293D01*
X76072488Y3238817D01*
X75819978Y3388964D01*
X75689980Y3434964D01*
X75878773Y3535346D01*
X76067010Y3688868D01*
X76221842Y3876029D01*
X76337373Y4089698D01*
X76409201Y4321738D01*
X76434592Y4563311D01*
X76412577Y4805215D01*
X76343995Y5038235D01*
X76231459Y5253497D01*
X76079255Y5442801D01*
X75893180Y5598936D01*
X75680322Y5715956D01*
X75448789Y5789403D01*
X75207399Y5816479D01*
X75190022Y5816600D01*
X75177978Y5816600D01*
X74936234Y5792897D01*
X74703698Y5722690D01*
X74489227Y5608654D01*
X74300990Y5455132D01*
X74146158Y5267971D01*
X74030627Y5054302D01*
X73958799Y4822262D01*
X73933408Y4580689D01*
X73955423Y4338785D01*
X74024005Y4105765D01*
X74136541Y3890503D01*
X74288745Y3701199D01*
X74474820Y3545064D01*
X74676238Y3434334D01*
X74548022Y3388964D01*
X74295512Y3238817D01*
X74077146Y3042293D01*
X73914000Y2823922D01*
X73750854Y3042293D01*
X73532488Y3238817D01*
X73279978Y3388964D01*
X73149980Y3434964D01*
X73338773Y3535346D01*
X73527010Y3688868D01*
X73681842Y3876029D01*
X73797373Y4089698D01*
X73869201Y4321738D01*
X73894592Y4563311D01*
X73872577Y4805215D01*
X73803995Y5038235D01*
X73691459Y5253497D01*
X73539255Y5442801D01*
X73353180Y5598936D01*
X73140322Y5715956D01*
X72908789Y5789403D01*
X72667399Y5816479D01*
X72650022Y5816600D01*
X72637978Y5816600D01*
X72396234Y5792897D01*
X72163698Y5722690D01*
X71949227Y5608654D01*
X71760990Y5455132D01*
X71606158Y5267971D01*
X71490627Y5054302D01*
X71418799Y4822262D01*
X71393408Y4580689D01*
X71415423Y4338785D01*
X71484005Y4105765D01*
X71596541Y3890503D01*
X71748745Y3701199D01*
X71934820Y3545064D01*
X72136238Y3434334D01*
X72008022Y3388964D01*
X71755512Y3238817D01*
X71537146Y3042293D01*
X71374000Y2823922D01*
X71210854Y3042293D01*
X70992488Y3238817D01*
X70739978Y3388964D01*
X70609980Y3434964D01*
X70798773Y3535346D01*
X70987010Y3688868D01*
X71141842Y3876029D01*
X71257373Y4089698D01*
X71329201Y4321738D01*
X71354592Y4563311D01*
X71332577Y4805215D01*
X71263995Y5038235D01*
X71151459Y5253497D01*
X70999255Y5442801D01*
X70813180Y5598936D01*
X70600322Y5715956D01*
X70368789Y5789403D01*
X70127399Y5816479D01*
X70110022Y5816600D01*
X70097978Y5816600D01*
X69856234Y5792897D01*
X69623698Y5722690D01*
X69409227Y5608654D01*
X69220990Y5455132D01*
X69066158Y5267971D01*
X68950627Y5054302D01*
X68878799Y4822262D01*
X68853408Y4580689D01*
X68875423Y4338785D01*
X68944005Y4105765D01*
X69056541Y3890503D01*
X69208745Y3701199D01*
X69394820Y3545064D01*
X69596238Y3434334D01*
X69468022Y3388964D01*
X69215512Y3238817D01*
X68997146Y3042293D01*
X68834000Y2823922D01*
X68670854Y3042293D01*
X68452488Y3238817D01*
X68199978Y3388964D01*
X68069980Y3434964D01*
X68258773Y3535346D01*
X68447010Y3688868D01*
X68601842Y3876029D01*
X68717373Y4089698D01*
X68789201Y4321738D01*
X68814592Y4563311D01*
X68792577Y4805215D01*
X68723995Y5038235D01*
X68611459Y5253497D01*
X68459255Y5442801D01*
X68273180Y5598936D01*
X68060322Y5715956D01*
X67828789Y5789403D01*
X67587399Y5816479D01*
X67570022Y5816600D01*
X67557978Y5816600D01*
X67316234Y5792897D01*
X67083698Y5722690D01*
X66869227Y5608654D01*
X66680990Y5455132D01*
X66526158Y5267971D01*
X66410627Y5054302D01*
X66338799Y4822262D01*
X66313408Y4580689D01*
X66335423Y4338785D01*
X66404005Y4105765D01*
X66516541Y3890503D01*
X66668745Y3701199D01*
X66854820Y3545064D01*
X67056238Y3434334D01*
X66928022Y3388964D01*
X66675512Y3238817D01*
X66457146Y3042293D01*
X66294000Y2823922D01*
X66130854Y3042293D01*
X65912488Y3238817D01*
X65659978Y3388964D01*
X65529980Y3434964D01*
X65718773Y3535346D01*
X65907010Y3688868D01*
X66061842Y3876029D01*
X66177373Y4089698D01*
X66249201Y4321738D01*
X66274592Y4563311D01*
X66252577Y4805215D01*
X66183995Y5038235D01*
X66071459Y5253497D01*
X65919255Y5442801D01*
X65733180Y5598936D01*
X65520322Y5715956D01*
X65288789Y5789403D01*
X65047399Y5816479D01*
X65030022Y5816600D01*
X65017978Y5816600D01*
X64776234Y5792897D01*
X64543698Y5722690D01*
X64329227Y5608654D01*
X64140990Y5455132D01*
X63986158Y5267971D01*
X63870627Y5054302D01*
X63798799Y4822262D01*
X63773408Y4580689D01*
X63795423Y4338785D01*
X63864005Y4105765D01*
X63976541Y3890503D01*
X64128745Y3701199D01*
X64314820Y3545064D01*
X64516238Y3434334D01*
X64388022Y3388964D01*
X64135512Y3238817D01*
X63917146Y3042293D01*
X63754000Y2823922D01*
X63590854Y3042293D01*
X63372488Y3238817D01*
X63119978Y3388964D01*
X62989980Y3434964D01*
X63178773Y3535346D01*
X63367010Y3688868D01*
X63521842Y3876029D01*
X63637373Y4089698D01*
X63709201Y4321738D01*
X63734592Y4563311D01*
X63712577Y4805215D01*
X63643995Y5038235D01*
X63531459Y5253497D01*
X63379255Y5442801D01*
X63193180Y5598936D01*
X62980322Y5715956D01*
X62748789Y5789403D01*
X62507399Y5816479D01*
X62490022Y5816600D01*
X62477978Y5816600D01*
X62236234Y5792897D01*
X62003698Y5722690D01*
X61789227Y5608654D01*
X61600990Y5455132D01*
X61446158Y5267971D01*
X61330627Y5054302D01*
X61258799Y4822262D01*
X61233408Y4580689D01*
X61255423Y4338785D01*
X61324005Y4105765D01*
X61436541Y3890503D01*
X61588745Y3701199D01*
X61774820Y3545064D01*
X61976238Y3434334D01*
X61848022Y3388964D01*
X61595512Y3238817D01*
X61377146Y3042293D01*
X61214000Y2823922D01*
X61050854Y3042293D01*
X60832488Y3238817D01*
X60579978Y3388964D01*
X60449980Y3434964D01*
X60638773Y3535346D01*
X60827010Y3688868D01*
X60981842Y3876029D01*
X61097373Y4089698D01*
X61169201Y4321738D01*
X61194592Y4563311D01*
X61172577Y4805215D01*
X61103995Y5038235D01*
X60991459Y5253497D01*
X60839255Y5442801D01*
X60653180Y5598936D01*
X60440322Y5715956D01*
X60208789Y5789403D01*
X59967399Y5816479D01*
X59950022Y5816600D01*
X59937978Y5816600D01*
X59696234Y5792897D01*
X59463698Y5722690D01*
X59249227Y5608654D01*
X59060990Y5455132D01*
X58906158Y5267971D01*
X58790627Y5054302D01*
X58718799Y4822262D01*
X58693408Y4580689D01*
X58715423Y4338785D01*
X58784005Y4105765D01*
X58896541Y3890503D01*
X59048745Y3701199D01*
X59234820Y3545064D01*
X59436238Y3434334D01*
X59308022Y3388964D01*
X59055512Y3238817D01*
X58837146Y3042293D01*
X58674000Y2823922D01*
X58510854Y3042293D01*
X58292488Y3238817D01*
X58039978Y3388964D01*
X57909980Y3434964D01*
X58098773Y3535346D01*
X58287010Y3688868D01*
X58441842Y3876029D01*
X58557373Y4089698D01*
X58629201Y4321738D01*
X58654592Y4563311D01*
X58632577Y4805215D01*
X58563995Y5038235D01*
X58451459Y5253497D01*
X58299255Y5442801D01*
X58113180Y5598936D01*
X57900322Y5715956D01*
X57668789Y5789403D01*
X57427399Y5816479D01*
X57410022Y5816600D01*
X57397978Y5816600D01*
X57156234Y5792897D01*
X56923698Y5722690D01*
X56709227Y5608654D01*
X56520990Y5455132D01*
X56366158Y5267971D01*
X56250627Y5054302D01*
X56178799Y4822262D01*
X56153408Y4580689D01*
X56175423Y4338785D01*
X56244005Y4105765D01*
X56356541Y3890503D01*
X56508745Y3701199D01*
X56694820Y3545064D01*
X56896238Y3434334D01*
X56768022Y3388964D01*
X56515512Y3238817D01*
X56297146Y3042293D01*
X56134000Y2823922D01*
X55970854Y3042293D01*
X55752488Y3238817D01*
X55499978Y3388964D01*
X55369980Y3434964D01*
X55558773Y3535346D01*
X55747010Y3688868D01*
X55901842Y3876029D01*
X56017373Y4089698D01*
X56089201Y4321738D01*
X56114592Y4563311D01*
X56092577Y4805215D01*
X56023995Y5038235D01*
X55911459Y5253497D01*
X55759255Y5442801D01*
X55573180Y5598936D01*
X55360322Y5715956D01*
X55128789Y5789403D01*
X54887399Y5816479D01*
X54870022Y5816600D01*
X54857978Y5816600D01*
X54616234Y5792897D01*
X54383698Y5722690D01*
X54169227Y5608654D01*
X53980990Y5455132D01*
X53826158Y5267971D01*
X53710627Y5054302D01*
X53638799Y4822262D01*
X53613408Y4580689D01*
X53635423Y4338785D01*
X53704005Y4105765D01*
X53816541Y3890503D01*
X53968745Y3701199D01*
X54154820Y3545064D01*
X54356238Y3434334D01*
X54228022Y3388964D01*
X53975512Y3238817D01*
X53798464Y3079479D01*
X53798197Y3080823D01*
X53750330Y3196385D01*
X53680837Y3300389D01*
X53592389Y3388837D01*
X53488385Y3458330D01*
X53372823Y3506197D01*
X53250142Y3530600D01*
X53009847Y3530600D01*
X53018773Y3535346D01*
X53207010Y3688868D01*
X53361842Y3876029D01*
X53477373Y4089698D01*
X53549201Y4321738D01*
X53574592Y4563311D01*
X53552577Y4805215D01*
X53483995Y5038235D01*
X53371459Y5253497D01*
X53219255Y5442801D01*
X53033180Y5598936D01*
X52820322Y5715956D01*
X52588789Y5789403D01*
X52347399Y5816479D01*
X52330022Y5816600D01*
X52317978Y5816600D01*
X52076234Y5792897D01*
X52018000Y5775316D01*
X52018000Y19304000D01*
X52018000Y30226000D01*
X52013810Y30268729D01*
X52009923Y30311446D01*
X52009472Y30312978D01*
X52009316Y30314571D01*
X51996909Y30355664D01*
X51984796Y30396821D01*
X51984054Y30398240D01*
X51983593Y30399768D01*
X51963470Y30437613D01*
X51943565Y30475689D01*
X51942561Y30476937D01*
X51941812Y30478347D01*
X51914716Y30511569D01*
X51887800Y30545046D01*
X51886573Y30546075D01*
X51885564Y30547313D01*
X51852529Y30574642D01*
X51819625Y30602252D01*
X51818222Y30603024D01*
X51816992Y30604041D01*
X51779277Y30624434D01*
X51741638Y30645126D01*
X51740113Y30645610D01*
X51738707Y30646370D01*
X51697711Y30659061D01*
X51656808Y30672035D01*
X51655219Y30672214D01*
X51653692Y30672686D01*
X51611044Y30677169D01*
X51568367Y30681956D01*
X51565294Y30681978D01*
X51565183Y30681989D01*
X51565070Y30681979D01*
X51562000Y30682000D01*
X38100000Y30682000D01*
X38057271Y30677811D01*
X38014554Y30673923D01*
X38013022Y30673473D01*
X38011429Y30673316D01*
X37970336Y30660910D01*
X37929179Y30648796D01*
X37927760Y30648055D01*
X37926232Y30647593D01*
X37888387Y30627471D01*
X37850311Y30607565D01*
X37849063Y30606562D01*
X37847653Y30605812D01*
X37814431Y30578717D01*
X37780954Y30551800D01*
X37779925Y30550574D01*
X37778687Y30549564D01*
X37751358Y30516530D01*
X37723748Y30483625D01*
X37722976Y30482223D01*
X37721959Y30480992D01*
X37701566Y30443278D01*
X37680874Y30405638D01*
X37680390Y30404114D01*
X37679630Y30402707D01*
X37666939Y30361712D01*
X37653965Y30320808D01*
X37653786Y30319220D01*
X37653314Y30317692D01*
X37648831Y30275045D01*
X37644044Y30232367D01*
X37644022Y30229295D01*
X37644011Y30229183D01*
X37644021Y30229071D01*
X37644000Y30226000D01*
X37644000Y19304000D01*
X37648189Y19261272D01*
X37652077Y19218554D01*
X37652527Y19217023D01*
X37652684Y19215429D01*
X37665090Y19174337D01*
X37677204Y19133179D01*
X37677945Y19131761D01*
X37678407Y19130232D01*
X37698529Y19092388D01*
X37718435Y19054311D01*
X37719438Y19053064D01*
X37720188Y19051653D01*
X37747283Y19018432D01*
X37774200Y18984954D01*
X37775426Y18983926D01*
X37776436Y18982687D01*
X37809470Y18955359D01*
X37842375Y18927748D01*
X37843777Y18926977D01*
X37845008Y18925959D01*
X37882722Y18905567D01*
X37920362Y18884874D01*
X37921886Y18884391D01*
X37923293Y18883630D01*
X37964288Y18870940D01*
X38005192Y18857965D01*
X38006780Y18857787D01*
X38008308Y18857314D01*
X38050955Y18852832D01*
X38093633Y18848044D01*
X38096705Y18848023D01*
X38096817Y18848011D01*
X38096929Y18848022D01*
X38100000Y18848000D01*
X51562000Y18848000D01*
X51604728Y18852190D01*
X51647446Y18856077D01*
X51648977Y18856528D01*
X51650571Y18856684D01*
X51691663Y18869091D01*
X51732821Y18881204D01*
X51734239Y18881946D01*
X51735768Y18882407D01*
X51773612Y18902530D01*
X51811689Y18922435D01*
X51812936Y18923439D01*
X51814347Y18924188D01*
X51847568Y18951284D01*
X51881046Y18978200D01*
X51882074Y18979427D01*
X51883313Y18980436D01*
X51910641Y19013471D01*
X51938252Y19046375D01*
X51939023Y19047778D01*
X51940041Y19049008D01*
X51960433Y19086723D01*
X51981126Y19124362D01*
X51981609Y19125887D01*
X51982370Y19127293D01*
X51995060Y19168289D01*
X52008035Y19209192D01*
X52008213Y19210781D01*
X52008686Y19212308D01*
X52013168Y19254956D01*
X52017956Y19297633D01*
X52017977Y19300706D01*
X52017989Y19300817D01*
X52017978Y19300930D01*
X52018000Y19304000D01*
X52018000Y5775316D01*
X51843698Y5722690D01*
X51629227Y5608654D01*
X51440990Y5455132D01*
X51286158Y5267971D01*
X51170627Y5054302D01*
X51098799Y4822262D01*
X51073408Y4580689D01*
X51095423Y4338785D01*
X51164005Y4105765D01*
X51276541Y3890503D01*
X51428745Y3701199D01*
X51614820Y3545064D01*
X51641129Y3530600D01*
X51397858Y3530600D01*
X51275177Y3506197D01*
X51159615Y3458330D01*
X51055611Y3388837D01*
X50967163Y3300389D01*
X50897670Y3196385D01*
X50849803Y3080823D01*
X50825400Y2958142D01*
X50825400Y2833058D01*
X50825400Y2317750D01*
X50984150Y2159000D01*
X52197000Y2159000D01*
X52197000Y2179000D01*
X52451000Y2179000D01*
X52451000Y2159000D01*
X53530183Y2159000D01*
X53663850Y2159000D01*
X54737000Y2159000D01*
X54737000Y2179000D01*
X54991000Y2179000D01*
X54991000Y2159000D01*
X56070183Y2159000D01*
X56197817Y2159000D01*
X57277000Y2159000D01*
X57277000Y2179000D01*
X57531000Y2179000D01*
X57531000Y2159000D01*
X58610183Y2159000D01*
X58737817Y2159000D01*
X59817000Y2159000D01*
X59817000Y2179000D01*
X60071000Y2179000D01*
X60071000Y2159000D01*
X61150183Y2159000D01*
X61277817Y2159000D01*
X62357000Y2159000D01*
X62357000Y2179000D01*
X62611000Y2179000D01*
X62611000Y2159000D01*
X63690183Y2159000D01*
X63817817Y2159000D01*
X64897000Y2159000D01*
X64897000Y2179000D01*
X65151000Y2179000D01*
X65151000Y2159000D01*
X66230183Y2159000D01*
X66357817Y2159000D01*
X67437000Y2159000D01*
X67437000Y2179000D01*
X67691000Y2179000D01*
X67691000Y2159000D01*
X68770183Y2159000D01*
X68897817Y2159000D01*
X69977000Y2159000D01*
X69977000Y2179000D01*
X70231000Y2179000D01*
X70231000Y2159000D01*
X71310183Y2159000D01*
X71437817Y2159000D01*
X72517000Y2159000D01*
X72517000Y2179000D01*
X72771000Y2179000D01*
X72771000Y2159000D01*
X73850183Y2159000D01*
X73977817Y2159000D01*
X75057000Y2159000D01*
X75057000Y2179000D01*
X75311000Y2179000D01*
X75311000Y2159000D01*
X76517817Y2159000D01*
X76638958Y2391026D01*
X76638958Y1672974D01*
X76517817Y1905000D01*
X75311000Y1905000D01*
X75311000Y697536D01*
X75543027Y577037D01*
X75819978Y675036D01*
X76072488Y825183D01*
X76290854Y1021707D01*
X76466684Y1257056D01*
X76593222Y1522186D01*
X76638958Y1672974D01*
X76638958Y456000D01*
X75057000Y456000D01*
X75057000Y697536D01*
X75057000Y1905000D01*
X73977817Y1905000D01*
X73850183Y1905000D01*
X72771000Y1905000D01*
X72771000Y697536D01*
X73003027Y577037D01*
X73279978Y675036D01*
X73532488Y825183D01*
X73750854Y1021707D01*
X73914000Y1240079D01*
X74077146Y1021707D01*
X74295512Y825183D01*
X74548022Y675036D01*
X74824973Y577037D01*
X75057000Y697536D01*
X75057000Y456000D01*
X72517000Y456000D01*
X72517000Y697536D01*
X72517000Y1905000D01*
X71437817Y1905000D01*
X71310183Y1905000D01*
X70231000Y1905000D01*
X70231000Y697536D01*
X70463027Y577037D01*
X70739978Y675036D01*
X70992488Y825183D01*
X71210854Y1021707D01*
X71374000Y1240079D01*
X71537146Y1021707D01*
X71755512Y825183D01*
X72008022Y675036D01*
X72284973Y577037D01*
X72517000Y697536D01*
X72517000Y456000D01*
X69977000Y456000D01*
X69977000Y697536D01*
X69977000Y1905000D01*
X68897817Y1905000D01*
X68770183Y1905000D01*
X67691000Y1905000D01*
X67691000Y697536D01*
X67923027Y577037D01*
X68199978Y675036D01*
X68452488Y825183D01*
X68670854Y1021707D01*
X68834000Y1240079D01*
X68997146Y1021707D01*
X69215512Y825183D01*
X69468022Y675036D01*
X69744973Y577037D01*
X69977000Y697536D01*
X69977000Y456000D01*
X67437000Y456000D01*
X67437000Y697536D01*
X67437000Y1905000D01*
X66357817Y1905000D01*
X66230183Y1905000D01*
X65151000Y1905000D01*
X65151000Y697536D01*
X65383027Y577037D01*
X65659978Y675036D01*
X65912488Y825183D01*
X66130854Y1021707D01*
X66294000Y1240079D01*
X66457146Y1021707D01*
X66675512Y825183D01*
X66928022Y675036D01*
X67204973Y577037D01*
X67437000Y697536D01*
X67437000Y456000D01*
X64897000Y456000D01*
X64897000Y697536D01*
X64897000Y1905000D01*
X63817817Y1905000D01*
X63690183Y1905000D01*
X62611000Y1905000D01*
X62611000Y697536D01*
X62843027Y577037D01*
X63119978Y675036D01*
X63372488Y825183D01*
X63590854Y1021707D01*
X63754000Y1240079D01*
X63917146Y1021707D01*
X64135512Y825183D01*
X64388022Y675036D01*
X64664973Y577037D01*
X64897000Y697536D01*
X64897000Y456000D01*
X62357000Y456000D01*
X62357000Y697536D01*
X62357000Y1905000D01*
X61277817Y1905000D01*
X61150183Y1905000D01*
X60071000Y1905000D01*
X60071000Y697536D01*
X60303027Y577037D01*
X60579978Y675036D01*
X60832488Y825183D01*
X61050854Y1021707D01*
X61214000Y1240079D01*
X61377146Y1021707D01*
X61595512Y825183D01*
X61848022Y675036D01*
X62124973Y577037D01*
X62357000Y697536D01*
X62357000Y456000D01*
X59817000Y456000D01*
X59817000Y697536D01*
X59817000Y1905000D01*
X58737817Y1905000D01*
X58610183Y1905000D01*
X57531000Y1905000D01*
X57531000Y697536D01*
X57763027Y577037D01*
X58039978Y675036D01*
X58292488Y825183D01*
X58510854Y1021707D01*
X58674000Y1240079D01*
X58837146Y1021707D01*
X59055512Y825183D01*
X59308022Y675036D01*
X59584973Y577037D01*
X59817000Y697536D01*
X59817000Y456000D01*
X57277000Y456000D01*
X57277000Y697536D01*
X57277000Y1905000D01*
X56197817Y1905000D01*
X56070183Y1905000D01*
X54991000Y1905000D01*
X54991000Y697536D01*
X55223027Y577037D01*
X55499978Y675036D01*
X55752488Y825183D01*
X55970854Y1021707D01*
X56134000Y1240079D01*
X56297146Y1021707D01*
X56515512Y825183D01*
X56768022Y675036D01*
X57044973Y577037D01*
X57277000Y697536D01*
X57277000Y456000D01*
X55372000Y456000D01*
X54737000Y456000D01*
X54737000Y697536D01*
X54737000Y1905000D01*
X53663850Y1905000D01*
X53530183Y1905000D01*
X52451000Y1905000D01*
X52451000Y692150D01*
X52609750Y533400D01*
X53250142Y533400D01*
X53372823Y557803D01*
X53488385Y605670D01*
X53592389Y675163D01*
X53680837Y763611D01*
X53750330Y867615D01*
X53798197Y983177D01*
X53798464Y984522D01*
X53975512Y825183D01*
X54228022Y675036D01*
X54504973Y577037D01*
X54737000Y697536D01*
X54737000Y456000D01*
X52197000Y456000D01*
X52197000Y692150D01*
X52197000Y1905000D01*
X50984150Y1905000D01*
X50825400Y1746250D01*
X50825400Y1230942D01*
X50825400Y1105858D01*
X50849803Y983177D01*
X50897670Y867615D01*
X50967163Y763611D01*
X51055611Y675163D01*
X51159615Y605670D01*
X51275177Y557803D01*
X51397858Y533400D01*
X52038250Y533400D01*
X52197000Y692150D01*
X52197000Y456000D01*
X48494992Y456000D01*
X48494992Y2023511D01*
X48494992Y4563511D01*
X48472977Y4805415D01*
X48404395Y5038435D01*
X48291859Y5253697D01*
X48139655Y5443001D01*
X47953580Y5599136D01*
X47740722Y5716156D01*
X47509189Y5789603D01*
X47267799Y5816679D01*
X47250422Y5816800D01*
X47238378Y5816800D01*
X46996634Y5793097D01*
X46764098Y5722890D01*
X46549627Y5608854D01*
X46361390Y5455332D01*
X46206558Y5268171D01*
X46091027Y5054502D01*
X46019199Y4822462D01*
X45993808Y4580889D01*
X46015823Y4338985D01*
X46084405Y4105965D01*
X46196941Y3890703D01*
X46349145Y3701399D01*
X46535220Y3545264D01*
X46748078Y3428244D01*
X46979611Y3354797D01*
X47221001Y3327721D01*
X47238378Y3327600D01*
X47250422Y3327600D01*
X47492166Y3351303D01*
X47724702Y3421510D01*
X47939173Y3535546D01*
X48127410Y3689068D01*
X48282242Y3876229D01*
X48397773Y4089898D01*
X48469601Y4321938D01*
X48494992Y4563511D01*
X48494992Y2023511D01*
X48472977Y2265415D01*
X48404395Y2498435D01*
X48291859Y2713697D01*
X48139655Y2903001D01*
X47953580Y3059136D01*
X47740722Y3176156D01*
X47509189Y3249603D01*
X47267799Y3276679D01*
X47250422Y3276800D01*
X47238378Y3276800D01*
X46996634Y3253097D01*
X46764098Y3182890D01*
X46549627Y3068854D01*
X46361390Y2915332D01*
X46206558Y2728171D01*
X46091027Y2514502D01*
X46019199Y2282462D01*
X45993808Y2040889D01*
X46015823Y1798985D01*
X46084405Y1565965D01*
X46196941Y1350703D01*
X46349145Y1161399D01*
X46535220Y1005264D01*
X46748078Y888244D01*
X46979611Y814797D01*
X47221001Y787721D01*
X47238378Y787600D01*
X47250422Y787600D01*
X47492166Y811303D01*
X47724702Y881510D01*
X47939173Y995546D01*
X48127410Y1149068D01*
X48282242Y1336229D01*
X48397773Y1549898D01*
X48469601Y1781938D01*
X48494992Y2023511D01*
X48494992Y456000D01*
X45954992Y456000D01*
X45954992Y2023511D01*
X45954992Y4563511D01*
X45932977Y4805415D01*
X45864395Y5038435D01*
X45751859Y5253697D01*
X45599655Y5443001D01*
X45413580Y5599136D01*
X45200722Y5716156D01*
X44969189Y5789603D01*
X44727799Y5816679D01*
X44710422Y5816800D01*
X44698378Y5816800D01*
X44456634Y5793097D01*
X44224098Y5722890D01*
X44009627Y5608854D01*
X43821390Y5455332D01*
X43666558Y5268171D01*
X43551027Y5054502D01*
X43479199Y4822462D01*
X43453808Y4580889D01*
X43475823Y4338985D01*
X43544405Y4105965D01*
X43656941Y3890703D01*
X43809145Y3701399D01*
X43995220Y3545264D01*
X44208078Y3428244D01*
X44439611Y3354797D01*
X44681001Y3327721D01*
X44698378Y3327600D01*
X44710422Y3327600D01*
X44952166Y3351303D01*
X45184702Y3421510D01*
X45399173Y3535546D01*
X45587410Y3689068D01*
X45742242Y3876229D01*
X45857773Y4089898D01*
X45929601Y4321938D01*
X45954992Y4563511D01*
X45954992Y2023511D01*
X45932977Y2265415D01*
X45864395Y2498435D01*
X45751859Y2713697D01*
X45599655Y2903001D01*
X45413580Y3059136D01*
X45200722Y3176156D01*
X44969189Y3249603D01*
X44727799Y3276679D01*
X44710422Y3276800D01*
X44698378Y3276800D01*
X44456634Y3253097D01*
X44224098Y3182890D01*
X44009627Y3068854D01*
X43821390Y2915332D01*
X43666558Y2728171D01*
X43551027Y2514502D01*
X43479199Y2282462D01*
X43453808Y2040889D01*
X43475823Y1798985D01*
X43544405Y1565965D01*
X43656941Y1350703D01*
X43809145Y1161399D01*
X43995220Y1005264D01*
X44208078Y888244D01*
X44439611Y814797D01*
X44681001Y787721D01*
X44698378Y787600D01*
X44710422Y787600D01*
X44952166Y811303D01*
X45184702Y881510D01*
X45399173Y995546D01*
X45587410Y1149068D01*
X45742242Y1336229D01*
X45857773Y1549898D01*
X45929601Y1781938D01*
X45954992Y2023511D01*
X45954992Y456000D01*
X43414992Y456000D01*
X43414992Y2023511D01*
X43414992Y4563511D01*
X43392977Y4805415D01*
X43324395Y5038435D01*
X43211859Y5253697D01*
X43059655Y5443001D01*
X42873580Y5599136D01*
X42660722Y5716156D01*
X42429189Y5789603D01*
X42187799Y5816679D01*
X42170422Y5816800D01*
X42158378Y5816800D01*
X41916634Y5793097D01*
X41684098Y5722890D01*
X41469627Y5608854D01*
X41281390Y5455332D01*
X41126558Y5268171D01*
X41011027Y5054502D01*
X40939199Y4822462D01*
X40913808Y4580889D01*
X40935823Y4338985D01*
X41004405Y4105965D01*
X41116941Y3890703D01*
X41269145Y3701399D01*
X41455220Y3545264D01*
X41668078Y3428244D01*
X41899611Y3354797D01*
X42141001Y3327721D01*
X42158378Y3327600D01*
X42170422Y3327600D01*
X42412166Y3351303D01*
X42644702Y3421510D01*
X42859173Y3535546D01*
X43047410Y3689068D01*
X43202242Y3876229D01*
X43317773Y4089898D01*
X43389601Y4321938D01*
X43414992Y4563511D01*
X43414992Y2023511D01*
X43392977Y2265415D01*
X43324395Y2498435D01*
X43211859Y2713697D01*
X43059655Y2903001D01*
X42873580Y3059136D01*
X42660722Y3176156D01*
X42429189Y3249603D01*
X42187799Y3276679D01*
X42170422Y3276800D01*
X42158378Y3276800D01*
X41916634Y3253097D01*
X41684098Y3182890D01*
X41469627Y3068854D01*
X41281390Y2915332D01*
X41126558Y2728171D01*
X41011027Y2514502D01*
X40939199Y2282462D01*
X40913808Y2040889D01*
X40935823Y1798985D01*
X41004405Y1565965D01*
X41116941Y1350703D01*
X41269145Y1161399D01*
X41455220Y1005264D01*
X41668078Y888244D01*
X41899611Y814797D01*
X42141001Y787721D01*
X42158378Y787600D01*
X42170422Y787600D01*
X42412166Y811303D01*
X42644702Y881510D01*
X42859173Y995546D01*
X43047410Y1149068D01*
X43202242Y1336229D01*
X43317773Y1549898D01*
X43389601Y1781938D01*
X43414992Y2023511D01*
X43414992Y456000D01*
X40874992Y456000D01*
X40874992Y2023511D01*
X40874992Y4563511D01*
X40852977Y4805415D01*
X40784395Y5038435D01*
X40671859Y5253697D01*
X40519655Y5443001D01*
X40333580Y5599136D01*
X40120722Y5716156D01*
X39889189Y5789603D01*
X39647799Y5816679D01*
X39630422Y5816800D01*
X39618378Y5816800D01*
X39376634Y5793097D01*
X39144098Y5722890D01*
X38929627Y5608854D01*
X38741390Y5455332D01*
X38586558Y5268171D01*
X38471027Y5054502D01*
X38399199Y4822462D01*
X38373808Y4580889D01*
X38395823Y4338985D01*
X38464405Y4105965D01*
X38576941Y3890703D01*
X38729145Y3701399D01*
X38915220Y3545264D01*
X39128078Y3428244D01*
X39359611Y3354797D01*
X39601001Y3327721D01*
X39618378Y3327600D01*
X39630422Y3327600D01*
X39872166Y3351303D01*
X40104702Y3421510D01*
X40319173Y3535546D01*
X40507410Y3689068D01*
X40662242Y3876229D01*
X40777773Y4089898D01*
X40849601Y4321938D01*
X40874992Y4563511D01*
X40874992Y2023511D01*
X40852977Y2265415D01*
X40784395Y2498435D01*
X40671859Y2713697D01*
X40519655Y2903001D01*
X40333580Y3059136D01*
X40120722Y3176156D01*
X39889189Y3249603D01*
X39647799Y3276679D01*
X39630422Y3276800D01*
X39618378Y3276800D01*
X39376634Y3253097D01*
X39144098Y3182890D01*
X38929627Y3068854D01*
X38741390Y2915332D01*
X38586558Y2728171D01*
X38471027Y2514502D01*
X38399199Y2282462D01*
X38373808Y2040889D01*
X38395823Y1798985D01*
X38464405Y1565965D01*
X38576941Y1350703D01*
X38729145Y1161399D01*
X38915220Y1005264D01*
X39128078Y888244D01*
X39359611Y814797D01*
X39601001Y787721D01*
X39618378Y787600D01*
X39630422Y787600D01*
X39872166Y811303D01*
X40104702Y881510D01*
X40319173Y995546D01*
X40507410Y1149068D01*
X40662242Y1336229D01*
X40777773Y1549898D01*
X40849601Y1781938D01*
X40874992Y2023511D01*
X40874992Y456000D01*
X38334992Y456000D01*
X38334992Y2023511D01*
X38334992Y4563511D01*
X38312977Y4805415D01*
X38244395Y5038435D01*
X38131859Y5253697D01*
X37979655Y5443001D01*
X37793580Y5599136D01*
X37580722Y5716156D01*
X37349189Y5789603D01*
X37107799Y5816679D01*
X37090422Y5816800D01*
X37078378Y5816800D01*
X36836634Y5793097D01*
X36604098Y5722890D01*
X36389627Y5608854D01*
X36201390Y5455332D01*
X36046558Y5268171D01*
X35931027Y5054502D01*
X35859199Y4822462D01*
X35833808Y4580889D01*
X35855823Y4338985D01*
X35924405Y4105965D01*
X36036941Y3890703D01*
X36189145Y3701399D01*
X36375220Y3545264D01*
X36588078Y3428244D01*
X36819611Y3354797D01*
X37061001Y3327721D01*
X37078378Y3327600D01*
X37090422Y3327600D01*
X37332166Y3351303D01*
X37564702Y3421510D01*
X37779173Y3535546D01*
X37967410Y3689068D01*
X38122242Y3876229D01*
X38237773Y4089898D01*
X38309601Y4321938D01*
X38334992Y4563511D01*
X38334992Y2023511D01*
X38312977Y2265415D01*
X38244395Y2498435D01*
X38131859Y2713697D01*
X37979655Y2903001D01*
X37793580Y3059136D01*
X37580722Y3176156D01*
X37349189Y3249603D01*
X37107799Y3276679D01*
X37090422Y3276800D01*
X37078378Y3276800D01*
X36836634Y3253097D01*
X36604098Y3182890D01*
X36389627Y3068854D01*
X36201390Y2915332D01*
X36046558Y2728171D01*
X35931027Y2514502D01*
X35859199Y2282462D01*
X35833808Y2040889D01*
X35855823Y1798985D01*
X35924405Y1565965D01*
X36036941Y1350703D01*
X36189145Y1161399D01*
X36375220Y1005264D01*
X36588078Y888244D01*
X36819611Y814797D01*
X37061001Y787721D01*
X37078378Y787600D01*
X37090422Y787600D01*
X37332166Y811303D01*
X37564702Y881510D01*
X37779173Y995546D01*
X37967410Y1149068D01*
X38122242Y1336229D01*
X38237773Y1549898D01*
X38309601Y1781938D01*
X38334992Y2023511D01*
X38334992Y456000D01*
X35794992Y456000D01*
X35794992Y2023511D01*
X35794992Y4563511D01*
X35772977Y4805415D01*
X35704395Y5038435D01*
X35591859Y5253697D01*
X35439655Y5443001D01*
X35253580Y5599136D01*
X35040722Y5716156D01*
X34809189Y5789603D01*
X34567799Y5816679D01*
X34550422Y5816800D01*
X34538378Y5816800D01*
X34296634Y5793097D01*
X34064098Y5722890D01*
X33849627Y5608854D01*
X33661390Y5455332D01*
X33506558Y5268171D01*
X33391027Y5054502D01*
X33319199Y4822462D01*
X33293808Y4580889D01*
X33315823Y4338985D01*
X33384405Y4105965D01*
X33496941Y3890703D01*
X33649145Y3701399D01*
X33835220Y3545264D01*
X34048078Y3428244D01*
X34279611Y3354797D01*
X34521001Y3327721D01*
X34538378Y3327600D01*
X34550422Y3327600D01*
X34792166Y3351303D01*
X35024702Y3421510D01*
X35239173Y3535546D01*
X35427410Y3689068D01*
X35582242Y3876229D01*
X35697773Y4089898D01*
X35769601Y4321938D01*
X35794992Y4563511D01*
X35794992Y2023511D01*
X35772977Y2265415D01*
X35704395Y2498435D01*
X35591859Y2713697D01*
X35439655Y2903001D01*
X35253580Y3059136D01*
X35040722Y3176156D01*
X34809189Y3249603D01*
X34567799Y3276679D01*
X34550422Y3276800D01*
X34538378Y3276800D01*
X34296634Y3253097D01*
X34064098Y3182890D01*
X33849627Y3068854D01*
X33661390Y2915332D01*
X33506558Y2728171D01*
X33503000Y2721591D01*
X33503000Y2833258D01*
X33503000Y2958342D01*
X33478597Y3081023D01*
X33430730Y3196585D01*
X33361237Y3300589D01*
X33272789Y3389037D01*
X33168785Y3458530D01*
X33053223Y3506397D01*
X32930542Y3530800D01*
X32690247Y3530800D01*
X32699173Y3535546D01*
X32887410Y3689068D01*
X33042242Y3876229D01*
X33157773Y4089898D01*
X33229601Y4321938D01*
X33254992Y4563511D01*
X33232977Y4805415D01*
X33164395Y5038435D01*
X33051859Y5253697D01*
X32899655Y5443001D01*
X32713580Y5599136D01*
X32500722Y5716156D01*
X32269189Y5789603D01*
X32027799Y5816679D01*
X32010422Y5816800D01*
X31998378Y5816800D01*
X31756634Y5793097D01*
X31524098Y5722890D01*
X31309627Y5608854D01*
X31121390Y5455332D01*
X30966558Y5268171D01*
X30851027Y5054502D01*
X30779199Y4822462D01*
X30753808Y4580889D01*
X30775823Y4338985D01*
X30844405Y4105965D01*
X30956941Y3890703D01*
X31109145Y3701399D01*
X31295220Y3545264D01*
X31321529Y3530800D01*
X31078258Y3530800D01*
X30955577Y3506397D01*
X30840015Y3458530D01*
X30736011Y3389037D01*
X30647563Y3300589D01*
X30578070Y3196585D01*
X30530203Y3081023D01*
X30505800Y2958342D01*
X30505800Y2833258D01*
X30505800Y2317950D01*
X30664550Y2159200D01*
X31877400Y2159200D01*
X31877400Y2179200D01*
X32131400Y2179200D01*
X32131400Y2159200D01*
X32151400Y2159200D01*
X32151400Y1905200D01*
X32131400Y1905200D01*
X32131400Y692350D01*
X32290150Y533600D01*
X32930542Y533600D01*
X33053223Y558003D01*
X33168785Y605870D01*
X33272789Y675363D01*
X33361237Y763811D01*
X33430730Y867815D01*
X33478597Y983377D01*
X33503000Y1106058D01*
X33503000Y1231142D01*
X33503000Y1343168D01*
X33649145Y1161399D01*
X33835220Y1005264D01*
X34048078Y888244D01*
X34279611Y814797D01*
X34521001Y787721D01*
X34538378Y787600D01*
X34550422Y787600D01*
X34792166Y811303D01*
X35024702Y881510D01*
X35239173Y995546D01*
X35427410Y1149068D01*
X35582242Y1336229D01*
X35697773Y1549898D01*
X35769601Y1781938D01*
X35794992Y2023511D01*
X35794992Y456000D01*
X31877400Y456000D01*
X31877400Y692350D01*
X31877400Y1905200D01*
X30664550Y1905200D01*
X30505800Y1746450D01*
X30505800Y1231142D01*
X30505800Y1106058D01*
X30530203Y983377D01*
X30578070Y867815D01*
X30647563Y763811D01*
X30736011Y675363D01*
X30840015Y605870D01*
X30955577Y558003D01*
X31078258Y533600D01*
X31718650Y533600D01*
X31877400Y692350D01*
X31877400Y456000D01*
X28379358Y456000D01*
X28379358Y1673174D01*
X28379358Y2391226D01*
X28333622Y2542014D01*
X28207084Y2807144D01*
X28031254Y3042493D01*
X27812888Y3239017D01*
X27560378Y3389164D01*
X27430380Y3435164D01*
X27619173Y3535546D01*
X27807410Y3689068D01*
X27962242Y3876229D01*
X28077773Y4089898D01*
X28149601Y4321938D01*
X28174992Y4563511D01*
X28152977Y4805415D01*
X28084395Y5038435D01*
X27971859Y5253697D01*
X27819655Y5443001D01*
X27633580Y5599136D01*
X27420722Y5716156D01*
X27189189Y5789603D01*
X26947799Y5816679D01*
X26930422Y5816800D01*
X26918378Y5816800D01*
X26676634Y5793097D01*
X26444098Y5722890D01*
X26229627Y5608854D01*
X26041390Y5455332D01*
X25886558Y5268171D01*
X25771027Y5054502D01*
X25699199Y4822462D01*
X25673808Y4580889D01*
X25695823Y4338985D01*
X25764405Y4105965D01*
X25876941Y3890703D01*
X26029145Y3701399D01*
X26215220Y3545264D01*
X26416638Y3434534D01*
X26288422Y3389164D01*
X26035912Y3239017D01*
X25817546Y3042493D01*
X25641716Y2807144D01*
X25634992Y2793056D01*
X25634992Y4563511D01*
X25612977Y4805415D01*
X25544395Y5038435D01*
X25431859Y5253697D01*
X25279655Y5443001D01*
X25093580Y5599136D01*
X24880722Y5716156D01*
X24649189Y5789603D01*
X24407799Y5816679D01*
X24390422Y5816800D01*
X24378378Y5816800D01*
X24136634Y5793097D01*
X23904098Y5722890D01*
X23689627Y5608854D01*
X23501390Y5455332D01*
X23346558Y5268171D01*
X23231027Y5054502D01*
X23159199Y4822462D01*
X23133808Y4580889D01*
X23155823Y4338985D01*
X23224405Y4105965D01*
X23336941Y3890703D01*
X23489145Y3701399D01*
X23675220Y3545264D01*
X23888078Y3428244D01*
X24119611Y3354797D01*
X24361001Y3327721D01*
X24378378Y3327600D01*
X24390422Y3327600D01*
X24632166Y3351303D01*
X24864702Y3421510D01*
X25079173Y3535546D01*
X25267410Y3689068D01*
X25422242Y3876229D01*
X25537773Y4089898D01*
X25609601Y4321938D01*
X25634992Y4563511D01*
X25634992Y2793056D01*
X25518248Y2548449D01*
X25431859Y2713697D01*
X25279655Y2903001D01*
X25093580Y3059136D01*
X24880722Y3176156D01*
X24649189Y3249603D01*
X24407799Y3276679D01*
X24390422Y3276800D01*
X24378378Y3276800D01*
X24136634Y3253097D01*
X23904098Y3182890D01*
X23689627Y3068854D01*
X23501390Y2915332D01*
X23346558Y2728171D01*
X23250002Y2549597D01*
X23127084Y2807144D01*
X22951254Y3042493D01*
X22732888Y3239017D01*
X22480378Y3389164D01*
X22350380Y3435164D01*
X22539173Y3535546D01*
X22727410Y3689068D01*
X22882242Y3876229D01*
X22997773Y4089898D01*
X23069601Y4321938D01*
X23094992Y4563511D01*
X23072977Y4805415D01*
X23004395Y5038435D01*
X22891859Y5253697D01*
X22739655Y5443001D01*
X22553580Y5599136D01*
X22340722Y5716156D01*
X22109189Y5789603D01*
X21867799Y5816679D01*
X21850422Y5816800D01*
X21838378Y5816800D01*
X21596634Y5793097D01*
X21364098Y5722890D01*
X21149627Y5608854D01*
X20961390Y5455332D01*
X20806558Y5268171D01*
X20691027Y5054502D01*
X20619199Y4822462D01*
X20593808Y4580889D01*
X20615823Y4338985D01*
X20684405Y4105965D01*
X20796941Y3890703D01*
X20949145Y3701399D01*
X21135220Y3545264D01*
X21336638Y3434534D01*
X21208422Y3389164D01*
X20955912Y3239017D01*
X20737546Y3042493D01*
X20574400Y2824122D01*
X20411254Y3042493D01*
X20192888Y3239017D01*
X19940378Y3389164D01*
X19810380Y3435164D01*
X19999173Y3535546D01*
X20187410Y3689068D01*
X20342242Y3876229D01*
X20457773Y4089898D01*
X20529601Y4321938D01*
X20554992Y4563511D01*
X20532977Y4805415D01*
X20464395Y5038435D01*
X20351859Y5253697D01*
X20199655Y5443001D01*
X20013580Y5599136D01*
X19800722Y5716156D01*
X19569189Y5789603D01*
X19327799Y5816679D01*
X19310422Y5816800D01*
X19298378Y5816800D01*
X19056634Y5793097D01*
X18824098Y5722890D01*
X18609627Y5608854D01*
X18421390Y5455332D01*
X18266558Y5268171D01*
X18151027Y5054502D01*
X18079199Y4822462D01*
X18053808Y4580889D01*
X18075823Y4338985D01*
X18144405Y4105965D01*
X18256941Y3890703D01*
X18409145Y3701399D01*
X18595220Y3545264D01*
X18796638Y3434534D01*
X18668422Y3389164D01*
X18415912Y3239017D01*
X18197546Y3042493D01*
X18021716Y2807144D01*
X18014992Y2793056D01*
X18014992Y4563511D01*
X17992977Y4805415D01*
X17924395Y5038435D01*
X17811859Y5253697D01*
X17659655Y5443001D01*
X17473580Y5599136D01*
X17260722Y5716156D01*
X17029189Y5789603D01*
X16787799Y5816679D01*
X16770422Y5816800D01*
X16758378Y5816800D01*
X16516634Y5793097D01*
X16284098Y5722890D01*
X16069627Y5608854D01*
X15881390Y5455332D01*
X15726558Y5268171D01*
X15611027Y5054502D01*
X15539199Y4822462D01*
X15513808Y4580889D01*
X15535823Y4338985D01*
X15604405Y4105965D01*
X15716941Y3890703D01*
X15869145Y3701399D01*
X16055220Y3545264D01*
X16268078Y3428244D01*
X16499611Y3354797D01*
X16741001Y3327721D01*
X16758378Y3327600D01*
X16770422Y3327600D01*
X17012166Y3351303D01*
X17244702Y3421510D01*
X17459173Y3535546D01*
X17647410Y3689068D01*
X17802242Y3876229D01*
X17917773Y4089898D01*
X17989601Y4321938D01*
X18014992Y4563511D01*
X18014992Y2793056D01*
X18010843Y2784363D01*
X18010843Y2895800D01*
X18005818Y2957626D01*
X17973736Y3060225D01*
X17914396Y3149860D01*
X17832475Y3219465D01*
X17734433Y3263551D01*
X17628000Y3278643D01*
X15900800Y3278643D01*
X15838974Y3273618D01*
X15736375Y3241536D01*
X15646740Y3182196D01*
X15577135Y3100275D01*
X15533049Y3002233D01*
X15517957Y2895800D01*
X15517957Y1168600D01*
X15522982Y1106774D01*
X15555064Y1004175D01*
X15614404Y914540D01*
X15696325Y844935D01*
X15794367Y800849D01*
X15900800Y785757D01*
X17628000Y785757D01*
X17689826Y790782D01*
X17792425Y822864D01*
X17882060Y882204D01*
X17951665Y964125D01*
X17995751Y1062167D01*
X18010843Y1168600D01*
X18010843Y1280038D01*
X18021716Y1257256D01*
X18197546Y1021907D01*
X18415912Y825383D01*
X18668422Y675236D01*
X18945373Y577237D01*
X19177400Y697736D01*
X19177400Y1905200D01*
X19157400Y1905200D01*
X19157400Y2159200D01*
X19177400Y2159200D01*
X19177400Y2179200D01*
X19431400Y2179200D01*
X19431400Y2159200D01*
X20510583Y2159200D01*
X20638217Y2159200D01*
X21717400Y2159200D01*
X21717400Y2179200D01*
X21971400Y2179200D01*
X21971400Y2159200D01*
X21991400Y2159200D01*
X21991400Y1905200D01*
X21971400Y1905200D01*
X21971400Y697736D01*
X22203427Y577237D01*
X22480378Y675236D01*
X22732888Y825383D01*
X22951254Y1021907D01*
X23127084Y1257256D01*
X23250551Y1515952D01*
X23336941Y1350703D01*
X23489145Y1161399D01*
X23675220Y1005264D01*
X23888078Y888244D01*
X24119611Y814797D01*
X24361001Y787721D01*
X24378378Y787600D01*
X24390422Y787600D01*
X24632166Y811303D01*
X24864702Y881510D01*
X25079173Y995546D01*
X25267410Y1149068D01*
X25422242Y1336229D01*
X25518797Y1514804D01*
X25641716Y1257256D01*
X25817546Y1021907D01*
X26035912Y825383D01*
X26288422Y675236D01*
X26565373Y577237D01*
X26797400Y697736D01*
X26797400Y1905200D01*
X26777400Y1905200D01*
X26777400Y2159200D01*
X26797400Y2159200D01*
X26797400Y2179200D01*
X27051400Y2179200D01*
X27051400Y2159200D01*
X28258217Y2159200D01*
X28379358Y2391226D01*
X28379358Y1673174D01*
X28258217Y1905200D01*
X27051400Y1905200D01*
X27051400Y697736D01*
X27283427Y577237D01*
X27560378Y675236D01*
X27812888Y825383D01*
X28031254Y1021907D01*
X28207084Y1257256D01*
X28333622Y1522386D01*
X28379358Y1673174D01*
X28379358Y456000D01*
X21717400Y456000D01*
X21717400Y697736D01*
X21717400Y1905200D01*
X20638217Y1905200D01*
X20510583Y1905200D01*
X19431400Y1905200D01*
X19431400Y697736D01*
X19663427Y577237D01*
X19940378Y675236D01*
X20192888Y825383D01*
X20411254Y1021907D01*
X20574400Y1240279D01*
X20737546Y1021907D01*
X20955912Y825383D01*
X21208422Y675236D01*
X21485373Y577237D01*
X21717400Y697736D01*
X21717400Y456000D01*
X20066000Y456000D01*
X5314992Y456000D01*
X5314992Y45203311D01*
X5292977Y45445215D01*
X5224395Y45678235D01*
X5111859Y45893497D01*
X4959655Y46082801D01*
X4773580Y46238936D01*
X4560722Y46355956D01*
X4329189Y46429403D01*
X4087799Y46456479D01*
X4070422Y46456600D01*
X4058378Y46456600D01*
X3816634Y46432897D01*
X3584098Y46362690D01*
X3369627Y46248654D01*
X3181390Y46095132D01*
X3026558Y45907971D01*
X2911027Y45694302D01*
X2839199Y45462262D01*
X2813808Y45220689D01*
X2835823Y44978785D01*
X2904405Y44745765D01*
X3016941Y44530503D01*
X3169145Y44341199D01*
X3355220Y44185064D01*
X3568078Y44068044D01*
X3799611Y43994597D01*
X4041001Y43967521D01*
X4058378Y43967400D01*
X4070422Y43967400D01*
X4312166Y43991103D01*
X4544702Y44061310D01*
X4759173Y44175346D01*
X4947410Y44328868D01*
X5102242Y44516029D01*
X5217773Y44729698D01*
X5289601Y44961738D01*
X5314992Y45203311D01*
X5314992Y456000D01*
X2540000Y456000D01*
X456000Y456000D01*
X456000Y49328000D01*
X2540000Y49328000D01*
X12541980Y49328000D01*
X12126983Y48913004D01*
X11949189Y48969403D01*
X11707799Y48996479D01*
X11690422Y48996600D01*
X11678378Y48996600D01*
X11436634Y48972897D01*
X11204098Y48902690D01*
X10989627Y48788654D01*
X10801390Y48635132D01*
X10646558Y48447971D01*
X10550002Y48269397D01*
X10427084Y48526944D01*
X10251254Y48762293D01*
X10032888Y48958817D01*
X9780378Y49108964D01*
X9503427Y49206963D01*
X9271400Y49086464D01*
X9271400Y47879000D01*
X9291400Y47879000D01*
X9291400Y47625000D01*
X9271400Y47625000D01*
X9271400Y47605000D01*
X9017400Y47605000D01*
X9017400Y47625000D01*
X9017400Y47879000D01*
X9017400Y49086464D01*
X8785373Y49206963D01*
X8508422Y49108964D01*
X8255912Y48958817D01*
X8037546Y48762293D01*
X7874400Y48543922D01*
X7711254Y48762293D01*
X7492888Y48958817D01*
X7240378Y49108964D01*
X6963427Y49206963D01*
X6731400Y49086464D01*
X6731400Y47879000D01*
X7810583Y47879000D01*
X7938217Y47879000D01*
X9017400Y47879000D01*
X9017400Y47625000D01*
X7938217Y47625000D01*
X7810583Y47625000D01*
X6731400Y47625000D01*
X6731400Y47605000D01*
X6477400Y47605000D01*
X6477400Y47625000D01*
X6457400Y47625000D01*
X6457400Y47879000D01*
X6477400Y47879000D01*
X6477400Y49086464D01*
X6245373Y49206963D01*
X5968422Y49108964D01*
X5715912Y48958817D01*
X5497546Y48762293D01*
X5321716Y48526944D01*
X5310843Y48504163D01*
X5310843Y48615600D01*
X5305818Y48677426D01*
X5273736Y48780025D01*
X5214396Y48869660D01*
X5132475Y48939265D01*
X5034433Y48983351D01*
X4928000Y48998443D01*
X3200800Y48998443D01*
X3138974Y48993418D01*
X3036375Y48961336D01*
X2946740Y48901996D01*
X2877135Y48820075D01*
X2833049Y48722033D01*
X2817957Y48615600D01*
X2817957Y46888400D01*
X2822982Y46826574D01*
X2855064Y46723975D01*
X2914404Y46634340D01*
X2996325Y46564735D01*
X3094367Y46520649D01*
X3200800Y46505557D01*
X4928000Y46505557D01*
X4989826Y46510582D01*
X5092425Y46542664D01*
X5182060Y46602004D01*
X5251665Y46683925D01*
X5295751Y46781967D01*
X5310843Y46888400D01*
X5310843Y46999838D01*
X5321716Y46977056D01*
X5497546Y46741707D01*
X5715912Y46545183D01*
X5968422Y46395036D01*
X6098419Y46349037D01*
X5909627Y46248654D01*
X5721390Y46095132D01*
X5566558Y45907971D01*
X5451027Y45694302D01*
X5379199Y45462262D01*
X5353808Y45220689D01*
X5375823Y44978785D01*
X5444405Y44745765D01*
X5556941Y44530503D01*
X5709145Y44341199D01*
X5895220Y44185064D01*
X6108078Y44068044D01*
X6339611Y43994597D01*
X6581001Y43967521D01*
X6598378Y43967400D01*
X6610422Y43967400D01*
X6852166Y43991103D01*
X7084702Y44061310D01*
X7299173Y44175346D01*
X7487410Y44328868D01*
X7642242Y44516029D01*
X7757773Y44729698D01*
X7829601Y44961738D01*
X7854992Y45203311D01*
X7832977Y45445215D01*
X7764395Y45678235D01*
X7651859Y45893497D01*
X7499655Y46082801D01*
X7313580Y46238936D01*
X7112161Y46349667D01*
X7240378Y46395036D01*
X7492888Y46545183D01*
X7711254Y46741707D01*
X7874400Y46960079D01*
X8037546Y46741707D01*
X8255912Y46545183D01*
X8508422Y46395036D01*
X8638419Y46349037D01*
X8449627Y46248654D01*
X8261390Y46095132D01*
X8106558Y45907971D01*
X7991027Y45694302D01*
X7919199Y45462262D01*
X7893808Y45220689D01*
X7915823Y44978785D01*
X7984405Y44745765D01*
X8096941Y44530503D01*
X8249145Y44341199D01*
X8435220Y44185064D01*
X8648078Y44068044D01*
X8879611Y43994597D01*
X9121001Y43967521D01*
X9138378Y43967400D01*
X9150422Y43967400D01*
X9392166Y43991103D01*
X9587808Y44050172D01*
X11325189Y42312790D01*
X11361452Y42283004D01*
X11397397Y42252842D01*
X11399739Y42251555D01*
X11401802Y42249860D01*
X11443114Y42227709D01*
X11484278Y42205079D01*
X11486827Y42204271D01*
X11489178Y42203010D01*
X11534024Y42189299D01*
X11578781Y42175101D01*
X11581434Y42174804D01*
X11583990Y42174022D01*
X11630717Y42169276D01*
X11677307Y42164050D01*
X11682525Y42164014D01*
X11682626Y42164003D01*
X11682719Y42164012D01*
X11684400Y42164000D01*
X17704828Y42164000D01*
X17717495Y42150883D01*
X17827160Y42074664D01*
X17949541Y42021197D01*
X18079977Y41992519D01*
X18213498Y41989722D01*
X18345020Y42012913D01*
X18469533Y42061208D01*
X18582294Y42132768D01*
X18679008Y42224868D01*
X18755991Y42333998D01*
X18768495Y42362085D01*
X27245789Y33884791D01*
X27282027Y33855025D01*
X27317996Y33824843D01*
X27320338Y33823556D01*
X27322401Y33821861D01*
X27363748Y33799691D01*
X27404877Y33777080D01*
X27407422Y33776273D01*
X27409777Y33775010D01*
X27454669Y33761286D01*
X27499380Y33747102D01*
X27502033Y33746805D01*
X27504589Y33746023D01*
X27551311Y33741278D01*
X27597906Y33736051D01*
X27603125Y33736015D01*
X27603226Y33736004D01*
X27603319Y33736013D01*
X27604999Y33736001D01*
X33685201Y33736001D01*
X33731904Y33740581D01*
X33778649Y33744670D01*
X33781214Y33745416D01*
X33783872Y33745676D01*
X33828757Y33759228D01*
X33873856Y33772330D01*
X33876230Y33773561D01*
X33878785Y33774332D01*
X33920178Y33796341D01*
X33961878Y33817956D01*
X33963967Y33819624D01*
X33966324Y33820877D01*
X34002709Y33850553D01*
X34017237Y33862151D01*
X34037698Y33861722D01*
X34169220Y33884913D01*
X34293733Y33933208D01*
X34406494Y34004768D01*
X34503208Y34096868D01*
X34580191Y34205998D01*
X34634511Y34328003D01*
X34664099Y34458235D01*
X34666229Y34610775D01*
X34640289Y34741783D01*
X34589397Y34865257D01*
X34515491Y34976494D01*
X34421386Y35071258D01*
X34310667Y35145939D01*
X34187552Y35197692D01*
X34056728Y35224546D01*
X33923181Y35225479D01*
X33791995Y35200454D01*
X33668169Y35150425D01*
X33556418Y35077297D01*
X33461000Y34983856D01*
X33435774Y34947016D01*
X33421089Y35021183D01*
X33370197Y35144657D01*
X33296291Y35255894D01*
X33202186Y35350658D01*
X33091467Y35425339D01*
X32968352Y35477092D01*
X32837528Y35503946D01*
X32703981Y35504879D01*
X32572795Y35479854D01*
X32448969Y35429825D01*
X32337218Y35356697D01*
X32311385Y35331400D01*
X27774848Y35331400D01*
X19120752Y43985496D01*
X19281001Y43967521D01*
X19298378Y43967400D01*
X19310422Y43967400D01*
X19552166Y43991103D01*
X19784702Y44061310D01*
X19999173Y44175346D01*
X20066400Y44230175D01*
X20066400Y43941600D01*
X20070979Y43894897D01*
X20075069Y43848152D01*
X20075814Y43845587D01*
X20076075Y43842929D01*
X20089626Y43798044D01*
X20102729Y43752945D01*
X20103959Y43750571D01*
X20104731Y43748016D01*
X20126739Y43706623D01*
X20148355Y43664923D01*
X20150022Y43662834D01*
X20151276Y43660477D01*
X20180951Y43624092D01*
X20210210Y43587441D01*
X20213872Y43583727D01*
X20213938Y43583646D01*
X20214012Y43583585D01*
X20215190Y43582390D01*
X23638639Y40158941D01*
X23674877Y40129175D01*
X23710846Y40098993D01*
X23713188Y40097706D01*
X23715251Y40096011D01*
X23756598Y40073841D01*
X23797727Y40051230D01*
X23800272Y40050423D01*
X23802627Y40049160D01*
X23847519Y40035436D01*
X23892230Y40021252D01*
X23894883Y40020955D01*
X23897439Y40020173D01*
X23944161Y40015428D01*
X23990756Y40010201D01*
X23995975Y40010165D01*
X23996076Y40010154D01*
X23996169Y40010163D01*
X23997849Y40010151D01*
X27068379Y40010151D01*
X27081046Y39997034D01*
X27190711Y39920815D01*
X27313092Y39867348D01*
X27443528Y39838670D01*
X27577049Y39835873D01*
X27708571Y39859064D01*
X27833084Y39907359D01*
X27945845Y39978919D01*
X28042559Y40071019D01*
X28119542Y40180149D01*
X28173862Y40302154D01*
X28203450Y40432386D01*
X28205580Y40584926D01*
X28179640Y40715934D01*
X28128748Y40839408D01*
X28054842Y40950645D01*
X27960737Y41045409D01*
X27850018Y41120090D01*
X27726903Y41171843D01*
X27596079Y41198697D01*
X27462532Y41199630D01*
X27331346Y41174605D01*
X27207520Y41124576D01*
X27095769Y41051448D01*
X27069936Y41026151D01*
X24208268Y41026151D01*
X21082400Y44152020D01*
X21082400Y44229386D01*
X21135220Y44185064D01*
X21348078Y44068044D01*
X21579611Y43994597D01*
X21821001Y43967521D01*
X21838378Y43967400D01*
X21850422Y43967400D01*
X22092166Y43991103D01*
X22324702Y44061310D01*
X22539173Y44175346D01*
X22727410Y44328868D01*
X22882242Y44516029D01*
X22997773Y44729698D01*
X23069601Y44961738D01*
X23094992Y45203311D01*
X23072977Y45445215D01*
X23004395Y45678235D01*
X22891859Y45893497D01*
X22739655Y46082801D01*
X22553580Y46238936D01*
X22352161Y46349667D01*
X22480378Y46395036D01*
X22732888Y46545183D01*
X22951254Y46741707D01*
X23114400Y46960079D01*
X23277546Y46741707D01*
X23495912Y46545183D01*
X23748422Y46395036D01*
X23878419Y46349037D01*
X23689627Y46248654D01*
X23501390Y46095132D01*
X23346558Y45907971D01*
X23231027Y45694302D01*
X23159199Y45462262D01*
X23133808Y45220689D01*
X23155823Y44978785D01*
X23224405Y44745765D01*
X23336941Y44530503D01*
X23489145Y44341199D01*
X23675220Y44185064D01*
X23888078Y44068044D01*
X24119611Y43994597D01*
X24361001Y43967521D01*
X24378378Y43967400D01*
X24390422Y43967400D01*
X24632166Y43991103D01*
X24827808Y44050172D01*
X26057190Y42820790D01*
X26093428Y42791024D01*
X26129397Y42760842D01*
X26131739Y42759555D01*
X26133802Y42757860D01*
X26175149Y42735690D01*
X26216278Y42713079D01*
X26218823Y42712272D01*
X26221178Y42711009D01*
X26266070Y42697285D01*
X26310781Y42683101D01*
X26313434Y42682804D01*
X26315990Y42682022D01*
X26362712Y42677277D01*
X26409307Y42672050D01*
X26414526Y42672014D01*
X26414627Y42672003D01*
X26414720Y42672012D01*
X26416400Y42672000D01*
X32809580Y42672000D01*
X36134121Y39347459D01*
X36134121Y36492023D01*
X36138700Y36445320D01*
X36142790Y36398575D01*
X36143535Y36396010D01*
X36143796Y36393352D01*
X36157347Y36348467D01*
X36170450Y36303368D01*
X36171680Y36300994D01*
X36172452Y36298439D01*
X36194460Y36257046D01*
X36216076Y36215346D01*
X36217743Y36213257D01*
X36218997Y36210900D01*
X36248672Y36174515D01*
X36277931Y36137864D01*
X36281593Y36134150D01*
X36281659Y36134069D01*
X36281733Y36134008D01*
X36282911Y36132813D01*
X37316534Y35099190D01*
X37352772Y35069424D01*
X37388741Y35039242D01*
X37391083Y35037955D01*
X37393146Y35036260D01*
X37434474Y35014100D01*
X37475622Y34991479D01*
X37478169Y34990671D01*
X37480523Y34989409D01*
X37525400Y34975689D01*
X37570125Y34961501D01*
X37572778Y34961204D01*
X37575334Y34960422D01*
X37622056Y34955677D01*
X37640767Y34953578D01*
X37656503Y34937283D01*
X37766168Y34861064D01*
X37888549Y34807597D01*
X38018985Y34778919D01*
X38152506Y34776122D01*
X38284028Y34799313D01*
X38408541Y34847608D01*
X38521302Y34919168D01*
X38618016Y35011268D01*
X38694999Y35120398D01*
X38749319Y35242403D01*
X38778907Y35372635D01*
X38781037Y35525175D01*
X38755097Y35656183D01*
X38704205Y35779657D01*
X38630299Y35890894D01*
X38536194Y35985658D01*
X38425475Y36060339D01*
X38302360Y36112092D01*
X38171536Y36138946D01*
X38037989Y36139879D01*
X37906803Y36114854D01*
X37786368Y36066196D01*
X37406792Y36445772D01*
X37504655Y36483730D01*
X37617416Y36555290D01*
X37714130Y36647390D01*
X37791113Y36756520D01*
X37845433Y36878525D01*
X37875021Y37008757D01*
X37877151Y37161297D01*
X37851211Y37292305D01*
X37800319Y37415779D01*
X37726413Y37527016D01*
X37700784Y37552825D01*
X37699542Y37565486D01*
X37695453Y37612234D01*
X37694707Y37614800D01*
X37694447Y37617457D01*
X37680885Y37662376D01*
X37667792Y37707442D01*
X37666563Y37709813D01*
X37665791Y37712370D01*
X37643752Y37753820D01*
X37622166Y37795463D01*
X37620500Y37797549D01*
X37619246Y37799909D01*
X37589567Y37836299D01*
X37560312Y37872946D01*
X37556648Y37876662D01*
X37556584Y37876740D01*
X37556511Y37876801D01*
X37555332Y37877996D01*
X37531131Y37902197D01*
X37531131Y38183346D01*
X37545171Y38169306D01*
X37544886Y38148856D01*
X37568994Y38017499D01*
X37618158Y37893326D01*
X37690503Y37781068D01*
X37783276Y37684999D01*
X37892941Y37608780D01*
X38015322Y37555313D01*
X38145758Y37526635D01*
X38279279Y37523838D01*
X38410801Y37547029D01*
X38535314Y37595324D01*
X38648075Y37666884D01*
X38744789Y37758984D01*
X38821772Y37868114D01*
X38876092Y37990119D01*
X38905680Y38120351D01*
X38906672Y38191395D01*
X42786277Y34311790D01*
X42822515Y34282024D01*
X42858484Y34251842D01*
X42860826Y34250555D01*
X42862889Y34248860D01*
X42904217Y34226700D01*
X42945365Y34204079D01*
X42947912Y34203271D01*
X42950266Y34202009D01*
X42995143Y34188289D01*
X43039868Y34174101D01*
X43042521Y34173804D01*
X43045077Y34173022D01*
X43091799Y34168277D01*
X43138394Y34163050D01*
X43143613Y34163014D01*
X43143714Y34163003D01*
X43143807Y34163012D01*
X43145487Y34163000D01*
X47803828Y34163000D01*
X47816495Y34149883D01*
X47926160Y34073664D01*
X48048541Y34020197D01*
X48178977Y33991519D01*
X48312498Y33988722D01*
X48444020Y34011913D01*
X48568533Y34060208D01*
X48681294Y34131768D01*
X48778008Y34223868D01*
X48854991Y34332998D01*
X48909311Y34455003D01*
X48938899Y34585235D01*
X48941029Y34737775D01*
X48929104Y34798000D01*
X49065575Y34798000D01*
X49229390Y34634185D01*
X49229105Y34613736D01*
X49253213Y34482379D01*
X49302377Y34358206D01*
X49374722Y34245948D01*
X49467495Y34149879D01*
X49577160Y34073660D01*
X49699541Y34020193D01*
X49829977Y33991515D01*
X49963498Y33988718D01*
X50095020Y34011909D01*
X50219533Y34060204D01*
X50332294Y34131764D01*
X50429008Y34223864D01*
X50505991Y34332994D01*
X50560311Y34454999D01*
X50589899Y34585231D01*
X50592029Y34737771D01*
X50566089Y34868779D01*
X50515197Y34992253D01*
X50441291Y35103490D01*
X50347186Y35198254D01*
X50236467Y35272935D01*
X50113352Y35324688D01*
X49982528Y35351542D01*
X49948638Y35351779D01*
X49635206Y35665210D01*
X49598967Y35694977D01*
X49562999Y35725158D01*
X49560656Y35726446D01*
X49558594Y35728140D01*
X49517246Y35750311D01*
X49476118Y35772921D01*
X49473572Y35773729D01*
X49471218Y35774991D01*
X49426325Y35788716D01*
X49381615Y35802899D01*
X49378961Y35803197D01*
X49376406Y35803978D01*
X49329683Y35808724D01*
X49283089Y35813950D01*
X49277869Y35813987D01*
X49277769Y35813997D01*
X49277675Y35813989D01*
X49275996Y35814000D01*
X43439506Y35814000D01*
X40895763Y38357743D01*
X40948527Y38378208D01*
X41061288Y38449768D01*
X41158002Y38541868D01*
X41234985Y38650998D01*
X41289305Y38773003D01*
X41318893Y38903235D01*
X41320745Y39035921D01*
X42615876Y37740790D01*
X42652114Y37711024D01*
X42688083Y37680842D01*
X42690425Y37679555D01*
X42692488Y37677860D01*
X42733835Y37655690D01*
X42774964Y37633079D01*
X42777509Y37632272D01*
X42779864Y37631009D01*
X42824756Y37617285D01*
X42869467Y37603101D01*
X42872120Y37602804D01*
X42874676Y37602022D01*
X42921398Y37597277D01*
X42967993Y37592050D01*
X42973212Y37592014D01*
X42973313Y37592003D01*
X42973406Y37592012D01*
X42975086Y37592000D01*
X47954231Y37592000D01*
X48048541Y37550797D01*
X48178977Y37522119D01*
X48312498Y37519322D01*
X48444020Y37542513D01*
X48568533Y37590808D01*
X48681294Y37662368D01*
X48778008Y37754468D01*
X48854991Y37863598D01*
X48909311Y37985603D01*
X48938899Y38115835D01*
X48941029Y38268375D01*
X48915089Y38399383D01*
X48864197Y38522857D01*
X48790291Y38634094D01*
X48696186Y38728858D01*
X48585467Y38803539D01*
X48462352Y38855292D01*
X48331528Y38882146D01*
X48197981Y38883079D01*
X48066795Y38858054D01*
X47942969Y38808025D01*
X47911796Y38787627D01*
X47899089Y38851803D01*
X47848197Y38975277D01*
X47774291Y39086514D01*
X47752000Y39108962D01*
X47752000Y41021000D01*
X47747420Y41067700D01*
X47743331Y41114448D01*
X47742585Y41117014D01*
X47742325Y41119671D01*
X47728763Y41164590D01*
X47715670Y41209656D01*
X47714441Y41212027D01*
X47713669Y41214584D01*
X47691630Y41256034D01*
X47670044Y41297677D01*
X47668378Y41299763D01*
X47667124Y41302123D01*
X47637445Y41338513D01*
X47608190Y41375160D01*
X47604526Y41378876D01*
X47604462Y41378954D01*
X47604389Y41379015D01*
X47603210Y41380210D01*
X46057420Y42926000D01*
X48133323Y42926000D01*
X52937525Y38121798D01*
X52973788Y38092012D01*
X53009733Y38061850D01*
X53012075Y38060563D01*
X53014138Y38058868D01*
X53055450Y38036717D01*
X53096614Y38014087D01*
X53099163Y38013279D01*
X53101514Y38012018D01*
X53146360Y37998307D01*
X53191117Y37984109D01*
X53193770Y37983812D01*
X53196326Y37983030D01*
X53243008Y37978289D01*
X53261759Y37976186D01*
X53277495Y37959891D01*
X53387160Y37883672D01*
X53509541Y37830205D01*
X53639977Y37801527D01*
X53773498Y37798730D01*
X53905020Y37821921D01*
X54029533Y37870216D01*
X54142294Y37941776D01*
X54239008Y38033876D01*
X54315991Y38143006D01*
X54370311Y38265011D01*
X54399899Y38395243D01*
X54402029Y38547783D01*
X54376089Y38678791D01*
X54325197Y38802265D01*
X54251291Y38913502D01*
X54157186Y39008266D01*
X54046467Y39082947D01*
X53923352Y39134700D01*
X53792528Y39161554D01*
X53658981Y39162487D01*
X53527795Y39137462D01*
X53407361Y39088804D01*
X49570164Y42926000D01*
X51790916Y42926000D01*
X55604526Y39112390D01*
X55640764Y39082624D01*
X55676733Y39052442D01*
X55679075Y39051155D01*
X55681138Y39049460D01*
X55722466Y39027300D01*
X55763614Y39004679D01*
X55766161Y39003871D01*
X55768515Y39002609D01*
X55813392Y38988889D01*
X55858117Y38974701D01*
X55860770Y38974404D01*
X55863326Y38973622D01*
X55910048Y38968877D01*
X55928759Y38966778D01*
X55944495Y38950483D01*
X56054160Y38874264D01*
X56176541Y38820797D01*
X56306977Y38792119D01*
X56440498Y38789322D01*
X56572020Y38812513D01*
X56696533Y38860808D01*
X56809294Y38932368D01*
X56906008Y39024468D01*
X56982991Y39133598D01*
X57037311Y39255603D01*
X57066899Y39385835D01*
X57069029Y39538375D01*
X57043089Y39669383D01*
X56992197Y39792857D01*
X56918291Y39904094D01*
X56824186Y39998858D01*
X56713467Y40073539D01*
X56590352Y40125292D01*
X56459528Y40152146D01*
X56325981Y40153079D01*
X56194795Y40128054D01*
X56074360Y40079396D01*
X55564556Y40589200D01*
X55931828Y40589200D01*
X55944495Y40576083D01*
X56054160Y40499864D01*
X56176541Y40446397D01*
X56306977Y40417719D01*
X56440498Y40414922D01*
X56572020Y40438113D01*
X56696533Y40486408D01*
X56809294Y40557968D01*
X56906008Y40650068D01*
X56982991Y40759198D01*
X57028989Y40862513D01*
X60196711Y37694791D01*
X60232949Y37665025D01*
X60268918Y37634843D01*
X60271260Y37633556D01*
X60273323Y37631861D01*
X60314651Y37609701D01*
X60355799Y37587080D01*
X60358346Y37586272D01*
X60360700Y37585010D01*
X60405577Y37571290D01*
X60450302Y37557102D01*
X60452955Y37556805D01*
X60455511Y37556023D01*
X60502233Y37551278D01*
X60548828Y37546051D01*
X60554047Y37546015D01*
X60554148Y37546004D01*
X60554241Y37546013D01*
X60555921Y37546001D01*
X63758801Y37546001D01*
X63805504Y37550581D01*
X63852249Y37554670D01*
X63854814Y37555416D01*
X63857472Y37555676D01*
X63902357Y37569228D01*
X63947456Y37582330D01*
X63949830Y37583561D01*
X63952385Y37584332D01*
X63993778Y37606341D01*
X64035478Y37627956D01*
X64037567Y37629624D01*
X64039924Y37630877D01*
X64076309Y37660553D01*
X64090837Y37672151D01*
X64111298Y37671722D01*
X64242820Y37694913D01*
X64367333Y37743208D01*
X64480094Y37814768D01*
X64576808Y37906868D01*
X64653791Y38015998D01*
X64708111Y38138003D01*
X64737699Y38268235D01*
X64739829Y38420775D01*
X64713889Y38551783D01*
X64662997Y38675257D01*
X64589091Y38786494D01*
X64494986Y38881258D01*
X64384267Y38955939D01*
X64261152Y39007692D01*
X64130328Y39034546D01*
X63996781Y39035479D01*
X63865595Y39010454D01*
X63741769Y38960425D01*
X63630018Y38887297D01*
X63534600Y38793856D01*
X63459148Y38683662D01*
X63407003Y38562001D01*
X61816505Y38562001D01*
X61842095Y38674635D01*
X61844225Y38827175D01*
X61818285Y38958183D01*
X61767393Y39081657D01*
X61693487Y39192894D01*
X61599382Y39287658D01*
X61488663Y39362339D01*
X61391736Y39403084D01*
X56028965Y44765855D01*
X56089601Y44961738D01*
X56114992Y45203311D01*
X56092977Y45445215D01*
X56024395Y45678235D01*
X55911859Y45893497D01*
X55759655Y46082801D01*
X55573580Y46238936D01*
X55372161Y46349667D01*
X55500378Y46395036D01*
X55752888Y46545183D01*
X55971254Y46741707D01*
X56134400Y46960079D01*
X56297546Y46741707D01*
X56515912Y46545183D01*
X56768422Y46395036D01*
X56898419Y46349037D01*
X56709627Y46248654D01*
X56521390Y46095132D01*
X56366558Y45907971D01*
X56251027Y45694302D01*
X56179199Y45462262D01*
X56153808Y45220689D01*
X56175823Y44978785D01*
X56244405Y44745765D01*
X56356941Y44530503D01*
X56509145Y44341199D01*
X56695220Y44185064D01*
X56908078Y44068044D01*
X57139611Y43994597D01*
X57381001Y43967521D01*
X57398378Y43967400D01*
X57410422Y43967400D01*
X57652166Y43991103D01*
X57847808Y44050172D01*
X58823200Y43074780D01*
X58859438Y43045014D01*
X58895407Y43014832D01*
X58897749Y43013545D01*
X58899812Y43011850D01*
X58941140Y42989690D01*
X58982288Y42967069D01*
X58984835Y42966261D01*
X58987189Y42964999D01*
X59032066Y42951279D01*
X59076791Y42937091D01*
X59079444Y42936794D01*
X59082000Y42936012D01*
X59128722Y42931267D01*
X59175317Y42926040D01*
X59180536Y42926004D01*
X59180637Y42925993D01*
X59180730Y42926002D01*
X59182410Y42925990D01*
X62781590Y42925990D01*
X66802000Y38905580D01*
X66802000Y38809721D01*
X66785800Y38793856D01*
X66710348Y38683662D01*
X66657736Y38560910D01*
X66629970Y38430278D01*
X66628105Y38296740D01*
X66652213Y38165383D01*
X66701377Y38041210D01*
X66773722Y37928952D01*
X66866495Y37832883D01*
X66976160Y37756664D01*
X67098541Y37703197D01*
X67228977Y37674519D01*
X67362498Y37671722D01*
X67494020Y37694913D01*
X67618533Y37743208D01*
X67731294Y37814768D01*
X67828008Y37906868D01*
X67904991Y38015998D01*
X67945412Y38106788D01*
X67971377Y38041210D01*
X68043722Y37928952D01*
X68136495Y37832883D01*
X68246160Y37756664D01*
X68368541Y37703197D01*
X68498977Y37674519D01*
X68632498Y37671722D01*
X68764020Y37694913D01*
X68888533Y37743208D01*
X69001294Y37814768D01*
X69098008Y37906868D01*
X69151806Y37983132D01*
X69186722Y37928952D01*
X69279495Y37832883D01*
X69389160Y37756664D01*
X69511541Y37703197D01*
X69641977Y37674519D01*
X69775498Y37671722D01*
X69907020Y37694913D01*
X70031533Y37743208D01*
X70144294Y37814768D01*
X70241008Y37906868D01*
X70317991Y38015998D01*
X70372311Y38138003D01*
X70396720Y38245441D01*
X70411413Y38165383D01*
X70460577Y38041210D01*
X70532922Y37928952D01*
X70625695Y37832883D01*
X70735360Y37756664D01*
X70857741Y37703197D01*
X70988177Y37674519D01*
X71121698Y37671722D01*
X71253220Y37694913D01*
X71377733Y37743208D01*
X71490494Y37814768D01*
X71587208Y37906868D01*
X71664191Y38015998D01*
X71718511Y38138003D01*
X71728868Y38183594D01*
X71732211Y38165383D01*
X71781375Y38041210D01*
X71853720Y37928952D01*
X71946493Y37832883D01*
X72056158Y37756664D01*
X72178539Y37703197D01*
X72308975Y37674519D01*
X72442496Y37671722D01*
X72574018Y37694913D01*
X72698531Y37743208D01*
X72811292Y37814768D01*
X72908006Y37906868D01*
X72961805Y37983133D01*
X72996722Y37928952D01*
X73089495Y37832883D01*
X73199160Y37756664D01*
X73321541Y37703197D01*
X73451977Y37674519D01*
X73585498Y37671722D01*
X73717020Y37694913D01*
X73841533Y37743208D01*
X73954294Y37814768D01*
X74051008Y37906868D01*
X74127991Y38015998D01*
X74154968Y38076591D01*
X74168977Y38041210D01*
X74241322Y37928952D01*
X74334095Y37832883D01*
X74443760Y37756664D01*
X74566141Y37703197D01*
X74696577Y37674519D01*
X74830098Y37671722D01*
X74961620Y37694913D01*
X75086133Y37743208D01*
X75198894Y37814768D01*
X75295608Y37906868D01*
X75372591Y38015998D01*
X75426911Y38138003D01*
X75456499Y38268235D01*
X75458629Y38420775D01*
X75432689Y38551783D01*
X75381797Y38675257D01*
X75307891Y38786494D01*
X75285600Y38808942D01*
X75285600Y43078800D01*
X75281020Y43125500D01*
X75276931Y43172248D01*
X75276185Y43174814D01*
X75275925Y43177471D01*
X75262363Y43222390D01*
X75249270Y43267456D01*
X75248041Y43269827D01*
X75247269Y43272384D01*
X75225230Y43313834D01*
X75203644Y43355477D01*
X75201978Y43357563D01*
X75200724Y43359923D01*
X75171045Y43396313D01*
X75141790Y43432960D01*
X75138122Y43436680D01*
X75138062Y43436754D01*
X75137993Y43436811D01*
X75136810Y43438011D01*
X73808965Y44765855D01*
X73869601Y44961738D01*
X73894992Y45203311D01*
X73872977Y45445215D01*
X73804395Y45678235D01*
X73691859Y45893497D01*
X73539655Y46082801D01*
X73353580Y46238936D01*
X73152161Y46349667D01*
X73280378Y46395036D01*
X73532888Y46545183D01*
X73751254Y46741707D01*
X73914400Y46960079D01*
X74077546Y46741707D01*
X74295912Y46545183D01*
X74548422Y46395036D01*
X74678419Y46349037D01*
X74489627Y46248654D01*
X74301390Y46095132D01*
X74146558Y45907971D01*
X74031027Y45694302D01*
X73959199Y45462262D01*
X73933808Y45220689D01*
X73955823Y44978785D01*
X74024405Y44745765D01*
X74136941Y44530503D01*
X74289145Y44341199D01*
X74475220Y44185064D01*
X74688078Y44068044D01*
X74919611Y43994597D01*
X75161001Y43967521D01*
X75178378Y43967400D01*
X75190422Y43967400D01*
X75432166Y43991103D01*
X75627808Y44050172D01*
X75692000Y43985980D01*
X75692000Y38809717D01*
X75675800Y38793852D01*
X75600348Y38683658D01*
X75547736Y38560906D01*
X75519970Y38430274D01*
X75518105Y38296736D01*
X75542213Y38165379D01*
X75591377Y38041206D01*
X75663722Y37928948D01*
X75756495Y37832879D01*
X75866160Y37756660D01*
X75988541Y37703193D01*
X76118977Y37674515D01*
X76252498Y37671718D01*
X76384020Y37694909D01*
X76508533Y37743204D01*
X76621294Y37814764D01*
X76718008Y37906864D01*
X76794991Y38015994D01*
X76849311Y38137999D01*
X76878899Y38268231D01*
X76881029Y38420771D01*
X76855089Y38551779D01*
X76804197Y38675253D01*
X76730291Y38786490D01*
X76708000Y38808938D01*
X76708000Y44196400D01*
X76703420Y44243100D01*
X76699331Y44289848D01*
X76698585Y44292414D01*
X76698325Y44295071D01*
X76684763Y44339990D01*
X76671670Y44385056D01*
X76670441Y44387427D01*
X76669669Y44389984D01*
X76647630Y44431434D01*
X76626044Y44473077D01*
X76624378Y44475163D01*
X76623124Y44477523D01*
X76593445Y44513913D01*
X76564190Y44550560D01*
X76560526Y44554276D01*
X76560462Y44554354D01*
X76560389Y44554415D01*
X76559210Y44555610D01*
X76348965Y44765855D01*
X76409601Y44961738D01*
X76434992Y45203311D01*
X76412977Y45445215D01*
X76344395Y45678235D01*
X76231859Y45893497D01*
X76079655Y46082801D01*
X75893580Y46238936D01*
X75692161Y46349667D01*
X75820378Y46395036D01*
X76072888Y46545183D01*
X76291254Y46741707D01*
X76467084Y46977056D01*
X76593622Y47242186D01*
X76639358Y47392974D01*
X76639358Y48111026D01*
X76593622Y48261814D01*
X76467084Y48526944D01*
X76291254Y48762293D01*
X76072888Y48958817D01*
X75820378Y49108964D01*
X75543427Y49206963D01*
X75311400Y49086464D01*
X75311400Y47879000D01*
X76518217Y47879000D01*
X76639358Y48111026D01*
X76639358Y47392974D01*
X76518217Y47625000D01*
X75311400Y47625000D01*
X75311400Y47605000D01*
X75057400Y47605000D01*
X75057400Y47625000D01*
X75057400Y47879000D01*
X75057400Y49086464D01*
X74825373Y49206963D01*
X74548422Y49108964D01*
X74295912Y48958817D01*
X74077546Y48762293D01*
X73914400Y48543922D01*
X73751254Y48762293D01*
X73532888Y48958817D01*
X73280378Y49108964D01*
X73003427Y49206963D01*
X72771400Y49086464D01*
X72771400Y47879000D01*
X73850583Y47879000D01*
X73978217Y47879000D01*
X75057400Y47879000D01*
X75057400Y47625000D01*
X73978217Y47625000D01*
X73850583Y47625000D01*
X72771400Y47625000D01*
X72771400Y47605000D01*
X72517400Y47605000D01*
X72517400Y47625000D01*
X72517400Y47879000D01*
X72517400Y49086464D01*
X72285373Y49206963D01*
X72008422Y49108964D01*
X71755912Y48958817D01*
X71537546Y48762293D01*
X71374400Y48543922D01*
X71211254Y48762293D01*
X70992888Y48958817D01*
X70740378Y49108964D01*
X70463427Y49206963D01*
X70231400Y49086464D01*
X70231400Y47879000D01*
X71310583Y47879000D01*
X71438217Y47879000D01*
X72517400Y47879000D01*
X72517400Y47625000D01*
X71438217Y47625000D01*
X71310583Y47625000D01*
X70231400Y47625000D01*
X70231400Y47605000D01*
X69977400Y47605000D01*
X69977400Y47625000D01*
X69977400Y47879000D01*
X69977400Y49086464D01*
X69745373Y49206963D01*
X69468422Y49108964D01*
X69215912Y48958817D01*
X68997546Y48762293D01*
X68834400Y48543922D01*
X68671254Y48762293D01*
X68452888Y48958817D01*
X68200378Y49108964D01*
X67923427Y49206963D01*
X67691400Y49086464D01*
X67691400Y47879000D01*
X68770583Y47879000D01*
X68898217Y47879000D01*
X69977400Y47879000D01*
X69977400Y47625000D01*
X68898217Y47625000D01*
X68770583Y47625000D01*
X67691400Y47625000D01*
X67691400Y47605000D01*
X67437400Y47605000D01*
X67437400Y47625000D01*
X67437400Y47879000D01*
X67437400Y49086464D01*
X67205373Y49206963D01*
X66928422Y49108964D01*
X66675912Y48958817D01*
X66457546Y48762293D01*
X66294400Y48543922D01*
X66131254Y48762293D01*
X65912888Y48958817D01*
X65660378Y49108964D01*
X65383427Y49206963D01*
X65151400Y49086464D01*
X65151400Y47879000D01*
X66230583Y47879000D01*
X66358217Y47879000D01*
X67437400Y47879000D01*
X67437400Y47625000D01*
X66358217Y47625000D01*
X66230583Y47625000D01*
X65151400Y47625000D01*
X65151400Y47605000D01*
X64897400Y47605000D01*
X64897400Y47625000D01*
X64897400Y47879000D01*
X64897400Y49086464D01*
X64665373Y49206963D01*
X64388422Y49108964D01*
X64135912Y48958817D01*
X63917546Y48762293D01*
X63754400Y48543922D01*
X63591254Y48762293D01*
X63372888Y48958817D01*
X63120378Y49108964D01*
X62843427Y49206963D01*
X62611400Y49086464D01*
X62611400Y47879000D01*
X63690583Y47879000D01*
X63818217Y47879000D01*
X64897400Y47879000D01*
X64897400Y47625000D01*
X63818217Y47625000D01*
X63690583Y47625000D01*
X62611400Y47625000D01*
X62611400Y47605000D01*
X62357400Y47605000D01*
X62357400Y47625000D01*
X62357400Y47879000D01*
X62357400Y49086464D01*
X62125373Y49206963D01*
X61848422Y49108964D01*
X61595912Y48958817D01*
X61377546Y48762293D01*
X61214400Y48543922D01*
X61051254Y48762293D01*
X60832888Y48958817D01*
X60580378Y49108964D01*
X60303427Y49206963D01*
X60071400Y49086464D01*
X60071400Y47879000D01*
X61150583Y47879000D01*
X61278217Y47879000D01*
X62357400Y47879000D01*
X62357400Y47625000D01*
X61278217Y47625000D01*
X61150583Y47625000D01*
X60071400Y47625000D01*
X60071400Y47605000D01*
X59817400Y47605000D01*
X59817400Y47625000D01*
X59817400Y47879000D01*
X59817400Y49086464D01*
X59585373Y49206963D01*
X59308422Y49108964D01*
X59055912Y48958817D01*
X58837546Y48762293D01*
X58674400Y48543922D01*
X58511254Y48762293D01*
X58292888Y48958817D01*
X58040378Y49108964D01*
X57763427Y49206963D01*
X57531400Y49086464D01*
X57531400Y47879000D01*
X58610583Y47879000D01*
X58738217Y47879000D01*
X59817400Y47879000D01*
X59817400Y47625000D01*
X58738217Y47625000D01*
X58610583Y47625000D01*
X57531400Y47625000D01*
X57531400Y47605000D01*
X57277400Y47605000D01*
X57277400Y47625000D01*
X57277400Y47879000D01*
X57277400Y49086464D01*
X57045373Y49206963D01*
X56768422Y49108964D01*
X56515912Y48958817D01*
X56297546Y48762293D01*
X56134400Y48543922D01*
X55971254Y48762293D01*
X55752888Y48958817D01*
X55500378Y49108964D01*
X55223427Y49206963D01*
X54991400Y49086464D01*
X54991400Y47879000D01*
X56070583Y47879000D01*
X56198217Y47879000D01*
X57277400Y47879000D01*
X57277400Y47625000D01*
X56198217Y47625000D01*
X56070583Y47625000D01*
X54991400Y47625000D01*
X54991400Y47605000D01*
X54737400Y47605000D01*
X54737400Y47625000D01*
X54737400Y47879000D01*
X54737400Y49086464D01*
X54505373Y49206963D01*
X54228422Y49108964D01*
X53975912Y48958817D01*
X53757546Y48762293D01*
X53594400Y48543922D01*
X53431254Y48762293D01*
X53212888Y48958817D01*
X52960378Y49108964D01*
X52683427Y49206963D01*
X52451400Y49086464D01*
X52451400Y47879000D01*
X53530583Y47879000D01*
X53658217Y47879000D01*
X54737400Y47879000D01*
X54737400Y47625000D01*
X53658217Y47625000D01*
X53530583Y47625000D01*
X52451400Y47625000D01*
X52451400Y47605000D01*
X52197400Y47605000D01*
X52197400Y47625000D01*
X52197400Y47879000D01*
X52197400Y49086464D01*
X51965373Y49206963D01*
X51688422Y49108964D01*
X51435912Y48958817D01*
X51217546Y48762293D01*
X51054400Y48543922D01*
X50891254Y48762293D01*
X50672888Y48958817D01*
X50420378Y49108964D01*
X50143427Y49206963D01*
X49911400Y49086464D01*
X49911400Y47879000D01*
X50990583Y47879000D01*
X51118217Y47879000D01*
X52197400Y47879000D01*
X52197400Y47625000D01*
X51118217Y47625000D01*
X50990583Y47625000D01*
X49911400Y47625000D01*
X49911400Y47605000D01*
X49657400Y47605000D01*
X49657400Y47625000D01*
X49657400Y47879000D01*
X49657400Y49086464D01*
X49425373Y49206963D01*
X49148422Y49108964D01*
X48895912Y48958817D01*
X48718864Y48799479D01*
X48718597Y48800823D01*
X48670730Y48916385D01*
X48601237Y49020389D01*
X48512789Y49108837D01*
X48408785Y49178330D01*
X48293223Y49226197D01*
X48170542Y49250600D01*
X47530150Y49250600D01*
X47371400Y49091850D01*
X47371400Y47879000D01*
X48450583Y47879000D01*
X48584250Y47879000D01*
X49657400Y47879000D01*
X49657400Y47625000D01*
X48584250Y47625000D01*
X48450583Y47625000D01*
X47371400Y47625000D01*
X47371400Y47605000D01*
X47117400Y47605000D01*
X47117400Y47625000D01*
X47117400Y47879000D01*
X47117400Y49091850D01*
X46958650Y49250600D01*
X46318258Y49250600D01*
X46195577Y49226197D01*
X46080015Y49178330D01*
X45976011Y49108837D01*
X45887563Y49020389D01*
X45818070Y48916385D01*
X45770203Y48800823D01*
X45745800Y48678142D01*
X45745800Y48553058D01*
X45745800Y48037750D01*
X45904550Y47879000D01*
X47117400Y47879000D01*
X47117400Y47625000D01*
X45904550Y47625000D01*
X45745800Y47466250D01*
X45745800Y46950942D01*
X45745800Y46825858D01*
X45770203Y46703177D01*
X45818070Y46587615D01*
X45887563Y46483611D01*
X45976011Y46395163D01*
X46080015Y46325670D01*
X46195577Y46277803D01*
X46318258Y46253400D01*
X46558552Y46253400D01*
X46549627Y46248654D01*
X46361390Y46095132D01*
X46206558Y45907971D01*
X46091027Y45694302D01*
X46019199Y45462262D01*
X45993808Y45220689D01*
X46015823Y44978785D01*
X46084405Y44745765D01*
X46196941Y44530503D01*
X46349145Y44341199D01*
X46535220Y44185064D01*
X46748078Y44068044D01*
X46979611Y43994597D01*
X47221001Y43967521D01*
X47238378Y43967400D01*
X47250422Y43967400D01*
X47492166Y43991103D01*
X47687808Y44050172D01*
X47795979Y43942000D01*
X45580249Y43942000D01*
X43951039Y45571210D01*
X43914800Y45600977D01*
X43878832Y45631158D01*
X43876489Y45632446D01*
X43874427Y45634140D01*
X43833079Y45656311D01*
X43791951Y45678921D01*
X43789405Y45679729D01*
X43787051Y45680991D01*
X43742158Y45694716D01*
X43697448Y45708899D01*
X43694794Y45709197D01*
X43692239Y45709978D01*
X43645516Y45714724D01*
X43598922Y45719950D01*
X43593702Y45719987D01*
X43593602Y45719997D01*
X43593508Y45719989D01*
X43591829Y45720000D01*
X43302560Y45720000D01*
X43211859Y45893497D01*
X43059655Y46082801D01*
X42873580Y46238936D01*
X42672161Y46349667D01*
X42800378Y46395036D01*
X43052888Y46545183D01*
X43271254Y46741707D01*
X43447084Y46977056D01*
X43573622Y47242186D01*
X43619358Y47392974D01*
X43619358Y48111026D01*
X43573622Y48261814D01*
X43447084Y48526944D01*
X43271254Y48762293D01*
X43052888Y48958817D01*
X42800378Y49108964D01*
X42523427Y49206963D01*
X42291400Y49086464D01*
X42291400Y47879000D01*
X43498217Y47879000D01*
X43619358Y48111026D01*
X43619358Y47392974D01*
X43498217Y47625000D01*
X42291400Y47625000D01*
X42291400Y47605000D01*
X42037400Y47605000D01*
X42037400Y47625000D01*
X42037400Y47879000D01*
X42037400Y49086464D01*
X41805373Y49206963D01*
X41528422Y49108964D01*
X41275912Y48958817D01*
X41057546Y48762293D01*
X40894400Y48543922D01*
X40731254Y48762293D01*
X40512888Y48958817D01*
X40260378Y49108964D01*
X39983427Y49206963D01*
X39751400Y49086464D01*
X39751400Y47879000D01*
X40830583Y47879000D01*
X40958217Y47879000D01*
X42037400Y47879000D01*
X42037400Y47625000D01*
X40958217Y47625000D01*
X40830583Y47625000D01*
X39751400Y47625000D01*
X39751400Y47605000D01*
X39497400Y47605000D01*
X39497400Y47625000D01*
X39497400Y47879000D01*
X39497400Y49086464D01*
X39265373Y49206963D01*
X38988422Y49108964D01*
X38735912Y48958817D01*
X38517546Y48762293D01*
X38354400Y48543922D01*
X38191254Y48762293D01*
X37972888Y48958817D01*
X37720378Y49108964D01*
X37443427Y49206963D01*
X37211400Y49086464D01*
X37211400Y47879000D01*
X38290583Y47879000D01*
X38418217Y47879000D01*
X39497400Y47879000D01*
X39497400Y47625000D01*
X38418217Y47625000D01*
X38290583Y47625000D01*
X37211400Y47625000D01*
X37211400Y47605000D01*
X36957400Y47605000D01*
X36957400Y47625000D01*
X36937400Y47625000D01*
X36937400Y47879000D01*
X36957400Y47879000D01*
X36957400Y49086464D01*
X36725373Y49206963D01*
X36448422Y49108964D01*
X36255615Y48994318D01*
X36240045Y49024357D01*
X36238376Y49026447D01*
X36237124Y49028803D01*
X36207473Y49065159D01*
X36178191Y49101839D01*
X36174526Y49105556D01*
X36174462Y49105634D01*
X36174389Y49105695D01*
X36173210Y49106890D01*
X35952100Y49328000D01*
X56896000Y49328000D01*
X77724000Y49328000D01*
X78792000Y49328000D01*
X78792000Y48260000D01*
X78792000Y35560000D01*
X78792000Y456000D01*
M02*
